*
G04 Mass Parameters ***
*
G04 Image ***
*
%INC:\DOCUMENTS AND SETTINGS\LUIS V\DESKTOP\ODESK\CENTERUS\AVALON2\BCMINER V2-1.AST*%
%ICAS*%
%MOIN*%
%IPPOS*%
%ASAXBY*%
G74*%FSLAN2X34Y34*%
*
G04 Aperture Definitions ***
*
%ADD10R,0.1023X0.0945*%
%ADD11R,0.0315X0.0354*%
%ADD12R,0.0669X0.0433*%
%ADD13R,0.0787X0.1378*%
%ADD14R,0.1023X0.0433*%
%ADD15R,0.0551X0.0433*%
%ADD16R,0.0354X0.0315*%
%ADD17R,0.0945X0.1023*%
%ADD18R,0.0433X0.1023*%
%ADD19R,0.0433X0.0551*%
%ADD20R,0.0433X0.0669*%
%ADD21R,0.0197X0.0236*%
%ADD22R,0.0236X0.0197*%
%ADD23R,0.0630X0.0708*%
%ADD24R,0.0866X0.0500*%
%ADD25C,0.1575*%
%ADD26R,0.0500X0.0866*%
%ADD27R,0.1949X0.1161*%
%ADD28R,0.0236X0.0236*%
%ADD29C,0.0394*%
%ADD30C,0.2362*%
%ADD31C,0.0236*%
%ADD32R,0.0275X0.0453*%
%ADD33R,0.0453X0.0275*%
%ADD34R,0.0354X0.0275*%
%ADD35R,0.0275X0.0354*%
%ADD36C,0.0300*%
%ADD37C,0.0590*%
%ADD38C,0.0100*%
%ADD39C,0.0110*%
%ADD40R,0.0334X0.0110*%
%ADD41R,0.0925X0.0630*%
%ADD42R,0.0098X0.0236*%
%ADD43R,0.2205X0.2205*%
%ADD44O,0.0110X0.0315*%
%ADD45O,0.0315X0.0110*%
%ADD46R,0.0256X0.0157*%
%ADD47R,0.0630X0.0787*%
%ADD48R,0.0236X0.0098*%
%ADD49R,0.1673X0.1673*%
%ADD50R,0.0146X0.0394*%
%ADD51R,0.0394X0.0146*%
%ADD52R,0.0118X0.0610*%
%ADD53R,0.0295X0.0098*%
%ADD54R,0.0354X0.0157*%
%ADD55R,0.0669X0.0590*%
%ADD56C,0.0200*%
%ADD57C,0.0010*%
%ADD58C,0.0080*%
%ADD59C,0.0020*%
%ADD60C,0.0100*%
%ADD61C,0.0110*%
%ADD62C,0.0200*%
%ADD63C,0.0250*%
%ADD64C,0.0300*%
%ADD65C,0.0200*%
%ADD66C,0.1575*%
%ADD67C,0.2362*%
%ADD68C,0.0200*%
%ADD69C,0.0200*%
%ADD70C,0.0200*%
%ADD71R,0.2205X0.2205*%
%ADD72C,0.0180*%
%ADD73R,0.1063X0.0984*%
%ADD74R,0.0394X0.0433*%
%ADD75R,0.0748X0.0512*%
%ADD76R,0.0866X0.1457*%
%ADD77R,0.1142X0.0512*%
%ADD78R,0.0630X0.0512*%
%ADD79R,0.0433X0.0394*%
%ADD80R,0.0984X0.1063*%
%ADD81R,0.0512X0.1142*%
%ADD82R,0.0512X0.0630*%
%ADD83R,0.0512X0.0748*%
%ADD84R,0.0275X0.0315*%
%ADD85R,0.0315X0.0275*%
%ADD86R,0.0649X0.0728*%
%ADD87R,0.0905X0.0539*%
%ADD88C,0.1614*%
%ADD89R,0.0539X0.0905*%
%ADD90R,0.1988X0.1201*%
%ADD91R,0.0315X0.0315*%
%ADD92C,0.0787*%
%ADD93C,0.2441*%
%ADD94R,0.0334X0.0512*%
%ADD95R,0.0512X0.0334*%
%ADD96R,0.0433X0.0354*%
%ADD97R,0.0354X0.0433*%
%ADD98C,0.0379*%
%ADD99C,0.0630*%
%ADD100C,0.0160*%
%ADD101R,0.0362X0.0138*%
%ADD102R,0.0964X0.0669*%
%ADD103R,0.0138X0.0275*%
%ADD104R,0.2264X0.2264*%
%ADD105O,0.0169X0.0374*%
%ADD106O,0.0374X0.0169*%
%ADD107R,0.0295X0.0197*%
%ADD108R,0.0669X0.0827*%
%ADD109R,0.0275X0.0138*%
%ADD110R,0.1732X0.1732*%
%ADD111R,0.0205X0.0453*%
%ADD112R,0.0453X0.0205*%
%ADD113R,0.0177X0.0669*%
%ADD114R,0.0315X0.0118*%
%ADD115R,0.0374X0.0177*%
%ADD116R,0.0748X0.0669*%
%ADD117R,0.1023X0.0945*%
%ADD118R,0.0315X0.0354*%
%ADD119R,0.0669X0.0433*%
%ADD120R,0.0787X0.1378*%
%ADD121R,0.1023X0.0433*%
%ADD122R,0.0551X0.0433*%
%ADD123R,0.0354X0.0315*%
%ADD124R,0.0945X0.1023*%
%ADD125R,0.0433X0.1023*%
%ADD126R,0.0433X0.0551*%
%ADD127R,0.0433X0.0669*%
%ADD128R,0.0197X0.0236*%
%ADD129R,0.0236X0.0197*%
%ADD130R,0.0630X0.0708*%
%ADD131R,0.0866X0.0500*%
%ADD132R,0.0500X0.0866*%
%ADD133R,0.1949X0.1161*%
%ADD134R,0.0236X0.0236*%
%ADD135R,0.0236X0.0413*%
%ADD136R,0.0413X0.0236*%
%ADD137R,0.0354X0.0275*%
%ADD138R,0.0275X0.0354*%
%ADD139C,0.0300*%
%ADD140C,0.0590*%
%ADD141C,0.0100*%
%ADD142R,0.0315X0.0090*%
%ADD143R,0.0925X0.0630*%
%ADD144R,0.0098X0.0236*%
%ADD145R,0.2165X0.2165*%
%ADD146O,0.0071X0.0275*%
%ADD147O,0.0275X0.0071*%
%ADD148R,0.0256X0.0157*%
%ADD149R,0.0630X0.0787*%
%ADD150R,0.0236X0.0098*%
%ADD151R,0.1673X0.1673*%
%ADD152R,0.0146X0.0394*%
%ADD153R,0.0394X0.0146*%
%ADD154R,0.0118X0.0610*%
%ADD155R,0.0295X0.0098*%
%ADD156R,0.0354X0.0157*%
%ADD157R,0.0669X0.0590*%
%ADD158C,0.0157*%
%ADD159C,0.0039*%
%ADD160C,0.0079*%
%ADD161C,0.0059*%
%ADD162C,0.0098*%
*
G04 Plot Data ***
*
G54D57*
G01X0010409Y0010364D02*
X0010291D01*
X0011826D02*
X0011708D01*
X0010291Y0010246D02*
Y0010364D01*
Y0010482D01*
Y0010364D02*
X0010173D01*
X0010645Y0010246D02*
Y0010364D01*
Y0010482D01*
Y0010364D02*
X0010527D01*
X0010468Y0012018D02*
Y0012136D01*
X0010822Y0012018D02*
Y0012136D01*
X0010232D02*
X0010113D01*
Y0012254D01*
X0010822Y0012136D02*
X0010704D01*
X0010940D02*
X0010822D01*
X0011176Y0012018D02*
Y0012136D01*
X0011058D01*
X0010763Y0010364D02*
X0010645D01*
X0010999Y0010246D02*
Y0010364D01*
Y0010482D01*
Y0010364D02*
X0010881D01*
X0011117D02*
X0010999D01*
X0011354Y0010246D02*
Y0010364D01*
Y0010482D01*
Y0010364D02*
X0011236D01*
X0011472D02*
X0011354D01*
X0011708Y0010246D02*
Y0010364D01*
Y0010482D01*
Y0010364D02*
X0011590D01*
X0010113Y0012018D02*
Y0012136D01*
X0009995D01*
X0010468D02*
Y0012254D01*
Y0012136D02*
X0010350D01*
X0010586D02*
X0010468D01*
X0010822D02*
Y0012254D01*
X0009774Y0012565D02*
X0009666D01*
X0009779Y0012556D02*
X0009660D01*
X0009783Y0012547D02*
X0009657D01*
X0009785Y0012538D02*
X0009655D01*
X0009786Y0012529D02*
X0009654D01*
X0009785Y0012520D02*
X0009654D01*
X0009783Y0012511D02*
X0009656D01*
X0009780Y0012502D02*
X0009659D01*
X0009776Y0012493D02*
X0009664D01*
X0009769Y0012484D02*
X0009671D01*
X0009759Y0012475D02*
X0009681D01*
X0009721Y0012594D02*
Y0012462D01*
X0009712Y0012594D02*
Y0012463D01*
X0009703Y0012592D02*
Y0012465D01*
X0009694Y0012589D02*
Y0012468D01*
X0009685Y0012584D02*
Y0012472D01*
X0009676Y0012577D02*
Y0012479D01*
X0009667Y0012567D02*
Y0012489D01*
X0009658Y0012551D02*
Y0012506D01*
X0009734Y0012592D02*
X0009705D01*
X0009756Y0012583D02*
X0009684D01*
X0009767Y0012574D02*
X0009673D01*
X0009784Y0012543D02*
Y0012514D01*
X0009775Y0012564D02*
Y0012492D01*
X0009766Y0012575D02*
Y0012481D01*
X0009757Y0012582D02*
Y0012474D01*
X0009748Y0012588D02*
Y0012469D01*
X0009739Y0012591D02*
Y0012465D01*
X0009730Y0012593D02*
Y0012463D01*
X0009742Y0012466D02*
X0009697D01*
X0011176Y0012136D02*
Y0012254D01*
X0011354Y0011664D02*
Y0011782D01*
X0011236D01*
X0011531Y0012018D02*
Y0012136D01*
X0011649D02*
X0011531D01*
X0011295D02*
X0011176D01*
X0011531D02*
Y0012254D01*
Y0012136D02*
X0011413D01*
X0011885Y0012018D02*
Y0012136D01*
Y0012254D01*
Y0012136D02*
X0011767D01*
X0012003D02*
X0011885D01*
X0010291Y0011663D02*
Y0011781D01*
X0010173D01*
X0010409D02*
X0010291D01*
Y0011900D01*
X0010645Y0011664D02*
Y0011782D01*
Y0011781D02*
Y0011900D01*
Y0011782D02*
X0010527D01*
X0010763D02*
X0010645D01*
X0010999Y0011664D02*
Y0011782D01*
Y0011781D02*
Y0011900D01*
Y0011782D02*
X0010881D01*
X0011117D02*
X0010999D01*
X0011354Y0011781D02*
Y0011900D01*
X0011472Y0011782D02*
X0011354D01*
X0011708Y0011664D02*
Y0011782D01*
Y0011781D02*
Y0011900D01*
Y0011782D02*
X0011590D01*
X0011826D02*
X0011708D01*
X0012003Y0011428D02*
X0011885D01*
X0010113Y0011309D02*
Y0011427D01*
X0009995D01*
X0010232D02*
X0010113D01*
Y0011545D01*
X0010468Y0011309D02*
Y0011428D01*
Y0011427D02*
Y0011545D01*
Y0011428D02*
X0010350D01*
X0010586D02*
X0010468D01*
X0010822Y0011309D02*
Y0011428D01*
Y0011427D02*
Y0011545D01*
Y0011428D02*
X0010704D01*
X0010940D02*
X0010822D01*
X0011176Y0011309D02*
Y0011428D01*
Y0011427D02*
Y0011545D01*
Y0011428D02*
X0011058D01*
X0011295D02*
X0011176D01*
X0011531Y0011309D02*
Y0011428D01*
Y0011427D02*
Y0011545D01*
Y0011428D02*
X0011413D01*
X0011649D02*
X0011531D01*
X0011885Y0011309D02*
Y0011428D01*
Y0011427D02*
Y0011545D01*
Y0011428D02*
X0011767D01*
X0010291Y0010955D02*
Y0011073D01*
X0010173D01*
X0010409D02*
X0010291D01*
Y0011191D01*
X0010645Y0010955D02*
Y0011073D01*
Y0011191D01*
Y0011073D02*
X0010527D01*
X0010763D02*
X0010645D01*
X0010999Y0010955D02*
Y0011073D01*
Y0011191D01*
Y0011073D02*
X0010881D01*
X0011117D02*
X0010999D01*
X0011354Y0010955D02*
Y0011073D01*
Y0011191D01*
Y0011073D02*
X0011236D01*
X0011472D02*
X0011354D01*
X0011708Y0010955D02*
Y0011073D01*
Y0011191D01*
Y0011073D02*
X0011590D01*
X0011826D02*
X0011708D01*
X0012003Y0010719D02*
X0011885D01*
X0010113Y0010600D02*
Y0010718D01*
X0009995D01*
X0010232D02*
X0010113D01*
Y0010837D01*
X0010468Y0010601D02*
Y0010719D01*
Y0010718D02*
Y0010837D01*
Y0010719D02*
X0010350D01*
X0010586D02*
X0010468D01*
X0010822Y0010601D02*
Y0010719D01*
Y0010718D02*
Y0010837D01*
Y0010719D02*
X0010704D01*
X0010940D02*
X0010822D01*
X0011176Y0010601D02*
Y0010719D01*
Y0010718D02*
Y0010837D01*
Y0010719D02*
X0011058D01*
X0011295D02*
X0011176D01*
X0011531Y0010601D02*
Y0010719D01*
Y0010718D02*
Y0010837D01*
Y0010719D02*
X0011413D01*
X0011649D02*
X0011531D01*
X0011885Y0010601D02*
Y0010719D01*
Y0010718D02*
Y0010837D01*
Y0010719D02*
X0011767D01*
X0031091Y0004636D02*
X0031209D01*
X0029674D02*
X0029792D01*
X0031209Y0004754D02*
Y0004636D01*
Y0004517D01*
Y0004636D02*
X0031327D01*
X0030855Y0004754D02*
Y0004636D01*
Y0004517D01*
Y0004636D02*
X0030973D01*
X0031032Y0002982D02*
Y0002863D01*
X0030678Y0002982D02*
Y0002863D01*
X0031268Y0002864D02*
X0031386D01*
Y0002746D01*
X0030678Y0002863D02*
X0030796D01*
X0030559D02*
X0030678D01*
X0030323Y0002982D02*
Y0002863D01*
X0030441D01*
X0030737Y0004636D02*
X0030855D01*
X0030500Y0004754D02*
Y0004636D01*
Y0004517D01*
Y0004636D02*
X0030618D01*
X0030382D02*
X0030500D01*
X0030146Y0004754D02*
Y0004636D01*
Y0004517D01*
Y0004636D02*
X0030264D01*
X0030028D02*
X0030146D01*
X0029792Y0004754D02*
Y0004636D01*
Y0004517D01*
Y0004636D02*
X0029910D01*
X0031386Y0002982D02*
Y0002864D01*
X0031504D01*
X0031032D02*
Y0002746D01*
Y0002863D02*
X0031150D01*
X0030914D02*
X0031032D01*
X0030678Y0002864D02*
Y0002746D01*
X0031834Y0002508D02*
X0031725D01*
X0031839Y0002499D02*
X0031720D01*
X0031842Y0002490D02*
X0031717D01*
X0031845Y0002481D02*
X0031714D01*
X0031845Y0002472D02*
X0031714D01*
X0031845Y0002463D02*
X0031714D01*
X0031843Y0002454D02*
X0031716D01*
X0031840Y0002445D02*
X0031719D01*
X0031835Y0002436D02*
X0031724D01*
X0031829Y0002427D02*
X0031730D01*
X0031819Y0002418D02*
X0031740D01*
X0031781Y0002537D02*
Y0002405D01*
X0031772Y0002537D02*
Y0002406D01*
X0031763Y0002535D02*
Y0002408D01*
X0031754Y0002532D02*
Y0002411D01*
X0031745Y0002527D02*
Y0002415D01*
X0031736Y0002520D02*
Y0002422D01*
X0031727Y0002510D02*
Y0002432D01*
X0031718Y0002494D02*
Y0002449D01*
X0031794Y0002535D02*
X0031765D01*
X0031815Y0002526D02*
X0031744D01*
X0031826Y0002517D02*
X0031733D01*
X0031844Y0002486D02*
Y0002457D01*
X0031835Y0002507D02*
Y0002435D01*
X0031826Y0002518D02*
Y0002424D01*
X0031817Y0002525D02*
Y0002417D01*
X0031808Y0002531D02*
Y0002412D01*
X0031799Y0002534D02*
Y0002408D01*
X0031790Y0002536D02*
Y0002406D01*
X0031802Y0002409D02*
X0031757D01*
X0030323Y0002864D02*
Y0002746D01*
X0030146Y0003336D02*
Y0003218D01*
X0030264D01*
X0029969Y0002982D02*
Y0002863D01*
X0029851D02*
X0029969D01*
X0030205D02*
X0030323D01*
X0029969Y0002864D02*
Y0002746D01*
Y0002863D02*
X0030087D01*
X0029615Y0002982D02*
Y0002863D01*
Y0002864D02*
Y0002746D01*
Y0002863D02*
X0029733D01*
X0029496D02*
X0029615D01*
X0031209Y0003336D02*
Y0003218D01*
X0031327D01*
X0031091D02*
X0031209D01*
Y0003100D01*
X0030855Y0003336D02*
Y0003218D01*
Y0003100D01*
Y0003218D02*
X0030973D01*
X0030737D02*
X0030855D01*
X0030500Y0003336D02*
Y0003218D01*
Y0003100D01*
Y0003218D02*
X0030618D01*
X0030382D02*
X0030500D01*
X0030146D02*
Y0003100D01*
X0030028Y0003218D02*
X0030146D01*
X0029792Y0003336D02*
Y0003218D01*
Y0003100D01*
Y0003218D02*
X0029910D01*
X0029674D02*
X0029792D01*
X0029496Y0003572D02*
X0029615D01*
X0031386Y0003691D02*
Y0003573D01*
X0031504D01*
X0031268D02*
X0031386D01*
Y0003454D01*
X0031032Y0003690D02*
Y0003572D01*
Y0003573D02*
Y0003454D01*
Y0003572D02*
X0031150D01*
X0030914D02*
X0031032D01*
X0030678Y0003690D02*
Y0003572D01*
Y0003573D02*
Y0003454D01*
Y0003572D02*
X0030796D01*
X0030559D02*
X0030678D01*
X0030323Y0003690D02*
Y0003572D01*
Y0003573D02*
Y0003454D01*
Y0003572D02*
X0030441D01*
X0030205D02*
X0030323D01*
X0029969Y0003690D02*
Y0003572D01*
Y0003573D02*
Y0003454D01*
Y0003572D02*
X0030087D01*
X0029851D02*
X0029969D01*
X0029615Y0003690D02*
Y0003572D01*
Y0003573D02*
Y0003454D01*
Y0003572D02*
X0029733D01*
X0031209Y0004045D02*
Y0003927D01*
X0031327D01*
X0031091D02*
X0031209D01*
Y0003809D01*
X0030855Y0004045D02*
Y0003926D01*
Y0003927D02*
Y0003809D01*
Y0003926D02*
X0030973D01*
X0030737D02*
X0030855D01*
X0030500Y0004045D02*
Y0003926D01*
Y0003927D02*
Y0003809D01*
Y0003926D02*
X0030618D01*
X0030382D02*
X0030500D01*
X0030146Y0004045D02*
Y0003926D01*
Y0003927D02*
Y0003809D01*
Y0003926D02*
X0030264D01*
X0030028D02*
X0030146D01*
X0029792Y0004045D02*
Y0003926D01*
Y0003927D02*
Y0003809D01*
Y0003926D02*
X0029910D01*
X0029674D02*
X0029792D01*
X0029496Y0004281D02*
X0029615D01*
X0031386Y0004399D02*
Y0004281D01*
X0031504D01*
X0031268D02*
X0031386D01*
Y0004163D01*
X0031032Y0004399D02*
Y0004281D01*
Y0004163D01*
Y0004281D02*
X0031150D01*
X0030914D02*
X0031032D01*
X0030678Y0004399D02*
Y0004281D01*
Y0004163D01*
Y0004281D02*
X0030796D01*
X0030559D02*
X0030678D01*
X0030323Y0004399D02*
Y0004281D01*
Y0004163D01*
Y0004281D02*
X0030441D01*
X0030205D02*
X0030323D01*
X0029969Y0004399D02*
Y0004281D01*
Y0004163D01*
Y0004281D02*
X0030087D01*
X0029851D02*
X0029969D01*
X0029615Y0004399D02*
Y0004281D01*
Y0004163D01*
Y0004281D02*
X0029733D01*
X0024591Y0004636D02*
X0024709D01*
X0023174D02*
X0023292D01*
X0024709Y0004754D02*
Y0004636D01*
Y0004517D01*
Y0004636D02*
X0024827D01*
X0024355Y0004754D02*
Y0004636D01*
Y0004517D01*
Y0004636D02*
X0024473D01*
X0024532Y0002982D02*
Y0002863D01*
X0024178Y0002982D02*
Y0002863D01*
X0024768Y0002864D02*
X0024886D01*
Y0002746D01*
X0024178Y0002863D02*
X0024296D01*
X0024059D02*
X0024178D01*
X0023823Y0002982D02*
Y0002863D01*
X0023941D01*
X0024237Y0004636D02*
X0024355D01*
X0024000Y0004754D02*
Y0004636D01*
Y0004517D01*
Y0004636D02*
X0024118D01*
X0023882D02*
X0024000D01*
X0023646Y0004754D02*
Y0004636D01*
Y0004517D01*
Y0004636D02*
X0023764D01*
X0023528D02*
X0023646D01*
X0023292Y0004754D02*
Y0004636D01*
Y0004517D01*
Y0004636D02*
X0023410D01*
X0024886Y0002982D02*
Y0002864D01*
X0025004D01*
X0024532D02*
Y0002746D01*
Y0002863D02*
X0024650D01*
X0024414D02*
X0024532D01*
X0024178Y0002864D02*
Y0002746D01*
X0025334Y0002508D02*
X0025225D01*
X0025339Y0002499D02*
X0025220D01*
X0025342Y0002490D02*
X0025217D01*
X0025345Y0002481D02*
X0025214D01*
X0025345Y0002472D02*
X0025214D01*
X0025345Y0002463D02*
X0025214D01*
X0025343Y0002454D02*
X0025216D01*
X0025340Y0002445D02*
X0025219D01*
X0025335Y0002436D02*
X0025224D01*
X0025329Y0002427D02*
X0025230D01*
X0025319Y0002418D02*
X0025240D01*
X0025281Y0002537D02*
Y0002405D01*
X0025272Y0002537D02*
Y0002406D01*
X0025263Y0002535D02*
Y0002408D01*
X0025254Y0002532D02*
Y0002411D01*
X0025245Y0002527D02*
Y0002415D01*
X0025236Y0002520D02*
Y0002422D01*
X0025227Y0002510D02*
Y0002432D01*
X0025218Y0002494D02*
Y0002449D01*
X0025294Y0002535D02*
X0025265D01*
X0025315Y0002526D02*
X0025244D01*
X0025326Y0002517D02*
X0025233D01*
X0025344Y0002486D02*
Y0002457D01*
X0025335Y0002507D02*
Y0002435D01*
X0025326Y0002518D02*
Y0002424D01*
X0025317Y0002525D02*
Y0002417D01*
X0025308Y0002531D02*
Y0002412D01*
X0025299Y0002534D02*
Y0002408D01*
X0025290Y0002536D02*
Y0002406D01*
X0025302Y0002409D02*
X0025257D01*
X0023823Y0002864D02*
Y0002746D01*
X0023646Y0003336D02*
Y0003218D01*
X0023764D01*
X0023469Y0002982D02*
Y0002863D01*
X0023351D02*
X0023469D01*
X0023705D02*
X0023823D01*
X0023469Y0002864D02*
Y0002746D01*
Y0002863D02*
X0023587D01*
X0023115Y0002982D02*
Y0002863D01*
Y0002864D02*
Y0002746D01*
Y0002863D02*
X0023233D01*
X0022996D02*
X0023115D01*
X0024709Y0003336D02*
Y0003218D01*
X0024827D01*
X0024591D02*
X0024709D01*
Y0003100D01*
X0024355Y0003336D02*
Y0003218D01*
Y0003100D01*
Y0003218D02*
X0024473D01*
X0024237D02*
X0024355D01*
X0024000Y0003336D02*
Y0003218D01*
Y0003100D01*
Y0003218D02*
X0024118D01*
X0023882D02*
X0024000D01*
X0023646D02*
Y0003100D01*
X0023528Y0003218D02*
X0023646D01*
X0023292Y0003336D02*
Y0003218D01*
Y0003100D01*
Y0003218D02*
X0023410D01*
X0023174D02*
X0023292D01*
X0022996Y0003572D02*
X0023115D01*
X0024886Y0003691D02*
Y0003573D01*
X0025004D01*
X0024768D02*
X0024886D01*
Y0003454D01*
X0024532Y0003690D02*
Y0003572D01*
Y0003573D02*
Y0003454D01*
Y0003572D02*
X0024650D01*
X0024414D02*
X0024532D01*
X0024178Y0003690D02*
Y0003572D01*
Y0003573D02*
Y0003454D01*
Y0003572D02*
X0024296D01*
X0024059D02*
X0024178D01*
X0023823Y0003690D02*
Y0003572D01*
Y0003573D02*
Y0003454D01*
Y0003572D02*
X0023941D01*
X0023705D02*
X0023823D01*
X0023469Y0003690D02*
Y0003572D01*
Y0003573D02*
Y0003454D01*
Y0003572D02*
X0023587D01*
X0023351D02*
X0023469D01*
X0023115Y0003690D02*
Y0003572D01*
Y0003573D02*
Y0003454D01*
Y0003572D02*
X0023233D01*
X0024709Y0004045D02*
Y0003927D01*
X0024827D01*
X0024591D02*
X0024709D01*
Y0003809D01*
X0024355Y0004045D02*
Y0003926D01*
Y0003927D02*
Y0003809D01*
Y0003926D02*
X0024473D01*
X0024237D02*
X0024355D01*
X0024000Y0004045D02*
Y0003926D01*
Y0003927D02*
Y0003809D01*
Y0003926D02*
X0024118D01*
X0023882D02*
X0024000D01*
X0023646Y0004045D02*
Y0003926D01*
Y0003927D02*
Y0003809D01*
Y0003926D02*
X0023764D01*
X0023528D02*
X0023646D01*
X0023292Y0004045D02*
Y0003926D01*
Y0003927D02*
Y0003809D01*
Y0003926D02*
X0023410D01*
X0023174D02*
X0023292D01*
X0022996Y0004281D02*
X0023115D01*
X0024886Y0004399D02*
Y0004281D01*
X0025004D01*
X0024768D02*
X0024886D01*
Y0004163D01*
X0024532Y0004399D02*
Y0004281D01*
Y0004163D01*
Y0004281D02*
X0024650D01*
X0024414D02*
X0024532D01*
X0024178Y0004399D02*
Y0004281D01*
Y0004163D01*
Y0004281D02*
X0024296D01*
X0024059D02*
X0024178D01*
X0023823Y0004399D02*
Y0004281D01*
Y0004163D01*
Y0004281D02*
X0023941D01*
X0023705D02*
X0023823D01*
X0023469Y0004399D02*
Y0004281D01*
Y0004163D01*
Y0004281D02*
X0023587D01*
X0023351D02*
X0023469D01*
X0023115Y0004399D02*
Y0004281D01*
Y0004163D01*
Y0004281D02*
X0023233D01*
X0018091Y0004636D02*
X0018209D01*
X0016674D02*
X0016792D01*
X0018209Y0004754D02*
Y0004636D01*
Y0004517D01*
Y0004636D02*
X0018327D01*
X0017855Y0004754D02*
Y0004636D01*
Y0004517D01*
Y0004636D02*
X0017973D01*
X0018032Y0002982D02*
Y0002863D01*
X0017678Y0002982D02*
Y0002863D01*
X0018268Y0002864D02*
X0018386D01*
Y0002746D01*
X0017678Y0002863D02*
X0017796D01*
X0017559D02*
X0017678D01*
X0017323Y0002982D02*
Y0002863D01*
X0017441D01*
X0017737Y0004636D02*
X0017855D01*
X0017500Y0004754D02*
Y0004636D01*
Y0004517D01*
Y0004636D02*
X0017618D01*
X0017382D02*
X0017500D01*
X0017146Y0004754D02*
Y0004636D01*
Y0004517D01*
Y0004636D02*
X0017264D01*
X0017028D02*
X0017146D01*
X0016792Y0004754D02*
Y0004636D01*
Y0004517D01*
Y0004636D02*
X0016910D01*
X0018386Y0002982D02*
Y0002864D01*
X0018504D01*
X0018032D02*
Y0002746D01*
Y0002863D02*
X0018150D01*
X0017914D02*
X0018032D01*
X0017678Y0002864D02*
Y0002746D01*
X0018834Y0002508D02*
X0018725D01*
X0018839Y0002499D02*
X0018720D01*
X0018842Y0002490D02*
X0018717D01*
X0018845Y0002481D02*
X0018714D01*
X0018845Y0002472D02*
X0018714D01*
X0018845Y0002463D02*
X0018714D01*
X0018843Y0002454D02*
X0018716D01*
X0018840Y0002445D02*
X0018719D01*
X0018835Y0002436D02*
X0018724D01*
X0018829Y0002427D02*
X0018730D01*
X0018819Y0002418D02*
X0018740D01*
X0018781Y0002537D02*
Y0002405D01*
X0018772Y0002537D02*
Y0002406D01*
X0018763Y0002535D02*
Y0002408D01*
X0018754Y0002532D02*
Y0002411D01*
X0018745Y0002527D02*
Y0002415D01*
X0018736Y0002520D02*
Y0002422D01*
X0018727Y0002510D02*
Y0002432D01*
X0018718Y0002494D02*
Y0002449D01*
X0018794Y0002535D02*
X0018765D01*
X0018815Y0002526D02*
X0018744D01*
X0018826Y0002517D02*
X0018733D01*
X0018844Y0002486D02*
Y0002457D01*
X0018835Y0002507D02*
Y0002435D01*
X0018826Y0002518D02*
Y0002424D01*
X0018817Y0002525D02*
Y0002417D01*
X0018808Y0002531D02*
Y0002412D01*
X0018799Y0002534D02*
Y0002408D01*
X0018790Y0002536D02*
Y0002406D01*
X0018802Y0002409D02*
X0018757D01*
X0017323Y0002864D02*
Y0002746D01*
X0017146Y0003336D02*
Y0003218D01*
X0017264D01*
X0016969Y0002982D02*
Y0002863D01*
X0016851D02*
X0016969D01*
X0017205D02*
X0017323D01*
X0016969Y0002864D02*
Y0002746D01*
Y0002863D02*
X0017087D01*
X0016615Y0002982D02*
Y0002863D01*
Y0002864D02*
Y0002746D01*
Y0002863D02*
X0016733D01*
X0016496D02*
X0016615D01*
X0018209Y0003336D02*
Y0003218D01*
X0018327D01*
X0018091D02*
X0018209D01*
Y0003100D01*
X0017855Y0003336D02*
Y0003218D01*
Y0003100D01*
Y0003218D02*
X0017973D01*
X0017737D02*
X0017855D01*
X0017500Y0003336D02*
Y0003218D01*
Y0003100D01*
Y0003218D02*
X0017618D01*
X0017382D02*
X0017500D01*
X0017146D02*
Y0003100D01*
X0017028Y0003218D02*
X0017146D01*
X0016792Y0003336D02*
Y0003218D01*
Y0003100D01*
Y0003218D02*
X0016910D01*
X0016674D02*
X0016792D01*
X0016496Y0003572D02*
X0016615D01*
X0018386Y0003691D02*
Y0003573D01*
X0018504D01*
X0018268D02*
X0018386D01*
Y0003454D01*
X0018032Y0003690D02*
Y0003572D01*
Y0003573D02*
Y0003454D01*
Y0003572D02*
X0018150D01*
X0017914D02*
X0018032D01*
X0017678Y0003690D02*
Y0003572D01*
Y0003573D02*
Y0003454D01*
Y0003572D02*
X0017796D01*
X0017559D02*
X0017678D01*
X0017323Y0003690D02*
Y0003572D01*
Y0003573D02*
Y0003454D01*
Y0003572D02*
X0017441D01*
X0017205D02*
X0017323D01*
X0016969Y0003690D02*
Y0003572D01*
Y0003573D02*
Y0003454D01*
Y0003572D02*
X0017087D01*
X0016851D02*
X0016969D01*
X0016615Y0003690D02*
Y0003572D01*
Y0003573D02*
Y0003454D01*
Y0003572D02*
X0016733D01*
X0018209Y0004045D02*
Y0003927D01*
X0018327D01*
X0018091D02*
X0018209D01*
Y0003809D01*
X0017855Y0004045D02*
Y0003926D01*
Y0003927D02*
Y0003809D01*
Y0003926D02*
X0017973D01*
X0017737D02*
X0017855D01*
X0017500Y0004045D02*
Y0003926D01*
Y0003927D02*
Y0003809D01*
Y0003926D02*
X0017618D01*
X0017382D02*
X0017500D01*
X0017146Y0004045D02*
Y0003926D01*
Y0003927D02*
Y0003809D01*
Y0003926D02*
X0017264D01*
X0017028D02*
X0017146D01*
X0016792Y0004045D02*
Y0003926D01*
Y0003927D02*
Y0003809D01*
Y0003926D02*
X0016910D01*
X0016674D02*
X0016792D01*
X0016496Y0004281D02*
X0016615D01*
X0018386Y0004399D02*
Y0004281D01*
X0018504D01*
X0018268D02*
X0018386D01*
Y0004163D01*
X0018032Y0004399D02*
Y0004281D01*
Y0004163D01*
Y0004281D02*
X0018150D01*
X0017914D02*
X0018032D01*
X0017678Y0004399D02*
Y0004281D01*
Y0004163D01*
Y0004281D02*
X0017796D01*
X0017559D02*
X0017678D01*
X0017323Y0004399D02*
Y0004281D01*
Y0004163D01*
Y0004281D02*
X0017441D01*
X0017205D02*
X0017323D01*
X0016969Y0004399D02*
Y0004281D01*
Y0004163D01*
Y0004281D02*
X0017087D01*
X0016851D02*
X0016969D01*
X0016615Y0004399D02*
Y0004281D01*
Y0004163D01*
Y0004281D02*
X0016733D01*
X0011591Y0004636D02*
X0011709D01*
X0010174D02*
X0010292D01*
X0011709Y0004754D02*
Y0004636D01*
Y0004517D01*
Y0004636D02*
X0011827D01*
X0011355Y0004754D02*
Y0004636D01*
Y0004517D01*
Y0004636D02*
X0011473D01*
X0011532Y0002982D02*
Y0002863D01*
X0011178Y0002982D02*
Y0002863D01*
X0011768Y0002864D02*
X0011886D01*
Y0002746D01*
X0011178Y0002863D02*
X0011296D01*
X0011059D02*
X0011178D01*
X0010823Y0002982D02*
Y0002863D01*
X0010941D01*
X0011237Y0004636D02*
X0011355D01*
X0011000Y0004754D02*
Y0004636D01*
Y0004517D01*
Y0004636D02*
X0011118D01*
X0010882D02*
X0011000D01*
X0010646Y0004754D02*
Y0004636D01*
Y0004517D01*
Y0004636D02*
X0010764D01*
X0010528D02*
X0010646D01*
X0010292Y0004754D02*
Y0004636D01*
Y0004517D01*
Y0004636D02*
X0010410D01*
X0011886Y0002982D02*
Y0002864D01*
X0012004D01*
X0011532D02*
Y0002746D01*
Y0002863D02*
X0011650D01*
X0011414D02*
X0011532D01*
X0011178Y0002864D02*
Y0002746D01*
X0012334Y0002508D02*
X0012225D01*
X0012339Y0002499D02*
X0012220D01*
X0012342Y0002490D02*
X0012217D01*
X0012345Y0002481D02*
X0012214D01*
X0012345Y0002472D02*
X0012214D01*
X0012345Y0002463D02*
X0012214D01*
X0012343Y0002454D02*
X0012216D01*
X0012340Y0002445D02*
X0012219D01*
X0012335Y0002436D02*
X0012224D01*
X0012329Y0002427D02*
X0012230D01*
X0012319Y0002418D02*
X0012240D01*
X0012281Y0002537D02*
Y0002405D01*
X0012272Y0002537D02*
Y0002406D01*
X0012263Y0002535D02*
Y0002408D01*
X0012254Y0002532D02*
Y0002411D01*
X0012245Y0002527D02*
Y0002415D01*
X0012236Y0002520D02*
Y0002422D01*
X0012227Y0002510D02*
Y0002432D01*
X0012218Y0002494D02*
Y0002449D01*
X0012294Y0002535D02*
X0012265D01*
X0012315Y0002526D02*
X0012244D01*
X0012326Y0002517D02*
X0012233D01*
X0012344Y0002486D02*
Y0002457D01*
X0012335Y0002507D02*
Y0002435D01*
X0012326Y0002518D02*
Y0002424D01*
X0012317Y0002525D02*
Y0002417D01*
X0012308Y0002531D02*
Y0002412D01*
X0012299Y0002534D02*
Y0002408D01*
X0012290Y0002536D02*
Y0002406D01*
X0012302Y0002409D02*
X0012257D01*
X0010823Y0002864D02*
Y0002746D01*
X0010646Y0003336D02*
Y0003218D01*
X0010764D01*
X0010469Y0002982D02*
Y0002863D01*
X0010351D02*
X0010469D01*
X0010705D02*
X0010823D01*
X0010469Y0002864D02*
Y0002746D01*
Y0002863D02*
X0010587D01*
X0010115Y0002982D02*
Y0002863D01*
Y0002864D02*
Y0002746D01*
Y0002863D02*
X0010233D01*
X0009996D02*
X0010115D01*
X0011709Y0003336D02*
Y0003218D01*
X0011827D01*
X0011591D02*
X0011709D01*
Y0003100D01*
X0011355Y0003336D02*
Y0003218D01*
Y0003100D01*
Y0003218D02*
X0011473D01*
X0011237D02*
X0011355D01*
X0011000Y0003336D02*
Y0003218D01*
Y0003100D01*
Y0003218D02*
X0011118D01*
X0010882D02*
X0011000D01*
X0010646D02*
Y0003100D01*
X0010528Y0003218D02*
X0010646D01*
X0010292Y0003336D02*
Y0003218D01*
Y0003100D01*
Y0003218D02*
X0010410D01*
X0010174D02*
X0010292D01*
X0009996Y0003572D02*
X0010115D01*
X0011886Y0003691D02*
Y0003573D01*
X0012004D01*
X0011768D02*
X0011886D01*
Y0003454D01*
X0011532Y0003690D02*
Y0003572D01*
Y0003573D02*
Y0003454D01*
Y0003572D02*
X0011650D01*
X0011414D02*
X0011532D01*
X0011178Y0003690D02*
Y0003572D01*
Y0003573D02*
Y0003454D01*
Y0003572D02*
X0011296D01*
X0011059D02*
X0011178D01*
X0010823Y0003690D02*
Y0003572D01*
Y0003573D02*
Y0003454D01*
Y0003572D02*
X0010941D01*
X0010705D02*
X0010823D01*
X0010469Y0003690D02*
Y0003572D01*
Y0003573D02*
Y0003454D01*
Y0003572D02*
X0010587D01*
X0010351D02*
X0010469D01*
X0010115Y0003690D02*
Y0003572D01*
Y0003573D02*
Y0003454D01*
Y0003572D02*
X0010233D01*
X0011709Y0004045D02*
Y0003927D01*
X0011827D01*
X0011591D02*
X0011709D01*
Y0003809D01*
X0011355Y0004045D02*
Y0003926D01*
Y0003927D02*
Y0003809D01*
Y0003926D02*
X0011473D01*
X0011237D02*
X0011355D01*
X0011000Y0004045D02*
Y0003926D01*
Y0003927D02*
Y0003809D01*
Y0003926D02*
X0011118D01*
X0010882D02*
X0011000D01*
X0010646Y0004045D02*
Y0003926D01*
Y0003927D02*
Y0003809D01*
Y0003926D02*
X0010764D01*
X0010528D02*
X0010646D01*
X0010292Y0004045D02*
Y0003926D01*
Y0003927D02*
Y0003809D01*
Y0003926D02*
X0010410D01*
X0010174D02*
X0010292D01*
X0009996Y0004281D02*
X0010115D01*
X0011886Y0004399D02*
Y0004281D01*
X0012004D01*
X0011768D02*
X0011886D01*
Y0004163D01*
X0011532Y0004399D02*
Y0004281D01*
Y0004163D01*
Y0004281D02*
X0011650D01*
X0011414D02*
X0011532D01*
X0011178Y0004399D02*
Y0004281D01*
Y0004163D01*
Y0004281D02*
X0011296D01*
X0011059D02*
X0011178D01*
X0010823Y0004399D02*
Y0004281D01*
Y0004163D01*
Y0004281D02*
X0010941D01*
X0010705D02*
X0010823D01*
X0010469Y0004399D02*
Y0004281D01*
Y0004163D01*
Y0004281D02*
X0010587D01*
X0010351D02*
X0010469D01*
X0010115Y0004399D02*
Y0004281D01*
Y0004163D01*
Y0004281D02*
X0010233D01*
X0005091Y0004636D02*
X0005209D01*
X0003674D02*
X0003792D01*
X0005209Y0004754D02*
Y0004636D01*
Y0004517D01*
Y0004636D02*
X0005327D01*
X0004855Y0004754D02*
Y0004636D01*
Y0004517D01*
Y0004636D02*
X0004973D01*
X0005032Y0002982D02*
Y0002863D01*
X0004678Y0002982D02*
Y0002863D01*
X0005268Y0002864D02*
X0005386D01*
Y0002746D01*
X0004678Y0002863D02*
X0004796D01*
X0004559D02*
X0004678D01*
X0004323Y0002982D02*
Y0002863D01*
X0004441D01*
X0004737Y0004636D02*
X0004855D01*
X0004500Y0004754D02*
Y0004636D01*
Y0004517D01*
Y0004636D02*
X0004618D01*
X0004382D02*
X0004500D01*
X0004146Y0004754D02*
Y0004636D01*
Y0004517D01*
Y0004636D02*
X0004264D01*
X0004028D02*
X0004146D01*
X0003792Y0004754D02*
Y0004636D01*
Y0004517D01*
Y0004636D02*
X0003910D01*
X0005386Y0002982D02*
Y0002864D01*
X0005504D01*
X0005032D02*
Y0002746D01*
Y0002863D02*
X0005150D01*
X0004914D02*
X0005032D01*
X0004678Y0002864D02*
Y0002746D01*
X0005834Y0002508D02*
X0005725D01*
X0005839Y0002499D02*
X0005720D01*
X0005842Y0002490D02*
X0005717D01*
X0005845Y0002481D02*
X0005714D01*
X0005845Y0002472D02*
X0005714D01*
X0005845Y0002463D02*
X0005714D01*
X0005843Y0002454D02*
X0005716D01*
X0005840Y0002445D02*
X0005719D01*
X0005835Y0002436D02*
X0005724D01*
X0005829Y0002427D02*
X0005730D01*
X0005819Y0002418D02*
X0005740D01*
X0005781Y0002537D02*
Y0002405D01*
X0005772Y0002537D02*
Y0002406D01*
X0005763Y0002535D02*
Y0002408D01*
X0005754Y0002532D02*
Y0002411D01*
X0005745Y0002527D02*
Y0002415D01*
X0005736Y0002520D02*
Y0002422D01*
X0005727Y0002510D02*
Y0002432D01*
X0005718Y0002494D02*
Y0002449D01*
X0005794Y0002535D02*
X0005765D01*
X0005815Y0002526D02*
X0005744D01*
X0005826Y0002517D02*
X0005733D01*
X0005844Y0002486D02*
Y0002457D01*
X0005835Y0002507D02*
Y0002435D01*
X0005826Y0002518D02*
Y0002424D01*
X0005817Y0002525D02*
Y0002417D01*
X0005808Y0002531D02*
Y0002412D01*
X0005799Y0002534D02*
Y0002408D01*
X0005790Y0002536D02*
Y0002406D01*
X0005802Y0002409D02*
X0005757D01*
X0004323Y0002864D02*
Y0002746D01*
X0004146Y0003336D02*
Y0003218D01*
X0004264D01*
X0003969Y0002982D02*
Y0002863D01*
X0003851D02*
X0003969D01*
X0004205D02*
X0004323D01*
X0003969Y0002864D02*
Y0002746D01*
Y0002863D02*
X0004087D01*
X0003615Y0002982D02*
Y0002863D01*
Y0002864D02*
Y0002746D01*
Y0002863D02*
X0003733D01*
X0003496D02*
X0003615D01*
X0005209Y0003336D02*
Y0003218D01*
X0005327D01*
X0005091D02*
X0005209D01*
Y0003100D01*
X0004855Y0003336D02*
Y0003218D01*
Y0003100D01*
Y0003218D02*
X0004973D01*
X0004737D02*
X0004855D01*
X0004500Y0003336D02*
Y0003218D01*
Y0003100D01*
Y0003218D02*
X0004618D01*
X0004382D02*
X0004500D01*
X0004146D02*
Y0003100D01*
X0004028Y0003218D02*
X0004146D01*
X0003792Y0003336D02*
Y0003218D01*
Y0003100D01*
Y0003218D02*
X0003910D01*
X0003674D02*
X0003792D01*
X0003496Y0003572D02*
X0003615D01*
X0005386Y0003691D02*
Y0003573D01*
X0005504D01*
X0005268D02*
X0005386D01*
Y0003454D01*
X0005032Y0003690D02*
Y0003572D01*
Y0003573D02*
Y0003454D01*
Y0003572D02*
X0005150D01*
X0004914D02*
X0005032D01*
X0004678Y0003690D02*
Y0003572D01*
Y0003573D02*
Y0003454D01*
Y0003572D02*
X0004796D01*
X0004559D02*
X0004678D01*
X0004323Y0003690D02*
Y0003572D01*
Y0003573D02*
Y0003454D01*
Y0003572D02*
X0004441D01*
X0004205D02*
X0004323D01*
X0003969Y0003690D02*
Y0003572D01*
Y0003573D02*
Y0003454D01*
Y0003572D02*
X0004087D01*
X0003851D02*
X0003969D01*
X0003615Y0003690D02*
Y0003572D01*
Y0003573D02*
Y0003454D01*
Y0003572D02*
X0003733D01*
X0005209Y0004045D02*
Y0003927D01*
X0005327D01*
X0005091D02*
X0005209D01*
Y0003809D01*
X0004855Y0004045D02*
Y0003926D01*
Y0003927D02*
Y0003809D01*
Y0003926D02*
X0004973D01*
X0004737D02*
X0004855D01*
X0004500Y0004045D02*
Y0003926D01*
Y0003927D02*
Y0003809D01*
Y0003926D02*
X0004618D01*
X0004382D02*
X0004500D01*
X0004146Y0004045D02*
Y0003926D01*
Y0003927D02*
Y0003809D01*
Y0003926D02*
X0004264D01*
X0004028D02*
X0004146D01*
X0003792Y0004045D02*
Y0003926D01*
Y0003927D02*
Y0003809D01*
Y0003926D02*
X0003910D01*
X0003674D02*
X0003792D01*
X0003496Y0004281D02*
X0003615D01*
X0005386Y0004399D02*
Y0004281D01*
X0005504D01*
X0005268D02*
X0005386D01*
Y0004163D01*
X0005032Y0004399D02*
Y0004281D01*
Y0004163D01*
Y0004281D02*
X0005150D01*
X0004914D02*
X0005032D01*
X0004678Y0004399D02*
Y0004281D01*
Y0004163D01*
Y0004281D02*
X0004796D01*
X0004559D02*
X0004678D01*
X0004323Y0004399D02*
Y0004281D01*
Y0004163D01*
Y0004281D02*
X0004441D01*
X0004205D02*
X0004323D01*
X0003969Y0004399D02*
Y0004281D01*
Y0004163D01*
Y0004281D02*
X0004087D01*
X0003851D02*
X0003969D01*
X0003615Y0004399D02*
Y0004281D01*
Y0004163D01*
Y0004281D02*
X0003733D01*
X0003909Y0010364D02*
X0003791D01*
X0005326D02*
X0005208D01*
X0003791Y0010246D02*
Y0010364D01*
Y0010482D01*
Y0010364D02*
X0003673D01*
X0004145Y0010246D02*
Y0010364D01*
Y0010482D01*
Y0010364D02*
X0004027D01*
X0003968Y0012018D02*
Y0012136D01*
X0004322Y0012018D02*
Y0012136D01*
X0003732D02*
X0003613D01*
Y0012254D01*
X0004322Y0012136D02*
X0004204D01*
X0004440D02*
X0004322D01*
X0004676Y0012018D02*
Y0012136D01*
X0004558D01*
X0004263Y0010364D02*
X0004145D01*
X0004499Y0010246D02*
Y0010364D01*
Y0010482D01*
Y0010364D02*
X0004381D01*
X0004617D02*
X0004499D01*
X0004854Y0010246D02*
Y0010364D01*
Y0010482D01*
Y0010364D02*
X0004736D01*
X0004972D02*
X0004854D01*
X0005208Y0010246D02*
Y0010364D01*
Y0010482D01*
Y0010364D02*
X0005090D01*
X0003613Y0012018D02*
Y0012136D01*
X0003495D01*
X0003968D02*
Y0012254D01*
Y0012136D02*
X0003850D01*
X0004086D02*
X0003968D01*
X0004322D02*
Y0012254D01*
X0003274Y0012565D02*
X0003166D01*
X0003279Y0012556D02*
X0003160D01*
X0003283Y0012547D02*
X0003157D01*
X0003285Y0012538D02*
X0003155D01*
X0003286Y0012529D02*
X0003154D01*
X0003285Y0012520D02*
X0003154D01*
X0003283Y0012511D02*
X0003156D01*
X0003280Y0012502D02*
X0003159D01*
X0003276Y0012493D02*
X0003164D01*
X0003269Y0012484D02*
X0003171D01*
X0003259Y0012475D02*
X0003181D01*
X0003221Y0012594D02*
Y0012462D01*
X0003212Y0012594D02*
Y0012463D01*
X0003203Y0012592D02*
Y0012465D01*
X0003194Y0012589D02*
Y0012468D01*
X0003185Y0012584D02*
Y0012472D01*
X0003176Y0012577D02*
Y0012479D01*
X0003167Y0012567D02*
Y0012489D01*
X0003158Y0012551D02*
Y0012506D01*
X0003234Y0012592D02*
X0003205D01*
X0003256Y0012583D02*
X0003184D01*
X0003267Y0012574D02*
X0003173D01*
X0003284Y0012543D02*
Y0012514D01*
X0003275Y0012564D02*
Y0012492D01*
X0003266Y0012575D02*
Y0012481D01*
X0003257Y0012582D02*
Y0012474D01*
X0003248Y0012588D02*
Y0012469D01*
X0003239Y0012591D02*
Y0012465D01*
X0003230Y0012593D02*
Y0012463D01*
X0003242Y0012466D02*
X0003197D01*
X0004676Y0012136D02*
Y0012254D01*
X0004854Y0011664D02*
Y0011782D01*
X0004736D01*
X0005031Y0012018D02*
Y0012136D01*
X0005149D02*
X0005031D01*
X0004795D02*
X0004676D01*
X0005031D02*
Y0012254D01*
Y0012136D02*
X0004913D01*
X0005385Y0012018D02*
Y0012136D01*
Y0012254D01*
Y0012136D02*
X0005267D01*
X0005503D02*
X0005385D01*
X0003791Y0011663D02*
Y0011781D01*
X0003673D01*
X0003909D02*
X0003791D01*
Y0011900D01*
X0004145Y0011664D02*
Y0011782D01*
Y0011781D02*
Y0011900D01*
Y0011782D02*
X0004027D01*
X0004263D02*
X0004145D01*
X0004499Y0011664D02*
Y0011782D01*
Y0011781D02*
Y0011900D01*
Y0011782D02*
X0004381D01*
X0004617D02*
X0004499D01*
X0004854Y0011781D02*
Y0011900D01*
X0004972Y0011782D02*
X0004854D01*
X0005208Y0011664D02*
Y0011782D01*
Y0011781D02*
Y0011900D01*
Y0011782D02*
X0005090D01*
X0005326D02*
X0005208D01*
X0005503Y0011428D02*
X0005385D01*
X0003613Y0011309D02*
Y0011427D01*
X0003495D01*
X0003732D02*
X0003613D01*
Y0011545D01*
X0003968Y0011309D02*
Y0011428D01*
Y0011427D02*
Y0011545D01*
Y0011428D02*
X0003850D01*
X0004086D02*
X0003968D01*
X0004322Y0011309D02*
Y0011428D01*
Y0011427D02*
Y0011545D01*
Y0011428D02*
X0004204D01*
X0004440D02*
X0004322D01*
X0004676Y0011309D02*
Y0011428D01*
Y0011427D02*
Y0011545D01*
Y0011428D02*
X0004558D01*
X0004795D02*
X0004676D01*
X0005031Y0011309D02*
Y0011428D01*
Y0011427D02*
Y0011545D01*
Y0011428D02*
X0004913D01*
X0005149D02*
X0005031D01*
X0005385Y0011309D02*
Y0011428D01*
Y0011427D02*
Y0011545D01*
Y0011428D02*
X0005267D01*
X0003791Y0010955D02*
Y0011073D01*
X0003673D01*
X0003909D02*
X0003791D01*
Y0011191D01*
X0004145Y0010955D02*
Y0011073D01*
Y0011191D01*
Y0011073D02*
X0004027D01*
X0004263D02*
X0004145D01*
X0004499Y0010955D02*
Y0011073D01*
Y0011191D01*
Y0011073D02*
X0004381D01*
X0004617D02*
X0004499D01*
X0004854Y0010955D02*
Y0011073D01*
Y0011191D01*
Y0011073D02*
X0004736D01*
X0004972D02*
X0004854D01*
X0005208Y0010955D02*
Y0011073D01*
Y0011191D01*
Y0011073D02*
X0005090D01*
X0005326D02*
X0005208D01*
X0005503Y0010719D02*
X0005385D01*
X0003613Y0010600D02*
Y0010718D01*
X0003495D01*
X0003732D02*
X0003613D01*
Y0010837D01*
X0003968Y0010601D02*
Y0010719D01*
Y0010718D02*
Y0010837D01*
Y0010719D02*
X0003850D01*
X0004086D02*
X0003968D01*
X0004322Y0010601D02*
Y0010719D01*
Y0010718D02*
Y0010837D01*
Y0010719D02*
X0004204D01*
X0004440D02*
X0004322D01*
X0004676Y0010601D02*
Y0010719D01*
Y0010718D02*
Y0010837D01*
Y0010719D02*
X0004558D01*
X0004795D02*
X0004676D01*
X0005031Y0010601D02*
Y0010719D01*
Y0010718D02*
Y0010837D01*
Y0010719D02*
X0004913D01*
X0005149D02*
X0005031D01*
X0005385Y0010601D02*
Y0010719D01*
Y0010718D02*
Y0010837D01*
Y0010719D02*
X0005267D01*
X0016909Y0010364D02*
X0016791D01*
X0018326D02*
X0018208D01*
X0016791Y0010246D02*
Y0010364D01*
Y0010482D01*
Y0010364D02*
X0016673D01*
X0017145Y0010246D02*
Y0010364D01*
Y0010482D01*
Y0010364D02*
X0017027D01*
X0016968Y0012018D02*
Y0012136D01*
X0017322Y0012018D02*
Y0012136D01*
X0016732D02*
X0016613D01*
Y0012254D01*
X0017322Y0012136D02*
X0017204D01*
X0017440D02*
X0017322D01*
X0017676Y0012018D02*
Y0012136D01*
X0017558D01*
X0017263Y0010364D02*
X0017145D01*
X0017499Y0010246D02*
Y0010364D01*
Y0010482D01*
Y0010364D02*
X0017381D01*
X0017617D02*
X0017499D01*
X0017854Y0010246D02*
Y0010364D01*
Y0010482D01*
Y0010364D02*
X0017736D01*
X0017972D02*
X0017854D01*
X0018208Y0010246D02*
Y0010364D01*
Y0010482D01*
Y0010364D02*
X0018090D01*
X0016613Y0012018D02*
Y0012136D01*
X0016495D01*
X0016968D02*
Y0012254D01*
Y0012136D02*
X0016850D01*
X0017086D02*
X0016968D01*
X0017322D02*
Y0012254D01*
X0016274Y0012565D02*
X0016166D01*
X0016279Y0012556D02*
X0016160D01*
X0016283Y0012547D02*
X0016157D01*
X0016285Y0012538D02*
X0016155D01*
X0016286Y0012529D02*
X0016154D01*
X0016285Y0012520D02*
X0016154D01*
X0016283Y0012511D02*
X0016156D01*
X0016280Y0012502D02*
X0016159D01*
X0016276Y0012493D02*
X0016164D01*
X0016269Y0012484D02*
X0016171D01*
X0016259Y0012475D02*
X0016181D01*
X0016221Y0012594D02*
Y0012462D01*
X0016212Y0012594D02*
Y0012463D01*
X0016203Y0012592D02*
Y0012465D01*
X0016194Y0012589D02*
Y0012468D01*
X0016185Y0012584D02*
Y0012472D01*
X0016176Y0012577D02*
Y0012479D01*
X0016167Y0012567D02*
Y0012489D01*
X0016158Y0012551D02*
Y0012506D01*
X0016234Y0012592D02*
X0016205D01*
X0016256Y0012583D02*
X0016184D01*
X0016267Y0012574D02*
X0016173D01*
X0016284Y0012543D02*
Y0012514D01*
X0016275Y0012564D02*
Y0012492D01*
X0016266Y0012575D02*
Y0012481D01*
X0016257Y0012582D02*
Y0012474D01*
X0016248Y0012588D02*
Y0012469D01*
X0016239Y0012591D02*
Y0012465D01*
X0016230Y0012593D02*
Y0012463D01*
X0016242Y0012466D02*
X0016197D01*
X0017676Y0012136D02*
Y0012254D01*
X0017854Y0011664D02*
Y0011782D01*
X0017736D01*
X0018031Y0012018D02*
Y0012136D01*
X0018149D02*
X0018031D01*
X0017795D02*
X0017676D01*
X0018031D02*
Y0012254D01*
Y0012136D02*
X0017913D01*
X0018385Y0012018D02*
Y0012136D01*
Y0012254D01*
Y0012136D02*
X0018267D01*
X0018503D02*
X0018385D01*
X0016791Y0011663D02*
Y0011781D01*
X0016673D01*
X0016909D02*
X0016791D01*
Y0011900D01*
X0017145Y0011664D02*
Y0011782D01*
Y0011781D02*
Y0011900D01*
Y0011782D02*
X0017027D01*
X0017263D02*
X0017145D01*
X0017499Y0011664D02*
Y0011782D01*
Y0011781D02*
Y0011900D01*
Y0011782D02*
X0017381D01*
X0017617D02*
X0017499D01*
X0017854Y0011781D02*
Y0011900D01*
X0017972Y0011782D02*
X0017854D01*
X0018208Y0011664D02*
Y0011782D01*
Y0011781D02*
Y0011900D01*
Y0011782D02*
X0018090D01*
X0018326D02*
X0018208D01*
X0018503Y0011428D02*
X0018385D01*
X0016613Y0011309D02*
Y0011427D01*
X0016495D01*
X0016732D02*
X0016613D01*
Y0011545D01*
X0016968Y0011309D02*
Y0011428D01*
Y0011427D02*
Y0011545D01*
Y0011428D02*
X0016850D01*
X0017086D02*
X0016968D01*
X0017322Y0011309D02*
Y0011428D01*
Y0011427D02*
Y0011545D01*
Y0011428D02*
X0017204D01*
X0017440D02*
X0017322D01*
X0017676Y0011309D02*
Y0011428D01*
Y0011427D02*
Y0011545D01*
Y0011428D02*
X0017558D01*
X0017795D02*
X0017676D01*
X0018031Y0011309D02*
Y0011428D01*
Y0011427D02*
Y0011545D01*
Y0011428D02*
X0017913D01*
X0018149D02*
X0018031D01*
X0018385Y0011309D02*
Y0011428D01*
Y0011427D02*
Y0011545D01*
Y0011428D02*
X0018267D01*
X0016791Y0010955D02*
Y0011073D01*
X0016673D01*
X0016909D02*
X0016791D01*
Y0011191D01*
X0017145Y0010955D02*
Y0011073D01*
Y0011191D01*
Y0011073D02*
X0017027D01*
X0017263D02*
X0017145D01*
X0017499Y0010955D02*
Y0011073D01*
Y0011191D01*
Y0011073D02*
X0017381D01*
X0017617D02*
X0017499D01*
X0017854Y0010955D02*
Y0011073D01*
Y0011191D01*
Y0011073D02*
X0017736D01*
X0017972D02*
X0017854D01*
X0018208Y0010955D02*
Y0011073D01*
Y0011191D01*
Y0011073D02*
X0018090D01*
X0018326D02*
X0018208D01*
X0018503Y0010719D02*
X0018385D01*
X0016613Y0010600D02*
Y0010718D01*
X0016495D01*
X0016732D02*
X0016613D01*
Y0010837D01*
X0016968Y0010601D02*
Y0010719D01*
Y0010718D02*
Y0010837D01*
Y0010719D02*
X0016850D01*
X0017086D02*
X0016968D01*
X0017322Y0010601D02*
Y0010719D01*
Y0010718D02*
Y0010837D01*
Y0010719D02*
X0017204D01*
X0017440D02*
X0017322D01*
X0017676Y0010601D02*
Y0010719D01*
Y0010718D02*
Y0010837D01*
Y0010719D02*
X0017558D01*
X0017795D02*
X0017676D01*
X0018031Y0010601D02*
Y0010719D01*
Y0010718D02*
Y0010837D01*
Y0010719D02*
X0017913D01*
X0018149D02*
X0018031D01*
X0018385Y0010601D02*
Y0010719D01*
Y0010718D02*
Y0010837D01*
Y0010719D02*
X0018267D01*
X0023409Y0010364D02*
X0023291D01*
X0024826D02*
X0024708D01*
X0023291Y0010246D02*
Y0010364D01*
Y0010482D01*
Y0010364D02*
X0023173D01*
X0023645Y0010246D02*
Y0010364D01*
Y0010482D01*
Y0010364D02*
X0023527D01*
X0023468Y0012018D02*
Y0012136D01*
X0023822Y0012018D02*
Y0012136D01*
X0023232D02*
X0023113D01*
Y0012254D01*
X0023822Y0012136D02*
X0023704D01*
X0023940D02*
X0023822D01*
X0024176Y0012018D02*
Y0012136D01*
X0024058D01*
X0023763Y0010364D02*
X0023645D01*
X0023999Y0010246D02*
Y0010364D01*
Y0010482D01*
Y0010364D02*
X0023881D01*
X0024117D02*
X0023999D01*
X0024354Y0010246D02*
Y0010364D01*
Y0010482D01*
Y0010364D02*
X0024236D01*
X0024472D02*
X0024354D01*
X0024708Y0010246D02*
Y0010364D01*
Y0010482D01*
Y0010364D02*
X0024590D01*
X0023113Y0012018D02*
Y0012136D01*
X0022995D01*
X0023468D02*
Y0012254D01*
Y0012136D02*
X0023350D01*
X0023586D02*
X0023468D01*
X0023822D02*
Y0012254D01*
X0022774Y0012565D02*
X0022666D01*
X0022779Y0012556D02*
X0022660D01*
X0022783Y0012547D02*
X0022657D01*
X0022785Y0012538D02*
X0022655D01*
X0022786Y0012529D02*
X0022654D01*
X0022785Y0012520D02*
X0022654D01*
X0022783Y0012511D02*
X0022656D01*
X0022780Y0012502D02*
X0022659D01*
X0022776Y0012493D02*
X0022664D01*
X0022769Y0012484D02*
X0022671D01*
X0022759Y0012475D02*
X0022681D01*
X0022721Y0012594D02*
Y0012462D01*
X0022712Y0012594D02*
Y0012463D01*
X0022703Y0012592D02*
Y0012465D01*
X0022694Y0012589D02*
Y0012468D01*
X0022685Y0012584D02*
Y0012472D01*
X0022676Y0012577D02*
Y0012479D01*
X0022667Y0012567D02*
Y0012489D01*
X0022658Y0012551D02*
Y0012506D01*
X0022734Y0012592D02*
X0022705D01*
X0022756Y0012583D02*
X0022684D01*
X0022767Y0012574D02*
X0022673D01*
X0022784Y0012543D02*
Y0012514D01*
X0022775Y0012564D02*
Y0012492D01*
X0022766Y0012575D02*
Y0012481D01*
X0022757Y0012582D02*
Y0012474D01*
X0022748Y0012588D02*
Y0012469D01*
X0022739Y0012591D02*
Y0012465D01*
X0022730Y0012593D02*
Y0012463D01*
X0022742Y0012466D02*
X0022697D01*
X0024176Y0012136D02*
Y0012254D01*
X0024354Y0011664D02*
Y0011782D01*
X0024236D01*
X0024531Y0012018D02*
Y0012136D01*
X0024649D02*
X0024531D01*
X0024295D02*
X0024176D01*
X0024531D02*
Y0012254D01*
Y0012136D02*
X0024413D01*
X0024885Y0012018D02*
Y0012136D01*
Y0012254D01*
Y0012136D02*
X0024767D01*
X0025003D02*
X0024885D01*
X0023291Y0011663D02*
Y0011781D01*
X0023173D01*
X0023409D02*
X0023291D01*
Y0011900D01*
X0023645Y0011664D02*
Y0011782D01*
Y0011781D02*
Y0011900D01*
Y0011782D02*
X0023527D01*
X0023763D02*
X0023645D01*
X0023999Y0011664D02*
Y0011782D01*
Y0011781D02*
Y0011900D01*
Y0011782D02*
X0023881D01*
X0024117D02*
X0023999D01*
X0024354Y0011781D02*
Y0011900D01*
X0024472Y0011782D02*
X0024354D01*
X0024708Y0011664D02*
Y0011782D01*
Y0011781D02*
Y0011900D01*
Y0011782D02*
X0024590D01*
X0024826D02*
X0024708D01*
X0025003Y0011428D02*
X0024885D01*
X0023113Y0011309D02*
Y0011427D01*
X0022995D01*
X0023232D02*
X0023113D01*
Y0011545D01*
X0023468Y0011309D02*
Y0011428D01*
Y0011427D02*
Y0011545D01*
Y0011428D02*
X0023350D01*
X0023586D02*
X0023468D01*
X0023822Y0011309D02*
Y0011428D01*
Y0011427D02*
Y0011545D01*
Y0011428D02*
X0023704D01*
X0023940D02*
X0023822D01*
X0024176Y0011309D02*
Y0011428D01*
Y0011427D02*
Y0011545D01*
Y0011428D02*
X0024058D01*
X0024295D02*
X0024176D01*
X0024531Y0011309D02*
Y0011428D01*
Y0011427D02*
Y0011545D01*
Y0011428D02*
X0024413D01*
X0024649D02*
X0024531D01*
X0024885Y0011309D02*
Y0011428D01*
Y0011427D02*
Y0011545D01*
Y0011428D02*
X0024767D01*
X0023291Y0010955D02*
Y0011073D01*
X0023173D01*
X0023409D02*
X0023291D01*
Y0011191D01*
X0023645Y0010955D02*
Y0011073D01*
Y0011191D01*
Y0011073D02*
X0023527D01*
X0023763D02*
X0023645D01*
X0023999Y0010955D02*
Y0011073D01*
Y0011191D01*
Y0011073D02*
X0023881D01*
X0024117D02*
X0023999D01*
X0024354Y0010955D02*
Y0011073D01*
Y0011191D01*
Y0011073D02*
X0024236D01*
X0024472D02*
X0024354D01*
X0024708Y0010955D02*
Y0011073D01*
Y0011191D01*
Y0011073D02*
X0024590D01*
X0024826D02*
X0024708D01*
X0025003Y0010719D02*
X0024885D01*
X0023113Y0010600D02*
Y0010718D01*
X0022995D01*
X0023232D02*
X0023113D01*
Y0010837D01*
X0023468Y0010601D02*
Y0010719D01*
Y0010718D02*
Y0010837D01*
Y0010719D02*
X0023350D01*
X0023586D02*
X0023468D01*
X0023822Y0010601D02*
Y0010719D01*
Y0010718D02*
Y0010837D01*
Y0010719D02*
X0023704D01*
X0023940D02*
X0023822D01*
X0024176Y0010601D02*
Y0010719D01*
Y0010718D02*
Y0010837D01*
Y0010719D02*
X0024058D01*
X0024295D02*
X0024176D01*
X0024531Y0010601D02*
Y0010719D01*
Y0010718D02*
Y0010837D01*
Y0010719D02*
X0024413D01*
X0024649D02*
X0024531D01*
X0024885Y0010601D02*
Y0010719D01*
Y0010718D02*
Y0010837D01*
Y0010719D02*
X0024767D01*
X0029909Y0010364D02*
X0029791D01*
X0031326D02*
X0031208D01*
X0029791Y0010246D02*
Y0010364D01*
Y0010482D01*
Y0010364D02*
X0029673D01*
X0030145Y0010246D02*
Y0010364D01*
Y0010482D01*
Y0010364D02*
X0030027D01*
X0029968Y0012018D02*
Y0012136D01*
X0030322Y0012018D02*
Y0012136D01*
X0029732D02*
X0029613D01*
Y0012254D01*
X0030322Y0012136D02*
X0030204D01*
X0030440D02*
X0030322D01*
X0030676Y0012018D02*
Y0012136D01*
X0030558D01*
X0030263Y0010364D02*
X0030145D01*
X0030499Y0010246D02*
Y0010364D01*
Y0010482D01*
Y0010364D02*
X0030381D01*
X0030617D02*
X0030499D01*
X0030854Y0010246D02*
Y0010364D01*
Y0010482D01*
Y0010364D02*
X0030736D01*
X0030972D02*
X0030854D01*
X0031208Y0010246D02*
Y0010364D01*
Y0010482D01*
Y0010364D02*
X0031090D01*
X0029613Y0012018D02*
Y0012136D01*
X0029495D01*
X0029968D02*
Y0012254D01*
Y0012136D02*
X0029850D01*
X0030086D02*
X0029968D01*
X0030322D02*
Y0012254D01*
X0029274Y0012565D02*
X0029166D01*
X0029279Y0012556D02*
X0029160D01*
X0029283Y0012547D02*
X0029157D01*
X0029285Y0012538D02*
X0029155D01*
X0029286Y0012529D02*
X0029154D01*
X0029285Y0012520D02*
X0029154D01*
X0029283Y0012511D02*
X0029156D01*
X0029280Y0012502D02*
X0029159D01*
X0029276Y0012493D02*
X0029164D01*
X0029269Y0012484D02*
X0029171D01*
X0029259Y0012475D02*
X0029181D01*
X0029221Y0012594D02*
Y0012462D01*
X0029212Y0012594D02*
Y0012463D01*
X0029203Y0012592D02*
Y0012465D01*
X0029194Y0012589D02*
Y0012468D01*
X0029185Y0012584D02*
Y0012472D01*
X0029176Y0012577D02*
Y0012479D01*
X0029167Y0012567D02*
Y0012489D01*
X0029158Y0012551D02*
Y0012506D01*
X0029234Y0012592D02*
X0029205D01*
X0029256Y0012583D02*
X0029184D01*
X0029267Y0012574D02*
X0029173D01*
X0029284Y0012543D02*
Y0012514D01*
X0029275Y0012564D02*
Y0012492D01*
X0029266Y0012575D02*
Y0012481D01*
X0029257Y0012582D02*
Y0012474D01*
X0029248Y0012588D02*
Y0012469D01*
X0029239Y0012591D02*
Y0012465D01*
X0029230Y0012593D02*
Y0012463D01*
X0029242Y0012466D02*
X0029197D01*
X0030676Y0012136D02*
Y0012254D01*
X0030854Y0011664D02*
Y0011782D01*
X0030736D01*
X0031031Y0012018D02*
Y0012136D01*
X0031149D02*
X0031031D01*
X0030795D02*
X0030676D01*
X0031031D02*
Y0012254D01*
Y0012136D02*
X0030913D01*
X0031385Y0012018D02*
Y0012136D01*
Y0012254D01*
Y0012136D02*
X0031267D01*
X0031503D02*
X0031385D01*
X0029791Y0011663D02*
Y0011781D01*
X0029673D01*
X0029909D02*
X0029791D01*
Y0011900D01*
X0030145Y0011664D02*
Y0011782D01*
Y0011781D02*
Y0011900D01*
Y0011782D02*
X0030027D01*
X0030263D02*
X0030145D01*
X0030499Y0011664D02*
Y0011782D01*
Y0011781D02*
Y0011900D01*
Y0011782D02*
X0030381D01*
X0030617D02*
X0030499D01*
X0030854Y0011781D02*
Y0011900D01*
X0030972Y0011782D02*
X0030854D01*
X0031208Y0011664D02*
Y0011782D01*
Y0011781D02*
Y0011900D01*
Y0011782D02*
X0031090D01*
X0031326D02*
X0031208D01*
X0031503Y0011428D02*
X0031385D01*
X0029613Y0011309D02*
Y0011427D01*
X0029495D01*
X0029732D02*
X0029613D01*
Y0011545D01*
X0029968Y0011309D02*
Y0011428D01*
Y0011427D02*
Y0011545D01*
Y0011428D02*
X0029850D01*
X0030086D02*
X0029968D01*
X0030322Y0011309D02*
Y0011428D01*
Y0011427D02*
Y0011545D01*
Y0011428D02*
X0030204D01*
X0030440D02*
X0030322D01*
X0030676Y0011309D02*
Y0011428D01*
Y0011427D02*
Y0011545D01*
Y0011428D02*
X0030558D01*
X0030795D02*
X0030676D01*
X0031031Y0011309D02*
Y0011428D01*
Y0011427D02*
Y0011545D01*
Y0011428D02*
X0030913D01*
X0031149D02*
X0031031D01*
X0031385Y0011309D02*
Y0011428D01*
Y0011427D02*
Y0011545D01*
Y0011428D02*
X0031267D01*
X0029791Y0010955D02*
Y0011073D01*
X0029673D01*
X0029909D02*
X0029791D01*
Y0011191D01*
X0030145Y0010955D02*
Y0011073D01*
Y0011191D01*
Y0011073D02*
X0030027D01*
X0030263D02*
X0030145D01*
X0030499Y0010955D02*
Y0011073D01*
Y0011191D01*
Y0011073D02*
X0030381D01*
X0030617D02*
X0030499D01*
X0030854Y0010955D02*
Y0011073D01*
Y0011191D01*
Y0011073D02*
X0030736D01*
X0030972D02*
X0030854D01*
X0031208Y0010955D02*
Y0011073D01*
Y0011191D01*
Y0011073D02*
X0031090D01*
X0031326D02*
X0031208D01*
X0031503Y0010719D02*
X0031385D01*
X0029613Y0010600D02*
Y0010718D01*
X0029495D01*
X0029732D02*
X0029613D01*
Y0010837D01*
X0029968Y0010601D02*
Y0010719D01*
Y0010718D02*
Y0010837D01*
Y0010719D02*
X0029850D01*
X0030086D02*
X0029968D01*
X0030322Y0010601D02*
Y0010719D01*
Y0010718D02*
Y0010837D01*
Y0010719D02*
X0030204D01*
X0030440D02*
X0030322D01*
X0030676Y0010601D02*
Y0010719D01*
Y0010718D02*
Y0010837D01*
Y0010719D02*
X0030558D01*
X0030795D02*
X0030676D01*
X0031031Y0010601D02*
Y0010719D01*
Y0010718D02*
Y0010837D01*
Y0010719D02*
X0030913D01*
X0031149D02*
X0031031D01*
X0031385Y0010601D02*
Y0010719D01*
Y0010718D02*
Y0010837D01*
Y0010719D02*
X0031267D01*
X0046555Y0006999D02*
X0046456D01*
X0046358D02*
X0046456D01*
Y0007001D02*
Y0007099D01*
X0046259Y0006607D02*
Y0006706D01*
X0046062Y0007001D02*
Y0007099D01*
Y0006902D02*
Y0007001D01*
X0046161Y0006704D02*
X0046259D01*
X0045964Y0006408D02*
X0046062D01*
X0046161D02*
X0046062D01*
Y0006406D02*
Y0006308D01*
Y0006505D02*
Y0006406D01*
X0046358Y0006704D02*
X0046259D01*
X0046555Y0006408D02*
X0046456D01*
X0046358D02*
X0046456D01*
Y0006406D02*
Y0006308D01*
Y0006505D02*
Y0006406D01*
Y0006902D02*
Y0007001D01*
X0046994Y0006052D02*
X0046886D01*
X0046999Y0006043D02*
X0046881D01*
X0047003Y0006034D02*
X0046877D01*
X0047005Y0006025D02*
X0046875D01*
X0047006Y0006016D02*
X0046875D01*
X0047005Y0006007D02*
X0046875D01*
X0047004Y0005998D02*
X0046877D01*
X0047001Y0005989D02*
X0046880D01*
X0046996Y0005980D02*
X0046884D01*
X0046989Y0005971D02*
X0046891D01*
X0046979Y0005962D02*
X0046901D01*
X0046942Y0006080D02*
Y0005949D01*
X0046933Y0006080D02*
Y0005949D01*
X0046924Y0006078D02*
Y0005951D01*
X0046915Y0006075D02*
Y0005954D01*
X0046906Y0006070D02*
Y0005959D01*
X0046897Y0006064D02*
Y0005965D01*
X0046888Y0006054D02*
Y0005975D01*
X0046879Y0006037D02*
Y0005992D01*
X0046953Y0006079D02*
X0046927D01*
X0046975Y0006070D02*
X0046905D01*
X0046987Y0006061D02*
X0046894D01*
X0047005Y0006027D02*
Y0006002D01*
X0046996Y0006050D02*
Y0005979D01*
X0046987Y0006061D02*
Y0005968D01*
X0046978Y0006068D02*
Y0005961D01*
X0046969Y0006074D02*
Y0005955D01*
X0046960Y0006077D02*
Y0005952D01*
X0046951Y0006079D02*
Y0005950D01*
X0046963Y0005953D02*
X0046918D01*
X0047062Y0005901D02*
X0045456D01*
Y0007503D01*
X0047062D01*
Y0005901D01*
X0046259Y0006706D02*
Y0006804D01*
X0045964Y0006999D02*
X0046062D01*
X0046161D02*
X0046062D01*
G01X0009654Y0012528D02*
G03X0009720Y0012462I0000066J0000000D01*
Y0012594D02*
G03X0009654Y0012528I0000000J0000066D01*
G01X0009786D02*
G03X0009720Y0012594I0000066J0000000D01*
Y0012462D02*
G03X0009786Y0012528I0000000J0000066D01*
G01X0031714Y0002471D02*
G03X0031780Y0002405I0000066J0000000D01*
Y0002537D02*
G03X0031714Y0002471I0000000J0000066D01*
G01X0031845D02*
G03X0031780Y0002536I0000065J0000000D01*
Y0002405D02*
G03X0031846Y0002471I0000000J0000066D01*
G01X0025214D02*
G03X0025280Y0002405I0000066J0000000D01*
Y0002537D02*
G03X0025214Y0002471I0000000J0000066D01*
G01X0025345D02*
G03X0025280Y0002536I0000065J0000000D01*
Y0002405D02*
G03X0025346Y0002471I0000000J0000066D01*
G01X0018714D02*
G03X0018780Y0002405I0000066J0000000D01*
Y0002537D02*
G03X0018714Y0002471I0000000J0000066D01*
G01X0018845D02*
G03X0018780Y0002536I0000065J0000000D01*
Y0002405D02*
G03X0018846Y0002471I0000000J0000066D01*
G01X0012214D02*
G03X0012280Y0002405I0000066J0000000D01*
Y0002537D02*
G03X0012214Y0002471I0000000J0000066D01*
G01X0012345D02*
G03X0012280Y0002536I0000065J0000000D01*
Y0002405D02*
G03X0012346Y0002471I0000000J0000066D01*
G01X0005714D02*
G03X0005780Y0002405I0000066J0000000D01*
Y0002537D02*
G03X0005714Y0002471I0000000J0000066D01*
G01X0005845D02*
G03X0005780Y0002536I0000065J0000000D01*
Y0002405D02*
G03X0005846Y0002471I0000000J0000066D01*
G01X0003154Y0012528D02*
G03X0003220Y0012462I0000066J0000000D01*
Y0012594D02*
G03X0003154Y0012528I0000000J0000066D01*
G01X0003286D02*
G03X0003220Y0012594I0000066J0000000D01*
Y0012462D02*
G03X0003286Y0012528I0000000J0000066D01*
G01X0016154D02*
G03X0016220Y0012462I0000066J0000000D01*
Y0012594D02*
G03X0016154Y0012528I0000000J0000066D01*
G01X0016286D02*
G03X0016220Y0012594I0000066J0000000D01*
Y0012462D02*
G03X0016286Y0012528I0000000J0000066D01*
G01X0022654D02*
G03X0022720Y0012462I0000066J0000000D01*
Y0012594D02*
G03X0022654Y0012528I0000000J0000066D01*
G01X0022786D02*
G03X0022720Y0012594I0000066J0000000D01*
Y0012462D02*
G03X0022786Y0012528I0000000J0000066D01*
G01X0029154D02*
G03X0029220Y0012462I0000066J0000000D01*
Y0012594D02*
G03X0029154Y0012528I0000000J0000066D01*
G01X0029286D02*
G03X0029220Y0012594I0000066J0000000D01*
Y0012462D02*
G03X0029286Y0012528I0000000J0000066D01*
G01X0046875Y0006015D02*
G03X0046940Y0005950I0000065J0000000D01*
Y0006080D02*
G03X0046875Y0006015I0000000J0000065D01*
G01X0047006D02*
G03X0046940Y0006081I0000066J0000000D01*
Y0005949D02*
G03X0047006Y0006015I0000000J0000066D01*
G54D60*
G01X0050407Y0014077D02*
X0050240D01*
X0050323D02*
Y0014577D01*
X0050240Y0014494D01*
X0055215Y0011905D02*
X0055390D01*
Y0011730D01*
X0055346Y0011643D01*
X0055083D01*
X0055040Y0011730D01*
Y0012080D01*
X0055083Y0012168D01*
X0055346D01*
X0055390Y0012080D01*
X0054796Y0011818D02*
X0054446D01*
X0054796Y0011643D02*
Y0011905D01*
X0054665Y0012168D01*
X0054577D01*
X0054446Y0011905D01*
Y0011643D01*
X0054027D02*
Y0012168D01*
X0054202D02*
X0053852D01*
X0053303Y0011818D02*
Y0011730D01*
X0053346Y0011643D01*
X0053521D01*
X0053565Y0011730D01*
Y0012168D01*
X0053609D02*
X0053434D01*
X0059222Y0000857D02*
Y0000690D01*
Y0000773D02*
X0058722D01*
X0058806Y0000690D01*
X0059257Y0004159D02*
X0058732D01*
X0059257Y0004115D02*
Y0004378D01*
X0059170Y0004465D01*
X0059082D01*
X0058995Y0004421D01*
Y0004159D02*
Y0004421D01*
X0058907Y0004465D01*
X0058820D01*
X0058732Y0004378D01*
Y0004115D01*
X0058820Y0003871D02*
X0058732Y0003828D01*
Y0003565D01*
X0058820Y0003521D01*
X0058907D01*
X0058995Y0003565D01*
Y0003828D01*
X0059082Y0003871D01*
X0059170D01*
X0059257Y0003828D01*
Y0003565D01*
X0059170Y0003521D01*
X0058732Y0003278D02*
X0059170D01*
X0059257Y0003234D01*
Y0002971D01*
X0059170Y0002928D01*
X0058732D01*
X0057638Y0011596D02*
X0057900Y0011727D01*
X0057638Y0011377D02*
Y0011640D01*
X0057551Y0011727D01*
X0057463D01*
X0057376Y0011640D01*
Y0011377D01*
X0057900D01*
X0057638Y0011046D02*
Y0010784D01*
X0057900Y0011134D02*
Y0010784D01*
X0057376D01*
Y0011134D01*
Y0010540D02*
X0057813D01*
X0057900Y0010496D01*
X0057638Y0010365D01*
X0057551D02*
X0057638D01*
X0057900Y0010234D01*
X0057813Y0010190D01*
X0057376D01*
X0057900Y0009640D02*
X0057813Y0009596D01*
X0057463D01*
X0057376Y0009640D01*
Y0009902D01*
X0057463Y0009946D01*
X0057813D01*
X0057900Y0009902D01*
Y0009640D01*
X0057638Y0009003D02*
Y0009265D01*
X0057551Y0009353D01*
X0057463D01*
X0057376Y0009265D01*
Y0009003D01*
X0057900D01*
X0058000Y0007259D02*
Y0007093D01*
Y0007176D02*
X0057500D01*
X0057584Y0007093D01*
X0000000Y0000000D02*
X0061900D01*
Y0015000D01*
X0000000D01*
Y0000000D01*
X0061900D01*
Y0015000D01*
X0000000D01*
Y0000000D01*
G54D65*
G01X0041944Y0019628D02*
X0041111D01*
X0042222Y0018794D02*
X0041111D01*
Y0020461D01*
X0042222D01*
X0040155Y0019628D02*
X0040572Y0018794D01*
X0039461Y0019628D02*
X0040294D01*
X0040572Y0019905D01*
Y0020183D01*
X0040294Y0020461D01*
X0039461D01*
Y0018794D01*
X0038922Y0020461D02*
Y0019072D01*
X0038783Y0018794D01*
X0037950D01*
X0037811Y0019072D01*
Y0020461D01*
X0036716Y0018794D02*
Y0020461D01*
X0037272D02*
X0036161D01*
X0035622Y0019350D02*
X0034511D01*
X0035622Y0018794D02*
Y0019628D01*
X0035205Y0020461D01*
X0034927D01*
X0034511Y0019628D01*
Y0018794D01*
X0033972D02*
X0033000D01*
Y0020461D01*
X0032461Y0019072D02*
X0032322Y0018794D01*
X0031489D01*
X0031350Y0019072D01*
Y0020183D01*
X0031489Y0020461D01*
X0032322D01*
X0032461Y0020183D01*
X0030811Y0020461D02*
Y0018794D01*
X0030533Y0019072D01*
X0029978Y0020183D01*
X0029700Y0020461D01*
Y0018794D01*
X0028883Y0019628D02*
X0028050D01*
X0029161Y0018794D02*
X0028050D01*
Y0020461D01*
X0029161D01*
X0027511Y0018794D02*
Y0020461D01*
X0027233Y0020183D01*
X0026955Y0019628D01*
X0026678Y0020183D01*
X0026400Y0020461D01*
Y0018794D01*
X0024889D02*
X0024750Y0019072D01*
Y0020183D01*
X0024889Y0020461D01*
X0025722D01*
X0025861Y0020183D01*
Y0019072D01*
X0025722Y0018794D01*
X0024889D01*
X0024211Y0020461D02*
Y0018794D01*
X0023933Y0019072D01*
X0023378Y0020183D01*
X0023100Y0020461D01*
Y0018794D01*
X0019730D02*
Y0019628D01*
X0020286Y0020461D02*
X0019869Y0019628D01*
X0019591D01*
X0019175Y0020461D01*
X0018636Y0018794D02*
X0017664D01*
Y0020461D01*
X0016153Y0018794D02*
Y0020461D01*
X0016014Y0018794D02*
X0016847D01*
X0017125Y0019072D01*
Y0019350D01*
X0016986Y0019628D01*
X0016153D02*
X0016986D01*
X0017125Y0019905D01*
Y0020183D01*
X0016847Y0020461D01*
X0016014D01*
X0015475Y0018794D02*
Y0020461D01*
X0015197Y0020183D01*
X0014919Y0019628D01*
X0014642Y0020183D01*
X0014364Y0020461D01*
Y0018794D01*
X0013547Y0019628D02*
X0012714D01*
X0013825Y0018794D02*
X0012714D01*
Y0020461D01*
X0013825D01*
X0012175Y0020183D02*
X0012036Y0020461D01*
X0011203D01*
X0011064Y0020183D01*
Y0019905D01*
X0011203Y0019628D01*
X0012036D01*
X0012175Y0019350D01*
Y0019072D01*
X0012036Y0018794D01*
X0011203D01*
X0011064Y0019072D01*
X0010525Y0020183D02*
X0010386Y0020461D01*
X0009553D01*
X0009414Y0020183D01*
Y0019905D01*
X0009553Y0019628D01*
X0010386D01*
X0010525Y0019350D01*
Y0019072D01*
X0010386Y0018794D01*
X0009553D01*
X0009414Y0019072D01*
X0008875Y0019350D02*
X0007764D01*
X0008875Y0018794D02*
Y0019628D01*
X0008458Y0020461D01*
X0008180D01*
X0007764Y0019628D01*
Y0018794D01*
X0003839Y0019628D02*
X0004672D01*
X0004950Y0019905D01*
Y0020183D01*
X0004672Y0020461D01*
X0003839D01*
Y0018794D01*
X0002328D02*
X0002189Y0019072D01*
Y0020183D01*
X0002328Y0020461D01*
X0003161D01*
X0003300Y0020183D01*
Y0019072D01*
X0003161Y0018794D01*
X0002328D01*
X0001094D02*
Y0020461D01*
X0001650D02*
X0000539D01*
G54D158*
G01X0018753Y0007938D02*
G03X0018767Y0007952I0000000J0000014D01*
G01X0018739D02*
G03X0018753Y0007938I0000014J0000000D01*
Y0007966D02*
G03X0018739Y0007952I0000000J0000014D01*
G01X0018767D02*
G03X0018753Y0007966I0000014J0000000D01*
G01X0037452Y0004213D02*
G03X0037466Y0004227I0000000J0000014D01*
G01X0037438D02*
G03X0037452Y0004213I0000014J0000000D01*
Y0004241D02*
G03X0037438Y0004227I0000000J0000014D01*
G01X0037466D02*
G03X0037452Y0004241I0000014J0000000D01*
G01X0052439Y0003975D02*
G03X0052452Y0003988I0000000J0000013D01*
G01X0052426D02*
G03X0052439Y0003975I0000013J0000000D01*
Y0004002D02*
G03X0052425Y0003988I0000000J0000014D01*
G01X0052453D02*
G03X0052439Y0004002I0000014J0000000D01*
G01X0051223Y0000980D02*
G03X0051236Y0000993I0000000J0000013D01*
G01X0051210D02*
G03X0051223Y0000980I0000013J0000000D01*
Y0001007D02*
G03X0051209Y0000993I0000000J0000014D01*
G01X0051237D02*
G03X0051223Y0001007I0000014J0000000D01*
G01X0036574Y0011374D02*
G03X0036588Y0011388I0000000J0000014D01*
G01X0036560D02*
G03X0036574Y0011374I0000014J0000000D01*
Y0011402D02*
G03X0036560Y0011388I0000000J0000014D01*
G01X0036588D02*
G03X0036574Y0011402I0000014J0000000D01*
G01X0038774Y0011374D02*
G03X0038788Y0011388I0000000J0000014D01*
G01X0038760D02*
G03X0038774Y0011374I0000014J0000000D01*
Y0011402D02*
G03X0038760Y0011388I0000000J0000014D01*
G01X0038788D02*
G03X0038774Y0011402I0000014J0000000D01*
G01X0046026Y0002684D02*
G03X0046039Y0002697I0000000J0000013D01*
G01X0046013D02*
G03X0046026Y0002684I0000013J0000000D01*
Y0002711D02*
G03X0046012Y0002697I0000000J0000014D01*
G01X0046040D02*
G03X0046026Y0002711I0000014J0000000D01*
G01X0043762Y0008610D02*
G03X0043776Y0008624I0000000J0000014D01*
G01X0043748D02*
G03X0043762Y0008610I0000014J0000000D01*
Y0008637D02*
G03X0043749Y0008624I0000000J0000013D01*
G01X0043775D02*
G03X0043762Y0008637I0000013J0000000D01*
Y0006410D02*
G03X0043776Y0006424I0000000J0000014D01*
G01X0043748D02*
G03X0043762Y0006410I0000014J0000000D01*
Y0006437D02*
G03X0043749Y0006424I0000000J0000013D01*
G01X0043775D02*
G03X0043762Y0006437I0000013J0000000D01*
G54D159*
G01X0050385Y0010904D02*
X0050485Y0011104D01*
X0050352D01*
X0050256Y0010904D02*
X0050123D01*
X0050256Y0011038D01*
Y0011071D01*
X0050240Y0011104D01*
X0050140D01*
X0050123Y0011071D01*
X0050028Y0011104D02*
Y0010904D01*
X0049994Y0010938D01*
X0049928Y0011071D01*
X0049894Y0011104D01*
Y0010904D01*
X0049799D02*
X0049732D01*
X0049766D02*
Y0011104D01*
X0049799D02*
X0049732D01*
X0049470Y0011004D02*
X0049570D01*
X0049604Y0011038D01*
Y0011071D01*
X0049570Y0011104D01*
X0049470D01*
Y0010904D01*
X0054138Y0004704D02*
X0054238D01*
X0054271Y0004738D01*
Y0004771D01*
X0054238Y0004804D01*
X0054138D01*
Y0004604D01*
X0054042Y0004538D02*
X0053909D01*
X0053747Y0004704D02*
X0053814D01*
Y0004638D01*
X0053797Y0004604D01*
X0053697D01*
X0053680Y0004638D01*
Y0004771D01*
X0053697Y0004804D01*
X0053797D01*
X0053814Y0004771D01*
X0053585Y0004604D02*
X0053518D01*
X0053552D02*
Y0004804D01*
X0053585D02*
X0053518D01*
X0053356Y0004704D02*
X0053256D01*
Y0004604D02*
Y0004804D01*
X0053390D01*
X0053161D02*
Y0004604D01*
X0053128Y0004638D01*
X0053061Y0004771D01*
X0053028Y0004804D01*
Y0004604D01*
X0052816D02*
X0052799Y0004638D01*
Y0004771D01*
X0052816Y0004804D01*
X0052916D01*
X0052932Y0004771D01*
Y0004638D01*
X0052916Y0004604D01*
X0052816D01*
X0052704Y0004638D02*
X0052687Y0004604D01*
X0052587D01*
X0052570Y0004638D01*
Y0004771D01*
X0052587Y0004804D01*
X0052687D01*
X0052704Y0004771D01*
X0055602Y0010954D02*
X0055535D01*
X0055568D02*
Y0011154D01*
X0055535Y0011121D01*
X0055406Y0010954D02*
X0055273D01*
X0055406Y0011088D01*
Y0011121D01*
X0055390Y0011154D01*
X0055290D01*
X0055273Y0011121D01*
X0055178Y0011154D02*
Y0010954D01*
X0055144Y0010988D01*
X0055078Y0011121D01*
X0055044Y0011154D01*
Y0010954D01*
X0054949D02*
X0054882D01*
X0054916D02*
Y0011154D01*
X0054949D02*
X0054882D01*
X0054620Y0011054D02*
X0054720D01*
X0054754Y0011088D01*
Y0011121D01*
X0054720Y0011154D01*
X0054620D01*
Y0010954D01*
X0051779Y0010015D02*
X0051745Y0010048D01*
X0051729Y0010081D01*
Y0010148D01*
X0051745Y0010181D01*
X0051779Y0010215D01*
X0051812D01*
X0051845Y0010181D01*
X0051862Y0010148D01*
Y0010081D01*
X0051845Y0010048D01*
X0051812Y0010015D01*
X0051779D01*
X0051500Y0010048D02*
X0051533Y0010015D01*
X0051600D01*
X0051633Y0010048D01*
Y0010081D01*
X0051567Y0010148D01*
X0051633Y0010215D01*
X0051500D01*
X0051355Y0010115D02*
X0051405Y0010015D01*
X0051271Y0010115D02*
X0051371D01*
X0051405Y0010148D01*
Y0010181D01*
X0051371Y0010215D01*
X0051271D01*
Y0010015D01*
X0057868Y0008404D02*
X0057802D01*
X0057835D02*
Y0008604D01*
X0057802Y0008571D01*
X0057673Y0008404D02*
X0057573Y0008504D01*
X0057673Y0008604D01*
X0057540D02*
Y0008404D01*
X0057444D02*
X0057328D01*
Y0008604D01*
X0057232Y0008438D02*
X0057216Y0008404D01*
X0057116D01*
X0057099Y0008438D01*
Y0008571D01*
X0057116Y0008604D01*
X0057216D01*
X0057232Y0008571D01*
X0057004D02*
X0056987Y0008604D01*
X0056887D01*
X0056870Y0008571D01*
Y0008538D01*
X0056887Y0008504D01*
X0056987D01*
X0057004Y0008471D01*
Y0008438D01*
X0056987Y0008404D01*
X0056887D01*
X0056870Y0008438D01*
X0055521Y0008262D02*
X0055488Y0008295D01*
X0055471Y0008328D01*
Y0008395D01*
X0055488Y0008428D01*
X0055521Y0008462D01*
X0055554D01*
X0055588Y0008428D01*
X0055604Y0008395D01*
Y0008328D01*
X0055588Y0008295D01*
X0055554Y0008262D01*
X0055521D01*
X0055242Y0008295D02*
X0055259Y0008262D01*
X0055359D01*
X0055376Y0008295D01*
Y0008362D01*
X0055342Y0008395D01*
X0055242D01*
Y0008462D01*
X0055376D01*
X0055147Y0008262D02*
X0055080D01*
X0055114D02*
Y0008462D01*
X0055080Y0008428D01*
X0054952Y0008295D02*
X0054935Y0008262D01*
X0054835D01*
X0054818Y0008295D01*
Y0008428D01*
X0054835Y0008462D01*
X0054935D01*
X0054952Y0008428D01*
X0056573Y0008404D02*
X0056506D01*
X0056540D02*
Y0008604D01*
X0056506Y0008571D01*
X0056378Y0008404D02*
X0056311D01*
X0056344D02*
Y0008604D01*
X0056378D02*
X0056311D01*
X0056066Y0008404D02*
Y0008604D01*
X0056049Y0008404D02*
X0056149D01*
X0056182Y0008471D01*
Y0008538D01*
X0056149Y0008604D01*
X0056049D01*
X0055954Y0008571D02*
X0055937Y0008604D01*
X0055837D01*
X0055820Y0008571D01*
Y0008538D01*
X0055837Y0008504D01*
X0055937D01*
X0055954Y0008471D01*
Y0008438D01*
X0055937Y0008404D01*
X0055837D01*
X0055820Y0008438D01*
X0053138Y0012071D02*
Y0012004D01*
Y0012038D02*
X0052938D01*
X0052972Y0012004D01*
X0053105Y0011742D02*
X0053138Y0011759D01*
Y0011859D01*
X0053105Y0011876D01*
X0053038D01*
X0053005Y0011842D01*
Y0011742D01*
X0052938D01*
Y0011876D01*
X0053138Y0011647D02*
Y0011580D01*
Y0011614D02*
X0052938D01*
X0052972Y0011580D01*
X0053105Y0011452D02*
X0053138Y0011435D01*
Y0011335D01*
X0053105Y0011318D01*
X0052972D01*
X0052938Y0011335D01*
Y0011435D01*
X0052972Y0011452D01*
X0050623Y0007754D02*
X0050556D01*
X0050590D02*
Y0007954D01*
X0050556Y0007921D01*
X0050428Y0007954D02*
Y0007754D01*
X0050394Y0007788D01*
X0050328Y0007921D01*
X0050294Y0007954D01*
Y0007754D01*
X0050199D02*
X0050132D01*
X0050166D02*
Y0007954D01*
X0050199D02*
X0050132D01*
X0049870Y0007854D02*
X0049970D01*
X0050004Y0007888D01*
Y0007921D01*
X0049970Y0007954D01*
X0049870D01*
Y0007754D01*
X0051720Y0006188D02*
X0051920D01*
X0051887Y0006155D01*
X0051754Y0006088D01*
X0051720Y0006055D01*
X0051920D01*
X0051987Y0005960D02*
Y0005826D01*
X0051820Y0005664D02*
Y0005731D01*
X0051887D01*
X0051920Y0005714D01*
Y0005614D01*
X0051887Y0005598D01*
X0051754D01*
X0051720Y0005614D01*
Y0005714D01*
X0051754Y0005731D01*
X0051920Y0005502D02*
Y0005436D01*
Y0005469D02*
X0051720D01*
Y0005502D02*
Y0005436D01*
X0051820Y0005274D02*
Y0005174D01*
X0051920D02*
X0051720D01*
Y0005307D01*
Y0005078D02*
X0051920D01*
X0051887Y0005045D01*
X0051754Y0004978D01*
X0051720Y0004945D01*
X0051920D01*
Y0004733D02*
X0051887Y0004716D01*
X0051754D01*
X0051720Y0004733D01*
Y0004833D01*
X0051754Y0004850D01*
X0051887D01*
X0051920Y0004833D01*
Y0004733D01*
X0051887Y0004621D02*
X0051920Y0004604D01*
Y0004504D01*
X0051887Y0004488D01*
X0051754D01*
X0051720Y0004504D01*
Y0004604D01*
X0051754Y0004621D01*
X0035837Y0011403D02*
X0035804Y0011436D01*
X0035787Y0011469D01*
Y0011536D01*
X0035804Y0011569D01*
X0035837Y0011603D01*
X0035870D01*
X0035904Y0011569D01*
X0035920Y0011536D01*
Y0011469D01*
X0035904Y0011436D01*
X0035870Y0011403D01*
X0035837D01*
X0035692D02*
X0035625D01*
X0035658D02*
Y0011603D01*
X0035625Y0011569D01*
X0035380Y0011403D02*
X0035363Y0011436D01*
Y0011569D01*
X0035380Y0011603D01*
X0035480D01*
X0035496Y0011569D01*
Y0011436D01*
X0035480Y0011403D01*
X0035380D01*
X0035134Y0011503D02*
X0035234D01*
X0035268Y0011536D01*
Y0011569D01*
X0035234Y0011603D01*
X0035134D01*
Y0011403D01*
X0035039Y0011336D02*
X0034906D01*
X0034744Y0011503D02*
X0034810D01*
Y0011436D01*
X0034794Y0011403D01*
X0034694D01*
X0034677Y0011436D01*
Y0011569D01*
X0034694Y0011603D01*
X0034794D01*
X0034810Y0011569D01*
X0034582Y0011403D02*
X0034515D01*
X0034548D02*
Y0011603D01*
X0034582D02*
X0034515D01*
X0034353Y0011503D02*
X0034253D01*
Y0011403D02*
Y0011603D01*
X0034386D01*
X0034158D02*
Y0011403D01*
X0034124Y0011436D01*
X0034058Y0011569D01*
X0034024Y0011603D01*
Y0011403D01*
X0033812D02*
X0033796Y0011436D01*
Y0011569D01*
X0033812Y0011603D01*
X0033912D01*
X0033929Y0011569D01*
Y0011436D01*
X0033912Y0011403D01*
X0033812D01*
X0033700Y0011436D02*
X0033684Y0011403D01*
X0033584D01*
X0033567Y0011436D01*
Y0011569D01*
X0033584Y0011603D01*
X0033684D01*
X0033700Y0011569D01*
X0049518Y0010054D02*
X0049535Y0010088D01*
Y0010121D01*
X0049518Y0010154D01*
X0049418D01*
X0049402Y0010121D01*
Y0010088D01*
X0049418Y0010054D01*
X0049518D01*
X0049535Y0010021D01*
Y0009988D01*
X0049518Y0009954D01*
X0049418D01*
X0049402Y0009988D01*
Y0010021D01*
X0049418Y0010054D01*
X0049306Y0009954D02*
X0049173D01*
X0049306Y0010088D01*
Y0010121D01*
X0049290Y0010154D01*
X0049190D01*
X0049173Y0010121D01*
X0049078Y0010154D02*
Y0009954D01*
X0049044Y0009988D01*
X0048978Y0010121D01*
X0048944Y0010154D01*
Y0009954D01*
X0048849D02*
X0048782D01*
X0048816D02*
Y0010154D01*
X0048849D02*
X0048782D01*
X0048520Y0010054D02*
X0048620D01*
X0048654Y0010088D01*
Y0010121D01*
X0048620Y0010154D01*
X0048520D01*
Y0009954D01*
X0050352Y0012587D02*
X0050452D01*
X0050469Y0012554D01*
Y0012521D01*
X0050452Y0012487D01*
X0050352D01*
X0050336Y0012521D01*
Y0012554D01*
X0050402Y0012687D01*
X0050124Y0012554D02*
Y0012521D01*
X0050140Y0012487D01*
X0050207D01*
X0050224Y0012521D01*
Y0012687D01*
X0050240D02*
X0050174D01*
X0052188Y0012188D02*
Y0012088D01*
X0052155Y0012071D01*
X0052122D01*
X0052088Y0012088D01*
Y0012188D01*
X0052122Y0012204D01*
X0052155D01*
X0052288Y0012138D01*
X0052222Y0011976D02*
Y0011842D01*
X0052088Y0011909D01*
Y0011942D01*
X0052288D01*
Y0011747D02*
Y0011680D01*
Y0011714D02*
X0052088D01*
X0052122Y0011680D01*
X0052255Y0011552D02*
X0052288Y0011535D01*
Y0011435D01*
X0052255Y0011418D01*
X0052122D01*
X0052088Y0011435D01*
Y0011535D01*
X0052122Y0011552D01*
X0055218Y0006005D02*
X0055184Y0006038D01*
X0055168Y0006072D01*
Y0006138D01*
X0055184Y0006172D01*
X0055218Y0006205D01*
X0055251D01*
X0055284Y0006172D01*
X0055301Y0006138D01*
Y0006072D01*
X0055284Y0006038D01*
X0055251Y0006005D01*
X0055218D01*
X0054956Y0006105D02*
X0055056D01*
X0055072Y0006072D01*
Y0006038D01*
X0055056Y0006005D01*
X0054956D01*
X0054939Y0006038D01*
Y0006072D01*
X0055006Y0006205D01*
X0054844Y0006005D02*
X0054777D01*
X0054810D02*
Y0006205D01*
X0054777Y0006172D01*
X0054648Y0006038D02*
X0054632Y0006005D01*
X0054532D01*
X0054515Y0006038D01*
Y0006172D01*
X0054532Y0006205D01*
X0054632D01*
X0054648Y0006172D01*
X0051188Y0011142D02*
Y0011042D01*
X0051155Y0011026D01*
X0051122D01*
X0051088Y0011042D01*
Y0011142D01*
X0051122Y0011159D01*
X0051155D01*
X0051288Y0011092D01*
Y0010930D02*
Y0010797D01*
X0051155Y0010930D01*
X0051122D01*
X0051088Y0010914D01*
Y0010814D01*
X0051122Y0010797D01*
X0051188Y0010652D02*
X0051288Y0010702D01*
X0051188Y0010568D02*
Y0010668D01*
X0051155Y0010702D01*
X0051122D01*
X0051088Y0010668D01*
Y0010568D01*
X0051288D01*
X0054031Y0006332D02*
X0053898D01*
X0054031Y0006465D01*
Y0006498D01*
X0054014Y0006532D01*
X0053914D01*
X0053898Y0006498D01*
X0053669Y0006365D02*
X0053686Y0006332D01*
X0053786D01*
X0053802Y0006365D01*
Y0006432D01*
X0053769Y0006465D01*
X0053669D01*
Y0006532D01*
X0053802D01*
X0053574Y0006332D02*
X0053507D01*
X0053540D02*
Y0006532D01*
X0053507Y0006498D01*
X0053378Y0006365D02*
X0053362Y0006332D01*
X0053262D01*
X0053245Y0006365D01*
Y0006498D01*
X0053262Y0006532D01*
X0053362D01*
X0053378Y0006498D01*
X0054332Y0011219D02*
Y0011086D01*
X0054199Y0011219D01*
X0054165D01*
X0054132Y0011202D01*
Y0011102D01*
X0054165Y0011086D01*
X0054299Y0010857D02*
X0054332Y0010890D01*
Y0010957D01*
X0054299Y0010990D01*
X0054265D01*
X0054199Y0010924D01*
X0054132Y0010990D01*
Y0010857D01*
X0054232Y0010712D02*
X0054332Y0010762D01*
X0054232Y0010628D02*
Y0010728D01*
X0054199Y0010762D01*
X0054165D01*
X0054132Y0010728D01*
Y0010628D01*
X0054332D01*
X0057057Y0006411D02*
Y0006551D01*
X0057197Y0006411D01*
X0057232D01*
X0057267Y0006428D01*
Y0006533D01*
X0057232Y0006551D01*
X0057057Y0006647D02*
Y0006787D01*
X0057197Y0006647D01*
X0057232D01*
X0057267Y0006664D01*
Y0006769D01*
X0057232Y0006787D01*
X0057267Y0006883D02*
X0057092D01*
X0057057Y0006900D01*
Y0007005D01*
X0057092Y0007023D01*
X0057267D01*
X0035837Y0010553D02*
X0035804Y0010586D01*
X0035787Y0010619D01*
Y0010686D01*
X0035804Y0010719D01*
X0035837Y0010753D01*
X0035870D01*
X0035904Y0010719D01*
X0035920Y0010686D01*
Y0010619D01*
X0035904Y0010586D01*
X0035870Y0010553D01*
X0035837D01*
X0035692D02*
X0035625D01*
X0035658D02*
Y0010753D01*
X0035625Y0010719D01*
X0035380Y0010553D02*
X0035363Y0010586D01*
Y0010719D01*
X0035380Y0010753D01*
X0035480D01*
X0035496Y0010719D01*
Y0010586D01*
X0035480Y0010553D01*
X0035380D01*
X0035268Y0010753D02*
Y0010553D01*
X0035234Y0010586D01*
X0035168Y0010719D01*
X0035134Y0010753D01*
Y0010553D01*
X0035039Y0010486D02*
X0034906D01*
X0034744Y0010653D02*
X0034810D01*
Y0010586D01*
X0034794Y0010553D01*
X0034694D01*
X0034677Y0010586D01*
Y0010719D01*
X0034694Y0010753D01*
X0034794D01*
X0034810Y0010719D01*
X0034582Y0010553D02*
X0034515D01*
X0034548D02*
Y0010753D01*
X0034582D02*
X0034515D01*
X0034353Y0010653D02*
X0034253D01*
Y0010553D02*
Y0010753D01*
X0034386D01*
X0034158D02*
Y0010553D01*
X0034124Y0010586D01*
X0034058Y0010719D01*
X0034024Y0010753D01*
Y0010553D01*
X0033812D02*
X0033796Y0010586D01*
Y0010719D01*
X0033812Y0010753D01*
X0033912D01*
X0033929Y0010719D01*
Y0010586D01*
X0033912Y0010553D01*
X0033812D01*
X0033700Y0010586D02*
X0033684Y0010553D01*
X0033584D01*
X0033567Y0010586D01*
Y0010719D01*
X0033584Y0010753D01*
X0033684D01*
X0033700Y0010719D01*
X0048574Y0000213D02*
Y0000413D01*
X0048640D02*
X0048507D01*
X0048412Y0000246D02*
X0048395Y0000213D01*
X0048295D01*
X0048278Y0000246D01*
Y0000379D01*
X0048295Y0000413D01*
X0048395D01*
X0048412Y0000379D01*
X0048150Y0000313D02*
X0048050D01*
X0048183Y0000213D02*
X0048050D01*
Y0000413D01*
X0048183D01*
X0047954D02*
Y0000213D01*
X0047921Y0000246D01*
X0047854Y0000379D01*
X0047821Y0000413D01*
Y0000213D01*
X0047726Y0000413D02*
Y0000213D01*
X0047692Y0000246D01*
X0047626Y0000379D01*
X0047592Y0000413D01*
Y0000213D01*
X0047380D02*
X0047364Y0000246D01*
Y0000379D01*
X0047380Y0000413D01*
X0047480D01*
X0047497Y0000379D01*
Y0000246D01*
X0047480Y0000213D01*
X0047380D01*
X0047268Y0000246D02*
X0047252Y0000213D01*
X0047152D01*
X0047135Y0000246D01*
Y0000379D01*
X0047152Y0000413D01*
X0047252D01*
X0047268Y0000379D01*
X0047040Y0000146D02*
X0046906D01*
X0046811Y0000213D02*
X0046711Y0000313D01*
X0046811Y0000413D01*
X0046678D02*
Y0000213D01*
X0046582D02*
X0046466D01*
Y0000413D01*
X0046370Y0000246D02*
X0046354Y0000213D01*
X0046254D01*
X0046237Y0000246D01*
Y0000379D01*
X0046254Y0000413D01*
X0046354D01*
X0046370Y0000379D01*
X0057735Y0001591D02*
X0057702Y0001607D01*
X0057668D01*
X0057635Y0001591D01*
Y0001491D01*
X0057668Y0001474D01*
X0057702D01*
X0057735Y0001491D01*
Y0001591D01*
X0057768Y0001607D01*
X0057802D01*
X0057835Y0001591D01*
Y0001491D01*
X0057802Y0001474D01*
X0057768D01*
X0057735Y0001491D01*
X0057802Y0001245D02*
X0057835Y0001262D01*
Y0001362D01*
X0057802Y0001379D01*
X0057735D01*
X0057702Y0001345D01*
Y0001245D01*
X0057635D01*
Y0001379D01*
X0057835Y0001150D02*
Y0001083D01*
Y0001117D02*
X0057635D01*
X0057668Y0001083D01*
X0057802Y0000955D02*
X0057835Y0000938D01*
Y0000838D01*
X0057802Y0000821D01*
X0057668D01*
X0057635Y0000838D01*
Y0000938D01*
X0057668Y0000955D01*
X0051479Y0000299D02*
X0051495Y0000332D01*
Y0000365D01*
X0051479Y0000399D01*
X0051379D01*
X0051362Y0000365D01*
Y0000332D01*
X0051379Y0000299D01*
X0051479D01*
X0051495Y0000265D01*
Y0000232D01*
X0051479Y0000199D01*
X0051379D01*
X0051362Y0000232D01*
Y0000265D01*
X0051379Y0000299D01*
X0051267Y0000199D02*
X0051133D01*
X0051267Y0000332D01*
Y0000365D01*
X0051250Y0000399D01*
X0051150D01*
X0051133Y0000365D01*
X0050988Y0000299D02*
X0051038Y0000199D01*
X0050905Y0000299D02*
X0051005D01*
X0051038Y0000332D01*
Y0000365D01*
X0051005Y0000399D01*
X0050905D01*
Y0000199D01*
X0059215Y0006329D02*
Y0006196D01*
X0059082Y0006262D01*
Y0006296D01*
X0059282D01*
X0059215Y0005984D02*
X0059248D01*
X0059282Y0006000D01*
Y0006067D01*
X0059248Y0006084D01*
X0059082D01*
Y0006100D02*
Y0006034D01*
X0055421Y0009395D02*
X0055438Y0009362D01*
X0055538D01*
X0055554Y0009395D01*
Y0009462D01*
X0055521Y0009495D01*
X0055421D01*
Y0009562D01*
X0055554D01*
X0055192Y0009395D02*
X0055209Y0009362D01*
X0055309D01*
X0055326Y0009395D01*
Y0009462D01*
X0055292Y0009495D01*
X0055192D01*
Y0009562D01*
X0055326D01*
X0055097Y0009362D02*
X0055030D01*
X0055064D02*
Y0009562D01*
X0055030Y0009528D01*
X0054902Y0009395D02*
X0054885Y0009362D01*
X0054785D01*
X0054768Y0009395D01*
Y0009528D01*
X0054785Y0009562D01*
X0054885D01*
X0054902Y0009528D01*
X0050071Y0004695D02*
X0050104Y0004662D01*
X0050171D01*
X0050204Y0004695D01*
Y0004728D01*
X0050138Y0004795D01*
X0050204Y0004862D01*
X0050071D01*
X0049842Y0004695D02*
X0049859Y0004662D01*
X0049959D01*
X0049976Y0004695D01*
Y0004762D01*
X0049942Y0004795D01*
X0049842D01*
Y0004862D01*
X0049976D01*
X0049747Y0004662D02*
X0049680D01*
X0049714D02*
Y0004862D01*
X0049680Y0004828D01*
X0049552Y0004695D02*
X0049535Y0004662D01*
X0049435D01*
X0049418Y0004695D01*
Y0004828D01*
X0049435Y0004862D01*
X0049535D01*
X0049552Y0004828D01*
X0049316Y0003120D02*
Y0002987D01*
X0049183Y0003120D01*
X0049149D01*
X0049116Y0003104D01*
Y0003004D01*
X0049149Y0002987D01*
X0049116Y0002892D02*
X0049283D01*
X0049316Y0002875D01*
Y0002775D01*
X0049283Y0002758D01*
X0049116D01*
X0056051Y0000296D02*
X0056017Y0000329D01*
X0056001Y0000363D01*
Y0000429D01*
X0056017Y0000463D01*
X0056051Y0000496D01*
X0056084D01*
X0056117Y0000463D01*
X0056134Y0000429D01*
Y0000363D01*
X0056117Y0000329D01*
X0056084Y0000296D01*
X0056051D01*
X0055905D02*
X0055772D01*
X0055905Y0000429D01*
Y0000463D01*
X0055889Y0000496D01*
X0055789D01*
X0055772Y0000463D01*
X0055677Y0000496D02*
Y0000329D01*
X0055660Y0000296D01*
X0055560D01*
X0055543Y0000329D01*
Y0000496D01*
X0047558Y0002655D02*
X0047592Y0002621D01*
X0047658D01*
X0047692Y0002655D01*
Y0002688D01*
X0047625Y0002755D01*
X0047692Y0002821D01*
X0047558D01*
X0047330Y0002655D02*
X0047363Y0002621D01*
X0047430D01*
X0047463Y0002655D01*
Y0002688D01*
X0047396Y0002755D01*
X0047463Y0002821D01*
X0047330D01*
X0047184Y0002721D02*
X0047234Y0002621D01*
X0047101Y0002721D02*
X0047201D01*
X0047234Y0002755D01*
Y0002788D01*
X0047201Y0002821D01*
X0047101D01*
Y0002621D01*
X0059191Y0001815D02*
X0059057D01*
X0059124Y0001949D01*
X0059157D01*
Y0001749D01*
X0058829Y0001782D02*
X0058845Y0001749D01*
X0058945D01*
X0058962Y0001782D01*
Y0001849D01*
X0058929Y0001882D01*
X0058829D01*
Y0001949D01*
X0058962D01*
X0058733Y0001749D02*
X0058667D01*
X0058700D02*
Y0001949D01*
X0058667Y0001915D01*
X0058538Y0001782D02*
X0058521Y0001749D01*
X0058421D01*
X0058405Y0001782D01*
Y0001915D01*
X0058421Y0001949D01*
X0058521D01*
X0058538Y0001915D01*
X0055181Y0004458D02*
X0055081D01*
X0055064Y0004491D01*
Y0004525D01*
X0055081Y0004558D01*
X0055181D01*
X0055198Y0004525D01*
Y0004491D01*
X0055131Y0004358D01*
X0054836Y0004391D02*
X0054852Y0004358D01*
X0054952D01*
X0054969Y0004391D01*
Y0004458D01*
X0054936Y0004491D01*
X0054836D01*
Y0004558D01*
X0054969D01*
X0054740Y0004358D02*
X0054674D01*
X0054707D02*
Y0004558D01*
X0054674Y0004525D01*
X0054545Y0004391D02*
X0054528Y0004358D01*
X0054428D01*
X0054412Y0004391D01*
Y0004525D01*
X0054428Y0004558D01*
X0054528D01*
X0054545Y0004525D01*
X0046801Y0000955D02*
X0046901Y0001155D01*
X0046768D01*
X0046539Y0000988D02*
X0046556Y0000955D01*
X0046656D01*
X0046672Y0000988D01*
Y0001055D01*
X0046639Y0001088D01*
X0046539D01*
Y0001155D01*
X0046672D01*
X0046444Y0000955D02*
X0046377D01*
X0046410D02*
Y0001155D01*
X0046377Y0001122D01*
X0046248Y0000988D02*
X0046232Y0000955D01*
X0046132D01*
X0046115Y0000988D01*
Y0001122D01*
X0046132Y0001155D01*
X0046232D01*
X0046248Y0001122D01*
X0055214Y0005602D02*
X0055148D01*
X0055181D02*
Y0005802D01*
X0055148Y0005768D01*
X0054902Y0005702D02*
X0055002D01*
X0055019Y0005668D01*
Y0005635D01*
X0055002Y0005602D01*
X0054902D01*
X0054886Y0005635D01*
Y0005668D01*
X0054952Y0005802D01*
X0054790Y0005602D02*
X0054724D01*
X0054757D02*
Y0005802D01*
X0054724Y0005768D01*
X0054595Y0005635D02*
X0054578Y0005602D01*
X0054478D01*
X0054462Y0005635D01*
Y0005768D01*
X0054478Y0005802D01*
X0054578D01*
X0054595Y0005768D01*
X0034709Y0009105D02*
X0034609D01*
X0034592Y0009139D01*
Y0009172D01*
X0034609Y0009205D01*
X0034709D01*
X0034726Y0009172D01*
Y0009139D01*
X0034659Y0009005D01*
X0034954Y0009172D02*
X0034938Y0009205D01*
X0034838D01*
X0034821Y0009172D01*
Y0009105D01*
X0034854Y0009072D01*
X0034954D01*
Y0009005D01*
X0034821D01*
X0035050Y0009205D02*
X0035116D01*
X0035083D02*
Y0009005D01*
X0035116Y0009039D01*
X0035245Y0009172D02*
X0035262Y0009205D01*
X0035362D01*
X0035378Y0009172D01*
Y0009039D01*
X0035362Y0009005D01*
X0035262D01*
X0035245Y0009039D01*
X0053482Y0009801D02*
X0053499Y0009834D01*
Y0009868D01*
X0053482Y0009901D01*
X0053382D01*
X0053365Y0009868D01*
Y0009834D01*
X0053382Y0009801D01*
X0053482D01*
X0053499Y0009768D01*
Y0009734D01*
X0053482Y0009701D01*
X0053382D01*
X0053365Y0009734D01*
Y0009768D01*
X0053382Y0009801D01*
X0053270Y0009701D02*
X0053203D01*
X0053237D02*
Y0009901D01*
X0053203Y0009868D01*
X0053075Y0009901D02*
Y0009734D01*
X0053058Y0009701D01*
X0052958D01*
X0052941Y0009734D01*
Y0009901D01*
X0051391Y0006125D02*
X0051591Y0006025D01*
Y0006159D01*
X0051391Y0006254D02*
Y0006321D01*
Y0006287D02*
X0051591D01*
X0051558Y0006321D01*
X0051591Y0006449D02*
X0051425D01*
X0051391Y0006466D01*
Y0006566D01*
X0051425Y0006583D01*
X0051591D01*
X0057087Y0004121D02*
Y0004188D01*
Y0004155D02*
X0057287D01*
X0057254Y0004188D01*
X0057087Y0004317D02*
Y0004450D01*
X0057221Y0004317D01*
X0057254D01*
X0057287Y0004333D01*
Y0004433D01*
X0057254Y0004450D01*
X0057287Y0004545D02*
X0057121D01*
X0057087Y0004562D01*
Y0004662D01*
X0057121Y0004679D01*
X0057287D01*
X0051062Y0004549D02*
X0050995D01*
X0051029D02*
Y0004749D01*
X0050995Y0004715D01*
X0050733Y0004582D02*
X0050767Y0004549D01*
X0050833D01*
X0050867Y0004582D01*
Y0004615D01*
X0050800Y0004682D01*
X0050867Y0004749D01*
X0050733D01*
X0050588Y0004649D02*
X0050638Y0004549D01*
X0050505Y0004649D02*
X0050605D01*
X0050638Y0004682D01*
Y0004715D01*
X0050605Y0004749D01*
X0050505D01*
Y0004549D01*
X0048484Y0001831D02*
Y0001964D01*
X0048618Y0001897D01*
Y0001864D01*
X0048418D01*
X0048451Y0002193D02*
X0048418Y0002159D01*
Y0002093D01*
X0048451Y0002059D01*
X0048484D01*
X0048551Y0002126D01*
X0048618Y0002059D01*
Y0002193D01*
X0048518Y0002338D02*
X0048418Y0002288D01*
X0048518Y0002421D02*
Y0002321D01*
X0048551Y0002288D01*
X0048584D01*
X0048618Y0002321D01*
Y0002421D01*
X0048418D01*
X0057171Y0005371D02*
X0057137Y0005338D01*
Y0005271D01*
X0057171Y0005238D01*
X0057204D01*
X0057271Y0005305D01*
X0057337Y0005238D01*
Y0005371D01*
X0057137Y0005467D02*
Y0005600D01*
X0057271Y0005467D01*
X0057304D01*
X0057337Y0005483D01*
Y0005583D01*
X0057304Y0005600D01*
X0057337Y0005695D02*
X0057171D01*
X0057137Y0005712D01*
Y0005812D01*
X0057171Y0005829D01*
X0057337D01*
X0010562Y0008523D02*
Y0008656D01*
X0010695Y0008523D01*
X0010728D01*
X0010762Y0008539D01*
Y0008639D01*
X0010728Y0008656D01*
X0010562Y0008751D02*
Y0008818D01*
Y0008785D02*
X0010762D01*
X0010728Y0008818D01*
X0010562Y0008947D02*
Y0009013D01*
Y0008980D02*
X0010762D01*
X0010728Y0009013D01*
X0010595Y0009142D02*
X0010562Y0009159D01*
Y0009259D01*
X0010595Y0009275D01*
X0010728D01*
X0010762Y0009259D01*
Y0009159D01*
X0010728Y0009142D01*
X0029378Y0000291D02*
Y0000424D01*
X0029512Y0000358D01*
Y0000324D01*
X0029312D01*
X0029345Y0000653D02*
X0029312Y0000620D01*
Y0000553D01*
X0029345Y0000520D01*
X0029378D01*
X0029445Y0000586D01*
X0029512Y0000520D01*
Y0000653D01*
X0029345Y0000748D02*
X0029312Y0000765D01*
Y0000865D01*
X0029345Y0000882D01*
X0029478D01*
X0029512Y0000865D01*
Y0000765D01*
X0029478Y0000748D01*
X0014328Y0007929D02*
X0014194D01*
X0014261Y0008063D01*
X0014294D01*
Y0007863D01*
X0014099Y0007963D02*
X0013966D01*
X0014099Y0007863D02*
Y0008063D01*
X0013966Y0007863D02*
Y0008063D01*
X0013870Y0007863D02*
Y0008063D01*
X0013837Y0008029D01*
X0013804Y0007963D01*
X0013770Y0008029D01*
X0013737Y0008063D01*
Y0007863D01*
X0015272Y0003488D02*
X0015306Y0003455D01*
X0015372D01*
X0015406Y0003488D01*
Y0003522D01*
X0015339Y0003588D01*
X0015406Y0003655D01*
X0015272D01*
X0015177Y0003522D02*
X0015044D01*
X0015110Y0003655D01*
X0015144D01*
Y0003455D01*
X0014948Y0003488D02*
X0014932Y0003455D01*
X0014832D01*
X0014815Y0003488D01*
Y0003622D01*
X0014832Y0003655D01*
X0014932D01*
X0014948Y0003622D01*
X0018128Y0000241D02*
Y0000374D01*
X0018262Y0000308D01*
Y0000274D01*
X0018062D01*
Y0000470D02*
Y0000603D01*
X0018195Y0000470D01*
X0018228D01*
X0018262Y0000486D01*
Y0000586D01*
X0018228Y0000603D01*
X0018095Y0000698D02*
X0018062Y0000715D01*
Y0000815D01*
X0018095Y0000832D01*
X0018228D01*
X0018262Y0000815D01*
Y0000715D01*
X0018228Y0000698D01*
X0026479Y0005095D02*
X0026495Y0005062D01*
X0026595D01*
X0026612Y0005095D01*
Y0005162D01*
X0026579Y0005195D01*
X0026479D01*
Y0005262D01*
X0026612D01*
X0026250Y0005095D02*
X0026267Y0005062D01*
X0026367D01*
X0026383Y0005095D01*
Y0005162D01*
X0026350Y0005195D01*
X0026250D01*
Y0005262D01*
X0026383D01*
X0026155Y0005095D02*
X0026138Y0005062D01*
X0026038D01*
X0026021Y0005095D01*
Y0005228D01*
X0026038Y0005262D01*
X0026138D01*
X0026155Y0005228D01*
X0030778Y0008489D02*
Y0008623D01*
X0030912Y0008556D01*
Y0008523D01*
X0030712D01*
X0030778Y0008718D02*
Y0008851D01*
X0030912Y0008785D01*
Y0008751D01*
X0030712D01*
Y0008947D02*
Y0009013D01*
Y0008980D02*
X0030912D01*
X0030878Y0009013D01*
X0030745Y0009142D02*
X0030712Y0009159D01*
Y0009259D01*
X0030745Y0009275D01*
X0030878D01*
X0030912Y0009259D01*
Y0009159D01*
X0030878Y0009142D01*
X0029238Y0014904D02*
Y0014771D01*
X0029105Y0014904D01*
X0029072D01*
X0029038Y0014888D01*
Y0014788D01*
X0029072Y0014771D01*
X0029238Y0014676D02*
Y0014542D01*
X0029105Y0014676D01*
X0029072D01*
X0029038Y0014659D01*
Y0014559D01*
X0029072Y0014542D01*
X0029238Y0014447D02*
Y0014380D01*
Y0014414D02*
X0029038D01*
X0029072Y0014380D01*
X0029205Y0014252D02*
X0029238Y0014235D01*
Y0014135D01*
X0029205Y0014118D01*
X0029072D01*
X0029038Y0014135D01*
Y0014235D01*
X0029072Y0014252D01*
X0031655Y0014771D02*
X0031688Y0014788D01*
Y0014888D01*
X0031655Y0014904D01*
X0031588D01*
X0031555Y0014871D01*
Y0014771D01*
X0031488D01*
Y0014904D01*
X0031688Y0014676D02*
Y0014542D01*
X0031555Y0014676D01*
X0031522D01*
X0031488Y0014659D01*
Y0014559D01*
X0031522Y0014542D01*
X0031688Y0014447D02*
Y0014380D01*
Y0014414D02*
X0031488D01*
X0031522Y0014380D01*
X0031655Y0014252D02*
X0031688Y0014235D01*
Y0014135D01*
X0031655Y0014118D01*
X0031522D01*
X0031488Y0014135D01*
Y0014235D01*
X0031522Y0014252D01*
X0005912Y0008562D02*
Y0008629D01*
Y0008596D02*
X0006112D01*
X0006078Y0008629D01*
X0005912Y0008758D02*
Y0008824D01*
Y0008791D02*
X0006112D01*
X0006078Y0008824D01*
X0005912Y0008953D02*
Y0009020D01*
Y0008986D02*
X0006112D01*
X0006078Y0009020D01*
X0005945Y0009148D02*
X0005912Y0009165D01*
Y0009265D01*
X0005945Y0009282D01*
X0006078D01*
X0006112Y0009265D01*
Y0009165D01*
X0006078Y0009148D01*
X0002988Y0006644D02*
X0002955Y0006661D01*
X0002922D01*
X0002888Y0006644D01*
Y0006544D01*
X0002922Y0006527D01*
X0002955D01*
X0002988Y0006544D01*
Y0006644D01*
X0003022Y0006661D01*
X0003055D01*
X0003088Y0006644D01*
Y0006544D01*
X0003055Y0006527D01*
X0003022D01*
X0002988Y0006544D01*
X0003088Y0006349D02*
X0003055Y0006315D01*
X0003022Y0006299D01*
X0002955D01*
X0002922Y0006315D01*
X0002888Y0006349D01*
Y0006382D01*
X0002922Y0006415D01*
X0002955Y0006432D01*
X0003022D01*
X0003055Y0006415D01*
X0003088Y0006382D01*
Y0006349D01*
Y0006203D02*
Y0006137D01*
Y0006170D02*
X0002888D01*
X0002922Y0006137D01*
X0003055Y0006008D02*
X0003088Y0005991D01*
Y0005891D01*
X0003055Y0005875D01*
X0002922D01*
X0002888Y0005891D01*
Y0005991D01*
X0002922Y0006008D01*
X0034161Y0013563D02*
X0034261D01*
X0034278Y0013529D01*
Y0013496D01*
X0034261Y0013463D01*
X0034161D01*
X0034144Y0013496D01*
Y0013529D01*
X0034211Y0013663D01*
X0034049Y0013563D02*
X0033916D01*
X0034049Y0013463D02*
Y0013663D01*
X0033916Y0013463D02*
Y0013663D01*
X0033820Y0013463D02*
Y0013663D01*
X0033787Y0013629D01*
X0033754Y0013563D01*
X0033720Y0013629D01*
X0033687Y0013663D01*
Y0013463D01*
X0015256Y0012255D02*
X0015122D01*
X0015256Y0012388D01*
Y0012422D01*
X0015239Y0012455D01*
X0015139D01*
X0015122Y0012422D01*
X0015010Y0012355D02*
X0014910D01*
X0014894Y0012388D01*
Y0012422D01*
X0014910Y0012455D01*
X0015010D01*
X0015027Y0012422D01*
Y0012388D01*
X0014960Y0012255D01*
X0014798Y0012288D02*
X0014782Y0012255D01*
X0014682D01*
X0014665Y0012288D01*
Y0012422D01*
X0014682Y0012455D01*
X0014782D01*
X0014798Y0012422D01*
X0050306Y0004363D02*
Y0004296D01*
X0050240Y0004163D01*
X0050173Y0004296D01*
Y0004363D01*
X0049944Y0004196D02*
X0049978Y0004163D01*
X0050044D01*
X0050078Y0004196D01*
Y0004229D01*
X0050011Y0004296D01*
X0050078Y0004363D01*
X0049944D01*
X0049716Y0004263D02*
X0049816D01*
X0049849Y0004296D01*
Y0004329D01*
X0049816Y0004363D01*
X0049716D01*
Y0004163D01*
X0049487Y0004196D02*
X0049520Y0004163D01*
X0049587D01*
X0049620Y0004196D01*
Y0004229D01*
X0049554Y0004296D01*
X0049620Y0004363D01*
X0049487D01*
X0014356Y0010605D02*
X0014456Y0010805D01*
X0014322D01*
X0014210Y0010705D02*
X0014110D01*
X0014094Y0010738D01*
Y0010772D01*
X0014110Y0010805D01*
X0014210D01*
X0014227Y0010772D01*
Y0010738D01*
X0014160Y0010605D01*
X0013998Y0010638D02*
X0013982Y0010605D01*
X0013882D01*
X0013865Y0010638D01*
Y0010772D01*
X0013882Y0010805D01*
X0013982D01*
X0013998Y0010772D01*
X0031305Y0014771D02*
X0031338Y0014804D01*
Y0014871D01*
X0031305Y0014904D01*
X0031272D01*
X0031205Y0014838D01*
X0031138Y0014904D01*
Y0014771D01*
X0031338Y0014676D02*
Y0014542D01*
X0031205Y0014676D01*
X0031172D01*
X0031138Y0014659D01*
Y0014559D01*
X0031172Y0014542D01*
X0031338Y0014447D02*
Y0014380D01*
Y0014414D02*
X0031138D01*
X0031172Y0014380D01*
X0031305Y0014252D02*
X0031338Y0014235D01*
Y0014135D01*
X0031305Y0014118D01*
X0031172D01*
X0031138Y0014135D01*
Y0014235D01*
X0031172Y0014252D01*
X0013527Y0010862D02*
X0013494Y0010895D01*
X0013477Y0010928D01*
Y0010995D01*
X0013494Y0011028D01*
X0013527Y0011062D01*
X0013561D01*
X0013594Y0011028D01*
X0013611Y0010995D01*
Y0010928D01*
X0013594Y0010895D01*
X0013561Y0010862D01*
X0013527D01*
X0013299D02*
X0013265Y0010895D01*
X0013249Y0010928D01*
Y0010995D01*
X0013265Y0011028D01*
X0013299Y0011062D01*
X0013332D01*
X0013365Y0011028D01*
X0013382Y0010995D01*
Y0010928D01*
X0013365Y0010895D01*
X0013332Y0010862D01*
X0013299D01*
X0013153D02*
X0013087D01*
X0013120D02*
Y0011062D01*
X0013087Y0011028D01*
X0012958Y0010895D02*
X0012941Y0010862D01*
X0012841D01*
X0012825Y0010895D01*
Y0011028D01*
X0012841Y0011062D01*
X0012941D01*
X0012958Y0011028D01*
X0020680Y0005993D02*
X0020614D01*
X0020647D02*
Y0006193D01*
X0020614Y0006160D01*
X0020485Y0006027D02*
X0020468Y0005993D01*
X0020368D01*
X0020352Y0006027D01*
Y0006160D01*
X0020368Y0006193D01*
X0020468D01*
X0020485Y0006160D01*
X0021034Y0010155D02*
X0021051Y0010188D01*
Y0010222D01*
X0021034Y0010255D01*
X0020934D01*
X0020918Y0010222D01*
Y0010188D01*
X0020934Y0010155D01*
X0021034D01*
X0021051Y0010122D01*
Y0010088D01*
X0021034Y0010055D01*
X0020934D01*
X0020918Y0010088D01*
Y0010122D01*
X0020934Y0010155D01*
X0020689Y0010088D02*
X0020722Y0010055D01*
X0020789D01*
X0020822Y0010088D01*
Y0010122D01*
X0020756Y0010188D01*
X0020822Y0010255D01*
X0020689D01*
X0020594Y0010055D02*
X0020527D01*
X0020560D02*
Y0010255D01*
X0020527Y0010222D01*
X0020398Y0010088D02*
X0020382Y0010055D01*
X0020282D01*
X0020265Y0010088D01*
Y0010222D01*
X0020282Y0010255D01*
X0020382D01*
X0020398Y0010222D01*
X0028316Y0004755D02*
X0028283Y0004788D01*
X0028266Y0004822D01*
Y0004888D01*
X0028283Y0004922D01*
X0028316Y0004955D01*
X0028349D01*
X0028383Y0004922D01*
X0028399Y0004888D01*
Y0004822D01*
X0028383Y0004788D01*
X0028349Y0004755D01*
X0028316D01*
X0028037Y0004788D02*
X0028054Y0004755D01*
X0028154D01*
X0028171Y0004788D01*
Y0004855D01*
X0028137Y0004888D01*
X0028037D01*
Y0004955D01*
X0028171D01*
X0027942Y0004788D02*
X0027925Y0004755D01*
X0027825D01*
X0027809Y0004788D01*
Y0004922D01*
X0027825Y0004955D01*
X0027925D01*
X0027942Y0004922D01*
X0013512Y0005062D02*
X0013612Y0005262D01*
X0013479D01*
X0013250Y0005095D02*
X0013267Y0005062D01*
X0013367D01*
X0013383Y0005095D01*
Y0005162D01*
X0013350Y0005195D01*
X0013250D01*
Y0005262D01*
X0013383D01*
X0013155Y0005095D02*
X0013138Y0005062D01*
X0013038D01*
X0013021Y0005095D01*
Y0005228D01*
X0013038Y0005262D01*
X0013138D01*
X0013155Y0005228D01*
X0001544Y0001363D02*
X0001478D01*
X0001511D02*
Y0001563D01*
X0001478Y0001529D01*
X0001349Y0001463D02*
X0001216D01*
X0001349Y0001363D02*
Y0001563D01*
X0001216Y0001363D02*
Y0001563D01*
X0001120Y0001363D02*
Y0001563D01*
X0001087Y0001529D01*
X0001054Y0001463D01*
X0001020Y0001529D01*
X0000987Y0001563D01*
Y0001363D01*
X0024438Y0006532D02*
Y0006465D01*
Y0006499D02*
X0024238D01*
X0024272Y0006465D01*
X0024338Y0006220D02*
Y0006320D01*
X0024372Y0006337D01*
X0024405D01*
X0024438Y0006320D01*
Y0006220D01*
X0024405Y0006203D01*
X0024372D01*
X0024238Y0006270D01*
X0024405Y0006108D02*
X0024438Y0006091D01*
Y0005991D01*
X0024405Y0005975D01*
X0024272D01*
X0024238Y0005991D01*
Y0006091D01*
X0024272Y0006108D01*
X0023512Y0008579D02*
X0023545Y0008612D01*
X0023578Y0008629D01*
X0023645D01*
X0023678Y0008612D01*
X0023712Y0008579D01*
Y0008546D01*
X0023678Y0008512D01*
X0023645Y0008496D01*
X0023578D01*
X0023545Y0008512D01*
X0023512Y0008546D01*
Y0008579D01*
X0023578Y0008724D02*
Y0008858D01*
X0023712Y0008791D01*
Y0008758D01*
X0023512D01*
Y0008953D02*
Y0009020D01*
Y0008986D02*
X0023712D01*
X0023678Y0009020D01*
X0023545Y0009148D02*
X0023512Y0009165D01*
Y0009265D01*
X0023545Y0009282D01*
X0023678D01*
X0023712Y0009265D01*
Y0009165D01*
X0023678Y0009148D01*
X0005605Y0014626D02*
X0005638Y0014659D01*
Y0014726D01*
X0005605Y0014759D01*
X0005572D01*
X0005505Y0014692D01*
X0005438Y0014759D01*
Y0014626D01*
X0005538Y0014514D02*
X0005505Y0014530D01*
X0005472D01*
X0005438Y0014514D01*
Y0014414D01*
X0005472Y0014397D01*
X0005505D01*
X0005538Y0014414D01*
Y0014514D01*
X0005572Y0014530D01*
X0005605D01*
X0005638Y0014514D01*
Y0014414D01*
X0005605Y0014397D01*
X0005572D01*
X0005538Y0014414D01*
X0005605Y0014302D02*
X0005638Y0014285D01*
Y0014185D01*
X0005605Y0014168D01*
X0005472D01*
X0005438Y0014185D01*
Y0014285D01*
X0005472Y0014302D01*
X0004662Y0008606D02*
X0004695Y0008639D01*
X0004728Y0008656D01*
X0004795D01*
X0004828Y0008639D01*
X0004862Y0008606D01*
Y0008573D01*
X0004828Y0008539D01*
X0004795Y0008523D01*
X0004728D01*
X0004695Y0008539D01*
X0004662Y0008573D01*
Y0008606D01*
Y0008751D02*
Y0008818D01*
Y0008785D02*
X0004862D01*
X0004828Y0008818D01*
X0004662Y0008947D02*
Y0009013D01*
Y0008980D02*
X0004862D01*
X0004828Y0009013D01*
X0004695Y0009142D02*
X0004662Y0009159D01*
Y0009259D01*
X0004695Y0009275D01*
X0004828D01*
X0004862Y0009259D01*
Y0009159D01*
X0004828Y0009142D01*
X0003088Y0014642D02*
Y0014742D01*
X0003122Y0014759D01*
X0003155D01*
X0003188Y0014742D01*
Y0014642D01*
X0003155Y0014626D01*
X0003122D01*
X0002988Y0014692D01*
X0003188Y0014430D02*
X0002988Y0014530D01*
Y0014397D01*
X0003155Y0014302D02*
X0003188Y0014285D01*
Y0014185D01*
X0003155Y0014168D01*
X0003022D01*
X0002988Y0014185D01*
Y0014285D01*
X0003022Y0014302D01*
X0010388Y0014809D02*
Y0014676D01*
X0010255Y0014809D01*
X0010222D01*
X0010188Y0014792D01*
Y0014692D01*
X0010222Y0014676D01*
X0010388Y0014480D02*
X0010188Y0014580D01*
Y0014447D01*
X0010355Y0014352D02*
X0010388Y0014335D01*
Y0014235D01*
X0010355Y0014218D01*
X0010222D01*
X0010188Y0014235D01*
Y0014335D01*
X0010222Y0014352D01*
X0013382Y0012162D02*
X0013315D01*
X0013349D02*
Y0012362D01*
X0013315Y0012328D01*
X0013170Y0012262D02*
X0013070D01*
X0013053Y0012295D01*
Y0012328D01*
X0013070Y0012362D01*
X0013170D01*
X0013187Y0012328D01*
Y0012295D01*
X0013120Y0012162D01*
X0012958Y0012195D02*
X0012941Y0012162D01*
X0012841D01*
X0012825Y0012195D01*
Y0012328D01*
X0012841Y0012362D01*
X0012941D01*
X0012958Y0012328D01*
X0004338Y0006554D02*
X0004138Y0006654D01*
Y0006521D01*
X0004338Y0006342D02*
X0004305Y0006309D01*
X0004272Y0006292D01*
X0004205D01*
X0004172Y0006309D01*
X0004138Y0006342D01*
Y0006376D01*
X0004172Y0006409D01*
X0004205Y0006426D01*
X0004272D01*
X0004305Y0006409D01*
X0004338Y0006376D01*
Y0006342D01*
Y0006197D02*
Y0006130D01*
Y0006164D02*
X0004138D01*
X0004172Y0006130D01*
X0004305Y0006002D02*
X0004338Y0005985D01*
Y0005885D01*
X0004305Y0005868D01*
X0004172D01*
X0004138Y0005885D01*
Y0005985D01*
X0004172Y0006002D01*
X0052881Y0004172D02*
X0052981Y0004372D01*
X0052848D01*
X0052752Y0004172D02*
X0052619D01*
X0052752Y0004305D01*
Y0004338D01*
X0052736Y0004372D01*
X0052636D01*
X0052619Y0004338D01*
X0052524Y0004172D02*
X0052457D01*
X0052490D02*
Y0004372D01*
X0052457Y0004338D01*
X0052328Y0004205D02*
X0052312Y0004172D01*
X0052212D01*
X0052195Y0004205D01*
Y0004338D01*
X0052212Y0004372D01*
X0052312D01*
X0052328Y0004338D01*
X0005828Y0000241D02*
Y0000374D01*
X0005962Y0000308D01*
Y0000274D01*
X0005762D01*
Y0000570D02*
X0005962Y0000470D01*
Y0000603D01*
X0005795Y0000698D02*
X0005762Y0000715D01*
Y0000815D01*
X0005795Y0000832D01*
X0005928D01*
X0005962Y0000815D01*
Y0000715D01*
X0005928Y0000698D01*
X0020112Y0002512D02*
X0019979D01*
X0020112Y0002645D01*
Y0002678D01*
X0020095Y0002712D01*
X0019995D01*
X0019979Y0002678D01*
X0019883Y0002578D02*
X0019750D01*
X0019817Y0002712D01*
X0019850D01*
Y0002512D01*
X0019655Y0002545D02*
X0019638Y0002512D01*
X0019538D01*
X0019521Y0002545D01*
Y0002678D01*
X0019538Y0002712D01*
X0019638D01*
X0019655Y0002678D01*
X0003312Y0000241D02*
Y0000374D01*
X0003445Y0000241D01*
X0003478D01*
X0003512Y0000258D01*
Y0000358D01*
X0003478Y0000374D01*
X0003412Y0000486D02*
X0003445Y0000470D01*
X0003478D01*
X0003512Y0000486D01*
Y0000586D01*
X0003478Y0000603D01*
X0003445D01*
X0003412Y0000586D01*
Y0000486D01*
X0003378Y0000470D01*
X0003345D01*
X0003312Y0000486D01*
Y0000586D01*
X0003345Y0000603D01*
X0003378D01*
X0003412Y0000586D01*
X0003345Y0000698D02*
X0003312Y0000715D01*
Y0000815D01*
X0003345Y0000832D01*
X0003478D01*
X0003512Y0000815D01*
Y0000715D01*
X0003478Y0000698D01*
X0049052Y0004363D02*
Y0004296D01*
X0048985Y0004163D01*
X0048918Y0004296D01*
Y0004363D01*
X0048823Y0004163D02*
X0048690D01*
X0048823Y0004296D01*
Y0004329D01*
X0048806Y0004363D01*
X0048706D01*
X0048690Y0004329D01*
X0048461Y0004263D02*
X0048561D01*
X0048594Y0004296D01*
Y0004329D01*
X0048561Y0004363D01*
X0048461D01*
Y0004163D01*
X0048366D02*
X0048299D01*
X0048332D02*
Y0004363D01*
X0048299Y0004329D01*
X0048170Y0004229D02*
X0048037D01*
X0048170Y0004163D02*
Y0004263D01*
X0048120Y0004363D01*
X0048087D01*
X0048037Y0004263D01*
Y0004163D01*
X0011488Y0006465D02*
X0011288Y0006565D01*
Y0006432D01*
X0011388Y0006220D02*
Y0006320D01*
X0011422Y0006337D01*
X0011455D01*
X0011488Y0006320D01*
Y0006220D01*
X0011455Y0006203D01*
X0011422D01*
X0011288Y0006270D01*
X0011455Y0006108D02*
X0011488Y0006091D01*
Y0005991D01*
X0011455Y0005975D01*
X0011322D01*
X0011288Y0005991D01*
Y0006091D01*
X0011322Y0006108D01*
X0021145Y0004112D02*
X0021162Y0004145D01*
Y0004178D01*
X0021145Y0004212D01*
X0021045D01*
X0021029Y0004178D01*
Y0004145D01*
X0021045Y0004112D01*
X0021145D01*
X0021162Y0004078D01*
Y0004045D01*
X0021145Y0004012D01*
X0021045D01*
X0021029Y0004045D01*
Y0004078D01*
X0021045Y0004112D01*
X0020933Y0004078D02*
X0020800D01*
X0020867Y0004212D01*
X0020900D01*
Y0004012D01*
X0020705Y0004045D02*
X0020688Y0004012D01*
X0020588D01*
X0020571Y0004045D01*
Y0004178D01*
X0020588Y0004212D01*
X0020688D01*
X0020705Y0004178D01*
X0018362Y0007529D02*
X0018562Y0007429D01*
Y0007562D01*
X0018362Y0007658D02*
Y0007724D01*
Y0007691D02*
X0018562D01*
X0018528Y0007724D01*
X0018362Y0007853D02*
Y0007920D01*
Y0007886D02*
X0018562D01*
X0018528Y0007920D01*
X0018395Y0008048D02*
X0018362Y0008065D01*
Y0008165D01*
X0018395Y0008182D01*
X0018528D01*
X0018562Y0008165D01*
Y0008065D01*
X0018528Y0008048D01*
X0022066Y0004755D02*
X0021999D01*
X0022033D02*
Y0004955D01*
X0021999Y0004922D01*
X0021737Y0004788D02*
X0021754Y0004755D01*
X0021854D01*
X0021871Y0004788D01*
Y0004855D01*
X0021837Y0004888D01*
X0021737D01*
Y0004955D01*
X0021871D01*
X0021642Y0004788D02*
X0021625Y0004755D01*
X0021525D01*
X0021509Y0004788D01*
Y0004922D01*
X0021525Y0004955D01*
X0021625D01*
X0021642Y0004922D01*
X0045840Y0012877D02*
X0045857Y0012843D01*
X0045957D01*
X0045974Y0012877D01*
Y0012943D01*
X0045940Y0012977D01*
X0045840D01*
Y0013043D01*
X0045974D01*
X0045745Y0012877D02*
X0045728Y0012843D01*
X0045628D01*
X0045612Y0012877D01*
Y0013010D01*
X0045628Y0013043D01*
X0045728D01*
X0045745Y0013010D01*
X0045661Y0012240D02*
Y0011907D01*
X0045828Y0012073D02*
X0045495D01*
X0039869Y0000182D02*
X0039736D01*
X0039869Y0000315D01*
Y0000348D01*
X0039852Y0000382D01*
X0039752D01*
X0039736Y0000348D01*
X0039640Y0000182D02*
X0039574D01*
X0039607D02*
Y0000382D01*
X0039574Y0000348D01*
X0039445Y0000215D02*
X0039428Y0000182D01*
X0039328D01*
X0039312Y0000215D01*
Y0000348D01*
X0039328Y0000382D01*
X0039428D01*
X0039445Y0000348D01*
X0038611Y0003828D02*
Y0003495D01*
X0038778Y0003662D02*
X0038445D01*
X0003745Y0000374D02*
X0003712Y0000358D01*
Y0000258D01*
X0003745Y0000241D01*
X0003812D01*
X0003845Y0000274D01*
Y0000374D01*
X0003912D01*
Y0000241D01*
X0003712Y0000570D02*
X0003912Y0000470D01*
Y0000603D01*
X0003745Y0000698D02*
X0003712Y0000715D01*
Y0000815D01*
X0003745Y0000832D01*
X0003878D01*
X0003912Y0000815D01*
Y0000715D01*
X0003878Y0000698D01*
X0026477Y0011045D02*
X0026494Y0011012D01*
X0026594D01*
X0026611Y0011045D01*
Y0011112D01*
X0026577Y0011145D01*
X0026477D01*
Y0011212D01*
X0026611D01*
X0026249Y0011045D02*
X0026282Y0011012D01*
X0026349D01*
X0026382Y0011045D01*
Y0011078D01*
X0026315Y0011145D01*
X0026382Y0011212D01*
X0026249D01*
X0026153Y0011012D02*
X0026087D01*
X0026120D02*
Y0011212D01*
X0026087Y0011178D01*
X0025958Y0011045D02*
X0025941Y0011012D01*
X0025841D01*
X0025825Y0011045D01*
Y0011178D01*
X0025841Y0011212D01*
X0025941D01*
X0025958Y0011178D01*
X0008390Y0008160D02*
X0008323D01*
X0008357D02*
Y0008360D01*
X0008323Y0008326D01*
X0008195Y0008160D02*
X0008095Y0008260D01*
X0008195Y0008360D01*
X0008061D02*
Y0008160D01*
X0007966Y0008326D02*
X0007949Y0008360D01*
X0007849D01*
X0007833Y0008326D01*
Y0008293D01*
X0007849Y0008260D01*
X0007949D01*
X0007966Y0008226D01*
Y0008193D01*
X0007949Y0008160D01*
X0007849D01*
X0007833Y0008193D01*
X0007737Y0008226D02*
X0007604D01*
X0007737Y0008160D02*
Y0008260D01*
X0007687Y0008360D01*
X0007654D01*
X0007604Y0008260D01*
Y0008160D01*
X0007509D02*
Y0008360D01*
X0007475Y0008326D01*
X0007442Y0008260D01*
X0007409Y0008326D01*
X0007375Y0008360D01*
Y0008160D01*
X0005288Y0014659D02*
X0005088Y0014759D01*
Y0014626D01*
X0005288Y0014430D02*
X0005088Y0014530D01*
Y0014397D01*
X0005255Y0014302D02*
X0005288Y0014285D01*
Y0014185D01*
X0005255Y0014168D01*
X0005122D01*
X0005088Y0014185D01*
Y0014285D01*
X0005122Y0014302D01*
X0030888Y0006299D02*
X0030855Y0006315D01*
X0030822D01*
X0030788Y0006299D01*
Y0006199D01*
X0030822Y0006182D01*
X0030855D01*
X0030888Y0006199D01*
Y0006299D01*
X0030922Y0006315D01*
X0030955D01*
X0030988Y0006299D01*
Y0006199D01*
X0030955Y0006182D01*
X0030922D01*
X0030888Y0006199D01*
X0030955Y0005953D02*
X0030988Y0005970D01*
Y0006070D01*
X0030955Y0006087D01*
X0030888D01*
X0030855Y0006053D01*
Y0005953D01*
X0030788D01*
Y0006087D01*
X0030955Y0005858D02*
X0030988Y0005841D01*
Y0005741D01*
X0030955Y0005725D01*
X0030822D01*
X0030788Y0005741D01*
Y0005841D01*
X0030822Y0005858D01*
X0027534Y0010105D02*
X0027434D01*
X0027418Y0010138D01*
Y0010172D01*
X0027434Y0010205D01*
X0027534D01*
X0027551Y0010172D01*
Y0010138D01*
X0027484Y0010005D01*
X0027189Y0010038D02*
X0027222Y0010005D01*
X0027289D01*
X0027322Y0010038D01*
Y0010072D01*
X0027256Y0010138D01*
X0027322Y0010205D01*
X0027189D01*
X0027094Y0010005D02*
X0027027D01*
X0027060D02*
Y0010205D01*
X0027027Y0010172D01*
X0026898Y0010038D02*
X0026882Y0010005D01*
X0026782D01*
X0026765Y0010038D01*
Y0010172D01*
X0026782Y0010205D01*
X0026882D01*
X0026898Y0010172D01*
X0033112Y0005128D02*
X0032979D01*
X0033045Y0005262D01*
X0033079D01*
Y0005062D01*
X0032750Y0005095D02*
X0032767Y0005062D01*
X0032867D01*
X0032883Y0005095D01*
Y0005162D01*
X0032850Y0005195D01*
X0032750D01*
Y0005262D01*
X0032883D01*
X0032655Y0005095D02*
X0032638Y0005062D01*
X0032538D01*
X0032521Y0005095D01*
Y0005228D01*
X0032538Y0005262D01*
X0032638D01*
X0032655Y0005228D01*
X0034278Y0001363D02*
X0034144D01*
X0034278Y0001496D01*
Y0001529D01*
X0034261Y0001563D01*
X0034161D01*
X0034144Y0001529D01*
X0034049Y0001463D02*
X0033916D01*
X0034049Y0001363D02*
Y0001563D01*
X0033916Y0001363D02*
Y0001563D01*
X0033820Y0001363D02*
Y0001563D01*
X0033787Y0001529D01*
X0033754Y0001463D01*
X0033720Y0001529D01*
X0033687Y0001563D01*
Y0001363D01*
X0024645Y0000374D02*
X0024612Y0000341D01*
Y0000274D01*
X0024645Y0000241D01*
X0024678D01*
X0024745Y0000308D01*
X0024812Y0000241D01*
Y0000374D01*
X0024612Y0000470D02*
Y0000603D01*
X0024745Y0000470D01*
X0024778D01*
X0024812Y0000486D01*
Y0000586D01*
X0024778Y0000603D01*
X0024645Y0000698D02*
X0024612Y0000715D01*
Y0000815D01*
X0024645Y0000832D01*
X0024778D01*
X0024812Y0000815D01*
Y0000715D01*
X0024778Y0000698D01*
X0022066Y0003455D02*
X0021999D01*
X0022033D02*
Y0003655D01*
X0021999Y0003622D01*
X0021871Y0003522D02*
X0021737D01*
X0021804Y0003655D01*
X0021837D01*
Y0003455D01*
X0021642Y0003488D02*
X0021625Y0003455D01*
X0021525D01*
X0021509Y0003488D01*
Y0003622D01*
X0021525Y0003655D01*
X0021625D01*
X0021642Y0003622D01*
X0051848Y0002155D02*
X0051948Y0002355D01*
X0051814D01*
X0051586Y0002188D02*
X0051619Y0002155D01*
X0051686D01*
X0051719Y0002188D01*
Y0002222D01*
X0051652Y0002288D01*
X0051719Y0002355D01*
X0051586D01*
X0051490Y0002155D02*
X0051424D01*
X0051457D02*
Y0002355D01*
X0051424Y0002322D01*
X0051295Y0002188D02*
X0051278Y0002155D01*
X0051178D01*
X0051162Y0002188D01*
Y0002322D01*
X0051178Y0002355D01*
X0051278D01*
X0051295Y0002322D01*
X0044673Y0004763D02*
Y0004696D01*
X0044606Y0004563D01*
X0044540Y0004696D01*
Y0004763D01*
X0044444Y0004563D02*
X0044311D01*
X0044444Y0004696D01*
Y0004729D01*
X0044428Y0004763D01*
X0044328D01*
X0044311Y0004729D01*
X0044082Y0004663D02*
X0044182D01*
X0044216Y0004696D01*
Y0004729D01*
X0044182Y0004763D01*
X0044082D01*
Y0004563D01*
X0043987D02*
X0043920D01*
X0043954D02*
Y0004763D01*
X0043920Y0004729D01*
X0001494Y0013596D02*
X0001511Y0013563D01*
X0001611D01*
X0001628Y0013596D01*
Y0013663D01*
X0001594Y0013696D01*
X0001494D01*
Y0013763D01*
X0001628D01*
X0001399Y0013663D02*
X0001266D01*
X0001399Y0013563D02*
Y0013763D01*
X0001266Y0013563D02*
Y0013763D01*
X0001170Y0013563D02*
Y0013763D01*
X0001137Y0013729D01*
X0001104Y0013663D01*
X0001070Y0013729D01*
X0001037Y0013763D01*
Y0013563D01*
X0009066Y0004788D02*
X0009099Y0004755D01*
X0009166D01*
X0009199Y0004788D01*
Y0004822D01*
X0009133Y0004888D01*
X0009199Y0004955D01*
X0009066D01*
X0008837Y0004788D02*
X0008854Y0004755D01*
X0008954D01*
X0008971Y0004788D01*
Y0004855D01*
X0008937Y0004888D01*
X0008837D01*
Y0004955D01*
X0008971D01*
X0008742Y0004788D02*
X0008725Y0004755D01*
X0008625D01*
X0008609Y0004788D01*
Y0004922D01*
X0008625Y0004955D01*
X0008725D01*
X0008742Y0004922D01*
X0026588Y0012262D02*
X0026488D01*
X0026471Y0012295D01*
Y0012328D01*
X0026488Y0012362D01*
X0026588D01*
X0026604Y0012328D01*
Y0012295D01*
X0026538Y0012162D01*
X0026376D02*
X0026242D01*
X0026376Y0012295D01*
Y0012328D01*
X0026359Y0012362D01*
X0026259D01*
X0026242Y0012328D01*
X0026147Y0012162D02*
X0026080D01*
X0026114D02*
Y0012362D01*
X0026080Y0012328D01*
X0025952Y0012195D02*
X0025935Y0012162D01*
X0025835D01*
X0025818Y0012195D01*
Y0012328D01*
X0025835Y0012362D01*
X0025935D01*
X0025952Y0012328D01*
X0018655Y0014626D02*
X0018688Y0014642D01*
Y0014742D01*
X0018655Y0014759D01*
X0018588D01*
X0018555Y0014726D01*
Y0014626D01*
X0018488D01*
Y0014759D01*
X0018588Y0014514D02*
X0018555Y0014530D01*
X0018522D01*
X0018488Y0014514D01*
Y0014414D01*
X0018522Y0014397D01*
X0018555D01*
X0018588Y0014414D01*
Y0014514D01*
X0018622Y0014530D01*
X0018655D01*
X0018688Y0014514D01*
Y0014414D01*
X0018655Y0014397D01*
X0018622D01*
X0018588Y0014414D01*
X0018655Y0014302D02*
X0018688Y0014285D01*
Y0014185D01*
X0018655Y0014168D01*
X0018522D01*
X0018488Y0014185D01*
Y0014285D01*
X0018522Y0014302D01*
X0030045Y0008623D02*
X0030012Y0008589D01*
Y0008523D01*
X0030045Y0008489D01*
X0030078D01*
X0030145Y0008556D01*
X0030212Y0008489D01*
Y0008623D01*
X0030078Y0008718D02*
Y0008851D01*
X0030212Y0008785D01*
Y0008751D01*
X0030012D01*
Y0008947D02*
Y0009013D01*
Y0008980D02*
X0030212D01*
X0030178Y0009013D01*
X0030045Y0009142D02*
X0030012Y0009159D01*
Y0009259D01*
X0030045Y0009275D01*
X0030178D01*
X0030212Y0009259D01*
Y0009159D01*
X0030178Y0009142D01*
X0015988Y0006442D02*
Y0006542D01*
X0016022Y0006559D01*
X0016055D01*
X0016088Y0006542D01*
Y0006442D01*
X0016055Y0006426D01*
X0016022D01*
X0015888Y0006492D01*
X0015988Y0006214D02*
Y0006314D01*
X0016022Y0006330D01*
X0016055D01*
X0016088Y0006314D01*
Y0006214D01*
X0016055Y0006197D01*
X0016022D01*
X0015888Y0006264D01*
X0016055Y0006102D02*
X0016088Y0006085D01*
Y0005985D01*
X0016055Y0005968D01*
X0015922D01*
X0015888Y0005985D01*
Y0006085D01*
X0015922Y0006102D01*
X0018062Y0007539D02*
Y0007439D01*
X0018028Y0007423D01*
X0017995D01*
X0017962Y0007439D01*
Y0007539D01*
X0017995Y0007556D01*
X0018028D01*
X0018162Y0007489D01*
X0017962Y0007651D02*
Y0007718D01*
Y0007685D02*
X0018162D01*
X0018128Y0007718D01*
X0017962Y0007847D02*
Y0007913D01*
Y0007880D02*
X0018162D01*
X0018128Y0007913D01*
X0017995Y0008042D02*
X0017962Y0008059D01*
Y0008159D01*
X0017995Y0008175D01*
X0018128D01*
X0018162Y0008159D01*
Y0008059D01*
X0018128Y0008042D01*
X0016238Y0014676D02*
X0016205Y0014642D01*
X0016172Y0014626D01*
X0016105D01*
X0016072Y0014642D01*
X0016038Y0014676D01*
Y0014709D01*
X0016072Y0014742D01*
X0016105Y0014759D01*
X0016172D01*
X0016205Y0014742D01*
X0016238Y0014709D01*
Y0014676D01*
X0016138Y0014514D02*
X0016105Y0014530D01*
X0016072D01*
X0016038Y0014514D01*
Y0014414D01*
X0016072Y0014397D01*
X0016105D01*
X0016138Y0014414D01*
Y0014514D01*
X0016172Y0014530D01*
X0016205D01*
X0016238Y0014514D01*
Y0014414D01*
X0016205Y0014397D01*
X0016172D01*
X0016138Y0014414D01*
X0016205Y0014302D02*
X0016238Y0014285D01*
Y0014185D01*
X0016205Y0014168D01*
X0016072D01*
X0016038Y0014185D01*
Y0014285D01*
X0016072Y0014302D01*
X0030188Y0006299D02*
Y0006199D01*
X0030155Y0006182D01*
X0030122D01*
X0030088Y0006199D01*
Y0006299D01*
X0030122Y0006315D01*
X0030155D01*
X0030288Y0006249D01*
X0030255Y0005953D02*
X0030288Y0005970D01*
Y0006070D01*
X0030255Y0006087D01*
X0030188D01*
X0030155Y0006053D01*
Y0005953D01*
X0030088D01*
Y0006087D01*
X0030255Y0005858D02*
X0030288Y0005841D01*
Y0005741D01*
X0030255Y0005725D01*
X0030122D01*
X0030088Y0005741D01*
Y0005841D01*
X0030122Y0005858D01*
X0023238Y0014854D02*
X0023205Y0014871D01*
X0023172D01*
X0023138Y0014854D01*
Y0014754D01*
X0023172Y0014738D01*
X0023205D01*
X0023238Y0014754D01*
Y0014854D01*
X0023272Y0014871D01*
X0023305D01*
X0023338Y0014854D01*
Y0014754D01*
X0023305Y0014738D01*
X0023272D01*
X0023238Y0014754D01*
X0023338Y0014642D02*
Y0014576D01*
Y0014609D02*
X0023138D01*
X0023172Y0014576D01*
X0023338Y0014447D02*
Y0014380D01*
Y0014414D02*
X0023138D01*
X0023172Y0014380D01*
X0023305Y0014252D02*
X0023338Y0014235D01*
Y0014135D01*
X0023305Y0014118D01*
X0023172D01*
X0023138Y0014135D01*
Y0014235D01*
X0023172Y0014252D01*
X0008622Y0012255D02*
X0008589Y0012288D01*
X0008572Y0012322D01*
Y0012388D01*
X0008589Y0012422D01*
X0008622Y0012455D01*
X0008656D01*
X0008689Y0012422D01*
X0008706Y0012388D01*
Y0012322D01*
X0008689Y0012288D01*
X0008656Y0012255D01*
X0008622D01*
X0008460Y0012355D02*
X0008360D01*
X0008344Y0012388D01*
Y0012422D01*
X0008360Y0012455D01*
X0008460D01*
X0008477Y0012422D01*
Y0012388D01*
X0008410Y0012255D01*
X0008248Y0012288D02*
X0008232Y0012255D01*
X0008132D01*
X0008115Y0012288D01*
Y0012422D01*
X0008132Y0012455D01*
X0008232D01*
X0008248Y0012422D01*
X0007889Y0010705D02*
X0007989D01*
X0008006Y0010672D01*
Y0010638D01*
X0007989Y0010605D01*
X0007889D01*
X0007872Y0010638D01*
Y0010672D01*
X0007939Y0010805D01*
X0007760Y0010705D02*
X0007660D01*
X0007644Y0010738D01*
Y0010772D01*
X0007660Y0010805D01*
X0007760D01*
X0007777Y0010772D01*
Y0010738D01*
X0007710Y0010605D01*
X0007548Y0010638D02*
X0007532Y0010605D01*
X0007432D01*
X0007415Y0010638D01*
Y0010772D01*
X0007432Y0010805D01*
X0007532D01*
X0007548Y0010772D01*
X0009066Y0003488D02*
X0009083Y0003455D01*
X0009183D01*
X0009199Y0003488D01*
Y0003555D01*
X0009166Y0003588D01*
X0009066D01*
Y0003655D01*
X0009199D01*
X0008971Y0003522D02*
X0008837D01*
X0008904Y0003655D01*
X0008937D01*
Y0003455D01*
X0008742Y0003488D02*
X0008725Y0003455D01*
X0008625D01*
X0008609Y0003488D01*
Y0003622D01*
X0008625Y0003655D01*
X0008725D01*
X0008742Y0003622D01*
X0011595Y0000374D02*
X0011562Y0000358D01*
Y0000258D01*
X0011595Y0000241D01*
X0011662D01*
X0011695Y0000274D01*
Y0000374D01*
X0011762D01*
Y0000241D01*
X0011562Y0000470D02*
Y0000603D01*
X0011695Y0000470D01*
X0011728D01*
X0011762Y0000486D01*
Y0000586D01*
X0011728Y0000603D01*
X0011595Y0000698D02*
X0011562Y0000715D01*
Y0000815D01*
X0011595Y0000832D01*
X0011728D01*
X0011762Y0000815D01*
Y0000715D01*
X0011728Y0000698D01*
X0018712Y0000324D02*
X0018745Y0000358D01*
X0018778Y0000374D01*
X0018845D01*
X0018878Y0000358D01*
X0018912Y0000324D01*
Y0000291D01*
X0018878Y0000258D01*
X0018845Y0000241D01*
X0018778D01*
X0018745Y0000258D01*
X0018712Y0000291D01*
Y0000324D01*
X0018745Y0000603D02*
X0018712Y0000570D01*
Y0000503D01*
X0018745Y0000470D01*
X0018778D01*
X0018845Y0000536D01*
X0018912Y0000470D01*
Y0000603D01*
X0018745Y0000698D02*
X0018712Y0000715D01*
Y0000815D01*
X0018745Y0000832D01*
X0018878D01*
X0018912Y0000815D01*
Y0000715D01*
X0018878Y0000698D01*
X0016362Y0000358D02*
Y0000258D01*
X0016328Y0000241D01*
X0016295D01*
X0016262Y0000258D01*
Y0000358D01*
X0016295Y0000374D01*
X0016328D01*
X0016462Y0000308D01*
X0016295Y0000603D02*
X0016262Y0000570D01*
Y0000503D01*
X0016295Y0000470D01*
X0016328D01*
X0016395Y0000536D01*
X0016462Y0000470D01*
Y0000603D01*
X0016295Y0000698D02*
X0016262Y0000715D01*
Y0000815D01*
X0016295Y0000832D01*
X0016428D01*
X0016462Y0000815D01*
Y0000715D01*
X0016428Y0000698D01*
X0017255Y0006432D02*
X0017288Y0006449D01*
Y0006549D01*
X0017255Y0006565D01*
X0017188D01*
X0017155Y0006532D01*
Y0006432D01*
X0017088D01*
Y0006565D01*
X0017188Y0006220D02*
Y0006320D01*
X0017222Y0006337D01*
X0017255D01*
X0017288Y0006320D01*
Y0006220D01*
X0017255Y0006203D01*
X0017222D01*
X0017088Y0006270D01*
X0017255Y0006108D02*
X0017288Y0006091D01*
Y0005991D01*
X0017255Y0005975D01*
X0017122D01*
X0017088Y0005991D01*
Y0006091D01*
X0017122Y0006108D01*
X0001318Y0010188D02*
X0001351Y0010155D01*
X0001418D01*
X0001451Y0010188D01*
Y0010222D01*
X0001384Y0010288D01*
X0001451Y0010355D01*
X0001318D01*
X0001139Y0010155D02*
X0001106Y0010188D01*
X0001089Y0010222D01*
Y0010288D01*
X0001106Y0010322D01*
X0001139Y0010355D01*
X0001172D01*
X0001206Y0010322D01*
X0001222Y0010288D01*
Y0010222D01*
X0001206Y0010188D01*
X0001172Y0010155D01*
X0001139D01*
X0000994D02*
X0000927D01*
X0000960D02*
Y0010355D01*
X0000927Y0010322D01*
X0000798Y0010188D02*
X0000782Y0010155D01*
X0000682D01*
X0000665Y0010188D01*
Y0010322D01*
X0000682Y0010355D01*
X0000782D01*
X0000798Y0010322D01*
X0018288Y0014726D02*
Y0014659D01*
Y0014692D02*
X0018088D01*
X0018122Y0014659D01*
X0018188Y0014514D02*
X0018155Y0014530D01*
X0018122D01*
X0018088Y0014514D01*
Y0014414D01*
X0018122Y0014397D01*
X0018155D01*
X0018188Y0014414D01*
Y0014514D01*
X0018222Y0014530D01*
X0018255D01*
X0018288Y0014514D01*
Y0014414D01*
X0018255Y0014397D01*
X0018222D01*
X0018188Y0014414D01*
X0018255Y0014302D02*
X0018288Y0014285D01*
Y0014185D01*
X0018255Y0014168D01*
X0018122D01*
X0018088Y0014185D01*
Y0014285D01*
X0018122Y0014302D01*
X0033038Y0011162D02*
X0033138D01*
X0033154Y0011128D01*
Y0011095D01*
X0033138Y0011062D01*
X0033038D01*
X0033021Y0011095D01*
Y0011128D01*
X0033088Y0011262D01*
X0032792Y0011095D02*
X0032826Y0011062D01*
X0032892D01*
X0032926Y0011095D01*
Y0011128D01*
X0032859Y0011195D01*
X0032926Y0011262D01*
X0032792D01*
X0032697Y0011062D02*
X0032630D01*
X0032664D02*
Y0011262D01*
X0032630Y0011228D01*
X0032502Y0011095D02*
X0032485Y0011062D01*
X0032385D01*
X0032368Y0011095D01*
Y0011228D01*
X0032385Y0011262D01*
X0032485D01*
X0032502Y0011228D01*
X0007307Y0005062D02*
X0007174D01*
X0007307Y0005195D01*
Y0005228D01*
X0007291Y0005262D01*
X0007191D01*
X0007174Y0005228D01*
X0006995Y0005062D02*
X0006962Y0005095D01*
X0006945Y0005128D01*
Y0005195D01*
X0006962Y0005228D01*
X0006995Y0005262D01*
X0007029D01*
X0007062Y0005228D01*
X0007079Y0005195D01*
Y0005128D01*
X0007062Y0005095D01*
X0007029Y0005062D01*
X0006995D01*
X0006850D02*
X0006783D01*
X0006817D02*
Y0005262D01*
X0006783Y0005228D01*
X0006655Y0005095D02*
X0006638Y0005062D01*
X0006538D01*
X0006521Y0005095D01*
Y0005228D01*
X0006538Y0005262D01*
X0006638D01*
X0006655Y0005228D01*
X0016662Y0000274D02*
Y0000341D01*
Y0000308D02*
X0016862D01*
X0016828Y0000341D01*
X0016695Y0000603D02*
X0016662Y0000570D01*
Y0000503D01*
X0016695Y0000470D01*
X0016728D01*
X0016795Y0000536D01*
X0016862Y0000470D01*
Y0000603D01*
X0016695Y0000698D02*
X0016662Y0000715D01*
Y0000815D01*
X0016695Y0000832D01*
X0016828D01*
X0016862Y0000815D01*
Y0000715D01*
X0016828Y0000698D01*
X0028383Y0002705D02*
X0028283D01*
X0028266Y0002738D01*
Y0002772D01*
X0028283Y0002805D01*
X0028383D01*
X0028399Y0002772D01*
Y0002738D01*
X0028333Y0002605D01*
X0028037Y0002638D02*
X0028071Y0002605D01*
X0028137D01*
X0028171Y0002638D01*
Y0002672D01*
X0028104Y0002738D01*
X0028171Y0002805D01*
X0028037D01*
X0027942Y0002638D02*
X0027925Y0002605D01*
X0027825D01*
X0027809Y0002638D01*
Y0002772D01*
X0027825Y0002805D01*
X0027925D01*
X0027942Y0002772D01*
X0004112Y0008506D02*
Y0008606D01*
X0004145Y0008623D01*
X0004178D01*
X0004212Y0008606D01*
Y0008506D01*
X0004178Y0008489D01*
X0004145D01*
X0004012Y0008556D01*
Y0008801D02*
X0004045Y0008835D01*
X0004078Y0008851D01*
X0004145D01*
X0004178Y0008835D01*
X0004212Y0008801D01*
Y0008768D01*
X0004178Y0008735D01*
X0004145Y0008718D01*
X0004078D01*
X0004045Y0008735D01*
X0004012Y0008768D01*
Y0008801D01*
Y0008947D02*
Y0009013D01*
Y0008980D02*
X0004212D01*
X0004178Y0009013D01*
X0004045Y0009142D02*
X0004012Y0009159D01*
Y0009259D01*
X0004045Y0009275D01*
X0004178D01*
X0004212Y0009259D01*
Y0009159D01*
X0004178Y0009142D01*
X0012478Y0008529D02*
Y0008662D01*
X0012612Y0008596D01*
Y0008562D01*
X0012412D01*
Y0008758D02*
Y0008824D01*
Y0008791D02*
X0012612D01*
X0012578Y0008824D01*
X0012412Y0008953D02*
Y0009020D01*
Y0008986D02*
X0012612D01*
X0012578Y0009020D01*
X0012445Y0009148D02*
X0012412Y0009165D01*
Y0009265D01*
X0012445Y0009282D01*
X0012578D01*
X0012612Y0009265D01*
Y0009165D01*
X0012578Y0009148D01*
X0004888Y0006538D02*
Y0006638D01*
X0004922Y0006654D01*
X0004955D01*
X0004988Y0006638D01*
Y0006538D01*
X0004955Y0006521D01*
X0004922D01*
X0004788Y0006588D01*
X0004988Y0006342D02*
X0004955Y0006309D01*
X0004922Y0006292D01*
X0004855D01*
X0004822Y0006309D01*
X0004788Y0006342D01*
Y0006376D01*
X0004822Y0006409D01*
X0004855Y0006426D01*
X0004922D01*
X0004955Y0006409D01*
X0004988Y0006376D01*
Y0006342D01*
Y0006197D02*
Y0006130D01*
Y0006164D02*
X0004788D01*
X0004822Y0006130D01*
X0004955Y0006002D02*
X0004988Y0005985D01*
Y0005885D01*
X0004955Y0005868D01*
X0004822D01*
X0004788Y0005885D01*
Y0005985D01*
X0004822Y0006002D01*
X0036901Y0004162D02*
X0036934Y0004129D01*
X0037001D01*
X0037034Y0004162D01*
Y0004195D01*
X0036967Y0004262D01*
X0037034Y0004329D01*
X0036901D01*
X0036805Y0004129D02*
X0036739D01*
X0036772D02*
Y0004329D01*
X0036739Y0004295D01*
X0036610Y0004162D02*
X0036593Y0004129D01*
X0036493D01*
X0036477Y0004162D01*
Y0004295D01*
X0036493Y0004329D01*
X0036593D01*
X0036610Y0004295D01*
X0032921Y0012162D02*
X0032854D01*
X0032888D02*
Y0012362D01*
X0032854Y0012328D01*
X0032592Y0012195D02*
X0032626Y0012162D01*
X0032692D01*
X0032726Y0012195D01*
Y0012228D01*
X0032659Y0012295D01*
X0032726Y0012362D01*
X0032592D01*
X0032497Y0012162D02*
X0032430D01*
X0032464D02*
Y0012362D01*
X0032430Y0012328D01*
X0032302Y0012195D02*
X0032285Y0012162D01*
X0032185D01*
X0032168Y0012195D01*
Y0012328D01*
X0032185Y0012362D01*
X0032285D01*
X0032302Y0012328D01*
X0031862Y0000308D02*
Y0000208D01*
X0031828Y0000191D01*
X0031795D01*
X0031762Y0000208D01*
Y0000308D01*
X0031795Y0000324D01*
X0031828D01*
X0031962Y0000258D01*
X0031762Y0000420D02*
Y0000553D01*
X0031895Y0000420D01*
X0031928D01*
X0031962Y0000436D01*
Y0000536D01*
X0031928Y0000553D01*
X0031795Y0000648D02*
X0031762Y0000665D01*
Y0000765D01*
X0031795Y0000782D01*
X0031928D01*
X0031962Y0000765D01*
Y0000665D01*
X0031928Y0000648D01*
X0043436Y0000182D02*
X0043369D01*
X0043402D02*
Y0000382D01*
X0043369Y0000348D01*
X0043240Y0000182D02*
X0043174D01*
X0043207D02*
Y0000382D01*
X0043174Y0000348D01*
X0043045Y0000215D02*
X0043028Y0000182D01*
X0042928D01*
X0042912Y0000215D01*
Y0000348D01*
X0042928Y0000382D01*
X0043028D01*
X0043045Y0000348D01*
X0042211Y0003828D02*
Y0003495D01*
X0042378Y0003662D02*
X0042045D01*
X0021834Y0012355D02*
X0021851Y0012388D01*
Y0012422D01*
X0021834Y0012455D01*
X0021734D01*
X0021718Y0012422D01*
Y0012388D01*
X0021734Y0012355D01*
X0021834D01*
X0021851Y0012322D01*
Y0012288D01*
X0021834Y0012255D01*
X0021734D01*
X0021718Y0012288D01*
Y0012322D01*
X0021734Y0012355D01*
X0021622Y0012255D02*
X0021489D01*
X0021622Y0012388D01*
Y0012422D01*
X0021606Y0012455D01*
X0021506D01*
X0021489Y0012422D01*
X0021394Y0012255D02*
X0021327D01*
X0021360D02*
Y0012455D01*
X0021327Y0012422D01*
X0021198Y0012288D02*
X0021182Y0012255D01*
X0021082D01*
X0021065Y0012288D01*
Y0012422D01*
X0021082Y0012455D01*
X0021182D01*
X0021198Y0012422D01*
X0027512Y0004362D02*
X0027612Y0004562D01*
X0027479D01*
X0027383Y0004428D02*
X0027250D01*
X0027317Y0004562D01*
X0027350D01*
Y0004362D01*
X0027155Y0004395D02*
X0027138Y0004362D01*
X0027038D01*
X0027021Y0004395D01*
Y0004528D01*
X0027038Y0004562D01*
X0027138D01*
X0027155Y0004528D01*
X0029788Y0014854D02*
Y0014754D01*
X0029755Y0014738D01*
X0029722D01*
X0029688Y0014754D01*
Y0014854D01*
X0029722Y0014871D01*
X0029755D01*
X0029888Y0014804D01*
Y0014642D02*
Y0014576D01*
Y0014609D02*
X0029688D01*
X0029722Y0014576D01*
X0029888Y0014447D02*
Y0014380D01*
Y0014414D02*
X0029688D01*
X0029722Y0014380D01*
X0029855Y0014252D02*
X0029888Y0014235D01*
Y0014135D01*
X0029855Y0014118D01*
X0029722D01*
X0029688Y0014135D01*
Y0014235D01*
X0029722Y0014252D01*
X0026579Y0002462D02*
X0026545Y0002495D01*
X0026529Y0002528D01*
Y0002595D01*
X0026545Y0002628D01*
X0026579Y0002662D01*
X0026612D01*
X0026645Y0002628D01*
X0026662Y0002595D01*
Y0002528D01*
X0026645Y0002495D01*
X0026612Y0002462D01*
X0026579D01*
X0026433Y0002528D02*
X0026300D01*
X0026367Y0002662D01*
X0026400D01*
Y0002462D01*
X0026205Y0002495D02*
X0026188Y0002462D01*
X0026088D01*
X0026071Y0002495D01*
Y0002628D01*
X0026088Y0002662D01*
X0026188D01*
X0026205Y0002628D01*
X0020918Y0010588D02*
X0020951Y0010555D01*
X0021018D01*
X0021051Y0010588D01*
Y0010622D01*
X0020984Y0010688D01*
X0021051Y0010755D01*
X0020918D01*
X0020689Y0010588D02*
X0020722Y0010555D01*
X0020789D01*
X0020822Y0010588D01*
Y0010622D01*
X0020756Y0010688D01*
X0020822Y0010755D01*
X0020689D01*
X0020594Y0010555D02*
X0020527D01*
X0020560D02*
Y0010755D01*
X0020527Y0010722D01*
X0020398Y0010588D02*
X0020382Y0010555D01*
X0020282D01*
X0020265Y0010588D01*
Y0010722D01*
X0020282Y0010755D01*
X0020382D01*
X0020398Y0010722D01*
X0048032Y0009213D02*
X0048099D01*
Y0009146D01*
X0048082Y0009113D01*
X0047982D01*
X0047966Y0009146D01*
Y0009279D01*
X0047982Y0009313D01*
X0048082D01*
X0048099Y0009279D01*
X0047737Y0009213D02*
X0047837D01*
X0047870Y0009246D01*
Y0009279D01*
X0047837Y0009313D01*
X0047737D01*
Y0009113D01*
X0013612Y0002578D02*
X0013479D01*
X0013545Y0002712D01*
X0013579D01*
Y0002512D01*
X0013383Y0002578D02*
X0013250D01*
X0013317Y0002712D01*
X0013350D01*
Y0002512D01*
X0013155Y0002545D02*
X0013138Y0002512D01*
X0013038D01*
X0013021Y0002545D01*
Y0002678D01*
X0013038Y0002712D01*
X0013138D01*
X0013155Y0002678D01*
X0015218Y0009738D02*
X0015234Y0009705D01*
X0015334D01*
X0015351Y0009738D01*
Y0009805D01*
X0015318Y0009838D01*
X0015218D01*
Y0009905D01*
X0015351D01*
X0015039Y0009705D02*
X0015006Y0009738D01*
X0014989Y0009772D01*
Y0009838D01*
X0015006Y0009872D01*
X0015039Y0009905D01*
X0015072D01*
X0015106Y0009872D01*
X0015122Y0009838D01*
Y0009772D01*
X0015106Y0009738D01*
X0015072Y0009705D01*
X0015039D01*
X0014894D02*
X0014827D01*
X0014860D02*
Y0009905D01*
X0014827Y0009872D01*
X0014698Y0009738D02*
X0014682Y0009705D01*
X0014582D01*
X0014565Y0009738D01*
Y0009872D01*
X0014582Y0009905D01*
X0014682D01*
X0014698Y0009872D01*
X0014595Y0004162D02*
X0014495D01*
X0014479Y0004195D01*
Y0004228D01*
X0014495Y0004262D01*
X0014595D01*
X0014612Y0004228D01*
Y0004195D01*
X0014545Y0004062D01*
X0014383Y0004128D02*
X0014250D01*
X0014317Y0004262D01*
X0014350D01*
Y0004062D01*
X0014155Y0004095D02*
X0014138Y0004062D01*
X0014038D01*
X0014021Y0004095D01*
Y0004228D01*
X0014038Y0004262D01*
X0014138D01*
X0014155Y0004228D01*
X0006942Y0011112D02*
X0006842D01*
X0006826Y0011145D01*
Y0011178D01*
X0006842Y0011212D01*
X0006942D01*
X0006959Y0011178D01*
Y0011145D01*
X0006892Y0011012D01*
X0006714Y0011112D02*
X0006614D01*
X0006597Y0011145D01*
Y0011178D01*
X0006614Y0011212D01*
X0006714D01*
X0006730Y0011178D01*
Y0011145D01*
X0006664Y0011012D01*
X0006502Y0011045D02*
X0006485Y0011012D01*
X0006385D01*
X0006368Y0011045D01*
Y0011178D01*
X0006385Y0011212D01*
X0006485D01*
X0006502Y0011178D01*
X0012122Y0014809D02*
Y0014676D01*
X0011988Y0014742D01*
Y0014776D01*
X0012188D01*
X0012088Y0014564D02*
X0012055Y0014580D01*
X0012022D01*
X0011988Y0014564D01*
Y0014464D01*
X0012022Y0014447D01*
X0012055D01*
X0012088Y0014464D01*
Y0014564D01*
X0012122Y0014580D01*
X0012155D01*
X0012188Y0014564D01*
Y0014464D01*
X0012155Y0014447D01*
X0012122D01*
X0012088Y0014464D01*
X0012155Y0014352D02*
X0012188Y0014335D01*
Y0014235D01*
X0012155Y0014218D01*
X0012022D01*
X0011988Y0014235D01*
Y0014335D01*
X0012022Y0014352D01*
X0002439Y0004855D02*
X0002456Y0004888D01*
Y0004922D01*
X0002439Y0004955D01*
X0002339D01*
X0002322Y0004922D01*
Y0004888D01*
X0002339Y0004855D01*
X0002439D01*
X0002456Y0004822D01*
Y0004788D01*
X0002439Y0004755D01*
X0002339D01*
X0002322Y0004788D01*
Y0004822D01*
X0002339Y0004855D01*
X0002210D02*
X0002110D01*
X0002094Y0004888D01*
Y0004922D01*
X0002110Y0004955D01*
X0002210D01*
X0002227Y0004922D01*
Y0004888D01*
X0002160Y0004755D01*
X0001998Y0004788D02*
X0001982Y0004755D01*
X0001882D01*
X0001865Y0004788D01*
Y0004922D01*
X0001882Y0004955D01*
X0001982D01*
X0001998Y0004922D01*
X0011245Y0008656D02*
X0011212Y0008623D01*
Y0008556D01*
X0011245Y0008523D01*
X0011278D01*
X0011345Y0008589D01*
X0011412Y0008523D01*
Y0008656D01*
X0011212Y0008751D02*
Y0008818D01*
Y0008785D02*
X0011412D01*
X0011378Y0008818D01*
X0011212Y0008947D02*
Y0009013D01*
Y0008980D02*
X0011412D01*
X0011378Y0009013D01*
X0011245Y0009142D02*
X0011212Y0009159D01*
Y0009259D01*
X0011245Y0009275D01*
X0011378D01*
X0011412Y0009259D01*
Y0009159D01*
X0011378Y0009142D01*
X0053294Y0001396D02*
X0053328Y0001363D01*
X0053394D01*
X0053428Y0001396D01*
Y0001429D01*
X0053361Y0001496D01*
X0053428Y0001563D01*
X0053294D01*
X0053199Y0001463D02*
X0053066D01*
X0053199Y0001363D02*
Y0001563D01*
X0053066Y0001363D02*
Y0001563D01*
X0052970Y0001363D02*
Y0001563D01*
X0052937Y0001529D01*
X0052904Y0001463D01*
X0052870Y0001529D01*
X0052837Y0001563D01*
Y0001363D01*
X0029712Y0000385D02*
X0029912Y0000285D01*
Y0000418D01*
X0029712Y0000513D02*
Y0000647D01*
X0029845Y0000513D01*
X0029878D01*
X0029912Y0000530D01*
Y0000630D01*
X0029878Y0000647D01*
X0029745Y0000742D02*
X0029712Y0000759D01*
Y0000859D01*
X0029745Y0000875D01*
X0029878D01*
X0029912Y0000859D01*
Y0000759D01*
X0029878Y0000742D01*
X0009638Y0014792D02*
X0009605Y0014809D01*
X0009572D01*
X0009538Y0014792D01*
Y0014692D01*
X0009572Y0014676D01*
X0009605D01*
X0009638Y0014692D01*
Y0014792D01*
X0009672Y0014809D01*
X0009705D01*
X0009738Y0014792D01*
Y0014692D01*
X0009705Y0014676D01*
X0009672D01*
X0009638Y0014692D01*
X0009738Y0014480D02*
X0009538Y0014580D01*
Y0014447D01*
X0009705Y0014352D02*
X0009738Y0014335D01*
Y0014235D01*
X0009705Y0014218D01*
X0009572D01*
X0009538Y0014235D01*
Y0014335D01*
X0009572Y0014352D01*
X0001539Y0007819D02*
X0001472D01*
X0001506D02*
Y0008019D01*
X0001472Y0007986D01*
X0001344Y0007819D02*
Y0008019D01*
X0001310Y0007986D01*
X0001277Y0007919D01*
X0001244Y0007986D01*
X0001210Y0008019D01*
Y0007819D01*
X0000982Y0007919D02*
X0001082D01*
X0001115Y0007953D01*
Y0007986D01*
X0001082Y0008019D01*
X0000982D01*
Y0007819D01*
X0000820D02*
Y0008019D01*
X0000886D02*
X0000753D01*
X0017045Y0008656D02*
X0017012Y0008639D01*
Y0008539D01*
X0017045Y0008523D01*
X0017112D01*
X0017145Y0008556D01*
Y0008656D01*
X0017212D01*
Y0008523D01*
X0017012Y0008751D02*
Y0008818D01*
Y0008785D02*
X0017212D01*
X0017178Y0008818D01*
X0017012Y0008947D02*
Y0009013D01*
Y0008980D02*
X0017212D01*
X0017178Y0009013D01*
X0017045Y0009142D02*
X0017012Y0009159D01*
Y0009259D01*
X0017045Y0009275D01*
X0017178D01*
X0017212Y0009259D01*
Y0009159D01*
X0017178Y0009142D01*
X0022505Y0006426D02*
X0022538Y0006459D01*
Y0006526D01*
X0022505Y0006559D01*
X0022472D01*
X0022405Y0006492D01*
X0022338Y0006559D01*
Y0006426D01*
X0022438Y0006214D02*
Y0006314D01*
X0022472Y0006330D01*
X0022505D01*
X0022538Y0006314D01*
Y0006214D01*
X0022505Y0006197D01*
X0022472D01*
X0022338Y0006264D01*
X0022505Y0006102D02*
X0022538Y0006085D01*
Y0005985D01*
X0022505Y0005968D01*
X0022372D01*
X0022338Y0005985D01*
Y0006085D01*
X0022372Y0006102D01*
X0025412Y0008496D02*
Y0008629D01*
X0025545Y0008496D01*
X0025578D01*
X0025612Y0008512D01*
Y0008612D01*
X0025578Y0008629D01*
X0025478Y0008724D02*
Y0008858D01*
X0025612Y0008791D01*
Y0008758D01*
X0025412D01*
Y0008953D02*
Y0009020D01*
Y0008986D02*
X0025612D01*
X0025578Y0009020D01*
X0025445Y0009148D02*
X0025412Y0009165D01*
Y0009265D01*
X0025445Y0009282D01*
X0025578D01*
X0025612Y0009265D01*
Y0009165D01*
X0025578Y0009148D01*
X0003838Y0014726D02*
Y0014659D01*
Y0014692D02*
X0003638D01*
X0003672Y0014659D01*
X0003838Y0014430D02*
X0003638Y0014530D01*
Y0014397D01*
X0003805Y0014302D02*
X0003838Y0014285D01*
Y0014185D01*
X0003805Y0014168D01*
X0003672D01*
X0003638Y0014185D01*
Y0014285D01*
X0003672Y0014302D01*
X0019995Y0005162D02*
X0020095D01*
X0020112Y0005128D01*
Y0005095D01*
X0020095Y0005062D01*
X0019995D01*
X0019979Y0005095D01*
Y0005128D01*
X0020045Y0005262D01*
X0019750Y0005095D02*
X0019767Y0005062D01*
X0019867D01*
X0019883Y0005095D01*
Y0005162D01*
X0019850Y0005195D01*
X0019750D01*
Y0005262D01*
X0019883D01*
X0019655Y0005095D02*
X0019638Y0005062D01*
X0019538D01*
X0019521Y0005095D01*
Y0005228D01*
X0019538Y0005262D01*
X0019638D01*
X0019655Y0005228D01*
X0043673Y0013028D02*
X0043773D01*
X0043790Y0012995D01*
Y0012962D01*
X0043773Y0012928D01*
X0043673D01*
X0043657Y0012962D01*
Y0012995D01*
X0043723Y0013128D01*
X0043561Y0012962D02*
X0043545Y0012928D01*
X0043445D01*
X0043428Y0012962D01*
Y0013095D01*
X0043445Y0013128D01*
X0043545D01*
X0043561Y0013095D01*
X0006949Y0012262D02*
X0006849D01*
X0006832Y0012295D01*
Y0012328D01*
X0006849Y0012362D01*
X0006949D01*
X0006965Y0012328D01*
Y0012295D01*
X0006899Y0012162D01*
X0006720Y0012262D02*
X0006737Y0012295D01*
Y0012328D01*
X0006720Y0012362D01*
X0006620D01*
X0006603Y0012328D01*
Y0012295D01*
X0006620Y0012262D01*
X0006720D01*
X0006737Y0012228D01*
Y0012195D01*
X0006720Y0012162D01*
X0006620D01*
X0006603Y0012195D01*
Y0012228D01*
X0006620Y0012262D01*
X0006508Y0012195D02*
X0006491Y0012162D01*
X0006391D01*
X0006375Y0012195D01*
Y0012328D01*
X0006391Y0012362D01*
X0006491D01*
X0006508Y0012328D01*
X0005112Y0000324D02*
X0005145Y0000358D01*
X0005178Y0000374D01*
X0005245D01*
X0005278Y0000358D01*
X0005312Y0000324D01*
Y0000291D01*
X0005278Y0000258D01*
X0005245Y0000241D01*
X0005178D01*
X0005145Y0000258D01*
X0005112Y0000291D01*
Y0000324D01*
Y0000570D02*
X0005312Y0000470D01*
Y0000603D01*
X0005145Y0000698D02*
X0005112Y0000715D01*
Y0000815D01*
X0005145Y0000832D01*
X0005278D01*
X0005312Y0000815D01*
Y0000715D01*
X0005278Y0000698D01*
X0002349Y0003455D02*
X0002449Y0003655D01*
X0002316D01*
X0002204Y0003555D02*
X0002221Y0003588D01*
Y0003622D01*
X0002204Y0003655D01*
X0002104D01*
X0002087Y0003622D01*
Y0003588D01*
X0002104Y0003555D01*
X0002204D01*
X0002221Y0003522D01*
Y0003488D01*
X0002204Y0003455D01*
X0002104D01*
X0002087Y0003488D01*
Y0003522D01*
X0002104Y0003555D01*
X0001992Y0003488D02*
X0001975Y0003455D01*
X0001875D01*
X0001859Y0003488D01*
Y0003622D01*
X0001875Y0003655D01*
X0001975D01*
X0001992Y0003622D01*
X0022845Y0000374D02*
X0022812Y0000358D01*
Y0000258D01*
X0022845Y0000241D01*
X0022912D01*
X0022945Y0000274D01*
Y0000374D01*
X0023012D01*
Y0000241D01*
X0022845Y0000603D02*
X0022812Y0000570D01*
Y0000503D01*
X0022845Y0000470D01*
X0022878D01*
X0022945Y0000536D01*
X0023012Y0000470D01*
Y0000603D01*
X0022845Y0000698D02*
X0022812Y0000715D01*
Y0000815D01*
X0022845Y0000832D01*
X0022978D01*
X0023012Y0000815D01*
Y0000715D01*
X0022978Y0000698D01*
X0028268Y0012305D02*
X0028234Y0012338D01*
X0028218Y0012372D01*
Y0012438D01*
X0028234Y0012472D01*
X0028268Y0012505D01*
X0028301D01*
X0028334Y0012472D01*
X0028351Y0012438D01*
Y0012372D01*
X0028334Y0012338D01*
X0028301Y0012305D01*
X0028268D01*
X0027989Y0012338D02*
X0028022Y0012305D01*
X0028089D01*
X0028122Y0012338D01*
Y0012372D01*
X0028056Y0012438D01*
X0028122Y0012505D01*
X0027989D01*
X0027894Y0012305D02*
X0027827D01*
X0027860D02*
Y0012505D01*
X0027827Y0012472D01*
X0027698Y0012338D02*
X0027682Y0012305D01*
X0027582D01*
X0027565Y0012338D01*
Y0012472D01*
X0027582Y0012505D01*
X0027682D01*
X0027698Y0012472D01*
X0011688Y0014792D02*
Y0014692D01*
X0011655Y0014676D01*
X0011622D01*
X0011588Y0014692D01*
Y0014792D01*
X0011622Y0014809D01*
X0011655D01*
X0011788Y0014742D01*
Y0014480D02*
X0011588Y0014580D01*
Y0014447D01*
X0011755Y0014352D02*
X0011788Y0014335D01*
Y0014235D01*
X0011755Y0014218D01*
X0011622D01*
X0011588Y0014235D01*
Y0014335D01*
X0011622Y0014352D01*
X0009488Y0006542D02*
Y0006442D01*
X0009455Y0006426D01*
X0009422D01*
X0009388Y0006442D01*
Y0006542D01*
X0009422Y0006559D01*
X0009455D01*
X0009588Y0006492D01*
X0009488Y0006214D02*
Y0006314D01*
X0009522Y0006330D01*
X0009555D01*
X0009588Y0006314D01*
Y0006214D01*
X0009555Y0006197D01*
X0009522D01*
X0009388Y0006264D01*
X0009555Y0006102D02*
X0009588Y0006085D01*
Y0005985D01*
X0009555Y0005968D01*
X0009422D01*
X0009388Y0005985D01*
Y0006085D01*
X0009422Y0006102D01*
X0025362Y0000254D02*
X0025395Y0000238D01*
X0025428D01*
X0025462Y0000254D01*
Y0000354D01*
X0025428Y0000371D01*
X0025395D01*
X0025362Y0000354D01*
Y0000254D01*
X0025328Y0000238D01*
X0025295D01*
X0025262Y0000254D01*
Y0000354D01*
X0025295Y0000371D01*
X0025328D01*
X0025362Y0000354D01*
X0025262Y0000466D02*
Y0000600D01*
X0025395Y0000466D01*
X0025428D01*
X0025462Y0000483D01*
Y0000583D01*
X0025428Y0000600D01*
X0025295Y0000695D02*
X0025262Y0000712D01*
Y0000812D01*
X0025295Y0000828D01*
X0025428D01*
X0025462Y0000812D01*
Y0000712D01*
X0025428Y0000695D01*
X0053981Y0004132D02*
X0053848D01*
X0053981Y0004265D01*
Y0004298D01*
X0053964Y0004332D01*
X0053864D01*
X0053848Y0004298D01*
X0053619Y0004165D02*
X0053652Y0004132D01*
X0053719D01*
X0053752Y0004165D01*
Y0004198D01*
X0053686Y0004265D01*
X0053752Y0004332D01*
X0053619D01*
X0053524Y0004132D02*
X0053457D01*
X0053490D02*
Y0004332D01*
X0053457Y0004298D01*
X0053328Y0004165D02*
X0053312Y0004132D01*
X0053212D01*
X0053195Y0004165D01*
Y0004298D01*
X0053212Y0004332D01*
X0053312D01*
X0053328Y0004298D01*
X0023788Y0006565D02*
Y0006432D01*
X0023655Y0006565D01*
X0023622D01*
X0023588Y0006549D01*
Y0006449D01*
X0023622Y0006432D01*
X0023688Y0006220D02*
Y0006320D01*
X0023722Y0006337D01*
X0023755D01*
X0023788Y0006320D01*
Y0006220D01*
X0023755Y0006203D01*
X0023722D01*
X0023588Y0006270D01*
X0023755Y0006108D02*
X0023788Y0006091D01*
Y0005991D01*
X0023755Y0005975D01*
X0023622D01*
X0023588Y0005991D01*
Y0006091D01*
X0023622Y0006108D01*
X0051483Y0004215D02*
X0051417D01*
X0051450D02*
Y0004415D01*
X0051417Y0004382D01*
X0051221Y0004215D02*
Y0004315D01*
X0051288Y0004415D02*
X0051238Y0004315D01*
X0051205D01*
X0051155Y0004415D01*
X0027551Y0010622D02*
X0027418D01*
X0027484Y0010755D01*
X0027518D01*
Y0010555D01*
X0027189Y0010588D02*
X0027222Y0010555D01*
X0027289D01*
X0027322Y0010588D01*
Y0010622D01*
X0027256Y0010688D01*
X0027322Y0010755D01*
X0027189D01*
X0027094Y0010555D02*
X0027027D01*
X0027060D02*
Y0010755D01*
X0027027Y0010722D01*
X0026898Y0010588D02*
X0026882Y0010555D01*
X0026782D01*
X0026765Y0010588D01*
Y0010722D01*
X0026782Y0010755D01*
X0026882D01*
X0026898Y0010722D01*
X0034045Y0004062D02*
X0034145D01*
X0034162Y0004028D01*
Y0003995D01*
X0034145Y0003962D01*
X0034045D01*
X0034029Y0003995D01*
Y0004028D01*
X0034095Y0004162D01*
X0033933Y0004028D02*
X0033800D01*
X0033867Y0004162D01*
X0033900D01*
Y0003962D01*
X0033705Y0003995D02*
X0033688Y0003962D01*
X0033588D01*
X0033571Y0003995D01*
Y0004128D01*
X0033588Y0004162D01*
X0033688D01*
X0033705Y0004128D01*
X0042490Y0012928D02*
X0042590Y0013128D01*
X0042457D01*
X0042361Y0012962D02*
X0042345Y0012928D01*
X0042245D01*
X0042228Y0012962D01*
Y0013095D01*
X0042245Y0013128D01*
X0042345D01*
X0042361Y0013095D01*
X0020077Y0010862D02*
X0020011D01*
X0020044D02*
Y0011062D01*
X0020011Y0011028D01*
X0019799Y0010862D02*
X0019765Y0010895D01*
X0019749Y0010928D01*
Y0010995D01*
X0019765Y0011028D01*
X0019799Y0011062D01*
X0019832D01*
X0019865Y0011028D01*
X0019882Y0010995D01*
Y0010928D01*
X0019865Y0010895D01*
X0019832Y0010862D01*
X0019799D01*
X0019653D02*
X0019587D01*
X0019620D02*
Y0011062D01*
X0019587Y0011028D01*
X0019458Y0010895D02*
X0019441Y0010862D01*
X0019341D01*
X0019325Y0010895D01*
Y0011028D01*
X0019341Y0011062D01*
X0019441D01*
X0019458Y0011028D01*
X0017922Y0006509D02*
Y0006376D01*
X0017788Y0006442D01*
Y0006476D01*
X0017988D01*
X0017888Y0006164D02*
Y0006264D01*
X0017922Y0006280D01*
X0017955D01*
X0017988Y0006264D01*
Y0006164D01*
X0017955Y0006147D01*
X0017922D01*
X0017788Y0006214D01*
X0017955Y0006052D02*
X0017988Y0006035D01*
Y0005935D01*
X0017955Y0005918D01*
X0017822D01*
X0017788Y0005935D01*
Y0006035D01*
X0017822Y0006052D01*
X0033795Y0002862D02*
X0033812Y0002895D01*
Y0002928D01*
X0033795Y0002962D01*
X0033695D01*
X0033679Y0002928D01*
Y0002895D01*
X0033695Y0002862D01*
X0033795D01*
X0033812Y0002828D01*
Y0002795D01*
X0033795Y0002762D01*
X0033695D01*
X0033679Y0002795D01*
Y0002828D01*
X0033695Y0002862D01*
X0033450Y0002795D02*
X0033483Y0002762D01*
X0033550D01*
X0033583Y0002795D01*
Y0002828D01*
X0033517Y0002895D01*
X0033583Y0002962D01*
X0033450D01*
X0033355Y0002795D02*
X0033338Y0002762D01*
X0033238D01*
X0033221Y0002795D01*
Y0002928D01*
X0033238Y0002962D01*
X0033338D01*
X0033355Y0002928D01*
X0024212Y0008523D02*
Y0008589D01*
Y0008556D02*
X0024412D01*
X0024378Y0008589D01*
X0024278Y0008718D02*
Y0008851D01*
X0024412Y0008785D01*
Y0008751D01*
X0024212D01*
Y0008947D02*
Y0009013D01*
Y0008980D02*
X0024412D01*
X0024378Y0009013D01*
X0024245Y0009142D02*
X0024212Y0009159D01*
Y0009259D01*
X0024245Y0009275D01*
X0024378D01*
X0024412Y0009259D01*
Y0009159D01*
X0024378Y0009142D01*
X0029088Y0006232D02*
X0029055Y0006199D01*
X0029022Y0006182D01*
X0028955D01*
X0028922Y0006199D01*
X0028888Y0006232D01*
Y0006265D01*
X0028922Y0006299D01*
X0028955Y0006315D01*
X0029022D01*
X0029055Y0006299D01*
X0029088Y0006265D01*
Y0006232D01*
X0028988Y0005970D02*
Y0006070D01*
X0029022Y0006087D01*
X0029055D01*
X0029088Y0006070D01*
Y0005970D01*
X0029055Y0005953D01*
X0029022D01*
X0028888Y0006020D01*
X0029055Y0005858D02*
X0029088Y0005841D01*
Y0005741D01*
X0029055Y0005725D01*
X0028922D01*
X0028888Y0005741D01*
Y0005841D01*
X0028922Y0005858D01*
X0022688Y0014821D02*
X0022655Y0014788D01*
X0022622Y0014771D01*
X0022555D01*
X0022522Y0014788D01*
X0022488Y0014821D01*
Y0014854D01*
X0022522Y0014888D01*
X0022555Y0014904D01*
X0022622D01*
X0022655Y0014888D01*
X0022688Y0014854D01*
Y0014821D01*
Y0014676D02*
Y0014542D01*
X0022555Y0014676D01*
X0022522D01*
X0022488Y0014659D01*
Y0014559D01*
X0022522Y0014542D01*
X0022688Y0014447D02*
Y0014380D01*
Y0014414D02*
X0022488D01*
X0022522Y0014380D01*
X0022655Y0014252D02*
X0022688Y0014235D01*
Y0014135D01*
X0022655Y0014118D01*
X0022522D01*
X0022488Y0014135D01*
Y0014235D01*
X0022522Y0014252D01*
X0025072Y0014904D02*
Y0014771D01*
X0024938Y0014838D01*
Y0014871D01*
X0025138D01*
Y0014676D02*
Y0014542D01*
X0025005Y0014676D01*
X0024972D01*
X0024938Y0014659D01*
Y0014559D01*
X0024972Y0014542D01*
X0025138Y0014447D02*
Y0014380D01*
Y0014414D02*
X0024938D01*
X0024972Y0014380D01*
X0025105Y0014252D02*
X0025138Y0014235D01*
Y0014135D01*
X0025105Y0014118D01*
X0024972D01*
X0024938Y0014135D01*
Y0014235D01*
X0024972Y0014252D01*
X0023312Y0000258D02*
Y0000358D01*
X0023345Y0000374D01*
X0023378D01*
X0023412Y0000358D01*
Y0000258D01*
X0023378Y0000241D01*
X0023345D01*
X0023212Y0000308D01*
Y0000470D02*
Y0000603D01*
X0023345Y0000470D01*
X0023378D01*
X0023412Y0000486D01*
Y0000586D01*
X0023378Y0000603D01*
X0023245Y0000698D02*
X0023212Y0000715D01*
Y0000815D01*
X0023245Y0000832D01*
X0023378D01*
X0023412Y0000815D01*
Y0000715D01*
X0023378Y0000698D01*
X0012212Y0000241D02*
Y0000374D01*
X0012345Y0000241D01*
X0012378D01*
X0012412Y0000258D01*
Y0000358D01*
X0012378Y0000374D01*
X0012245Y0000603D02*
X0012212Y0000570D01*
Y0000503D01*
X0012245Y0000470D01*
X0012278D01*
X0012345Y0000536D01*
X0012412Y0000470D01*
Y0000603D01*
X0012245Y0000698D02*
X0012212Y0000715D01*
Y0000815D01*
X0012245Y0000832D01*
X0012378D01*
X0012412Y0000815D01*
Y0000715D01*
X0012378Y0000698D01*
X0043516Y0005861D02*
X0043383D01*
X0043449Y0005995D01*
X0043483D01*
Y0005795D01*
X0043287D02*
X0043221D01*
X0043254D02*
Y0005995D01*
X0043221Y0005961D01*
X0043092Y0005828D02*
X0043075Y0005795D01*
X0042975D01*
X0042959Y0005828D01*
Y0005961D01*
X0042975Y0005995D01*
X0043075D01*
X0043092Y0005961D01*
X0010688Y0006549D02*
X0010655Y0006565D01*
X0010622D01*
X0010588Y0006549D01*
Y0006449D01*
X0010622Y0006432D01*
X0010655D01*
X0010688Y0006449D01*
Y0006549D01*
X0010722Y0006565D01*
X0010755D01*
X0010788Y0006549D01*
Y0006449D01*
X0010755Y0006432D01*
X0010722D01*
X0010688Y0006449D01*
Y0006220D02*
Y0006320D01*
X0010722Y0006337D01*
X0010755D01*
X0010788Y0006320D01*
Y0006220D01*
X0010755Y0006203D01*
X0010722D01*
X0010588Y0006270D01*
X0010755Y0006108D02*
X0010788Y0006091D01*
Y0005991D01*
X0010755Y0005975D01*
X0010622D01*
X0010588Y0005991D01*
Y0006091D01*
X0010622Y0006108D01*
X0009762Y0000341D02*
X0009962Y0000241D01*
Y0000374D01*
X0009795Y0000603D02*
X0009762Y0000570D01*
Y0000503D01*
X0009795Y0000470D01*
X0009828D01*
X0009895Y0000536D01*
X0009962Y0000470D01*
Y0000603D01*
X0009795Y0000698D02*
X0009762Y0000715D01*
Y0000815D01*
X0009795Y0000832D01*
X0009928D01*
X0009962Y0000815D01*
Y0000715D01*
X0009928Y0000698D01*
X0051567Y0001395D02*
X0051533Y0001378D01*
Y0001278D01*
X0051567Y0001261D01*
X0051633D01*
X0051667Y0001295D01*
Y0001395D01*
X0051733D01*
Y0001261D01*
X0051533Y0001490D02*
Y0001557D01*
Y0001523D02*
X0051733D01*
X0051700Y0001557D01*
X0051733Y0001685D02*
X0051567D01*
X0051533Y0001702D01*
Y0001802D01*
X0051567Y0001819D01*
X0051733D01*
X0016855Y0014626D02*
X0016888Y0014659D01*
Y0014726D01*
X0016855Y0014759D01*
X0016822D01*
X0016755Y0014692D01*
X0016688Y0014759D01*
Y0014626D01*
X0016888Y0014430D02*
X0016688Y0014530D01*
Y0014397D01*
X0016855Y0014302D02*
X0016888Y0014285D01*
Y0014185D01*
X0016855Y0014168D01*
X0016722D01*
X0016688Y0014185D01*
Y0014285D01*
X0016722Y0014302D01*
X0031945Y0008629D02*
X0031912Y0008612D01*
Y0008512D01*
X0031945Y0008496D01*
X0032012D01*
X0032045Y0008529D01*
Y0008629D01*
X0032112D01*
Y0008496D01*
X0031978Y0008724D02*
Y0008858D01*
X0032112Y0008791D01*
Y0008758D01*
X0031912D01*
Y0008953D02*
Y0009020D01*
Y0008986D02*
X0032112D01*
X0032078Y0009020D01*
X0031945Y0009148D02*
X0031912Y0009165D01*
Y0009265D01*
X0031945Y0009282D01*
X0032078D01*
X0032112Y0009265D01*
Y0009165D01*
X0032078Y0009148D01*
X0019782Y0012195D02*
X0019815Y0012162D01*
X0019882D01*
X0019915Y0012195D01*
Y0012228D01*
X0019849Y0012295D01*
X0019915Y0012362D01*
X0019782D01*
X0019670Y0012262D02*
X0019570D01*
X0019553Y0012295D01*
Y0012328D01*
X0019570Y0012362D01*
X0019670D01*
X0019687Y0012328D01*
Y0012295D01*
X0019620Y0012162D01*
X0019458Y0012195D02*
X0019441Y0012162D01*
X0019341D01*
X0019325Y0012195D01*
Y0012328D01*
X0019341Y0012362D01*
X0019441D01*
X0019458Y0012328D01*
X0024788Y0014871D02*
Y0014804D01*
Y0014838D02*
X0024588D01*
X0024622Y0014804D01*
X0024788Y0014676D02*
Y0014542D01*
X0024655Y0014676D01*
X0024622D01*
X0024588Y0014659D01*
Y0014559D01*
X0024622Y0014542D01*
X0024788Y0014447D02*
Y0014380D01*
Y0014414D02*
X0024588D01*
X0024622Y0014380D01*
X0024755Y0014252D02*
X0024788Y0014235D01*
Y0014135D01*
X0024755Y0014118D01*
X0024622D01*
X0024588Y0014135D01*
Y0014235D01*
X0024622Y0014252D01*
X0015449Y0004755D02*
X0015316D01*
X0015449Y0004888D01*
Y0004922D01*
X0015433Y0004955D01*
X0015333D01*
X0015316Y0004922D01*
X0015087Y0004788D02*
X0015104Y0004755D01*
X0015204D01*
X0015221Y0004788D01*
Y0004855D01*
X0015187Y0004888D01*
X0015087D01*
Y0004955D01*
X0015221D01*
X0014992Y0004788D02*
X0014975Y0004755D01*
X0014875D01*
X0014859Y0004788D01*
Y0004922D01*
X0014875Y0004955D01*
X0014975D01*
X0014992Y0004922D01*
X0001389Y0011955D02*
X0001406Y0011988D01*
Y0012022D01*
X0001389Y0012055D01*
X0001289D01*
X0001272Y0012022D01*
Y0011988D01*
X0001289Y0011955D01*
X0001389D01*
X0001406Y0011922D01*
Y0011888D01*
X0001389Y0011855D01*
X0001289D01*
X0001272Y0011888D01*
Y0011922D01*
X0001289Y0011955D01*
X0001160D02*
X0001177Y0011988D01*
Y0012022D01*
X0001160Y0012055D01*
X0001060D01*
X0001044Y0012022D01*
Y0011988D01*
X0001060Y0011955D01*
X0001160D01*
X0001177Y0011922D01*
Y0011888D01*
X0001160Y0011855D01*
X0001060D01*
X0001044Y0011888D01*
Y0011922D01*
X0001060Y0011955D01*
X0000948Y0011888D02*
X0000932Y0011855D01*
X0000832D01*
X0000815Y0011888D01*
Y0012022D01*
X0000832Y0012055D01*
X0000932D01*
X0000948Y0012022D01*
X0001322Y0010688D02*
X0001339Y0010655D01*
X0001439D01*
X0001456Y0010688D01*
Y0010755D01*
X0001422Y0010788D01*
X0001322D01*
Y0010855D01*
X0001456D01*
X0001210Y0010755D02*
X0001110D01*
X0001094Y0010788D01*
Y0010822D01*
X0001110Y0010855D01*
X0001210D01*
X0001227Y0010822D01*
Y0010788D01*
X0001160Y0010655D01*
X0000998Y0010688D02*
X0000982Y0010655D01*
X0000882D01*
X0000865Y0010688D01*
Y0010822D01*
X0000882Y0010855D01*
X0000982D01*
X0000998Y0010822D01*
X0007951Y0010172D02*
X0007818D01*
X0007884Y0010305D01*
X0007918D01*
Y0010105D01*
X0007639D02*
X0007606Y0010138D01*
X0007589Y0010172D01*
Y0010238D01*
X0007606Y0010272D01*
X0007639Y0010305D01*
X0007672D01*
X0007706Y0010272D01*
X0007722Y0010238D01*
Y0010172D01*
X0007706Y0010138D01*
X0007672Y0010105D01*
X0007639D01*
X0007494D02*
X0007427D01*
X0007460D02*
Y0010305D01*
X0007427Y0010272D01*
X0007298Y0010138D02*
X0007282Y0010105D01*
X0007182D01*
X0007165Y0010138D01*
Y0010272D01*
X0007182Y0010305D01*
X0007282D01*
X0007298Y0010272D01*
X0045022Y0000169D02*
X0044889D01*
X0045022Y0000303D01*
Y0000336D01*
X0045006Y0000369D01*
X0044906D01*
X0044889Y0000336D01*
X0044794Y0000169D02*
Y0000369D01*
X0044760Y0000336D01*
X0044727Y0000269D01*
X0044694Y0000336D01*
X0044660Y0000369D01*
Y0000169D01*
X0044432Y0000269D02*
X0044532D01*
X0044565Y0000303D01*
Y0000336D01*
X0044532Y0000369D01*
X0044432D01*
Y0000169D01*
X0044270D02*
Y0000369D01*
X0044336D02*
X0044203D01*
X0006995Y0002612D02*
X0007095D01*
X0007112Y0002578D01*
Y0002545D01*
X0007095Y0002512D01*
X0006995D01*
X0006979Y0002545D01*
Y0002578D01*
X0007045Y0002712D01*
X0006867Y0002612D02*
X0006883Y0002645D01*
Y0002678D01*
X0006867Y0002712D01*
X0006767D01*
X0006750Y0002678D01*
Y0002645D01*
X0006767Y0002612D01*
X0006867D01*
X0006883Y0002578D01*
Y0002545D01*
X0006867Y0002512D01*
X0006767D01*
X0006750Y0002545D01*
Y0002578D01*
X0006767Y0002612D01*
X0006655Y0002545D02*
X0006638Y0002512D01*
X0006538D01*
X0006521Y0002545D01*
Y0002678D01*
X0006538Y0002712D01*
X0006638D01*
X0006655Y0002678D01*
X0010195Y0000374D02*
X0010162Y0000341D01*
Y0000274D01*
X0010195Y0000241D01*
X0010228D01*
X0010295Y0000308D01*
X0010362Y0000241D01*
Y0000374D01*
X0010195Y0000603D02*
X0010162Y0000570D01*
Y0000503D01*
X0010195Y0000470D01*
X0010228D01*
X0010295Y0000536D01*
X0010362Y0000470D01*
Y0000603D01*
X0010195Y0000698D02*
X0010162Y0000715D01*
Y0000815D01*
X0010195Y0000832D01*
X0010328D01*
X0010362Y0000815D01*
Y0000715D01*
X0010328Y0000698D01*
X0031112Y0000191D02*
Y0000324D01*
X0031245Y0000191D01*
X0031278D01*
X0031312Y0000208D01*
Y0000308D01*
X0031278Y0000324D01*
X0031112Y0000420D02*
Y0000553D01*
X0031245Y0000420D01*
X0031278D01*
X0031312Y0000436D01*
Y0000536D01*
X0031278Y0000553D01*
X0031145Y0000648D02*
X0031112Y0000665D01*
Y0000765D01*
X0031145Y0000782D01*
X0031278D01*
X0031312Y0000765D01*
Y0000665D01*
X0031278Y0000648D01*
X0008112Y0004178D02*
X0007979D01*
X0008045Y0004312D01*
X0008079D01*
Y0004112D01*
X0007867Y0004212D02*
X0007767D01*
X0007750Y0004245D01*
Y0004278D01*
X0007767Y0004312D01*
X0007867D01*
X0007883Y0004278D01*
Y0004245D01*
X0007817Y0004112D01*
X0007655Y0004145D02*
X0007638Y0004112D01*
X0007538D01*
X0007521Y0004145D01*
Y0004278D01*
X0007538Y0004312D01*
X0007638D01*
X0007655Y0004278D01*
X0046983Y0013337D02*
X0046850D01*
X0046983Y0013471D01*
Y0013504D01*
X0046966Y0013537D01*
X0046866D01*
X0046850Y0013504D01*
X0046638Y0013337D02*
Y0013537D01*
X0046621Y0013337D02*
X0046721D01*
X0046754Y0013371D01*
Y0013404D01*
X0046738Y0013437D01*
X0046638D02*
X0046738D01*
X0046754Y0013471D01*
Y0013504D01*
X0046721Y0013537D01*
X0046621D01*
X0046492Y0013437D02*
X0046392D01*
Y0013337D02*
Y0013537D01*
X0046526D01*
X0046950Y0014237D02*
X0046883D01*
X0046916D02*
Y0014437D01*
X0046883Y0014404D01*
X0046638Y0014237D02*
Y0014437D01*
X0046621Y0014237D02*
X0046721D01*
X0046754Y0014271D01*
Y0014304D01*
X0046738Y0014337D01*
X0046638D02*
X0046738D01*
X0046754Y0014371D01*
Y0014404D01*
X0046721Y0014437D01*
X0046621D01*
X0046492Y0014337D02*
X0046392D01*
Y0014237D02*
Y0014437D01*
X0046526D01*
X0058028Y0012206D02*
X0058061Y0012223D01*
Y0012323D01*
X0058028Y0012340D01*
X0057961D01*
X0057928Y0012306D01*
Y0012206D01*
X0057861D01*
Y0012340D01*
X0057994Y0011994D02*
X0058028D01*
X0058061Y0012011D01*
Y0012078D01*
X0058028Y0012094D01*
X0057861D01*
Y0012111D02*
Y0012044D01*
X0045249Y0004863D02*
Y0004663D01*
X0045216Y0004696D01*
X0045149Y0004829D01*
X0045116Y0004863D01*
Y0004663D01*
X0044904D02*
X0044887Y0004696D01*
Y0004829D01*
X0044904Y0004863D01*
X0045004D01*
X0045020Y0004829D01*
Y0004696D01*
X0045004Y0004663D01*
X0044904D01*
X0037346Y0010820D02*
X0037212D01*
X0037346Y0010953D01*
Y0010986D01*
X0037329Y0011020D01*
X0037229D01*
X0037212Y0010986D01*
X0037050Y0010886D02*
X0037117Y0010820D01*
X0036984Y0010853D02*
X0037000Y0010820D01*
X0037067D01*
X0037084Y0010853D01*
X0037117Y0010886D01*
Y0010986D01*
X0037100Y0011020D01*
X0037000D01*
X0036984Y0010986D01*
Y0010853D01*
X0040062Y0010720D02*
X0039996D01*
X0040029D02*
Y0010920D01*
X0039996Y0010886D01*
X0039800Y0010786D02*
X0039867Y0010720D01*
X0039734Y0010753D02*
X0039750Y0010720D01*
X0039817D01*
X0039834Y0010753D01*
X0039867Y0010786D01*
Y0010886D01*
X0039850Y0010920D01*
X0039750D01*
X0039734Y0010886D01*
Y0010753D01*
X0036724Y0010600D02*
X0036657D01*
X0036690D02*
Y0010800D01*
X0036657Y0010767D01*
X0036528Y0010600D02*
X0036412D01*
Y0010800D01*
X0009279Y0013057D02*
X0009179D01*
X0009162Y0013091D01*
Y0013124D01*
X0009179Y0013157D01*
X0009279D01*
X0009295Y0013124D01*
Y0013091D01*
X0009229Y0012957D01*
X0009067Y0013157D02*
Y0012991D01*
X0009050Y0012957D01*
X0008950D01*
X0008933Y0012991D01*
Y0013157D01*
X0032528Y0002042D02*
X0032562Y0002009D01*
X0032628D01*
X0032662Y0002042D01*
Y0002076D01*
X0032595Y0002142D01*
X0032662Y0002209D01*
X0032528D01*
X0032433D02*
Y0002042D01*
X0032416Y0002009D01*
X0032316D01*
X0032300Y0002042D01*
Y0002209D01*
X0026162Y0001926D02*
X0026028D01*
X0026095Y0002059D01*
X0026128D01*
Y0001859D01*
X0025933Y0002059D02*
Y0001892D01*
X0025916Y0001859D01*
X0025816D01*
X0025800Y0001892D01*
Y0002059D01*
X0019478Y0001792D02*
X0019495Y0001759D01*
X0019595D01*
X0019612Y0001792D01*
Y0001859D01*
X0019578Y0001892D01*
X0019478D01*
Y0001959D01*
X0019612D01*
X0019383D02*
Y0001792D01*
X0019366Y0001759D01*
X0019266D01*
X0019250Y0001792D01*
Y0001959D01*
X0013045Y0002059D02*
X0013145D01*
X0013162Y0002026D01*
Y0001992D01*
X0013145Y0001959D01*
X0013045D01*
X0013028Y0001992D01*
Y0002026D01*
X0013095Y0002159D01*
X0012933D02*
Y0001992D01*
X0012916Y0001959D01*
X0012816D01*
X0012800Y0001992D01*
Y0002159D01*
X0006562Y0001859D02*
X0006662Y0002059D01*
X0006528D01*
X0006433D02*
Y0001892D01*
X0006416Y0001859D01*
X0006316D01*
X0006300Y0001892D01*
Y0002059D01*
X0002779Y0012957D02*
X0002795Y0012991D01*
Y0013024D01*
X0002779Y0013057D01*
X0002679D01*
X0002662Y0013024D01*
Y0012991D01*
X0002679Y0012957D01*
X0002779D01*
X0002795Y0012924D01*
Y0012891D01*
X0002779Y0012857D01*
X0002679D01*
X0002662Y0012891D01*
Y0012924D01*
X0002679Y0012957D01*
X0002567Y0013057D02*
Y0012891D01*
X0002550Y0012857D01*
X0002450D01*
X0002433Y0012891D01*
Y0013057D01*
X0015657Y0012957D02*
X0015624Y0012991D01*
X0015607Y0013024D01*
Y0013091D01*
X0015624Y0013124D01*
X0015657Y0013157D01*
X0015691D01*
X0015724Y0013124D01*
X0015741Y0013091D01*
Y0013024D01*
X0015724Y0012991D01*
X0015691Y0012957D01*
X0015657D01*
X0015512D02*
X0015445D01*
X0015479D02*
Y0013157D01*
X0015445Y0013124D01*
X0015317Y0013157D02*
Y0012991D01*
X0015300Y0012957D01*
X0015200D01*
X0015183Y0012991D01*
Y0013157D01*
X0022307Y0013007D02*
X0022241D01*
X0022274D02*
Y0013207D01*
X0022241Y0013174D01*
X0022112Y0013007D02*
X0022045D01*
X0022079D02*
Y0013207D01*
X0022045Y0013174D01*
X0021917Y0013207D02*
Y0013041D01*
X0021900Y0013007D01*
X0021800D01*
X0021783Y0013041D01*
Y0013207D01*
X0028841Y0012907D02*
X0028707D01*
X0028841Y0013041D01*
Y0013074D01*
X0028824Y0013107D01*
X0028724D01*
X0028707Y0013074D01*
X0028612Y0012907D02*
X0028545D01*
X0028579D02*
Y0013107D01*
X0028545Y0013074D01*
X0028417Y0013107D02*
Y0012941D01*
X0028400Y0012907D01*
X0028300D01*
X0028283Y0012941D01*
Y0013107D01*
X0047971Y0008359D02*
X0048071Y0008559D01*
X0047938D01*
X0047843Y0008359D02*
X0047776D01*
X0047809D02*
Y0008559D01*
X0047776Y0008525D01*
X0047647Y0008392D02*
X0047631Y0008359D01*
X0047531D01*
X0047514Y0008392D01*
Y0008525D01*
X0047531Y0008559D01*
X0047631D01*
X0047647Y0008525D01*
X0041565Y0012917D02*
X0041581Y0012951D01*
Y0012984D01*
X0041565Y0013017D01*
X0041465D01*
X0041448Y0012984D01*
Y0012951D01*
X0041465Y0012917D01*
X0041565D01*
X0041581Y0012884D01*
Y0012851D01*
X0041565Y0012817D01*
X0041465D01*
X0041448Y0012851D01*
Y0012884D01*
X0041465Y0012917D01*
X0041353Y0012851D02*
X0041336Y0012817D01*
X0041236D01*
X0041219Y0012851D01*
Y0012984D01*
X0041236Y0013017D01*
X0041336D01*
X0041353Y0012984D01*
X0040856Y0004819D02*
X0040873Y0004786D01*
X0040973D01*
X0040990Y0004819D01*
Y0004886D01*
X0040956Y0004919D01*
X0040856D01*
Y0004986D01*
X0040990D01*
X0040761Y0004786D02*
X0040694D01*
X0040728D02*
Y0004986D01*
X0040694Y0004953D01*
X0040566Y0004819D02*
X0040549Y0004786D01*
X0040449D01*
X0040432Y0004819D01*
Y0004953D01*
X0040449Y0004986D01*
X0040549D01*
X0040566Y0004953D01*
X0046028Y0008636D02*
X0046044Y0008669D01*
Y0008703D01*
X0046028Y0008736D01*
X0045928D01*
X0045911Y0008703D01*
Y0008669D01*
X0045928Y0008636D01*
X0046028D01*
X0046044Y0008603D01*
Y0008569D01*
X0046028Y0008536D01*
X0045928D01*
X0045911Y0008569D01*
Y0008603D01*
X0045928Y0008636D01*
X0045816Y0008536D02*
X0045749D01*
X0045782D02*
Y0008736D01*
X0045749Y0008703D01*
X0045620Y0008569D02*
X0045604Y0008536D01*
X0045504D01*
X0045487Y0008569D01*
Y0008703D01*
X0045504Y0008736D01*
X0045604D01*
X0045620Y0008703D01*
X0045089Y0012858D02*
X0045189D01*
X0045205Y0012825D01*
Y0012791D01*
X0045189Y0012758D01*
X0045089D01*
X0045072Y0012791D01*
Y0012825D01*
X0045139Y0012958D01*
X0044977Y0012825D02*
X0044843D01*
X0044910Y0012958D01*
X0044943D01*
Y0012758D01*
X0044748D02*
X0044681D01*
X0044715D02*
Y0012958D01*
X0044681Y0012925D01*
X0044553Y0012791D02*
X0044536Y0012758D01*
X0044436D01*
X0044419Y0012791D01*
Y0012925D01*
X0044436Y0012958D01*
X0044536D01*
X0044553Y0012925D01*
X0045381Y0004081D02*
X0045314D01*
X0045348D02*
Y0004281D01*
X0045314Y0004247D01*
X0045186Y0004081D02*
X0045052D01*
X0045186Y0004214D01*
Y0004247D01*
X0045169Y0004281D01*
X0045069D01*
X0045052Y0004247D01*
X0044957Y0004114D02*
X0044940Y0004081D01*
X0044840D01*
X0044824Y0004114D01*
Y0004247D01*
X0044840Y0004281D01*
X0044940D01*
X0044957Y0004247D01*
X0049181Y0010884D02*
X0049048D01*
X0049115Y0011017D01*
X0049148D01*
Y0010817D01*
X0048953Y0010851D02*
X0048936Y0010817D01*
X0048836D01*
X0048819Y0010851D01*
Y0010984D01*
X0048836Y0011017D01*
X0048936D01*
X0048953Y0010984D01*
X0045331Y0003231D02*
X0045298Y0003264D01*
X0045281Y0003297D01*
Y0003364D01*
X0045298Y0003397D01*
X0045331Y0003431D01*
X0045364D01*
X0045398Y0003397D01*
X0045414Y0003364D01*
Y0003297D01*
X0045398Y0003264D01*
X0045364Y0003231D01*
X0045331D01*
X0045186D02*
X0045052D01*
X0045186Y0003364D01*
Y0003397D01*
X0045169Y0003431D01*
X0045069D01*
X0045052Y0003397D01*
X0044957Y0003264D02*
X0044940Y0003231D01*
X0044840D01*
X0044824Y0003264D01*
Y0003397D01*
X0044840Y0003431D01*
X0044940D01*
X0044957Y0003397D01*
X0048222Y0004728D02*
X0048156D01*
X0048189D02*
Y0004928D01*
X0048156Y0004894D01*
X0048027Y0004728D02*
X0047960D01*
X0047994D02*
Y0004928D01*
X0047960Y0004894D01*
X0047782Y0004828D02*
X0047832Y0004728D01*
X0047698Y0004828D02*
X0047798D01*
X0047832Y0004861D01*
Y0004894D01*
X0047798Y0004928D01*
X0047698D01*
Y0004728D01*
X0048630Y0008321D02*
X0048563D01*
X0048596D02*
Y0008521D01*
X0048563Y0008488D01*
X0048384Y0008421D02*
X0048434Y0008321D01*
X0048301Y0008421D02*
X0048401D01*
X0048434Y0008455D01*
Y0008488D01*
X0048401Y0008521D01*
X0048301D01*
Y0008321D01*
X0044584Y0006957D02*
Y0006824D01*
X0044451Y0006891D01*
Y0006924D01*
X0044651D01*
X0044551Y0006679D02*
X0044651Y0006729D01*
X0044551Y0006595D02*
Y0006695D01*
X0044518Y0006729D01*
X0044484D01*
X0044451Y0006695D01*
Y0006595D01*
X0044651D01*
X0047318Y0006581D02*
X0047351Y0006598D01*
Y0006698D01*
X0047318Y0006714D01*
X0047251D01*
X0047218Y0006681D01*
Y0006581D01*
X0047151D01*
Y0006714D01*
X0047251Y0006436D02*
X0047351Y0006486D01*
X0047251Y0006352D02*
Y0006452D01*
X0047218Y0006486D01*
X0047185D01*
X0047151Y0006452D01*
Y0006352D01*
X0047351D01*
X0046449Y0004780D02*
Y0004680D01*
X0046415Y0004663D01*
X0046382D01*
X0046349Y0004680D01*
Y0004780D01*
X0046382Y0004796D01*
X0046415D01*
X0046549Y0004730D01*
X0046449Y0004942D02*
X0046349Y0004892D01*
X0046449Y0005025D02*
Y0004925D01*
X0046482Y0004892D01*
X0046515D01*
X0046549Y0004925D01*
Y0005025D01*
X0046349D01*
X0049194Y0008345D02*
X0049294Y0008545D01*
X0049161D01*
X0049015Y0008445D02*
X0049065Y0008345D01*
X0048932Y0008445D02*
X0049032D01*
X0049065Y0008478D01*
Y0008512D01*
X0049032Y0008545D01*
X0048932D01*
Y0008345D01*
X0047374Y0005868D02*
X0047274D01*
X0047257Y0005901D01*
Y0005934D01*
X0047274Y0005968D01*
X0047374D01*
X0047390Y0005934D01*
Y0005901D01*
X0047324Y0005768D01*
X0047112Y0005868D02*
X0047162Y0005768D01*
X0047028Y0005868D02*
X0047128D01*
X0047162Y0005901D01*
Y0005934D01*
X0047128Y0005968D01*
X0047028D01*
Y0005768D01*
X0046779Y0005699D02*
X0046745Y0005732D01*
X0046729Y0005765D01*
Y0005832D01*
X0046745Y0005865D01*
X0046779Y0005899D01*
X0046812D01*
X0046845Y0005865D01*
X0046862Y0005832D01*
Y0005765D01*
X0046845Y0005732D01*
X0046812Y0005699D01*
X0046779D01*
X0046633D02*
X0046567D01*
X0046600D02*
Y0005899D01*
X0046567Y0005865D01*
X0046388Y0005799D02*
X0046438Y0005699D01*
X0046305Y0005799D02*
X0046405D01*
X0046438Y0005832D01*
Y0005865D01*
X0046405Y0005899D01*
X0046305D01*
Y0005699D01*
X0045132Y0007101D02*
X0045099Y0007068D01*
X0045065Y0007051D01*
X0044999D01*
X0044965Y0007068D01*
X0044932Y0007101D01*
Y0007135D01*
X0044965Y0007168D01*
X0044999Y0007185D01*
X0045065D01*
X0045099Y0007168D01*
X0045132Y0007135D01*
Y0007101D01*
Y0006956D02*
Y0006889D01*
Y0006923D02*
X0044932D01*
X0044965Y0006889D01*
X0045099Y0006761D02*
X0045132Y0006744D01*
Y0006644D01*
X0045099Y0006627D01*
X0044965D01*
X0044932Y0006644D01*
Y0006744D01*
X0044965Y0006761D01*
X0020840Y0008918D02*
X0020707D01*
X0020840Y0009051D01*
Y0009084D01*
X0020824Y0009118D01*
X0020724D01*
X0020707Y0009084D01*
X0020612Y0008951D02*
X0020595Y0008918D01*
X0020495D01*
X0020478Y0008951D01*
Y0009084D01*
X0020495Y0009118D01*
X0020595D01*
X0020612Y0009084D01*
X0019356Y0008951D02*
X0019389Y0008918D01*
X0019456D01*
X0019489Y0008951D01*
Y0008984D01*
X0019423Y0009051D01*
X0019489Y0009118D01*
X0019356D01*
X0019261Y0008951D02*
X0019244Y0008918D01*
X0019144D01*
X0019127Y0008951D01*
Y0009084D01*
X0019144Y0009118D01*
X0019244D01*
X0019261Y0009084D01*
X0049413Y0006778D02*
X0049313D01*
X0049296Y0006811D01*
Y0006844D01*
X0049313Y0006878D01*
X0049413D01*
X0049429Y0006844D01*
Y0006811D01*
X0049363Y0006678D01*
X0049201Y0006711D02*
X0049184Y0006678D01*
X0049084D01*
X0049067Y0006711D01*
Y0006844D01*
X0049084Y0006878D01*
X0049184D01*
X0049201Y0006844D01*
X0049508Y0006278D02*
X0049608D01*
X0049625Y0006244D01*
Y0006211D01*
X0049608Y0006178D01*
X0049508D01*
X0049491Y0006211D01*
Y0006244D01*
X0049558Y0006378D01*
X0049396Y0006178D02*
X0049329D01*
X0049363D02*
Y0006378D01*
X0049329Y0006344D01*
X0049201Y0006211D02*
X0049184Y0006178D01*
X0049084D01*
X0049067Y0006211D01*
Y0006344D01*
X0049084Y0006378D01*
X0049184D01*
X0049201Y0006344D01*
X0049603Y0005655D02*
X0049503D01*
X0049486Y0005688D01*
Y0005722D01*
X0049503Y0005755D01*
X0049603D01*
X0049619Y0005722D01*
Y0005688D01*
X0049553Y0005555D01*
X0049391D02*
X0049324D01*
X0049357D02*
Y0005755D01*
X0049324Y0005722D01*
X0049195Y0005588D02*
X0049179Y0005555D01*
X0049079D01*
X0049062Y0005588D01*
Y0005722D01*
X0049079Y0005755D01*
X0049179D01*
X0049195Y0005722D01*
X0047167Y0002014D02*
X0047133Y0001981D01*
Y0001914D01*
X0047167Y0001881D01*
X0047200D01*
X0047267Y0001947D01*
X0047333Y0001881D01*
Y0002014D01*
X0047133Y0002109D02*
Y0002176D01*
Y0002143D02*
X0047333D01*
X0047300Y0002176D01*
X0047333Y0002305D02*
X0047167D01*
X0047133Y0002321D01*
Y0002421D01*
X0047167Y0002438D01*
X0047333D01*
X0045320Y0007485D02*
X0045253D01*
X0045286D02*
Y0007685D01*
X0045253Y0007652D01*
X0045124Y0007685D02*
Y0007518D01*
X0045108Y0007485D01*
X0045008D01*
X0044991Y0007518D01*
Y0007685D01*
X0044409Y0009584D02*
X0044442Y0009550D01*
X0044509D01*
X0044542Y0009584D01*
Y0009617D01*
X0044476Y0009684D01*
X0044542Y0009750D01*
X0044409D01*
X0044247Y0009617D02*
X0044314Y0009550D01*
X0044180Y0009584D02*
X0044197Y0009550D01*
X0044264D01*
X0044280Y0009584D01*
X0044314Y0009617D01*
Y0009717D01*
X0044297Y0009750D01*
X0044197D01*
X0044180Y0009717D01*
Y0009584D01*
X0044542Y0007417D02*
X0044409D01*
X0044476Y0007550D01*
X0044509D01*
Y0007350D01*
X0044247Y0007417D02*
X0044314Y0007350D01*
X0044180Y0007384D02*
X0044197Y0007350D01*
X0044264D01*
X0044280Y0007384D01*
X0044314Y0007417D01*
Y0007517D01*
X0044297Y0007550D01*
X0044197D01*
X0044180Y0007517D01*
Y0007384D01*
X0033887Y0003605D02*
X0033821D01*
X0033854D02*
Y0003805D01*
X0033821Y0003772D01*
X0033692Y0003605D02*
Y0003805D01*
X0033659Y0003772D01*
X0033625Y0003705D01*
X0033592Y0003772D01*
X0033559Y0003805D01*
Y0003605D01*
X0026577Y0003355D02*
X0026444D01*
X0026577Y0003488D01*
Y0003522D01*
X0026560Y0003555D01*
X0026460D01*
X0026444Y0003522D01*
X0026348Y0003355D02*
Y0003555D01*
X0026315Y0003522D01*
X0026282Y0003455D01*
X0026248Y0003522D01*
X0026215Y0003555D01*
Y0003355D01*
X0019894Y0003388D02*
X0019927Y0003355D01*
X0019994D01*
X0020027Y0003388D01*
Y0003422D01*
X0019960Y0003488D01*
X0020027Y0003555D01*
X0019894D01*
X0019798Y0003355D02*
Y0003555D01*
X0019765Y0003522D01*
X0019732Y0003455D01*
X0019698Y0003522D01*
X0019665Y0003555D01*
Y0003355D01*
X0013421Y0003422D02*
X0013287D01*
X0013354Y0003555D01*
X0013387D01*
Y0003355D01*
X0013192D02*
Y0003555D01*
X0013159Y0003522D01*
X0013125Y0003455D01*
X0013092Y0003522D01*
X0013059Y0003555D01*
Y0003355D01*
X0006887Y0003388D02*
X0006904Y0003355D01*
X0007004D01*
X0007021Y0003388D01*
Y0003455D01*
X0006987Y0003488D01*
X0006887D01*
Y0003555D01*
X0007021D01*
X0006792Y0003355D02*
Y0003555D01*
X0006759Y0003522D01*
X0006725Y0003455D01*
X0006692Y0003522D01*
X0006659Y0003555D01*
Y0003355D01*
X0001264Y0011162D02*
X0001364D01*
X0001380Y0011128D01*
Y0011095D01*
X0001364Y0011062D01*
X0001264D01*
X0001247Y0011095D01*
Y0011128D01*
X0001314Y0011262D01*
X0001152Y0011062D02*
Y0011262D01*
X0001118Y0011228D01*
X0001085Y0011162D01*
X0001052Y0011228D01*
X0001018Y0011262D01*
Y0011062D01*
X0007837D02*
X0007937Y0011262D01*
X0007803D01*
X0007708Y0011062D02*
Y0011262D01*
X0007675Y0011228D01*
X0007641Y0011162D01*
X0007608Y0011228D01*
X0007575Y0011262D01*
Y0011062D01*
X0014420Y0011162D02*
X0014437Y0011195D01*
Y0011228D01*
X0014420Y0011262D01*
X0014320D01*
X0014303Y0011228D01*
Y0011195D01*
X0014320Y0011162D01*
X0014420D01*
X0014437Y0011128D01*
Y0011095D01*
X0014420Y0011062D01*
X0014320D01*
X0014303Y0011095D01*
Y0011128D01*
X0014320Y0011162D01*
X0014208Y0011062D02*
Y0011262D01*
X0014175Y0011228D01*
X0014141Y0011162D01*
X0014108Y0011228D01*
X0014075Y0011262D01*
Y0011062D01*
X0053234Y0002835D02*
X0053134D01*
X0053117Y0002868D01*
Y0002902D01*
X0053134Y0002935D01*
X0053234D01*
X0053250Y0002902D01*
Y0002868D01*
X0053184Y0002735D01*
X0053022D02*
Y0002935D01*
X0052988Y0002902D01*
X0052955Y0002835D01*
X0052922Y0002902D01*
X0052888Y0002935D01*
Y0002735D01*
X0020849Y0011062D02*
X0020815Y0011095D01*
X0020799Y0011128D01*
Y0011195D01*
X0020815Y0011228D01*
X0020849Y0011262D01*
X0020882D01*
X0020915Y0011228D01*
X0020932Y0011195D01*
Y0011128D01*
X0020915Y0011095D01*
X0020882Y0011062D01*
X0020849D01*
X0020703D02*
X0020637D01*
X0020670D02*
Y0011262D01*
X0020637Y0011228D01*
X0020508Y0011062D02*
Y0011262D01*
X0020475Y0011228D01*
X0020441Y0011162D01*
X0020408Y0011228D01*
X0020375Y0011262D01*
Y0011062D01*
X0027449D02*
X0027382D01*
X0027415D02*
Y0011262D01*
X0027382Y0011228D01*
X0027253Y0011062D02*
X0027187D01*
X0027220D02*
Y0011262D01*
X0027187Y0011228D01*
X0027058Y0011062D02*
Y0011262D01*
X0027025Y0011228D01*
X0026991Y0011162D01*
X0026958Y0011228D01*
X0026925Y0011262D01*
Y0011062D01*
X0047621Y0004335D02*
X0047487D01*
X0047621Y0004468D01*
Y0004502D01*
X0047604Y0004535D01*
X0047504D01*
X0047487Y0004502D01*
X0047342Y0004435D02*
X0047392Y0004335D01*
X0047259Y0004435D02*
X0047359D01*
X0047392Y0004468D01*
Y0004502D01*
X0047359Y0004535D01*
X0047259D01*
Y0004335D01*
X0045624Y0005545D02*
X0045657Y0005512D01*
X0045724D01*
X0045757Y0005545D01*
Y0005578D01*
X0045690Y0005645D01*
X0045757Y0005712D01*
X0045624D01*
X0045478Y0005612D02*
X0045528Y0005512D01*
X0045395Y0005612D02*
X0045495D01*
X0045528Y0005645D01*
Y0005678D01*
X0045495Y0005712D01*
X0045395D01*
Y0005512D01*
X0047284Y0008738D02*
X0047300Y0008771D01*
Y0008805D01*
X0047284Y0008838D01*
X0047184D01*
X0047167Y0008805D01*
Y0008771D01*
X0047184Y0008738D01*
X0047284D01*
X0047300Y0008705D01*
Y0008671D01*
X0047284Y0008638D01*
X0047184D01*
X0047167Y0008671D01*
Y0008705D01*
X0047184Y0008738D01*
X0047022D02*
X0047072Y0008638D01*
X0046938Y0008738D02*
X0047038D01*
X0047072Y0008771D01*
Y0008805D01*
X0047038Y0008838D01*
X0046938D01*
Y0008638D01*
X0030705Y0000178D02*
Y0000311D01*
X0030838Y0000178D01*
X0030872D01*
X0030905Y0000194D01*
Y0000294D01*
X0030872Y0000311D01*
X0030705Y0000406D02*
Y0000473D01*
Y0000440D02*
X0030905D01*
X0030872Y0000473D01*
X0030805Y0000652D02*
X0030705Y0000602D01*
X0030805Y0000735D02*
Y0000635D01*
X0030838Y0000602D01*
X0030872D01*
X0030905Y0000635D01*
Y0000735D01*
X0030705D01*
X0024188Y0000361D02*
X0024155Y0000328D01*
Y0000261D01*
X0024188Y0000228D01*
X0024222D01*
X0024288Y0000294D01*
X0024355Y0000228D01*
Y0000361D01*
X0024155Y0000456D02*
Y0000523D01*
Y0000490D02*
X0024355D01*
X0024322Y0000523D01*
X0024255Y0000702D02*
X0024155Y0000652D01*
X0024255Y0000785D02*
Y0000685D01*
X0024288Y0000652D01*
X0024322D01*
X0024355Y0000685D01*
Y0000785D01*
X0024155D01*
X0017672Y0000234D02*
Y0000367D01*
X0017805Y0000301D01*
Y0000267D01*
X0017605D01*
Y0000463D02*
Y0000529D01*
Y0000496D02*
X0017805D01*
X0017772Y0000529D01*
X0017705Y0000708D02*
X0017605Y0000658D01*
X0017705Y0000791D02*
Y0000691D01*
X0017738Y0000658D01*
X0017772D01*
X0017805Y0000691D01*
Y0000791D01*
X0017605D01*
X0011138Y0000367D02*
X0011105Y0000351D01*
Y0000251D01*
X0011138Y0000234D01*
X0011205D01*
X0011238Y0000267D01*
Y0000367D01*
X0011305D01*
Y0000234D01*
X0011105Y0000463D02*
Y0000529D01*
Y0000496D02*
X0011305D01*
X0011272Y0000529D01*
X0011205Y0000708D02*
X0011105Y0000658D01*
X0011205Y0000791D02*
Y0000691D01*
X0011238Y0000658D01*
X0011272D01*
X0011305Y0000691D01*
Y0000791D01*
X0011105D01*
X0004755Y0000344D02*
Y0000244D01*
X0004722Y0000228D01*
X0004688D01*
X0004655Y0000244D01*
Y0000344D01*
X0004688Y0000361D01*
X0004722D01*
X0004855Y0000294D01*
X0004655Y0000456D02*
Y0000523D01*
Y0000490D02*
X0004855D01*
X0004822Y0000523D01*
X0004755Y0000702D02*
X0004655Y0000652D01*
X0004755Y0000785D02*
Y0000685D01*
X0004788Y0000652D01*
X0004822D01*
X0004855Y0000685D01*
Y0000785D01*
X0004655D01*
X0004295Y0014622D02*
X0004095Y0014722D01*
Y0014589D01*
X0004295Y0014494D02*
Y0014427D01*
Y0014460D02*
X0004095D01*
X0004128Y0014427D01*
X0004195Y0014248D02*
X0004295Y0014298D01*
X0004195Y0014165D02*
Y0014265D01*
X0004162Y0014298D01*
X0004128D01*
X0004095Y0014265D01*
Y0014165D01*
X0004295D01*
X0010695Y0014756D02*
X0010662Y0014772D01*
X0010628D01*
X0010595Y0014756D01*
Y0014656D01*
X0010628Y0014639D01*
X0010662D01*
X0010695Y0014656D01*
Y0014756D01*
X0010728Y0014772D01*
X0010762D01*
X0010795Y0014756D01*
Y0014656D01*
X0010762Y0014639D01*
X0010728D01*
X0010695Y0014656D01*
X0010795Y0014544D02*
Y0014477D01*
Y0014510D02*
X0010595D01*
X0010628Y0014477D01*
X0010695Y0014298D02*
X0010795Y0014348D01*
X0010695Y0014215D02*
Y0014315D01*
X0010662Y0014348D01*
X0010628D01*
X0010595Y0014315D01*
Y0014215D01*
X0010795D01*
X0017195Y0014756D02*
Y0014656D01*
X0017162Y0014639D01*
X0017128D01*
X0017095Y0014656D01*
Y0014756D01*
X0017128Y0014772D01*
X0017162D01*
X0017295Y0014706D01*
Y0014544D02*
Y0014477D01*
Y0014510D02*
X0017095D01*
X0017128Y0014477D01*
X0017195Y0014298D02*
X0017295Y0014348D01*
X0017195Y0014215D02*
Y0014315D01*
X0017162Y0014348D01*
X0017128D01*
X0017095Y0014315D01*
Y0014215D01*
X0017295D01*
X0023795Y0014672D02*
X0023762Y0014639D01*
X0023728Y0014622D01*
X0023662D01*
X0023628Y0014639D01*
X0023595Y0014672D01*
Y0014706D01*
X0023628Y0014739D01*
X0023662Y0014756D01*
X0023728D01*
X0023762Y0014739D01*
X0023795Y0014706D01*
Y0014672D01*
Y0014527D02*
Y0014394D01*
X0023662Y0014527D01*
X0023628D01*
X0023595Y0014510D01*
Y0014410D01*
X0023628Y0014394D01*
X0023695Y0014248D02*
X0023795Y0014298D01*
X0023695Y0014165D02*
Y0014265D01*
X0023662Y0014298D01*
X0023628D01*
X0023595Y0014265D01*
Y0014165D01*
X0023795D01*
X0030295Y0014672D02*
Y0014606D01*
Y0014639D02*
X0030095D01*
X0030128Y0014606D01*
X0030295Y0014477D02*
Y0014344D01*
X0030162Y0014477D01*
X0030128D01*
X0030095Y0014460D01*
Y0014360D01*
X0030128Y0014344D01*
X0030195Y0014198D02*
X0030295Y0014248D01*
X0030195Y0014115D02*
Y0014215D01*
X0030162Y0014248D01*
X0030128D01*
X0030095Y0014215D01*
Y0014115D01*
X0030295D01*
X0048856Y0000905D02*
X0048722D01*
X0048856Y0001038D01*
Y0001072D01*
X0048839Y0001105D01*
X0048739D01*
X0048722Y0001072D01*
X0048627Y0000905D02*
X0048494D01*
X0048627Y0001038D01*
Y0001072D01*
X0048610Y0001105D01*
X0048510D01*
X0048494Y0001072D01*
X0048348Y0001005D02*
X0048398Y0000905D01*
X0048265Y0001005D02*
X0048365D01*
X0048398Y0001038D01*
Y0001072D01*
X0048365Y0001105D01*
X0048265D01*
Y0000905D01*
X0044822Y0002338D02*
X0044856Y0002305D01*
X0044922D01*
X0044956Y0002338D01*
Y0002372D01*
X0044889Y0002438D01*
X0044956Y0002505D01*
X0044822D01*
X0044727Y0002305D02*
X0044594D01*
X0044727Y0002438D01*
Y0002472D01*
X0044710Y0002505D01*
X0044610D01*
X0044594Y0002472D01*
X0044448Y0002405D02*
X0044498Y0002305D01*
X0044365Y0002405D02*
X0044465D01*
X0044498Y0002438D01*
Y0002472D01*
X0044465Y0002505D01*
X0044365D01*
Y0002305D01*
X0044956Y0001872D02*
X0044822D01*
X0044889Y0002005D01*
X0044922D01*
Y0001805D01*
X0044727D02*
X0044594D01*
X0044727Y0001938D01*
Y0001972D01*
X0044710Y0002005D01*
X0044610D01*
X0044594Y0001972D01*
X0044448Y0001905D02*
X0044498Y0001805D01*
X0044365Y0001905D02*
X0044465D01*
X0044498Y0001938D01*
Y0001972D01*
X0044465Y0002005D01*
X0044365D01*
Y0001805D01*
X0049595Y0001239D02*
Y0001339D01*
X0049628Y0001356D01*
X0049662D01*
X0049695Y0001339D01*
Y0001239D01*
X0049662Y0001222D01*
X0049628D01*
X0049495Y0001289D01*
X0049695Y0001127D02*
Y0000994D01*
X0049562Y0001127D01*
X0049528D01*
X0049495Y0001110D01*
Y0001010D01*
X0049528Y0000994D01*
X0049595Y0000848D02*
X0049695Y0000898D01*
X0049595Y0000765D02*
Y0000865D01*
X0049562Y0000898D01*
X0049528D01*
X0049495Y0000865D01*
Y0000765D01*
X0049695D01*
X0049688Y0002209D02*
X0049488Y0002309D01*
Y0002176D01*
X0049688Y0002080D02*
Y0001947D01*
X0049555Y0002080D01*
X0049522D01*
X0049488Y0002064D01*
Y0001964D01*
X0049522Y0001947D01*
X0049588Y0001802D02*
X0049688Y0001852D01*
X0049588Y0001718D02*
Y0001818D01*
X0049555Y0001852D01*
X0049522D01*
X0049488Y0001818D01*
Y0001718D01*
X0049688D01*
X0052006Y0009906D02*
X0052794D01*
Y0010300D01*
X0052006D01*
Y0009906D01*
X0054803Y0007773D02*
Y0008127D01*
X0055590D01*
Y0007773D01*
X0054803D01*
X0053227Y0010403D02*
X0052873D01*
Y0011190D01*
X0053227D01*
Y0010403D01*
X0050700Y0012367D02*
Y0014634D01*
X0057700D01*
Y0012367D01*
X0050700D01*
X0052377Y0010453D02*
X0052023D01*
Y0011240D01*
X0052377D01*
Y0010453D01*
X0055547Y0006677D02*
Y0006323D01*
X0054759D01*
Y0006677D01*
X0055547D01*
X0051847Y0010453D02*
Y0011240D01*
X0051453D01*
Y0010453D01*
X0051847D01*
X0052823Y0006697D02*
X0053177D01*
Y0005909D01*
X0052823D01*
Y0006697D01*
X0053956Y0010383D02*
Y0011407D01*
X0053444D01*
Y0010383D01*
X0053956D01*
X0056920Y0006303D02*
Y0007208D01*
X0055613D01*
Y0006303D01*
X0056920D01*
X0057524Y0000806D02*
X0057170D01*
Y0001594D01*
X0057524D01*
Y0000806D01*
X0051716Y0000956D02*
X0050693D01*
Y0000444D01*
X0051716D01*
Y0000956D01*
X0061783Y0000350D02*
X0059516D01*
Y0006350D01*
X0061783D01*
Y0000350D01*
X0054803Y0008873D02*
Y0009227D01*
X0055590D01*
Y0008873D01*
X0054803D01*
X0049353Y0004973D02*
Y0005327D01*
X0050140D01*
Y0004973D01*
X0049353D01*
X0049036Y0004119D02*
X0047796D01*
Y0002678D01*
X0049036D01*
Y0004119D01*
X0056956Y0003566D02*
Y0000629D01*
X0054909D01*
Y0003566D01*
X0056956D01*
X0047244Y0004166D02*
Y0003143D01*
X0047756D01*
Y0004166D01*
X0047244D01*
X0059386Y0001606D02*
X0058363D01*
Y0001094D01*
X0059386D01*
Y0001606D01*
X0055194Y0004230D02*
Y0003876D01*
X0054406D01*
Y0004230D01*
X0055194D01*
X0046847Y0001577D02*
Y0001223D01*
X0046059D01*
Y0001577D01*
X0046847D01*
X0055294Y0005424D02*
Y0005070D01*
X0054506D01*
Y0005424D01*
X0055294D01*
X0035645Y0010560D02*
X0033992D01*
Y0009340D01*
X0035645D01*
Y0010560D01*
X0051890Y0006800D02*
X0054654D01*
Y0009564D01*
X0051890D01*
Y0006800D01*
X0049781Y0006678D02*
X0051221D01*
Y0005434D01*
X0049781D01*
Y0006678D01*
X0056939Y0003912D02*
X0055341D01*
Y0004778D01*
X0056939D01*
Y0003912D01*
X0051266Y0005356D02*
X0050243D01*
Y0004844D01*
X0051266D01*
Y0005356D01*
X0047794Y0002616D02*
Y0001593D01*
X0048306D01*
Y0002616D01*
X0047794D01*
X0056989Y0005112D02*
X0055391D01*
Y0005978D01*
X0056989D01*
Y0005112D01*
X0010073Y0009140D02*
X0010427D01*
Y0008353D01*
X0010073D01*
Y0009140D01*
X0029223Y0001747D02*
X0029577D01*
Y0000959D01*
X0029223D01*
Y0001747D01*
X0015447Y0003327D02*
Y0002973D01*
X0014659D01*
Y0003327D01*
X0015447D01*
X0018023Y0001747D02*
X0018377D01*
Y0000959D01*
X0018023D01*
Y0001747D01*
X0026156Y0004573D02*
Y0004927D01*
X0026944D01*
Y0004573D01*
X0026156D01*
X0031023Y0009140D02*
X0031377D01*
Y0008353D01*
X0031023D01*
Y0009140D01*
X0029327Y0013203D02*
X0028973D01*
Y0013990D01*
X0029327D01*
Y0013203D01*
X0031777D02*
X0031423D01*
Y0013990D01*
X0031777D01*
Y0013203D01*
X0005423Y0009147D02*
X0005777D01*
Y0008359D01*
X0005423D01*
Y0009147D01*
X0003577Y0005859D02*
X0003223D01*
Y0006647D01*
X0003577D01*
Y0005859D01*
X0015347Y0012127D02*
Y0011773D01*
X0014559D01*
Y0012127D01*
X0015347D01*
Y0010977D02*
Y0010623D01*
X0014559D01*
Y0010977D01*
X0015347D01*
X0031427Y0013203D02*
X0031073D01*
Y0013990D01*
X0031427D01*
Y0013203D01*
X0012959Y0010373D02*
Y0010727D01*
X0013747D01*
Y0010373D01*
X0012959D01*
X0019033Y0006369D02*
Y0008027D01*
X0021867D01*
Y0006369D01*
X0019033D01*
X0019938D02*
Y0008027D01*
X0021847Y0010427D02*
Y0010073D01*
X0021059D01*
Y0010427D01*
X0021847D01*
X0028490Y0004627D02*
Y0004273D01*
X0027703D01*
Y0004627D01*
X0028490D01*
X0013156Y0004573D02*
Y0004927D01*
X0013944D01*
Y0004573D01*
X0013156D01*
X0024977Y0005859D02*
X0024623D01*
Y0006647D01*
X0024977D01*
Y0005859D01*
X0023023Y0009147D02*
X0023377D01*
Y0008359D01*
X0023023D01*
Y0009147D01*
X0005777Y0013203D02*
X0005423D01*
Y0013990D01*
X0005777D01*
Y0013203D01*
X0005023Y0009140D02*
X0005377D01*
Y0008353D01*
X0005023D01*
Y0009140D01*
X0003327Y0013203D02*
X0002973D01*
Y0013990D01*
X0003327D01*
Y0013203D01*
X0010477D02*
X0010123D01*
Y0013990D01*
X0010477D01*
Y0013203D01*
X0012959Y0011673D02*
Y0012027D01*
X0013747D01*
Y0011673D01*
X0012959D01*
X0003977Y0005853D02*
X0003623D01*
Y0006640D01*
X0003977D01*
Y0005853D01*
X0052473Y0003837D02*
X0052827D01*
Y0003049D01*
X0052473D01*
Y0003837D01*
X0005673Y0001747D02*
X0006027D01*
Y0000959D01*
X0005673D01*
Y0001747D01*
X0019656Y0002873D02*
Y0003227D01*
X0020444D01*
Y0002873D01*
X0019656D01*
X0003223Y0001747D02*
X0003577D01*
Y0000959D01*
X0003223D01*
Y0001747D01*
X0011977Y0005859D02*
X0011623D01*
Y0006647D01*
X0011977D01*
Y0005859D01*
X0019656Y0004023D02*
Y0004377D01*
X0020444D01*
Y0004023D01*
X0019656D01*
X0018423Y0009147D02*
X0018777D01*
Y0008359D01*
X0018423D01*
Y0009147D01*
X0021990Y0004627D02*
Y0004273D01*
X0021203D01*
Y0004627D01*
X0021990D01*
X0045016Y0009387D02*
X0046178D01*
Y0008973D01*
X0047122D01*
Y0009387D01*
X0048284D01*
Y0012091D01*
X0047721Y0012654D01*
X0047122D01*
Y0013068D01*
X0046178D01*
Y0012654D01*
X0045579D01*
X0045016Y0012091D01*
Y0009387D01*
X0037966Y0000975D02*
X0039128D01*
Y0000562D01*
X0040072D01*
Y0000975D01*
X0041234D01*
Y0003680D01*
X0040671Y0004243D01*
X0040072D01*
Y0004656D01*
X0039128D01*
Y0004243D01*
X0038529D01*
X0037966Y0003680D01*
Y0000975D01*
X0003623Y0001747D02*
X0003977D01*
Y0000959D01*
X0003623D01*
Y0001747D01*
X0025959Y0010523D02*
Y0010877D01*
X0026747D01*
Y0010523D01*
X0025959D01*
X0005427Y0013203D02*
X0005073D01*
Y0013990D01*
X0005427D01*
Y0013203D01*
X0031477Y0005859D02*
X0031123D01*
Y0006647D01*
X0031477D01*
Y0005859D01*
X0028347Y0010427D02*
Y0010073D01*
X0027559D01*
Y0010427D01*
X0028347D01*
X0032656Y0004573D02*
Y0004927D01*
X0033444D01*
Y0004573D01*
X0032656D01*
X0024523Y0001747D02*
X0024877D01*
Y0000959D01*
X0024523D01*
Y0001747D01*
X0021990Y0003327D02*
Y0002973D01*
X0021203D01*
Y0003327D01*
X0021990D01*
X0050993Y0002427D02*
Y0002073D01*
X0050206D01*
Y0002427D01*
X0050993D01*
X0008990Y0004627D02*
Y0004273D01*
X0008203D01*
Y0004627D01*
X0008990D01*
X0025953Y0011673D02*
Y0012027D01*
X0026740D01*
Y0011673D01*
X0025953D01*
X0018777Y0013203D02*
X0018423D01*
Y0013990D01*
X0018777D01*
Y0013203D01*
X0029523Y0009140D02*
X0029877D01*
Y0008353D01*
X0029523D01*
Y0009140D01*
X0016577Y0005853D02*
X0016223D01*
Y0006640D01*
X0016577D01*
Y0005853D01*
X0018023Y0009140D02*
X0018377D01*
Y0008353D01*
X0018023D01*
Y0009140D01*
X0016327Y0013203D02*
X0015973D01*
Y0013990D01*
X0016327D01*
Y0013203D01*
X0029927Y0005859D02*
X0029573D01*
Y0006647D01*
X0029927D01*
Y0005859D01*
X0023477Y0013203D02*
X0023123D01*
Y0013990D01*
X0023477D01*
Y0013203D01*
X0008847Y0012127D02*
Y0011773D01*
X0008059D01*
Y0012127D01*
X0008847D01*
Y0010977D02*
Y0010623D01*
X0008059D01*
Y0010977D01*
X0008847D01*
X0008990Y0003327D02*
Y0002973D01*
X0008203D01*
Y0003327D01*
X0008990D01*
X0011523Y0001747D02*
X0011877D01*
Y0000959D01*
X0011523D01*
Y0001747D01*
X0018673D02*
X0019027D01*
Y0000959D01*
X0018673D01*
Y0001747D01*
X0016223D02*
X0016577D01*
Y0000959D01*
X0016223D01*
Y0001747D01*
X0016977Y0005859D02*
X0016623D01*
Y0006647D01*
X0016977D01*
Y0005859D01*
X0002397Y0010427D02*
Y0010073D01*
X0001609D01*
Y0010427D01*
X0002397D01*
X0018377Y0013203D02*
X0018023D01*
Y0013990D01*
X0018377D01*
Y0013203D01*
X0032503Y0010573D02*
Y0010927D01*
X0033290D01*
Y0010573D01*
X0032503D01*
X0006656Y0004573D02*
Y0004927D01*
X0007444D01*
Y0004573D01*
X0006656D01*
X0016623Y0001747D02*
X0016977D01*
Y0000959D01*
X0016623D01*
Y0001747D01*
X0028490Y0003327D02*
Y0002973D01*
X0027703D01*
Y0003327D01*
X0028490D01*
X0003523Y0009140D02*
X0003877D01*
Y0008353D01*
X0003523D01*
Y0009140D01*
X0011923Y0009147D02*
X0012277D01*
Y0008359D01*
X0011923D01*
Y0009147D01*
X0005477Y0005853D02*
X0005123D01*
Y0006640D01*
X0005477D01*
Y0005853D01*
X0035869Y0003948D02*
X0037527D01*
Y0001113D01*
X0035869D01*
Y0003948D01*
Y0003042D02*
X0037527D01*
X0032303Y0011673D02*
Y0012027D01*
X0033090D01*
Y0011673D01*
X0032303D01*
X0031673Y0001747D02*
X0032027D01*
Y0000959D01*
X0031673D01*
Y0001747D01*
X0041566Y0000975D02*
X0042728D01*
Y0000562D01*
X0043672D01*
Y0000975D01*
X0044834D01*
Y0003680D01*
X0044271Y0004243D01*
X0043672D01*
Y0004656D01*
X0042728D01*
Y0004243D01*
X0042129D01*
X0041566Y0003680D01*
Y0000975D01*
X0021847Y0012127D02*
Y0011773D01*
X0021059D01*
Y0012127D01*
X0021847D01*
X0026156Y0004023D02*
Y0004377D01*
X0026944D01*
Y0004023D01*
X0026156D01*
X0029977Y0013203D02*
X0029623D01*
Y0013990D01*
X0029977D01*
Y0013203D01*
X0026156Y0002873D02*
Y0003227D01*
X0026944D01*
Y0002873D01*
X0026156D01*
X0021847Y0010927D02*
Y0010573D01*
X0021059D01*
Y0010927D01*
X0021847D01*
X0013156Y0002873D02*
Y0003227D01*
X0013944D01*
Y0002873D01*
X0013156D01*
X0015347Y0010427D02*
Y0010073D01*
X0014559D01*
Y0010427D01*
X0015347D01*
X0013156Y0004023D02*
Y0004377D01*
X0013944D01*
Y0004023D01*
X0013156D01*
X0006503Y0010523D02*
Y0010877D01*
X0007290D01*
Y0010523D01*
X0006503D01*
X0012277Y0013203D02*
X0011923D01*
Y0013990D01*
X0012277D01*
Y0013203D01*
X0002547Y0004627D02*
Y0004273D01*
X0001759D01*
Y0004627D01*
X0002547D01*
X0011523Y0009140D02*
X0011877D01*
Y0008353D01*
X0011523D01*
Y0009140D01*
X0029623Y0001740D02*
X0029977D01*
Y0000953D01*
X0029623D01*
Y0001740D01*
X0009827Y0013203D02*
X0009473D01*
Y0013990D01*
X0009827D01*
Y0013203D01*
X0016523Y0009140D02*
X0016877D01*
Y0008353D01*
X0016523D01*
Y0009140D01*
X0023077Y0005853D02*
X0022723D01*
Y0006640D01*
X0023077D01*
Y0005853D01*
X0024923Y0009147D02*
X0025277D01*
Y0008359D01*
X0024923D01*
Y0009147D01*
X0003977Y0013203D02*
X0003623D01*
Y0013990D01*
X0003977D01*
Y0013203D01*
X0019656Y0004573D02*
Y0004927D01*
X0020444D01*
Y0004573D01*
X0019656D01*
X0042990Y0012745D02*
Y0011092D01*
X0044210D01*
Y0012745D01*
X0042990D01*
X0006509Y0011673D02*
Y0012027D01*
X0007297D01*
Y0011673D01*
X0006509D01*
X0005023Y0001747D02*
X0005377D01*
Y0000959D01*
X0005023D01*
Y0001747D01*
X0002540Y0003327D02*
Y0002973D01*
X0001753D01*
Y0003327D01*
X0002540D01*
X0022723Y0001747D02*
X0023077D01*
Y0000959D01*
X0022723D01*
Y0001747D01*
X0028347Y0012127D02*
Y0011773D01*
X0027559D01*
Y0012127D01*
X0028347D01*
X0011877Y0013203D02*
X0011523D01*
Y0013990D01*
X0011877D01*
Y0013203D01*
X0010077Y0005853D02*
X0009723D01*
Y0006640D01*
X0010077D01*
Y0005853D01*
X0025173Y0001743D02*
X0025527D01*
Y0000956D01*
X0025173D01*
Y0001743D01*
X0053323Y0003847D02*
X0053677D01*
Y0003059D01*
X0053323D01*
Y0003847D01*
X0023477Y0005859D02*
X0023123D01*
Y0006647D01*
X0023477D01*
Y0005859D01*
X0052292Y0004059D02*
X0050323D01*
Y0002800D01*
X0052292D01*
Y0004059D01*
X0028347Y0010977D02*
Y0010623D01*
X0027559D01*
Y0010977D01*
X0028347D01*
X0032656Y0004023D02*
Y0004377D01*
X0033444D01*
Y0004023D01*
X0032656D01*
X0041790Y0012745D02*
Y0011092D01*
X0043010D01*
Y0012745D01*
X0041790D01*
X0019459Y0010373D02*
Y0010727D01*
X0020247D01*
Y0010373D01*
X0019459D01*
X0018477Y0005853D02*
X0018123D01*
Y0006640D01*
X0018477D01*
Y0005853D01*
X0033056Y0003073D02*
Y0003427D01*
X0033844D01*
Y0003073D01*
X0033056D01*
X0024523Y0009140D02*
X0024877D01*
Y0008353D01*
X0024523D01*
Y0009140D01*
X0029577Y0005859D02*
X0029223D01*
Y0006647D01*
X0029577D01*
Y0005859D01*
X0022827Y0013203D02*
X0022473D01*
Y0013990D01*
X0022827D01*
Y0013203D01*
X0025277D02*
X0024923D01*
Y0013990D01*
X0025277D01*
Y0013203D01*
X0023123Y0001747D02*
X0023477D01*
Y0000959D01*
X0023123D01*
Y0001747D01*
X0012173D02*
X0012527D01*
Y0000959D01*
X0012173D01*
Y0001747D01*
X0041192Y0005290D02*
X0042845D01*
Y0006510D01*
X0041192D01*
Y0005290D01*
X0010477Y0005859D02*
X0010123D01*
Y0006647D01*
X0010477D01*
Y0005859D01*
X0009723Y0001747D02*
X0010077D01*
Y0000959D01*
X0009723D01*
Y0001747D01*
X0051369Y0001121D02*
X0050283D01*
Y0001971D01*
X0051369D01*
Y0001121D01*
X0016977Y0013203D02*
X0016623D01*
Y0013990D01*
X0016977D01*
Y0013203D01*
X0031423Y0009147D02*
X0031777D01*
Y0008359D01*
X0031423D01*
Y0009147D01*
X0019459Y0011673D02*
Y0012027D01*
X0020247D01*
Y0011673D01*
X0019459D01*
X0024927Y0013203D02*
X0024573D01*
Y0013990D01*
X0024927D01*
Y0013203D01*
X0015490Y0004627D02*
Y0004273D01*
X0014703D01*
Y0004627D01*
X0015490D01*
X0002397Y0012127D02*
Y0011773D01*
X0001609D01*
Y0012127D01*
X0002397D01*
Y0010977D02*
Y0010623D01*
X0001609D01*
Y0010977D01*
X0002397D01*
X0008847Y0010427D02*
Y0010073D01*
X0008059D01*
Y0010427D01*
X0008847D01*
X0006656Y0002873D02*
Y0003227D01*
X0007444D01*
Y0002873D01*
X0006656D01*
X0010123Y0001747D02*
X0010477D01*
Y0000959D01*
X0010123D01*
Y0001747D01*
X0031023D02*
X0031377D01*
Y0000959D01*
X0031023D01*
Y0001747D01*
X0006656Y0004023D02*
Y0004377D01*
X0007444D01*
Y0004023D01*
X0006656D01*
X0049297Y0013747D02*
X0047164D01*
Y0012952D01*
X0049297D01*
Y0013747D01*
Y0014647D02*
X0047164D01*
Y0013852D01*
X0049297D01*
Y0014647D01*
X0061768Y0006963D02*
X0061505D01*
Y0008537D01*
X0061768D01*
Y0006963D01*
Y0008939D02*
Y0010514D01*
X0061505D01*
Y0008939D01*
X0061768D01*
Y0010915D02*
Y0012490D01*
X0061505D01*
Y0010915D01*
X0061768D01*
Y0012892D02*
Y0014466D01*
X0061505D01*
Y0012892D01*
X0061768D01*
Y0006766D02*
X0058225D01*
Y0014640D01*
X0061768D01*
Y0006766D01*
X0036724Y0011124D02*
X0038676D01*
Y0013902D01*
X0036724D01*
Y0011124D01*
X0038924D02*
X0040876D01*
Y0013902D01*
X0038924D01*
Y0011124D01*
X0040870Y0010469D02*
Y0005429D01*
X0039366D01*
Y0005197D01*
X0037334D01*
Y0005425D01*
X0035830D01*
Y0010469D01*
X0037334D01*
Y0010701D01*
X0039366D01*
Y0010469D01*
X0040870D01*
X0009455Y0009705D02*
Y0012795D01*
X0012544D01*
Y0009705D01*
X0009455D01*
X0032045Y0005295D02*
Y0002205D01*
X0028955D01*
Y0005295D01*
X0032045D01*
X0025545D02*
Y0002205D01*
X0022455D01*
Y0005295D01*
X0025545D01*
X0019045D02*
Y0002205D01*
X0015955D01*
Y0005295D01*
X0019045D01*
X0012545D02*
Y0002205D01*
X0009455D01*
Y0005295D01*
X0012545D01*
X0006045D02*
Y0002205D01*
X0002955D01*
Y0005295D01*
X0006045D01*
X0002955Y0009705D02*
Y0012795D01*
X0006044D01*
Y0009705D01*
X0002955D01*
X0015955D02*
Y0012795D01*
X0019044D01*
Y0009705D01*
X0015955D01*
X0022455D02*
Y0012795D01*
X0025544D01*
Y0009705D01*
X0022455D01*
X0028955D02*
Y0012795D01*
X0032044D01*
Y0009705D01*
X0028955D01*
X0048104Y0007114D02*
Y0008295D01*
X0047396D01*
Y0007114D01*
X0048104D01*
X0041046Y0012545D02*
Y0011364D01*
X0041754D01*
Y0012545D01*
X0041046D01*
X0041205Y0004546D02*
X0042386D01*
Y0005254D01*
X0041205D01*
Y0004546D01*
X0045409Y0007646D02*
X0046590D01*
Y0008354D01*
X0045409D01*
Y0007646D01*
X0044246Y0012536D02*
Y0011355D01*
X0044954D01*
Y0012536D01*
X0044246D01*
X0047218Y0004559D02*
Y0003737D01*
X0045565D01*
Y0004559D01*
X0047218D01*
X0048541Y0012845D02*
X0049363D01*
Y0011192D01*
X0048541D01*
Y0012845D01*
X0047218Y0003709D02*
Y0002887D01*
X0045565D01*
Y0003709D01*
X0047218D01*
X0047453Y0005004D02*
X0048477D01*
Y0005516D01*
X0047453D01*
Y0005004D01*
X0048194Y0008216D02*
Y0007193D01*
X0048706D01*
Y0008216D01*
X0048194D01*
X0044294Y0006507D02*
Y0005483D01*
X0044806D01*
Y0006507D01*
X0044294D01*
X0047925Y0006007D02*
Y0007031D01*
X0047413D01*
Y0006007D01*
X0047925D01*
X0046356Y0004613D02*
Y0005637D01*
X0045844D01*
Y0004613D01*
X0046356D01*
X0049306Y0007183D02*
Y0008207D01*
X0048794D01*
Y0007183D01*
X0049306D01*
X0047433Y0005494D02*
X0048457D01*
Y0006006D01*
X0047433D01*
Y0005494D01*
X0047366Y0005656D02*
X0046343D01*
Y0005144D01*
X0047366D01*
Y0005656D01*
X0045306Y0005463D02*
Y0006486D01*
X0044794D01*
Y0005463D01*
X0045306D01*
X0020464Y0008244D02*
X0021487D01*
Y0008756D01*
X0020464D01*
Y0008244D01*
X0019113D02*
X0020136D01*
Y0008756D01*
X0019113D01*
Y0008244D01*
X0047903Y0006504D02*
X0048926D01*
Y0007016D01*
X0047903D01*
Y0006504D01*
Y0006004D02*
X0048926D01*
Y0006516D01*
X0047903D01*
Y0006004D01*
X0048986Y0004974D02*
Y0005997D01*
X0048474D01*
Y0004974D01*
X0048986D01*
X0045881Y0002569D02*
X0046967D01*
Y0001719D01*
X0045881D01*
Y0002569D01*
X0047062Y0005901D02*
X0045456D01*
Y0007503D01*
X0047062D01*
Y0005901D01*
X0044025Y0008774D02*
Y0010726D01*
X0041248D01*
Y0008774D01*
X0044025D01*
Y0006574D02*
Y0008526D01*
X0041248D01*
Y0006574D01*
X0044025D01*
X0033440Y0004047D02*
X0032653D01*
Y0003653D01*
X0033440D01*
Y0004047D01*
X0026947D02*
X0026159D01*
Y0003653D01*
X0026947D01*
Y0004047D01*
X0020447D02*
X0019659D01*
Y0003653D01*
X0020447D01*
Y0004047D01*
X0013940D02*
X0013153D01*
Y0003653D01*
X0013940D01*
Y0004047D01*
X0007440D02*
X0006653D01*
Y0003653D01*
X0007440D01*
Y0004047D01*
X0001603Y0010953D02*
X0002390D01*
Y0011347D01*
X0001603D01*
Y0010953D01*
X0008059D02*
X0008847D01*
Y0011347D01*
X0008059D01*
Y0010953D01*
X0014559D02*
X0015347D01*
Y0011347D01*
X0014559D01*
Y0010953D01*
X0053247Y0003053D02*
Y0003840D01*
X0052853D01*
Y0003053D01*
X0053247D01*
X0021059Y0010953D02*
X0021847D01*
Y0011347D01*
X0021059D01*
Y0010953D01*
X0027559D02*
X0028347D01*
Y0011347D01*
X0027559D01*
Y0010953D01*
X0047490Y0005027D02*
X0046703D01*
Y0004633D01*
X0047490D01*
Y0005027D01*
X0045403Y0005427D02*
Y0004639D01*
X0045797D01*
Y0005427D01*
X0045403D01*
X0047347Y0007756D02*
Y0008544D01*
X0046953D01*
Y0007756D01*
X0047347D01*
X0030947Y0000953D02*
Y0001740D01*
X0030553D01*
Y0000953D01*
X0030947D01*
X0024447D02*
Y0001740D01*
X0024053D01*
Y0000953D01*
X0024447D01*
X0017947Y0000959D02*
Y0001747D01*
X0017553D01*
Y0000959D01*
X0017947D01*
X0011447D02*
Y0001747D01*
X0011053D01*
Y0000959D01*
X0011447D01*
X0004997Y0000953D02*
Y0001740D01*
X0004603D01*
Y0000953D01*
X0004997D01*
X0004003Y0013997D02*
Y0013209D01*
X0004397D01*
Y0013997D01*
X0004003D01*
X0010503D02*
Y0013209D01*
X0010897D01*
Y0013997D01*
X0010503D01*
X0017003D02*
Y0013209D01*
X0017397D01*
Y0013997D01*
X0017003D01*
X0023503D02*
Y0013209D01*
X0023897D01*
Y0013997D01*
X0023503D01*
X0030003D02*
Y0013209D01*
X0030397D01*
Y0013997D01*
X0030003D01*
X0048847Y0000897D02*
X0048059D01*
Y0000503D01*
X0048847D01*
Y0000897D01*
X0045847Y0002597D02*
X0045059D01*
Y0002203D01*
X0045847D01*
Y0002597D01*
Y0002097D02*
X0045059D01*
Y0001703D01*
X0045847D01*
Y0002097D01*
X0049803Y0001497D02*
Y0000709D01*
X0050197D01*
Y0001497D01*
X0049803D01*
X0050197Y0001603D02*
Y0002390D01*
X0049803D01*
Y0001603D01*
X0050197D01*
G54D162*
G01X0056487Y0006076D02*
G03X0056537Y0006126I0000000J0000050D01*
G01X0056437D02*
G03X0056487Y0006076I0000050J0000000D01*
Y0006177D02*
G03X0056436Y0006126I0000000J0000051D01*
G01X0056538D02*
G03X0056487Y0006177I0000051J0000000D01*
G01X0049194Y0003855D02*
G03X0049246Y0003907I0000000J0000052D01*
G01X0049142D02*
G03X0049194Y0003855I0000052J0000000D01*
Y0003958D02*
G03X0049143Y0003907I0000000J0000051D01*
G01X0049245D02*
G03X0049194Y0003958I0000051J0000000D01*
G01X0057145Y0002881D02*
G03X0057196Y0002932I0000000J0000051D01*
G01X0057094D02*
G03X0057145Y0002881I0000051J0000000D01*
Y0002982D02*
G03X0057095Y0002932I0000000J0000050D01*
G01X0057195D02*
G03X0057145Y0002982I0000050J0000000D01*
G01X0052233Y0009168D02*
G03X0052283Y0009218I0000000J0000050D01*
G01X0052183D02*
G03X0052233Y0009168I0000050J0000000D01*
Y0009267D02*
G03X0052184Y0009218I0000000J0000049D01*
G01X0052282D02*
G03X0052233Y0009267I0000049J0000000D01*
G01X0049993Y0006827D02*
G03X0050045Y0006879I0000000J0000052D01*
G01X0049941D02*
G03X0049993Y0006827I0000052J0000000D01*
Y0006931D02*
G03X0049941Y0006879I0000000J0000052D01*
G01X0050045D02*
G03X0049993Y0006931I0000052J0000000D01*
G01X0056557Y0003676D02*
G03X0056608Y0003727I0000000J0000051D01*
G01X0056506D02*
G03X0056557Y0003676I0000051J0000000D01*
Y0003778D02*
G03X0056506Y0003727I0000000J0000051D01*
G01X0056608D02*
G03X0056557Y0003778I0000051J0000000D01*
G01X0056607Y0004876D02*
G03X0056658Y0004927I0000000J0000051D01*
G01X0056556D02*
G03X0056607Y0004876I0000051J0000000D01*
Y0004978D02*
G03X0056556Y0004927I0000000J0000051D01*
G01X0056658D02*
G03X0056607Y0004978I0000051J0000000D01*
G54D67*
X0034000Y0013600D03*
X0001350D03*
X0014250Y0007500D03*
X0053150Y0001400D03*
X0034000D03*
X0001350D03*
M02*
