*
G04 Mass Parameters ***
*
G04 Image ***
*
%INC:\DOCUMENTS AND SETTINGS\LUIS V\DESKTOP\ODESK\CENTERUS\AVALON2\BCMINER V2-1.IN2*%
%ICAS*%
%MOIN*%
%IPPOS*%
%ASAXBY*%
G74*%FSLAN2X34Y34*%
*
G04 Aperture Definitions ***
*
%ADD10R,0.1023X0.0945*%
%ADD11R,0.0315X0.0354*%
%ADD12R,0.0669X0.0433*%
%ADD13R,0.0787X0.1378*%
%ADD14R,0.1023X0.0433*%
%ADD15R,0.0551X0.0433*%
%ADD16R,0.0354X0.0315*%
%ADD17R,0.0945X0.1023*%
%ADD18R,0.0433X0.1023*%
%ADD19R,0.0433X0.0551*%
%ADD20R,0.0433X0.0669*%
%ADD21R,0.0197X0.0236*%
%ADD22R,0.0236X0.0197*%
%ADD23R,0.0630X0.0708*%
%ADD24R,0.0866X0.0500*%
%ADD25C,0.1575*%
%ADD26R,0.0500X0.0866*%
%ADD27R,0.1949X0.1161*%
%ADD28R,0.0236X0.0236*%
%ADD29C,0.0394*%
%ADD30C,0.2362*%
%ADD31C,0.0236*%
%ADD32R,0.0275X0.0453*%
%ADD33R,0.0453X0.0275*%
%ADD34R,0.0354X0.0275*%
%ADD35R,0.0275X0.0354*%
%ADD36C,0.0300*%
%ADD37C,0.0590*%
%ADD38C,0.0100*%
%ADD39C,0.0110*%
%ADD40R,0.0334X0.0110*%
%ADD41R,0.0925X0.0630*%
%ADD42R,0.0098X0.0236*%
%ADD43R,0.2205X0.2205*%
%ADD44O,0.0110X0.0315*%
%ADD45O,0.0315X0.0110*%
%ADD46R,0.0256X0.0157*%
%ADD47R,0.0630X0.0787*%
%ADD48R,0.0236X0.0098*%
%ADD49R,0.1673X0.1673*%
%ADD50R,0.0146X0.0394*%
%ADD51R,0.0394X0.0146*%
%ADD52R,0.0118X0.0610*%
%ADD53R,0.0295X0.0098*%
%ADD54R,0.0354X0.0157*%
%ADD55R,0.0669X0.0590*%
%ADD56C,0.0200*%
%ADD57C,0.0010*%
%ADD58C,0.0080*%
%ADD59C,0.0020*%
%ADD60C,0.0100*%
%ADD61C,0.0110*%
%ADD62C,0.0200*%
%ADD63C,0.0250*%
%ADD64C,0.0300*%
%ADD65C,0.0200*%
%ADD66C,0.1575*%
%ADD67C,0.2362*%
%ADD68C,0.0200*%
%ADD69C,0.0200*%
%ADD70C,0.0200*%
%ADD71R,0.2205X0.2205*%
%ADD72C,0.0180*%
*
G04 Plot Data ***
*
G54D57*
G01X0044870Y0006670D02*
Y0006090D01*
X0045230D02*
X0044870D01*
X0045230Y0006670D02*
Y0006090D01*
Y0006670D02*
X0044870D01*
X0045216D02*
Y0006090D01*
X0045207Y0006670D02*
Y0006090D01*
X0045198Y0006670D02*
Y0006090D01*
X0045189Y0006670D02*
Y0006090D01*
X0045180Y0006670D02*
Y0006090D01*
X0045171Y0006670D02*
Y0006090D01*
X0045162Y0006670D02*
Y0006090D01*
X0045153Y0006670D02*
Y0006090D01*
X0045144Y0006670D02*
Y0006090D01*
X0045135Y0006670D02*
Y0006090D01*
X0045126Y0006670D02*
Y0006090D01*
X0045117Y0006670D02*
Y0006090D01*
X0045108Y0006670D02*
Y0006090D01*
X0045099Y0006670D02*
Y0006090D01*
X0045090Y0006670D02*
Y0006090D01*
X0045081Y0006670D02*
Y0006090D01*
X0045072Y0006670D02*
Y0006090D01*
X0045063Y0006670D02*
Y0006090D01*
X0045054Y0006670D02*
Y0006090D01*
X0045045Y0006670D02*
Y0006090D01*
X0045036Y0006670D02*
Y0006090D01*
X0045027Y0006670D02*
Y0006090D01*
X0045018Y0006670D02*
Y0006090D01*
X0045009Y0006670D02*
Y0006090D01*
X0045000Y0006670D02*
Y0006090D01*
X0044991Y0006670D02*
Y0006090D01*
X0044982Y0006670D02*
Y0006090D01*
X0044973Y0006670D02*
Y0006090D01*
X0044964Y0006670D02*
Y0006090D01*
X0044955Y0006670D02*
Y0006090D01*
X0044946Y0006670D02*
Y0006090D01*
X0044937Y0006670D02*
Y0006090D01*
X0044928Y0006670D02*
Y0006090D01*
X0044919Y0006670D02*
Y0006090D01*
X0044910Y0006670D02*
Y0006090D01*
X0044901Y0006670D02*
Y0006090D01*
X0044892Y0006670D02*
Y0006090D01*
X0044883Y0006670D02*
Y0006090D01*
X0045230Y0006661D02*
X0044870D01*
X0045230Y0006652D02*
X0044870D01*
X0045230Y0006643D02*
X0044870D01*
X0045230Y0006634D02*
X0044870D01*
X0045230Y0006625D02*
X0044870D01*
X0045230Y0006616D02*
X0044870D01*
X0045230Y0006607D02*
X0044870D01*
X0045230Y0006598D02*
X0044870D01*
X0045230Y0006589D02*
X0044870D01*
X0045230Y0006580D02*
X0044870D01*
X0045230Y0006571D02*
X0044870D01*
X0045230Y0006562D02*
X0044870D01*
X0045230Y0006553D02*
X0044870D01*
X0045230Y0006544D02*
X0044870D01*
X0045230Y0006535D02*
X0044870D01*
X0045230Y0006526D02*
X0044870D01*
X0045230Y0006517D02*
X0044870D01*
X0045230Y0006508D02*
X0044870D01*
X0045230Y0006499D02*
X0044870D01*
X0045230Y0006490D02*
X0044870D01*
X0045230Y0006481D02*
X0044870D01*
X0045230Y0006472D02*
X0044870D01*
X0045230Y0006463D02*
X0044870D01*
X0045230Y0006454D02*
X0044870D01*
X0045230Y0006445D02*
X0044870D01*
X0045230Y0006436D02*
X0044870D01*
X0045230Y0006427D02*
X0044870D01*
X0045230Y0006418D02*
X0044870D01*
X0045230Y0006409D02*
X0044870D01*
X0045230Y0006400D02*
X0044870D01*
X0045230Y0006391D02*
X0044870D01*
X0045230Y0006382D02*
X0044870D01*
X0045230Y0006373D02*
X0044870D01*
X0045230Y0006364D02*
X0044870D01*
X0045230Y0006355D02*
X0044870D01*
X0045230Y0006346D02*
X0044870D01*
X0045230Y0006337D02*
X0044870D01*
X0045230Y0006328D02*
X0044870D01*
X0045230Y0006319D02*
X0044870D01*
X0045230Y0006310D02*
X0044870D01*
X0045230Y0006301D02*
X0044870D01*
X0045230Y0006292D02*
X0044870D01*
X0045230Y0006283D02*
X0044870D01*
X0045230Y0006274D02*
X0044870D01*
X0045230Y0006265D02*
X0044870D01*
X0045230Y0006256D02*
X0044870D01*
X0045230Y0006247D02*
X0044870D01*
X0045230Y0006238D02*
X0044870D01*
X0045230Y0006229D02*
X0044870D01*
X0045230Y0006220D02*
X0044870D01*
X0045230Y0006211D02*
X0044870D01*
X0045230Y0006202D02*
X0044870D01*
X0045230Y0006193D02*
X0044870D01*
X0045230Y0006184D02*
X0044870D01*
X0045230Y0006175D02*
X0044870D01*
X0045230Y0006166D02*
X0044870D01*
X0045230Y0006157D02*
X0044870D01*
X0045230Y0006148D02*
X0044870D01*
X0045230Y0006139D02*
X0044870D01*
X0045230Y0006130D02*
X0044870D01*
X0045230Y0006121D02*
X0044870D01*
X0045230Y0006112D02*
X0044870D01*
X0045230Y0006103D02*
X0044870D01*
X0044020Y0008450D02*
X0043430D01*
X0044020D02*
Y0008150D01*
X0043430D01*
X0044010Y0008450D02*
Y0008150D01*
X0044001Y0008450D02*
Y0008150D01*
X0043992Y0008450D02*
Y0008150D01*
X0043983Y0008450D02*
Y0008150D01*
X0043974Y0008450D02*
Y0008150D01*
X0043965Y0008450D02*
Y0008150D01*
X0043956Y0008450D02*
Y0008150D01*
X0043947Y0008450D02*
Y0008150D01*
X0043938Y0008450D02*
Y0008150D01*
X0043929Y0008450D02*
Y0008150D01*
X0043920Y0008450D02*
Y0008150D01*
X0043911Y0008450D02*
Y0008150D01*
X0043902Y0008450D02*
Y0008150D01*
X0043893Y0008450D02*
Y0008150D01*
X0043884Y0008450D02*
Y0008150D01*
X0043875Y0008450D02*
Y0008150D01*
X0043866Y0008450D02*
Y0008150D01*
X0043857Y0008450D02*
Y0008150D01*
X0043848Y0008450D02*
Y0008150D01*
X0043839Y0008450D02*
Y0008150D01*
X0043830Y0008450D02*
Y0008150D01*
X0043821Y0008450D02*
Y0008150D01*
X0043812Y0008450D02*
Y0008150D01*
X0043803Y0008450D02*
Y0008150D01*
X0043794Y0008450D02*
Y0008150D01*
X0043785Y0008450D02*
Y0008150D01*
X0043776Y0008450D02*
Y0008150D01*
X0043767Y0008450D02*
Y0008150D01*
X0043758Y0008450D02*
Y0008150D01*
X0043749Y0008450D02*
Y0008150D01*
X0043740Y0008450D02*
Y0008150D01*
X0043731Y0008450D02*
Y0008150D01*
X0043722Y0008450D02*
Y0008150D01*
X0043713Y0008450D02*
Y0008150D01*
X0043704Y0008450D02*
Y0008150D01*
X0043695Y0008450D02*
Y0008150D01*
X0043686Y0008450D02*
Y0008150D01*
X0043677Y0008450D02*
Y0008150D01*
X0043668Y0008450D02*
Y0008150D01*
X0043659Y0008450D02*
Y0008150D01*
X0043650Y0008450D02*
Y0008150D01*
X0043641Y0008450D02*
Y0008150D01*
X0043632Y0008450D02*
Y0008150D01*
X0043623Y0008450D02*
Y0008150D01*
X0043614Y0008450D02*
Y0008150D01*
X0043605Y0008450D02*
Y0008150D01*
X0043596Y0008450D02*
Y0008150D01*
X0043587Y0008450D02*
Y0008150D01*
X0043578Y0008450D02*
Y0008150D01*
X0043569Y0008450D02*
Y0008150D01*
X0043560Y0008450D02*
Y0008150D01*
X0043551Y0008450D02*
Y0008150D01*
X0043542Y0008450D02*
Y0008150D01*
X0043533Y0008450D02*
Y0008150D01*
X0043524Y0008450D02*
Y0008150D01*
X0043515Y0008450D02*
Y0008150D01*
X0043506Y0008450D02*
Y0008150D01*
X0043497Y0008450D02*
Y0008150D01*
X0043488Y0008450D02*
Y0008150D01*
X0043479Y0008450D02*
Y0008150D01*
X0043470Y0008450D02*
Y0008150D01*
X0043461Y0008450D02*
Y0008150D01*
X0043452Y0008450D02*
Y0008150D01*
X0043443Y0008450D02*
Y0008150D01*
X0044020Y0008442D02*
X0043430D01*
X0044020Y0008433D02*
X0043430D01*
X0044020Y0008424D02*
X0043430D01*
X0044020Y0008415D02*
X0043430D01*
X0044020Y0008406D02*
X0043430D01*
X0044020Y0008397D02*
X0043430D01*
X0044020Y0008388D02*
X0043430D01*
X0044020Y0008379D02*
X0043430D01*
X0044020Y0008370D02*
X0043430D01*
X0044020Y0008361D02*
X0043430D01*
X0044020Y0008352D02*
X0043430D01*
X0044020Y0008343D02*
X0043430D01*
X0044020Y0008334D02*
X0043430D01*
X0044020Y0008325D02*
X0043430D01*
X0044020Y0008316D02*
X0043430D01*
X0044020Y0008307D02*
X0043430D01*
X0044020Y0008298D02*
X0043430D01*
X0044020Y0008289D02*
X0043430D01*
X0044020Y0008280D02*
X0043430D01*
X0044020Y0008271D02*
X0043430D01*
X0044020Y0008262D02*
X0043430D01*
X0044020Y0008253D02*
X0043430D01*
X0044020Y0008244D02*
X0043430D01*
X0044020Y0008235D02*
X0043430D01*
X0044020Y0008226D02*
X0043430D01*
X0044020Y0008217D02*
X0043430D01*
X0044020Y0008208D02*
X0043430D01*
X0044020Y0008199D02*
X0043430D01*
X0044020Y0008190D02*
X0043430D01*
X0044020Y0008181D02*
X0043430D01*
X0044020Y0008172D02*
X0043430D01*
X0044020Y0008163D02*
X0043430D01*
Y0008450D02*
Y0008150D01*
X0045321Y0007070D02*
Y0006830D01*
X0045312Y0007070D02*
Y0006830D01*
X0045303Y0007070D02*
Y0006830D01*
X0045294Y0007070D02*
Y0006830D01*
X0045285Y0007070D02*
Y0006830D01*
X0045276Y0007070D02*
Y0006830D01*
X0045267Y0007070D02*
Y0006830D01*
X0045258Y0007070D02*
Y0006830D01*
X0045249Y0007070D02*
Y0006830D01*
X0045240Y0007070D02*
Y0006830D01*
X0045231Y0007070D02*
Y0006830D01*
X0045222Y0007070D02*
Y0006830D01*
X0045213Y0007070D02*
Y0006830D01*
X0045204Y0007070D02*
Y0006830D01*
X0045195Y0007070D02*
Y0006830D01*
X0045186Y0007070D02*
Y0006830D01*
X0045177Y0007070D02*
Y0006830D01*
X0045168Y0007070D02*
Y0006830D01*
X0045159Y0007070D02*
Y0006830D01*
X0045150Y0007070D02*
Y0006830D01*
X0045141Y0007070D02*
Y0006830D01*
X0045132Y0007070D02*
Y0006830D01*
X0045123Y0007070D02*
Y0006830D01*
X0045114Y0007070D02*
Y0006830D01*
X0045105Y0007070D02*
Y0006830D01*
X0045096Y0007070D02*
Y0006830D01*
X0045087Y0007070D02*
Y0006830D01*
X0045078Y0007070D02*
Y0006830D01*
X0045069Y0007070D02*
Y0006830D01*
X0045060Y0007070D02*
Y0006830D01*
X0045051Y0007070D02*
Y0006830D01*
X0045042Y0007070D02*
Y0006830D01*
X0045033Y0007070D02*
Y0006830D01*
X0045024Y0007070D02*
Y0006830D01*
X0045015Y0007070D02*
Y0006830D01*
X0045006Y0007070D02*
Y0006830D01*
X0044997Y0007070D02*
Y0006830D01*
X0044988Y0007070D02*
Y0006830D01*
X0044979Y0007070D02*
Y0006830D01*
X0044970Y0007070D02*
Y0006830D01*
X0044961Y0007071D02*
Y0006830D01*
X0044952Y0007062D02*
Y0006838D01*
X0044943Y0007053D02*
Y0006847D01*
X0045411Y0007059D02*
X0044949D01*
X0045420Y0007050D02*
X0044940D01*
X0045429Y0007041D02*
X0044931D01*
X0045438Y0007032D02*
X0044930D01*
X0045440Y0007023D02*
X0044930D01*
X0045440Y0007014D02*
X0044930D01*
X0045440Y0007005D02*
X0044930D01*
X0045440Y0006996D02*
X0044930D01*
X0045440Y0006987D02*
X0044930D01*
X0045440Y0006978D02*
X0044930D01*
X0045440Y0006969D02*
X0044930D01*
X0045440Y0006960D02*
X0044930D01*
X0045440Y0006951D02*
X0044930D01*
X0045440Y0006942D02*
X0044930D01*
X0045440Y0006933D02*
X0044930D01*
X0045440Y0006924D02*
X0044930D01*
X0045440Y0006915D02*
X0044930D01*
X0045440Y0006906D02*
X0044930D01*
X0045440Y0006897D02*
X0044930D01*
X0045440Y0006888D02*
X0044930D01*
X0045440Y0006879D02*
X0044930D01*
X0045440Y0006870D02*
X0044930D01*
X0045431Y0006861D02*
X0044930D01*
X0045422Y0006852D02*
X0044938D01*
X0045413Y0006843D02*
X0044947D01*
X0044960Y0007070D02*
X0044930Y0007040D01*
Y0006860D01*
X0044960Y0006830D01*
X0045400D02*
X0044960D01*
X0045440Y0006870D02*
X0045400Y0006830D01*
X0045440Y0007030D02*
Y0006870D01*
X0045400Y0007070D02*
X0045440Y0007030D01*
X0045400Y0007070D02*
X0044960D01*
X0045429Y0007041D02*
Y0006859D01*
X0045420Y0007050D02*
Y0006850D01*
X0045411Y0007059D02*
Y0006841D01*
X0045402Y0007068D02*
Y0006832D01*
X0045393Y0007070D02*
Y0006830D01*
X0045384Y0007070D02*
Y0006830D01*
X0045375Y0007070D02*
Y0006830D01*
X0045366Y0007070D02*
Y0006830D01*
X0045357Y0007070D02*
Y0006830D01*
X0045348Y0007070D02*
Y0006830D01*
X0045339Y0007070D02*
Y0006830D01*
X0045330Y0007070D02*
Y0006830D01*
X0044010Y0010640D02*
Y0010360D01*
X0044001Y0010640D02*
Y0010360D01*
X0043992Y0010640D02*
Y0010360D01*
X0043983Y0010640D02*
Y0010360D01*
X0043974Y0010640D02*
Y0010360D01*
X0043965Y0010640D02*
Y0010360D01*
X0043956Y0010640D02*
Y0010360D01*
X0043947Y0010640D02*
Y0010360D01*
X0043938Y0010640D02*
Y0010360D01*
X0043929Y0010640D02*
Y0010360D01*
X0043920Y0010640D02*
Y0010360D01*
X0043911Y0010640D02*
Y0010360D01*
X0043902Y0010640D02*
Y0010360D01*
X0043893Y0010640D02*
Y0010360D01*
X0043884Y0010640D02*
Y0010360D01*
X0043875Y0010640D02*
Y0010360D01*
X0043866Y0010640D02*
Y0010360D01*
X0043857Y0010640D02*
Y0010360D01*
X0043848Y0010640D02*
Y0010360D01*
X0043839Y0010640D02*
Y0010360D01*
X0043830Y0010640D02*
Y0010360D01*
X0043821Y0010640D02*
Y0010360D01*
X0043812Y0010640D02*
Y0010360D01*
X0043803Y0010640D02*
Y0010360D01*
X0043794Y0010640D02*
Y0010360D01*
X0043785Y0010640D02*
Y0010360D01*
X0043776Y0010640D02*
Y0010360D01*
X0043767Y0010640D02*
Y0010360D01*
X0043758Y0010640D02*
Y0010360D01*
X0043749Y0010640D02*
Y0010360D01*
X0043740Y0010640D02*
Y0010360D01*
X0043731Y0010640D02*
Y0010360D01*
X0043722Y0010640D02*
Y0010360D01*
X0043713Y0010640D02*
Y0010360D01*
X0043704Y0010640D02*
Y0010360D01*
X0043695Y0010640D02*
Y0010360D01*
X0043686Y0010640D02*
Y0010360D01*
X0043677Y0010640D02*
Y0010360D01*
X0043668Y0010640D02*
Y0010360D01*
X0043659Y0010640D02*
Y0010360D01*
X0043650Y0010640D02*
Y0010360D01*
X0043641Y0010640D02*
Y0010360D01*
X0043632Y0010640D02*
Y0010360D01*
X0043623Y0010640D02*
Y0010360D01*
X0043614Y0010640D02*
Y0010360D01*
X0043605Y0010640D02*
Y0010360D01*
X0043596Y0010640D02*
Y0010360D01*
X0043587Y0010640D02*
Y0010360D01*
X0043578Y0010640D02*
Y0010360D01*
X0043569Y0010640D02*
Y0010360D01*
X0043560Y0010640D02*
Y0010360D01*
X0043551Y0010640D02*
Y0010360D01*
X0043542Y0010640D02*
Y0010360D01*
X0043533Y0010640D02*
Y0010360D01*
X0043524Y0010640D02*
Y0010360D01*
X0043515Y0010640D02*
Y0010360D01*
X0043506Y0010640D02*
Y0010360D01*
X0043497Y0010640D02*
Y0010360D01*
X0043488Y0010640D02*
Y0010360D01*
X0043479Y0010640D02*
Y0010360D01*
X0043470Y0010640D02*
Y0010360D01*
X0043461Y0010640D02*
Y0010360D01*
X0043452Y0010640D02*
Y0010360D01*
X0043443Y0010640D02*
Y0010360D01*
X0044020Y0010625D02*
X0043430D01*
X0044020Y0010616D02*
X0043430D01*
X0044020Y0010607D02*
X0043430D01*
X0044020Y0010598D02*
X0043430D01*
X0044020Y0010589D02*
X0043430D01*
X0044020Y0010580D02*
X0043430D01*
X0044020Y0010571D02*
X0043430D01*
X0044020Y0010562D02*
X0043430D01*
X0044020Y0010553D02*
X0043430D01*
X0044020Y0010544D02*
X0043430D01*
X0044020Y0010535D02*
X0043430D01*
X0044020Y0010526D02*
X0043430D01*
X0044020Y0010517D02*
X0043430D01*
X0044020Y0010508D02*
X0043430D01*
X0044020Y0010499D02*
X0043430D01*
X0044020Y0010490D02*
X0043430D01*
X0044020Y0010481D02*
X0043430D01*
X0044020Y0010472D02*
X0043430D01*
X0044020Y0010463D02*
X0043430D01*
X0044020Y0010454D02*
X0043430D01*
X0044020Y0010445D02*
X0043430D01*
X0044020Y0010436D02*
X0043430D01*
X0044020Y0010427D02*
X0043430D01*
X0044020Y0010418D02*
X0043430D01*
X0044020Y0010409D02*
X0043430D01*
X0044020Y0010400D02*
X0043430D01*
X0044020Y0010391D02*
X0043430D01*
X0044020Y0010382D02*
X0043430D01*
X0044020Y0010373D02*
X0043430D01*
Y0010640D02*
Y0010360D01*
X0044020Y0010640D02*
X0043430D01*
X0044020D02*
Y0010360D01*
X0043430D01*
G54D58*
G01X0056200Y0003850D02*
Y0002500D01*
X0056700Y0002000D01*
X0057400D01*
X0057850Y0002450D01*
Y0006300D01*
X0047100Y0002400D02*
X0049150D01*
X0049950Y0003200D01*
Y0004000D01*
X0051500Y0005550D01*
X0053950D01*
X0054850Y0004650D01*
X0056300D01*
X0056500Y0004450D01*
Y0004150D01*
X0056200Y0003850D01*
X0054700Y0006900D02*
X0054450D01*
X0054300Y0007050D01*
X0052650D01*
X0052300Y0007400D01*
Y0008600D01*
X0052000Y0008900D01*
X0051300D01*
X0051250Y0008350D02*
X0051800D01*
X0051900Y0008250D01*
Y0006850D01*
X0052400Y0006350D01*
Y0006100D01*
X0052650Y0005850D01*
X0053650D01*
X0053750Y0005750D01*
X0054350D01*
X0057150Y0002250D02*
Y0003800D01*
X0057600Y0004250D01*
Y0005700D01*
X0057350Y0005950D01*
X0053850D01*
X0053400Y0006400D01*
Y0006700D01*
X0053200Y0006900D01*
X0052550D01*
X0052100Y0007350D01*
Y0008450D01*
X0051900Y0008650D01*
X0051000D01*
X0053700Y0013550D02*
Y0013350D01*
X0055750Y0011300D01*
Y0008250D01*
X0053200Y0012850D02*
Y0012500D01*
X0054600Y0011100D01*
Y0008600D01*
X0055000Y0008200D01*
Y0006850D01*
X0054800Y0006650D01*
X0053950D01*
X0051700Y0013550D02*
X0052950D01*
X0055500Y0011000D01*
Y0007200D01*
X0055700Y0007000D01*
Y0006350D01*
X0055500Y0006150D01*
X0054050D01*
X0055150Y0012850D02*
X0056150Y0011850D01*
Y0009650D01*
X0055950Y0009450D01*
Y0007900D01*
X0050750Y0007950D02*
Y0007400D01*
X0051050Y0007100D01*
Y0006250D01*
X0051550Y0005750D01*
X0051800D01*
X0057350Y0004400D02*
Y0005100D01*
X0051550Y0006156D02*
X0051250Y0006449D01*
Y0007290D01*
X0051103Y0007449D01*
X0051100Y0007450D01*
Y0007700D01*
X0051600Y0007200D02*
Y0006800D01*
X0051950Y0006450D01*
Y0006250D01*
X0047100Y0002000D02*
X0047250Y0002150D01*
X0049200D01*
X0050200Y0003150D01*
Y0003950D01*
X0051500Y0005250D01*
X0053900D01*
X0054750Y0004400D01*
X0056100D01*
X0056250Y0004250D01*
X0003700Y0014800D02*
X0003725Y0014775D01*
X0008305Y0002105D02*
X0008190Y0001990D01*
X0004110Y0008390D02*
X0006010Y0006490D01*
X0004200Y0014800D02*
X0004225Y0014775D01*
X0023993Y0000793D02*
X0023350Y0000150D01*
X0011262Y0008510D02*
X0010688D01*
X0012767Y0010567D02*
X0012445Y0010245D01*
X0004700Y0014800D02*
X0004725Y0014775D01*
X0005200Y0014800D02*
X0005225Y0014775D01*
X0017967Y0000767D02*
X0017350Y0000150D01*
X0005700Y0014800D02*
X0005725Y0014775D01*
X0021310Y0001110D02*
X0020350Y0000150D01*
X0006200Y0014800D02*
X0006225Y0014775D01*
X0014296Y0004905D02*
X0014158D01*
X0006700Y0014800D02*
X0006725Y0014775D01*
X0019390Y0001110D02*
X0020350Y0000150D01*
X0007200Y0014800D02*
X0007225Y0014775D01*
X0007700Y0014800D02*
X0007725Y0014775D01*
X0014118Y0010776D02*
X0013986Y0010645D01*
X0008200Y0014800D02*
X0008225Y0014775D01*
X0017135Y0000865D02*
X0017850Y0000150D01*
X0008700Y0014800D02*
X0008725Y0014775D01*
X0009200Y0014800D02*
X0009225Y0014775D01*
X0009700Y0014800D02*
X0009725Y0014775D01*
X0016415Y0008215D02*
X0015769Y0007569D01*
X0014312Y0011112D02*
X0013944Y0010744D01*
X0010200Y0014800D02*
X0010225Y0014775D01*
X0015389Y0011689D02*
X0015290Y0011590D01*
X0010700Y0014800D02*
X0010725Y0014775D01*
X0008990Y0008510D02*
X0011010Y0006490D01*
X0011200Y0014800D02*
X0011225Y0014775D01*
X0017310Y0001110D02*
X0017220Y0001020D01*
X0011700Y0014800D02*
X0011725Y0014775D01*
X0030788Y0000712D02*
X0031350Y0000150D01*
X0012200Y0014800D02*
X0012225Y0014775D01*
X0012700Y0014800D02*
X0012725Y0014775D01*
X0015000Y0014800D02*
X0014040Y0013840D01*
X0013700Y0014800D02*
X0013725Y0014775D01*
X0014200Y0014800D02*
X0014225Y0014775D01*
X0026310Y0001110D02*
X0025350Y0000150D01*
X0018942Y0011744D02*
Y0010245D01*
X0014700Y0014800D02*
X0014725Y0014775D01*
X0008310Y0001110D02*
X0007350Y0000150D01*
X0015200Y0014800D02*
X0015225Y0014775D01*
X0026255Y0004055D02*
X0025582Y0003382D01*
X0020893Y0011693D02*
X0020172Y0010972D01*
X0015700Y0014800D02*
X0015725Y0014775D01*
X0016200Y0014800D02*
X0016225Y0014775D01*
X0025661Y0000839D02*
X0026350Y0000150D01*
X0016700Y0014800D02*
X0016725Y0014775D01*
X0028310Y0001110D02*
X0027350Y0000150D01*
X0017200Y0014800D02*
X0017225Y0014775D01*
X0032161Y0000839D02*
X0032850Y0000150D01*
X0005942Y0010558D02*
X0006246Y0010254D01*
X0017700Y0014800D02*
X0017725Y0014775D01*
X0033133Y0000150D02*
X0002216D01*
X0018200Y0014800D02*
X0018225Y0014775D01*
X0030967Y0000767D02*
X0030350Y0000150D01*
X0018700Y0014800D02*
X0018725Y0014775D01*
X0037488Y0000512D02*
X0037850Y0000150D01*
X0019200Y0014800D02*
X0019225Y0014775D01*
X0024467Y0000767D02*
X0023850Y0000150D01*
X0019700Y0014800D02*
X0019725Y0014775D01*
X0020200Y0014800D02*
X0020225Y0014775D01*
X0021000Y0014800D02*
X0020040Y0013840D01*
X0035124Y0000376D02*
X0035350Y0000150D01*
X0021200Y0014800D02*
X0021225Y0014775D01*
X0035333Y0000667D02*
X0035850Y0000150D01*
X0021700Y0014800D02*
X0021725Y0014775D01*
X0035474Y0001026D02*
X0036350Y0000150D01*
X0027393Y0011693D02*
X0026777Y0011077D01*
X0022200Y0014800D02*
X0022225Y0014775D01*
X0022700Y0014800D02*
X0022725Y0014775D01*
X0040385Y0001685D02*
X0038850Y0000150D01*
X0023200Y0014800D02*
X0023225Y0014775D01*
X0038427Y0000573D02*
X0038850Y0000150D01*
X0027342Y0010084D02*
X0027303Y0010045D01*
X0023700Y0014800D02*
X0023725Y0014775D01*
X0038645Y0002855D02*
X0040193Y0001307D01*
X0024200Y0014800D02*
X0024225Y0014775D01*
X0040055Y0002855D02*
X0039003Y0001803D01*
X0025736Y0010245D02*
X0025442D01*
X0024700Y0014800D02*
X0024725Y0014775D01*
X0038988Y0000512D02*
X0039350Y0000150D01*
X0033497Y0010575D02*
X0033904Y0010168D01*
X0025200Y0014800D02*
X0025225Y0014775D01*
X0042763Y0001736D02*
X0044350Y0000150D01*
X0025700Y0014800D02*
X0025725Y0014775D01*
X0041427Y0000573D02*
X0041850Y0000150D01*
X0026200Y0014800D02*
X0026225Y0014775D01*
X0040488Y0000512D02*
X0040850Y0000150D01*
X0026700Y0014800D02*
X0026725Y0014775D01*
X0043446Y0001746D02*
X0041850Y0000150D01*
X0050500Y0014800D02*
X0050207Y0014507D01*
X0027200Y0014800D02*
X0027225Y0014775D01*
X0037027Y0000827D02*
X0036350Y0000150D01*
X0032640Y0011432D02*
X0032918Y0011154D01*
X0033767Y0010567D02*
X0033636Y0010436D01*
X0027700Y0014800D02*
X0027725Y0014775D01*
X0033614Y0011414D02*
X0033324Y0011124D01*
X0027500Y0014800D02*
X0026540Y0013840D01*
X0042493Y0001293D02*
X0042344Y0001144D01*
X0028700Y0014800D02*
X0028725Y0014775D01*
X0041210Y0000510D02*
X0040850Y0000150D01*
X0039058Y0005358D02*
X0038890Y0005190D01*
X0029200Y0014800D02*
X0029225Y0014775D01*
X0041055Y0002855D02*
X0039344Y0001144D01*
X0037267Y0010567D02*
X0035390Y0008690D01*
X0029700Y0014800D02*
X0029725Y0014775D01*
X0035433Y0009567D02*
X0039810Y0005190D01*
X0030200Y0014800D02*
X0030225Y0014775D01*
X0045056Y0000755D02*
X0044600D01*
X0035933Y0009567D02*
X0040310Y0005190D01*
X0034182Y0012090D02*
X0035261Y0011011D01*
X0030700Y0014800D02*
X0030725Y0014775D01*
X0042145Y0002855D02*
X0044850Y0000150D01*
X0036433Y0009567D02*
X0040810Y0005190D01*
X0031200Y0014800D02*
X0031225Y0014775D01*
X0045288Y0000712D02*
X0045850Y0000150D01*
X0036933Y0009567D02*
X0041310Y0005190D01*
X0034374Y0012126D02*
X0036933Y0009567D01*
X0031700Y0014800D02*
X0031725Y0014775D01*
X0034733Y0012267D02*
X0037433Y0009567D01*
X0032200Y0014800D02*
X0032225Y0014775D01*
X0042767Y0010567D02*
X0041780Y0009580D01*
X0035024Y0012476D02*
X0037933Y0009567D01*
X0033065Y0014800D02*
X0002284D01*
X0017862Y0006490D02*
X0017238D01*
X0035257Y0012743D02*
X0038433Y0009567D01*
X0038500Y0014800D02*
X0037643Y0013943D01*
X0045360Y0004160D02*
X0045340Y0004140D01*
X0042580Y0005420D02*
X0042810Y0005190D01*
X0035427Y0013073D02*
X0038933Y0009567D01*
X0045179Y0005121D02*
X0045098Y0005040D01*
X0035516Y0013483D02*
X0039433Y0009567D01*
X0049508Y0000150D02*
X0034866D01*
X0045340Y0004160D02*
X0045360Y0004140D01*
X0042623Y0001376D02*
X0043850Y0000150D01*
X0032700Y0014800D02*
X0032725Y0014775D01*
X0044298Y0005420D02*
X0042450D01*
X0035200Y0014800D02*
X0035225Y0014775D01*
X0045007Y0009493D02*
X0046015Y0008485D01*
X0038540Y0010960D02*
X0039933Y0009567D01*
X0035700Y0014800D02*
X0035725Y0014775D01*
X0039429Y0012229D02*
X0039040Y0011840D01*
X0036700Y0014800D02*
X0036725Y0014775D01*
X0038225D02*
X0039222Y0013778D01*
X0037200Y0014800D02*
X0037225Y0014775D01*
X0037700Y0014800D02*
X0037725Y0014775D01*
X0046870Y0007129D02*
X0047555Y0006445D01*
X0038200Y0014800D02*
X0038225Y0014775D01*
X0053000Y0014800D02*
X0052740Y0014540D01*
X0038700Y0014800D02*
X0038725Y0014775D01*
X0039200Y0014800D02*
X0039225Y0014775D01*
X0055221Y0002278D02*
X0057350Y0000150D01*
X0039700Y0014800D02*
X0039725Y0014775D01*
X0054200Y0000300D02*
X0054350Y0000150D01*
X0040200Y0014800D02*
X0040225Y0014775D01*
X0054427Y0000573D02*
X0054850Y0000150D01*
X0040700Y0014800D02*
X0040725Y0014775D01*
X0054590Y0000910D02*
X0055350Y0000150D01*
X0041200Y0014800D02*
X0041225Y0014775D01*
X0046772Y0009727D02*
X0046933Y0009567D01*
X0041700Y0014800D02*
X0041725Y0014775D01*
X0042725D02*
X0047933Y0009567D01*
X0042200Y0014800D02*
X0042225Y0014775D01*
X0043225D02*
X0048433Y0009567D01*
X0042700Y0014800D02*
X0042725Y0014775D01*
X0052258Y0011058D02*
X0051767Y0010567D01*
X0043725Y0014775D02*
X0048933Y0009567D01*
X0043200Y0014800D02*
X0043225Y0014775D01*
X0044225D02*
X0049433Y0009567D01*
X0042000Y0014800D02*
X0040625Y0013425D01*
X0055497Y0003003D02*
X0055820Y0002680D01*
X0044725Y0014775D02*
X0049933Y0009567D01*
X0044200Y0014800D02*
X0044225Y0014775D01*
X0057511Y0000989D02*
X0058350Y0000150D01*
X0052500Y0014800D02*
X0051690Y0013990D01*
X0012285Y0000715D02*
X0012850Y0000150D01*
X0044700Y0014800D02*
X0044725Y0014775D01*
X0058590Y0000910D02*
X0059350Y0000150D01*
X0048953Y0011047D02*
X0050433Y0009567D01*
X0045200Y0014800D02*
X0045225Y0014775D01*
X0056770Y0002570D02*
X0056719Y0002519D01*
X0049291Y0011209D02*
X0050933Y0009567D01*
X0045700Y0014800D02*
X0045725Y0014775D01*
X0056222Y0005277D02*
X0056665Y0004835D01*
X0046725Y0014775D02*
X0051933Y0009567D01*
X0046200Y0014800D02*
X0046225Y0014775D01*
X0058230Y0005270D02*
X0061650Y0001850D01*
X0050272Y0012727D02*
X0052433Y0010567D01*
X0046700Y0014800D02*
X0046725Y0014775D01*
X0008500Y0014800D02*
X0007540Y0013840D01*
X0004000Y0014800D02*
X0003377Y0014177D01*
X0013200Y0014800D02*
X0013225Y0014775D01*
X0001360Y0011160D02*
X0000350Y0010150D01*
Y0010650D02*
X0001433Y0009567D01*
X0003500Y0014800D02*
X0002790Y0014090D01*
X0000350Y0003650D02*
X0001100Y0002900D01*
X0006000Y0014800D02*
X0005558Y0014358D01*
X0000350Y0009150D02*
X0001805Y0007695D01*
X0001377Y0010677D02*
X0000350Y0009650D01*
X0002795Y0006705D02*
X0002968Y0006532D01*
X0031915Y0000715D02*
X0031350Y0000150D01*
X0006225Y0014775D02*
X0007160Y0013840D01*
X0001132Y0005368D02*
X0001693Y0004807D01*
X0002795Y0007205D02*
X0003173Y0006827D01*
X0020700Y0014800D02*
X0020725Y0014775D01*
X0005942Y0011744D02*
Y0010245D01*
X0003390Y0005610D02*
X0003808Y0005192D01*
X0001805Y0006105D02*
X0001132Y0005432D01*
X0011135Y0013865D02*
X0011160Y0013840D01*
X0009210Y0008510D02*
X0007190Y0006490D01*
X0001000Y0004000D02*
X0001593Y0003407D01*
X0003058Y0004858D02*
X0002795Y0004595D01*
X0002733Y0000767D02*
X0003350Y0000150D01*
X0011725Y0014775D02*
X0012660Y0013840D01*
X0008807Y0010105D02*
X0008672D01*
X0001567Y0003367D02*
X0001100Y0002900D01*
X0058230Y0003770D02*
X0061650Y0000350D01*
Y0000450D02*
X0061350Y0000150D01*
X0061650Y0000950D02*
X0060850Y0000150D01*
X0061650Y0001450D02*
X0060350Y0000150D01*
X0061650Y0001950D02*
X0059850Y0000150D01*
X0061650Y0002450D02*
X0059350Y0000150D01*
X0061650Y0002950D02*
X0058850Y0000150D01*
X0058934Y0001065D02*
X0059850Y0000150D01*
X0061650Y0003950D02*
X0059038Y0001338D01*
X0061650Y0003450D02*
X0058350Y0000150D01*
X0061310Y0005190D02*
X0061650Y0004850D01*
X0058230Y0004270D02*
X0061650Y0000850D01*
Y0005450D02*
X0061558Y0005358D01*
X0058230Y0002770D02*
X0060850Y0000150D01*
X0061650Y0007950D02*
X0059058Y0005358D01*
X0061060Y0004940D02*
X0061650Y0004350D01*
X0058177Y0001477D02*
X0056850Y0000150D01*
X0061650Y0006950D02*
X0060058Y0005358D01*
X0057969Y0002031D02*
X0058314Y0001686D01*
X0061650Y0007450D02*
X0059558Y0005358D01*
X0054669Y0001330D02*
X0055850Y0000150D01*
X0060273Y0006727D02*
X0061650Y0005350D01*
X0059823Y0006623D02*
X0058558Y0005358D01*
X0058835Y0009135D02*
X0057151Y0007451D01*
X0059058Y0005358D02*
X0058230Y0004530D01*
X0054907Y0002093D02*
X0056850Y0000150D01*
X0060811Y0011189D02*
X0061650Y0010350D01*
X0057220Y0005542D02*
Y0005520D01*
X0050425Y0000225D02*
X0050350Y0000150D01*
X0052050Y0000350D02*
X0051850Y0000150D01*
X0061650Y0010950D02*
X0061267Y0010567D01*
X0051835Y0000635D02*
X0051350Y0000150D01*
X0056690Y0006810D02*
X0057170Y0006330D01*
X0060517Y0010817D02*
X0060383Y0010683D01*
X0051200Y0014800D02*
X0052070Y0013930D01*
X0049360Y0001160D02*
X0049310Y0001110D01*
X0057642Y0012358D02*
X0058769Y0011231D01*
X0051017Y0000817D02*
X0050835Y0000635D01*
X0059047Y0010847D02*
X0058767Y0010567D01*
X0058823Y0011123D02*
X0058267Y0010567D01*
X0058690Y0011490D02*
X0057767Y0010567D01*
X0061510Y0013490D02*
X0061650Y0013350D01*
X0055493Y0003793D02*
X0055025Y0003325D01*
X0051686Y0000986D02*
X0050850Y0000150D01*
X0056530Y0010294D02*
Y0009650D01*
X0058685Y0013485D02*
X0056530Y0011330D01*
X0051063Y0005699D02*
X0051087Y0005675D01*
X0056498Y0012001D02*
X0057642Y0010858D01*
X0050155Y0005455D02*
X0050058Y0005358D01*
X0056872Y0013627D02*
X0057642Y0012858D01*
X0049518Y0005818D02*
X0049058Y0005358D01*
X0057057Y0010443D02*
X0057642Y0009858D01*
X0048066Y0005365D02*
X0047840D01*
X0056181Y0001981D02*
X0054350Y0000150D01*
X0043196Y0001996D02*
X0042731Y0001531D01*
X0052382Y0010682D02*
X0052267Y0010567D01*
X0037558Y0005358D02*
X0037390Y0005190D01*
X0047332Y0005376D02*
X0047626Y0005082D01*
X0050767Y0010567D02*
X0048357Y0008157D01*
X0053681Y0011481D02*
X0053129Y0010929D01*
X0042332Y0001167D02*
X0043350Y0000150D01*
X0052934Y0012229D02*
X0054220Y0010942D01*
X0039540Y0010960D02*
X0040920Y0009580D01*
X0051618Y0012418D02*
X0049767Y0010567D01*
X0044475Y0000775D02*
X0043850Y0000150D01*
X0047044Y0009955D02*
X0047433Y0009567D01*
X0044253Y0002055D02*
X0044763Y0001545D01*
X0051167Y0012467D02*
X0049267Y0010567D01*
X0039307Y0000693D02*
X0039850Y0000150D01*
X0050693Y0012493D02*
X0048767Y0010567D01*
X0040145Y0002855D02*
X0040861Y0002138D01*
X0043120Y0005420D02*
X0043058Y0005358D01*
X0037255Y0000555D02*
X0036850Y0000150D01*
X0050044Y0012455D02*
X0052433Y0010067D01*
X0049072Y0012927D02*
X0052433Y0009567D01*
X0048693Y0012993D02*
X0046267Y0010567D01*
X0035519Y0001481D02*
X0036850Y0000150D01*
X0047712Y0003512D02*
X0047674Y0003474D01*
X0036645Y0002855D02*
X0037501Y0001998D01*
X0041725Y0014775D02*
X0045929Y0010570D01*
X0037933Y0009567D02*
X0040982Y0006518D01*
X0039055Y0002855D02*
X0038171Y0001971D01*
X0038055Y0002855D02*
X0035350Y0000150D01*
X0048639Y0013939D02*
X0045267Y0010567D01*
X0044365Y0010635D02*
X0044409Y0010591D01*
X0037385Y0001685D02*
X0035850Y0000150D01*
X0037555Y0002855D02*
X0035283Y0000583D01*
X0045500Y0014800D02*
X0041779Y0011079D01*
X0037055Y0002855D02*
X0035519Y0001319D01*
X0036555Y0002855D02*
X0035474Y0001774D01*
X0047500Y0014800D02*
X0043685Y0010985D01*
X0040920Y0008220D02*
X0038058Y0005358D01*
X0035283Y0002217D02*
X0037350Y0000150D01*
X0047000Y0014800D02*
X0042767Y0010567D01*
X0040920Y0008720D02*
X0037558Y0005358D01*
X0032975Y0000275D02*
X0032850Y0000150D01*
X0040920Y0009220D02*
X0037058Y0005358D01*
X0032743Y0000543D02*
X0032350Y0000150D01*
X0060588Y0008912D02*
X0061650Y0007850D01*
X0036740Y0005760D02*
X0037310Y0005190D01*
X0041755Y0011245D02*
X0043220Y0009780D01*
X0040650Y0010960D02*
X0038450D01*
X0040611Y0013389D02*
X0043153Y0010846D01*
X0027810Y0001110D02*
X0026850Y0000150D01*
X0038278Y0013221D02*
X0039660Y0011840D01*
X0027890Y0001110D02*
X0028850Y0000150D01*
X0039160Y0010960D02*
X0038767Y0010567D01*
X0040920Y0010720D02*
X0040767Y0010567D01*
X0028890Y0001110D02*
X0028990Y0001010D01*
X0037390Y0012190D02*
X0035767Y0010567D01*
X0035390Y0010110D02*
X0035933Y0009567D01*
X0037061Y0012361D02*
X0035390Y0010690D01*
X0028968Y0000768D02*
X0028350Y0000150D01*
X0034364Y0010664D02*
X0034267Y0010567D01*
X0022529Y0004471D02*
X0022558Y0004442D01*
X0030493Y0000793D02*
X0029850Y0000150D01*
X0036225Y0014775D02*
X0037109Y0013891D01*
X0026210Y0008510D02*
X0024190Y0006490D01*
X0034114Y0010914D02*
X0033767Y0010567D01*
X0022770Y0000729D02*
X0023350Y0000150D01*
X0032014Y0010814D02*
X0031942Y0010742D01*
X0034311Y0003689D02*
X0034376Y0003624D01*
X0018915Y0000715D02*
X0018350Y0000150D01*
X0043000Y0014800D02*
X0040546Y0012346D01*
X0028990Y0008510D02*
X0030890Y0006610D01*
X0023439Y0000739D02*
X0022850Y0000150D01*
X0034510Y0010518D02*
Y0010329D01*
X0032514Y0010314D02*
X0032445Y0010245D01*
X0032289Y0008089D02*
X0030690Y0006490D01*
X0019890Y0001110D02*
X0020850Y0000150D01*
X0028389Y0011689D02*
X0028290Y0011590D01*
X0017493Y0000793D02*
X0016850Y0000150D01*
X0020710Y0008510D02*
X0018731Y0006531D01*
X0022462Y0001110D02*
X0019288D01*
X0017312D02*
X0017238D01*
X0026490Y0008510D02*
X0028510Y0006490D01*
X0016270Y0000729D02*
X0016850Y0000150D01*
X0014890Y0001110D02*
X0015850Y0000150D01*
X0026615Y0011415D02*
X0025767Y0010567D01*
X0025922Y0011577D02*
X0026390Y0011110D01*
X0026725Y0014775D02*
X0027660Y0013840D01*
X0015390Y0001110D02*
X0016350Y0000150D01*
X0020257Y0008243D02*
X0020927Y0007572D01*
X0013890Y0001110D02*
X0014850Y0000150D01*
X0021889Y0011689D02*
X0021790Y0011590D01*
X0008390Y0001110D02*
X0009350Y0000150D01*
X0022490Y0007010D02*
X0022677Y0006823D01*
X0021805Y0010105D02*
X0021745Y0010045D01*
X0015990Y0008510D02*
X0017892Y0006608D01*
X0010632Y0000868D02*
X0011350Y0000150D01*
X0017710Y0008510D02*
X0015690Y0006490D01*
X0019739Y0011539D02*
X0018942Y0010742D01*
X0005943Y0002333D02*
Y0002307D01*
X0053181Y0011981D02*
X0052629Y0011429D01*
X0005915Y0000715D02*
X0005350Y0000150D01*
X0020225Y0014775D02*
X0021160Y0013840D01*
X0005193Y0002307D02*
X0005510Y0001990D01*
X0012725Y0014775D02*
X0013660Y0013840D01*
X0006810Y0001110D02*
X0005850Y0000150D01*
X0015319Y0010045D02*
X0015145D01*
X0007395Y0002105D02*
X0007510Y0001990D01*
X0022212Y0013840D02*
X0019038D01*
X0011829Y0008129D02*
X0010527Y0006827D01*
X0003058Y0003358D02*
X0002985Y0003285D01*
X0004515Y0000815D02*
X0003850Y0000150D01*
X0001805Y0003605D02*
X0001732Y0003532D01*
X0002293Y0000207D02*
X0002350Y0000150D01*
X0013239Y0011539D02*
X0012442Y0010742D01*
X0005539Y0000839D02*
X0004850Y0000150D01*
X0006710Y0008510D02*
X0005558Y0007358D01*
X0018360Y0008140D02*
X0020010Y0006490D01*
X0048536Y0011336D02*
X0047767Y0010567D01*
X0020590Y0003410D02*
X0020855Y0003145D01*
X0016929Y0000729D02*
X0016350Y0000150D01*
X0012890Y0001110D02*
X0013850Y0000150D01*
X0008810Y0001110D02*
X0007850Y0000150D01*
X0003605Y0013405D02*
X0003390Y0013190D01*
X0001423Y0011723D02*
X0000350Y0010650D01*
X0004394Y0005192D02*
X0003058D01*
X0006105Y0004905D02*
X0005943Y0004743D01*
X0003318Y0005618D02*
X0002795Y0005095D01*
X0005693Y0002307D02*
X0006010Y0001990D01*
X0000600Y0003900D02*
X0001567Y0002932D01*
X0001755Y0004055D02*
X0000350Y0002650D01*
X0002795Y0005705D02*
X0003308Y0005192D01*
X0025767Y0010567D02*
X0025445Y0010245D01*
X0029000Y0014800D02*
X0028040Y0013840D01*
X0023990Y0008510D02*
X0026010Y0006490D01*
X0013225Y0014775D02*
X0014160Y0013840D01*
X0005000Y0014800D02*
X0004394Y0014194D01*
X0002779Y0002079D02*
X0002733Y0002033D01*
X0005943Y0002307D02*
X0003058D01*
X0060769Y0014230D02*
X0060940Y0014060D01*
X0027110Y0003410D02*
X0027061Y0003361D01*
X0032707Y0002293D02*
X0032743Y0002257D01*
X0032000Y0014800D02*
X0031410Y0014210D01*
X0008000Y0014800D02*
X0007040Y0013840D01*
X0002701Y0014299D02*
X0002865Y0014135D01*
X0037807Y0000693D02*
X0038350Y0000150D01*
X0006390Y0001110D02*
X0007350Y0000150D01*
X0001527Y0004327D02*
X0000350Y0003150D01*
X0060821Y0013178D02*
X0061650Y0012350D01*
X0058618Y0012418D02*
X0057094Y0010894D01*
X0056200Y0014800D02*
X0056555Y0014444D01*
X0059500Y0014800D02*
X0059415Y0014715D01*
X0058724Y0012024D02*
X0057267Y0010567D01*
X0061650Y0013950D02*
X0061510Y0013810D01*
X0057642Y0010358D02*
X0058798Y0009202D01*
X0001000Y0006500D02*
X0001805Y0005695D01*
X0001132Y0006082D02*
Y0004968D01*
X0000350Y0008650D02*
X0001805Y0007195D01*
X0061650Y0014800D02*
Y0000150D01*
X0060915Y0007585D02*
X0061650Y0006850D01*
X0059200Y0014800D02*
X0059323Y0014677D01*
X0061200Y0014800D02*
X0061650Y0014350D01*
X0060940Y0013240D02*
X0060753Y0013053D01*
X0058500Y0014800D02*
X0056119Y0012419D01*
X0061260Y0013240D02*
X0061650Y0012850D01*
Y0011950D02*
X0060669Y0010969D01*
X0054500Y0014800D02*
X0053690Y0013990D01*
X0060808Y0012192D02*
X0061650Y0011350D01*
X0060922Y0011578D02*
X0061650Y0010850D01*
X0057200Y0014800D02*
X0057642Y0014358D01*
Y0008858D02*
X0058415Y0008085D01*
X0051072Y0012427D02*
X0052303Y0011197D01*
X0061650Y0009950D02*
X0060403Y0008703D01*
X0060835Y0010165D02*
X0061650Y0009350D01*
X0060919Y0009581D02*
X0061650Y0008850D01*
X0056077Y0013923D02*
X0057642Y0012358D01*
X0055060Y0013940D02*
X0055710Y0013290D01*
X0061650Y0006450D02*
X0060982Y0005782D01*
X0056140Y0012860D02*
X0057642Y0011358D01*
X0060856Y0008144D02*
X0061650Y0007350D01*
X0056530Y0011470D02*
X0056917Y0011082D01*
X0001575Y0009875D02*
X0000350Y0008650D01*
X0054200Y0014800D02*
X0054490Y0014510D01*
X0060790Y0007210D02*
X0061650Y0006350D01*
X0051570Y0012429D02*
X0052433Y0011567D01*
X0060572Y0006928D02*
X0061650Y0005850D01*
X0060058Y0005358D02*
X0058230Y0003530D01*
Y0005770D02*
X0061650Y0002350D01*
X0054220Y0010942D02*
Y0010789D01*
X0057642Y0007858D02*
X0061650Y0003850D01*
X0051415Y0013215D02*
X0051307Y0013107D01*
X0058230Y0006078D02*
Y0002450D01*
X0057767Y0010567D02*
X0056585Y0009385D01*
X0049015Y0013815D02*
X0048988Y0013788D01*
X0057642Y0007358D02*
X0061650Y0003350D01*
X0052792Y0013170D02*
X0052002D01*
X0050711Y0013289D02*
X0050755Y0013244D01*
X0056930Y0005570D02*
X0057065Y0005435D01*
X0054980Y0010520D02*
X0055120Y0010380D01*
X0056770Y0003800D02*
Y0002472D01*
X0048515Y0014315D02*
X0044767Y0010567D01*
X0048512Y0013312D02*
X0045790Y0010590D01*
X0005282Y0000718D02*
X0005850Y0000150D01*
X0000350Y0000254D02*
Y0000150D01*
X0001132Y0006082D02*
X0001000D01*
X0036055Y0002855D02*
X0035333Y0002133D01*
X0007390Y0001110D02*
X0008350Y0000150D01*
X0007810Y0001110D02*
X0006850Y0000150D01*
X0002543Y0000457D02*
X0002850Y0000150D01*
X0001132Y0004968D02*
X0001000D01*
Y0003900D01*
X0000350Y0008150D02*
X0001805Y0006695D01*
X0003058Y0002835D02*
Y0002665D01*
X0001032Y0004968D02*
X0001512Y0004488D01*
X0005785Y0000715D02*
X0006350Y0000150D01*
X0003270Y0000729D02*
X0003850Y0000150D01*
X0002990Y0006290D02*
X0002795Y0006095D01*
Y0004705D02*
X0003058Y0004442D01*
X0003023Y0005823D02*
X0002795Y0005595D01*
X0000350Y0011150D02*
X0001389Y0010111D01*
X0049215Y0003015D02*
X0048980Y0002780D01*
X0000350Y0009650D02*
X0000433Y0009567D01*
X0000600Y0003900D02*
X0000350Y0003650D01*
Y0010150D02*
X0000933Y0009567D01*
X0013335Y0004905D02*
X0013188D01*
X0001280Y0012080D02*
X0000350Y0011150D01*
X0002795Y0009205D02*
X0003290Y0008710D01*
X0003410Y0000710D02*
X0002850Y0000150D01*
X0001805Y0007105D02*
X0001000Y0006300D01*
X0011282Y0000717D02*
X0011850Y0000150D01*
X0011782Y0000718D02*
X0012350Y0000150D01*
X0006095Y0004905D02*
X0006246Y0004754D01*
X0015890Y0001110D02*
X0015979Y0001020D01*
X0000415Y0014800D02*
X0000350D01*
X0007000D02*
X0006040Y0013840D01*
X0010996Y0000796D02*
X0010350Y0000150D01*
X0018785Y0000715D02*
X0019350Y0000150D01*
X0006518Y0010526D02*
X0006236Y0010245D01*
X0002700Y0014800D02*
X0002725Y0014775D01*
X0003200Y0014800D02*
X0003225Y0014775D01*
X0029225D02*
X0029762Y0014238D01*
X0028225Y0014775D02*
X0028865Y0014135D01*
X0025500Y0014800D02*
X0024910Y0014210D01*
X0028540Y0011590D02*
X0028003D01*
X0027005Y0011805D02*
X0026985Y0011785D01*
X0020890Y0001110D02*
X0021850Y0000150D01*
X0024000Y0014800D02*
X0023422Y0014222D01*
X0023500Y0014800D02*
X0022877Y0014177D01*
X0022725Y0014775D02*
X0023262Y0014238D01*
X0021725Y0014775D02*
X0022365Y0014135D01*
X0036725Y0014775D02*
X0037499Y0014001D01*
X0019000Y0014800D02*
X0018390Y0014190D01*
X0020115Y0011415D02*
X0019267Y0010567D01*
X0016000Y0014800D02*
X0015040Y0013840D01*
X0017500Y0014800D02*
X0016922Y0014222D01*
X0037725Y0014775D02*
X0039457Y0013043D01*
X0020500Y0014800D02*
X0019540Y0013840D01*
X0015225Y0014775D02*
X0015865Y0014135D01*
X0015725Y0014775D02*
X0016279Y0014220D01*
X0017225Y0014775D02*
X0017892Y0014108D01*
X0023000Y0014800D02*
X0022040Y0013840D01*
X0020000Y0014800D02*
X0019040Y0013840D01*
X0015540Y0011590D02*
X0015003D01*
X0029725Y0014775D02*
X0030265Y0014235D01*
X0027225Y0014775D02*
X0028160Y0013840D01*
X0012500Y0014800D02*
X0011890Y0014190D01*
X0003140Y0013360D02*
X0003310Y0013190D01*
X0026239Y0011539D02*
X0025442Y0010742D01*
X0013615Y0011415D02*
X0012767Y0010567D01*
X0006262Y0011562D02*
X0005942Y0011242D01*
Y0011558D02*
X0006677Y0010822D01*
X0012134Y0013866D02*
X0012160Y0013840D01*
X0014334Y0011805D02*
X0013988D01*
X0014000Y0014800D02*
X0013040Y0013840D01*
X0004225Y0014775D02*
X0004915Y0014085D01*
X0005225Y0014775D02*
X0005817Y0014182D01*
X0009725Y0014775D02*
X0010262Y0014238D01*
X0007645Y0011855D02*
X0007993Y0011507D01*
X0026990Y0008510D02*
X0028968Y0006532D01*
X0010767Y0014567D02*
X0010422Y0014222D01*
X0022335Y0006665D02*
X0022469Y0006531D01*
X0025990Y0008510D02*
X0028010Y0006490D01*
X0008865Y0011665D02*
X0008790Y0011590D01*
X0004505Y0008805D02*
X0004120Y0008420D01*
X0003045Y0009455D02*
X0003540Y0008960D01*
X0000350Y0012150D02*
X0001360Y0011140D01*
X0000860Y0012160D02*
X0000350Y0011650D01*
X0006805Y0004105D02*
X0006132Y0003432D01*
X0022915Y0008215D02*
X0022407Y0007707D01*
X0023329Y0008129D02*
X0022432Y0007232D01*
X0029058Y0004499D02*
Y0004164D01*
X0028210Y0008510D02*
X0026190Y0006490D01*
X0021410Y0008090D02*
X0021618Y0007882D01*
X0017110Y0008390D02*
X0019010Y0006490D01*
X0021660Y0008340D02*
X0022115Y0007885D01*
X0025442Y0011058D02*
X0025996Y0010504D01*
X0028555Y0004355D02*
X0028490Y0004290D01*
X0022762Y0008510D02*
X0021690D01*
X0021710D02*
X0021690Y0008490D01*
X0012990Y0008510D02*
X0013057Y0008443D01*
X0027545Y0003410D02*
X0027003D01*
X0026225Y0014775D02*
X0027160Y0013840D01*
X0052433Y0012067D02*
X0053893Y0010607D01*
X0020834Y0011805D02*
X0020488D01*
X0028540Y0003410D02*
X0028255D01*
X0016500Y0014800D02*
X0015540Y0013840D01*
X0029058Y0004358D02*
X0028944Y0004244D01*
X0005558Y0006858D02*
X0005523Y0006823D01*
X0020610Y0003410D02*
X0020561Y0003361D01*
X0022485Y0007515D02*
X0023140Y0006860D01*
X0022250Y0004355D02*
X0021829D01*
X0025890Y0001110D02*
X0026850Y0000150D01*
X0020960Y0003145D02*
X0020679D01*
X0026390Y0001110D02*
X0027350Y0000150D01*
X0025415Y0000715D02*
X0024850Y0000150D01*
X0022350Y0004290D02*
X0021810D01*
X0029560Y0000440D02*
X0029850Y0000150D01*
X0023283Y0000717D02*
X0023850Y0000150D01*
X0018943Y0003993D02*
Y0003257D01*
X0022558Y0004499D02*
Y0004238D01*
X0041780Y0009220D02*
X0043220Y0007780D01*
X0016790Y0000710D02*
X0017350Y0000150D01*
X0013320Y0003145D02*
X0013215D01*
X0020810Y0001110D02*
X0019850Y0000150D01*
X0015285Y0003215D02*
X0015305Y0003194D01*
X0015540Y0003410D02*
X0015205D01*
X0014410Y0003145D02*
X0014179D01*
X0003057Y0011833D02*
Y0011007D01*
X0013334Y0004055D02*
X0013194D01*
X0010990Y0008510D02*
X0013010Y0006490D01*
X0015750Y0007250D02*
X0016173Y0006827D01*
X0015633Y0006867D02*
X0015968Y0006532D01*
X0017915Y0008215D02*
X0016560Y0006860D01*
X0012729Y0007529D02*
X0012027Y0006827D01*
X0012786Y0007086D02*
X0012232Y0006532D01*
X0007990Y0008510D02*
X0009677Y0006823D01*
X0015810Y0001110D02*
X0014850Y0000150D01*
X0015310Y0001110D02*
X0014350Y0000150D01*
X0015962Y0001110D02*
X0012788D01*
X0009142Y0004358D02*
X0009210Y0004290D01*
X0007960Y0003145D02*
X0007679D01*
X0003065Y0000865D02*
X0002350Y0000150D01*
X0010439Y0000739D02*
X0009850Y0000150D01*
X0004693Y0002307D02*
X0005010Y0001990D01*
X0009463Y0001110D02*
X0006288D01*
X0006161Y0000839D02*
X0006850Y0000150D01*
X0008045Y0003410D02*
X0007503D01*
X0005993Y0002793D02*
X0005943Y0002743D01*
X0009040Y0003410D02*
X0008755D01*
X0015305Y0010105D02*
X0015245Y0010045D01*
X0002877Y0002123D02*
X0003115Y0001885D01*
X0012899Y0008199D02*
X0011190Y0006490D01*
X0004929Y0000729D02*
X0004350Y0000150D01*
X0002850Y0001150D02*
X0002979Y0001020D01*
X0001000Y0004500D02*
X0001142Y0004358D01*
X0006895Y0002105D02*
X0007010Y0001990D01*
X0004800D02*
X0003400D01*
X0003810Y0005610D02*
X0003392Y0005192D01*
X0001805Y0006605D02*
X0001132Y0005932D01*
X0047193Y0001493D02*
X0045850Y0000150D01*
X0014393Y0011693D02*
X0013672Y0010972D01*
X0048690Y0002810D02*
X0048720Y0002780D01*
X0046843Y0001643D02*
X0045350Y0000150D01*
X0001805Y0008105D02*
X0000350Y0006650D01*
X0033864Y0011164D02*
X0033527Y0010827D01*
X0049167Y0012967D02*
X0046772Y0010572D01*
X0002795Y0007705D02*
X0003640Y0006860D01*
X0002795Y0008705D02*
X0004892Y0006608D01*
X0003260Y0008560D02*
X0002795Y0008095D01*
X0010315Y0008115D02*
X0008690Y0006490D01*
X0012935Y0006735D02*
X0012690Y0006490D01*
X0051907Y0004207D02*
X0051830Y0004130D01*
X0004039Y0013339D02*
X0003890Y0013190D01*
X0010725Y0014775D02*
X0011392Y0014108D01*
X0014225Y0014775D02*
X0015160Y0013840D01*
X0010000Y0014800D02*
X0009040Y0013840D01*
X0045540Y0001960D02*
X0047350Y0000150D01*
X0048840Y0001160D02*
X0048923Y0001077D01*
X0012710Y0008510D02*
X0010732Y0006532D01*
X0026355Y0003655D02*
X0026057Y0003357D01*
X0036767Y0010567D02*
X0035390Y0009190D01*
X0048700Y0014800D02*
X0048827Y0014672D01*
X0049412Y0014212D02*
X0049385Y0014185D01*
X0048200Y0014800D02*
X0048555Y0014444D01*
X0049000Y0014800D02*
X0048885Y0014685D01*
X0049500Y0014800D02*
X0049261Y0014561D01*
X0053700Y0014800D02*
X0054240Y0014260D01*
X0054980Y0008757D02*
X0055120Y0008617D01*
X0050370Y0007670D02*
X0049345Y0006645D01*
X0048934Y0007566D02*
X0049993Y0006507D01*
X0050612Y0005412D02*
X0050558Y0005358D01*
X0058323Y0012623D02*
X0056822Y0011122D01*
X0056530Y0011850D02*
Y0011106D01*
X0007725Y0014775D02*
X0008660Y0013840D01*
X0013588Y0011412D02*
X0014175Y0010825D01*
X0012000Y0014800D02*
X0011122Y0013922D01*
X0006765Y0011565D02*
X0005942Y0010742D01*
X0054181Y0010981D02*
X0053767Y0010567D01*
X0055782Y0013718D02*
X0057642Y0011858D01*
X0052433Y0011567D02*
X0052581Y0011419D01*
X0056500Y0014800D02*
X0056077Y0014377D01*
X0054700Y0014800D02*
X0055268Y0014232D01*
X0055200Y0014800D02*
X0055473Y0014527D01*
X0057187Y0000987D02*
X0056350Y0000150D01*
X0005725Y0014775D02*
X0006660Y0013840D01*
X0056922Y0004222D02*
X0056880Y0004180D01*
X0012442Y0011558D02*
X0013193Y0010807D01*
X0061558Y0005358D02*
X0057756Y0001556D01*
X0054255Y0002733D02*
Y0002644D01*
X0018942Y0011558D02*
X0019693Y0010807D01*
X0018942Y0010558D02*
X0019246Y0010254D01*
X0050512Y0012812D02*
X0049356Y0011656D01*
X0046225Y0014775D02*
X0049099Y0011901D01*
X0045725Y0014775D02*
X0048672Y0011828D01*
X0045225Y0014775D02*
X0048510Y0011490D01*
X0019777Y0008077D02*
X0018523Y0006823D01*
X0016860Y0008140D02*
X0018145Y0006855D01*
X0000350Y0011650D02*
X0001417Y0010582D01*
X0025710Y0008510D02*
X0023732Y0006532D01*
X0022145Y0004355D02*
X0022210Y0004290D01*
X0019755Y0004055D02*
X0019082Y0003382D01*
X0004790Y0000710D02*
X0005350Y0000150D01*
X0029929Y0000729D02*
X0029350Y0000150D01*
X0002795Y0004205D02*
X0003058Y0003942D01*
X0009569Y0000869D02*
X0008850Y0000150D01*
X0007895Y0002105D02*
X0008010Y0001990D01*
X0012415Y0000715D02*
X0011850Y0000150D01*
X0003693Y0002307D02*
X0004010Y0001990D01*
X0002850Y0001650D02*
X0002960Y0001540D01*
X0045632Y0001367D02*
X0046850Y0000150D01*
X0005558Y0007858D02*
X0004232Y0006532D01*
X0003415Y0008215D02*
X0002795Y0007595D01*
X0007110Y0011410D02*
X0005945Y0010245D01*
X0004135Y0000865D02*
X0004850Y0000150D01*
X0009279Y0002079D02*
X0009190Y0001990D01*
X0027479Y0003279D02*
X0027395Y0003195D01*
X0009000Y0004355D02*
X0008829D01*
X0009558Y0004358D02*
X0009472Y0004272D01*
X0006170Y0003829D02*
X0006567Y0003432D01*
X0006268Y0004776D02*
X0006158Y0004666D01*
X0006268Y0002068D02*
X0006190Y0001990D01*
X0004507Y0002307D02*
X0004190Y0001990D01*
X0009538D02*
X0004800D01*
X0009390Y0001110D02*
X0009484Y0001016D01*
X0014810Y0001110D02*
X0013850Y0000150D01*
X0009920Y0000720D02*
X0009350Y0000150D01*
X0010812Y0001110D02*
X0010737D01*
X0001805Y0008605D02*
X0000350Y0007150D01*
X0015750Y0007750D02*
X0016640Y0006860D01*
X0014090Y0003410D02*
X0014355Y0003145D01*
X0008210Y0008510D02*
X0006190Y0006490D01*
X0013255Y0004055D02*
X0012582Y0003382D01*
X0016013Y0004705D02*
X0015782Y0004473D01*
X0014236Y0004845D02*
X0014176D01*
X0021810Y0001110D02*
X0020850Y0000150D01*
X0025039Y0000839D02*
X0024350Y0000150D01*
X0022910Y0000710D02*
X0022350Y0000150D01*
X0020846Y0004905D02*
X0020786Y0004845D01*
X0014415Y0003215D02*
X0014345Y0003145D01*
X0022558Y0004358D02*
X0022472Y0004272D01*
X0035562Y0007710D02*
X0035761Y0007511D01*
X0020979Y0003279D02*
X0020845Y0003145D01*
X0039965Y0012265D02*
X0039540Y0011840D01*
X0022565Y0000865D02*
X0021850Y0000150D01*
X0023632Y0000868D02*
X0024350Y0000150D01*
X0030312Y0001110D02*
X0030238D01*
X0032411Y0001789D02*
X0032120Y0001497D01*
X0024288Y0000712D02*
X0024850Y0000150D01*
X0029210Y0008510D02*
X0027190Y0006490D01*
X0004212Y0005512D02*
X0003892Y0005192D01*
X0028490Y0008510D02*
X0030510Y0006490D01*
X0019505Y0008305D02*
X0017690Y0006490D01*
X0026710Y0008510D02*
X0025027Y0006827D01*
X0020810Y0008510D02*
X0020340D01*
X0019938Y0008062D02*
X0020918Y0007082D01*
X0001373Y0010173D02*
X0000350Y0009150D01*
X0009710Y0008510D02*
X0007690Y0006490D01*
X0005558Y0014358D02*
X0005410Y0014210D01*
X0015712Y0013840D02*
X0012137D01*
X0009500Y0014800D02*
X0008540Y0013840D01*
X0011000Y0014800D02*
X0010767Y0014567D01*
X0007500Y0014800D02*
X0006540Y0013840D01*
X0050657Y0000343D02*
X0050850Y0000150D01*
X0005113Y0009005D02*
X0005082Y0008974D01*
X0008672Y0011827D02*
X0008910Y0011590D01*
X0004500Y0014800D02*
X0003922Y0014222D01*
X0006500Y0014800D02*
X0005857Y0014157D01*
X0018500Y0014800D02*
X0017622Y0013922D01*
X0017725Y0014775D02*
X0018272Y0014228D01*
X0019500Y0014800D02*
X0018857Y0014157D01*
X0023360Y0008140D02*
X0024640Y0006860D01*
X0018225Y0014775D02*
X0018817Y0014182D01*
X0033255Y0003055D02*
X0032788Y0002588D01*
X0022040Y0011590D02*
X0021503D01*
X0022212Y0013840D02*
X0019038D01*
X0026500Y0014800D02*
X0025540Y0013840D01*
X0024135Y0013865D02*
X0024160Y0013840D01*
X0031500Y0014800D02*
X0030622Y0013922D01*
X0030000Y0014800D02*
X0029377Y0014177D01*
X0024225Y0014775D02*
X0024760Y0014240D01*
X0024500Y0014800D02*
X0023894Y0014194D01*
X0031225Y0014775D02*
X0031817Y0014182D01*
X0022000Y0014800D02*
X0021040Y0013840D01*
X0033000Y0014800D02*
X0032040Y0013840D01*
X0037037Y0013337D02*
X0034986Y0011286D01*
X0028305Y0011805D02*
X0028165D01*
X0042307Y0000693D02*
X0042850Y0000150D01*
X0041988Y0000512D02*
X0042350Y0000150D01*
X0048057Y0001357D02*
X0046850Y0000150D01*
X0038210Y0000510D02*
X0037850Y0000150D01*
X0040865Y0000665D02*
X0040350Y0000150D01*
X0038755Y0000555D02*
X0038350Y0000150D01*
X0048767Y0010567D02*
X0047390Y0009190D01*
X0051500Y0014800D02*
X0051261Y0014561D01*
X0048171Y0005329D02*
X0049142Y0004358D01*
X0049927Y0005727D02*
X0049558Y0005358D01*
X0044745Y0000755D02*
X0045350Y0000150D01*
X0037865Y0000665D02*
X0037350Y0000150D01*
X0047657Y0007457D02*
X0046827Y0006627D01*
X0001805Y0005105D02*
X0001000Y0004300D01*
X0056000Y0014800D02*
X0055782Y0014582D01*
X0045096Y0008904D02*
X0045860Y0008140D01*
X0046360Y0004160D02*
X0046332Y0004132D01*
X0047353Y0003147D02*
X0047720Y0002780D01*
X0047345Y0005655D02*
X0048642Y0004358D01*
X0051109Y0004322D02*
X0051071Y0004284D01*
X0050558Y0005358D02*
X0050238Y0005038D01*
X0045360Y0010160D02*
X0045129Y0009929D01*
X0044365Y0010640D02*
Y0010576D01*
X0045390Y0009190D02*
X0045087Y0008887D01*
X0052433Y0010067D02*
X0053373Y0009127D01*
X0045267Y0010567D02*
X0044957Y0010257D01*
X0045142Y0009858D02*
X0045423Y0009577D01*
X0054300Y0007430D02*
X0053981D01*
X0044080Y0009465D02*
Y0009452D01*
X0041228Y0006028D02*
X0040558Y0005358D01*
X0040807Y0000693D02*
X0041350Y0000150D01*
X0045515Y0009815D02*
X0045061Y0009361D01*
X0044667Y0008333D02*
X0045715Y0007285D01*
X0044510Y0008310D02*
X0044365Y0008165D01*
X0049142Y0004358D02*
X0049570Y0003930D01*
X0046135Y0009865D02*
X0046433Y0009567D01*
X0034596Y0003396D02*
X0034116Y0002916D01*
X0048698Y0005802D02*
X0049777Y0004722D01*
X0047267Y0010567D02*
X0047044Y0010344D01*
X0055880Y0007465D02*
Y0007357D01*
X0046140Y0007440D02*
X0046132Y0007432D01*
X0038145Y0002855D02*
X0040012Y0000988D01*
X0056700Y0014800D02*
X0057642Y0013858D01*
X0040725Y0014775D02*
X0045360Y0010140D01*
X0043085Y0008385D02*
X0041780Y0007080D01*
X0040348Y0013152D02*
X0043085Y0010415D01*
X0039725Y0014775D02*
X0043515Y0010985D01*
X0040225Y0014775D02*
X0044015Y0010985D01*
X0053200Y0014800D02*
X0054839Y0013161D01*
X0048500Y0014800D02*
X0044364Y0010664D01*
X0040500Y0014800D02*
X0039700Y0014000D01*
X0039179Y0013479D02*
X0038437Y0012737D01*
X0040354Y0013154D02*
X0040338Y0013138D01*
X0038725Y0014775D02*
X0039503Y0013997D01*
X0041000Y0014800D02*
X0040210Y0014010D01*
X0037262Y0013062D02*
X0037233Y0013033D01*
X0037225Y0014775D02*
X0037990Y0014009D01*
X0038449Y0013550D02*
X0039203Y0012797D01*
X0035390Y0010610D02*
X0036433Y0009567D01*
X0035725Y0014775D02*
X0036972Y0013528D01*
X0038660Y0010960D02*
X0038267Y0010567D01*
X0043500Y0014800D02*
X0040540Y0011840D01*
X0039000Y0014800D02*
X0038177Y0013977D01*
X0039500Y0014800D02*
X0038422Y0013722D01*
X0018827Y0008173D02*
X0020510Y0006490D01*
X0053168Y0002968D02*
X0053121Y0002921D01*
X0032640Y0012388D02*
X0032760Y0012267D01*
X0041500Y0014800D02*
X0040550Y0013850D01*
X0039225Y0014775D02*
X0040029Y0013971D01*
X0048035Y0007465D02*
X0048855Y0006645D01*
X0041780Y0008720D02*
X0042768Y0007732D01*
X0044767Y0010567D02*
X0044748Y0010548D01*
X0048642Y0004358D02*
X0049323Y0003677D01*
X0052221Y0003150D02*
X0051543D01*
X0047558Y0005358D02*
X0047454Y0005254D01*
X0051543Y0003150D02*
X0051287Y0002894D01*
X0047200Y0014800D02*
X0047225Y0014775D01*
X0025473Y0014027D02*
X0025660Y0013840D01*
X0036145Y0002855D02*
X0037395Y0001604D01*
X0037145Y0002855D02*
X0037861Y0002138D01*
X0037645Y0002855D02*
X0038397Y0002102D01*
X0039555Y0002855D02*
X0038786Y0002086D01*
X0026588Y0011412D02*
X0027114Y0010885D01*
X0042446Y0002746D02*
X0041786Y0002086D01*
X0035454Y0014046D02*
X0036985Y0012514D01*
X0037007Y0012807D02*
X0035236Y0011036D01*
X0041645Y0002855D02*
X0042361Y0002138D01*
X0032500Y0014800D02*
X0031857Y0014157D01*
X0042336Y0002855D02*
X0044318Y0000874D01*
X0040000Y0014800D02*
X0038218Y0013018D01*
X0042946Y0002246D02*
X0042671Y0001971D01*
X0030725Y0014775D02*
X0031260Y0014240D01*
X0030225Y0014775D02*
X0030915Y0014085D01*
X0039389Y0013189D02*
X0036767Y0010567D01*
X0052267D02*
X0048345Y0006645D01*
X0049145Y0005855D02*
X0050005Y0004994D01*
X0049406Y0005855D02*
X0048690D01*
X0048817Y0007617D02*
X0047635Y0006435D01*
X0007032Y0003467D02*
X0007055Y0003444D01*
X0006310Y0001110D02*
X0006285Y0001085D01*
X0006732Y0003267D02*
X0006827Y0003172D01*
X0005943Y0003557D02*
X0006093Y0003407D01*
X0007890Y0001110D02*
X0008850Y0000150D01*
X0006766Y0003192D02*
X0006813Y0003145D01*
X0007979Y0003279D02*
X0007845Y0003145D01*
X0005967Y0003267D02*
X0005943Y0003243D01*
X0004760Y0008560D02*
X0002795Y0006595D01*
X0005163Y0009005D02*
X0005113D01*
X0003045Y0011455D02*
X0003057Y0011443D01*
X0000433Y0009567D02*
X0001805Y0008195D01*
X0003058Y0004358D02*
X0002795Y0004095D01*
X0001433Y0009567D02*
X0001805Y0009195D01*
X0002795Y0005205D02*
X0003058Y0004942D01*
X0001000Y0006600D02*
X0000350D01*
Y0006650D02*
X0000400Y0006600D01*
X0002795Y0003705D02*
X0003058Y0003442D01*
X0003829Y0008129D02*
X0002795Y0007095D01*
X0035555Y0002855D02*
X0035124Y0002424D01*
X0001805Y0004034D02*
Y0003565D01*
X0003507Y0002307D02*
X0002850Y0001650D01*
X0000350Y0003900D02*
Y0002546D01*
X0001805Y0009105D02*
X0000350Y0007650D01*
X0007555Y0011855D02*
X0007540Y0011840D01*
X0036500Y0014800D02*
X0035507Y0013807D01*
X0037000Y0014800D02*
X0035489Y0013289D01*
X0003582Y0013417D02*
X0003810Y0013190D01*
X0000933Y0009567D02*
X0001805Y0008695D01*
X0002725Y0014775D02*
X0003279Y0014220D01*
X0035390Y0009610D02*
X0035433Y0009567D01*
X0031942Y0010558D02*
X0032255Y0010245D01*
X0048188Y0002812D02*
X0048220Y0002780D01*
X0048323Y0001176D02*
X0048718Y0000782D01*
X0046882Y0001617D02*
X0048350Y0000150D01*
X0047626Y0003418D02*
X0047382Y0003173D01*
X0048142Y0004358D02*
X0048540Y0003960D01*
X0027361Y0010045D02*
X0027303D01*
X0020088Y0011412D02*
X0020656Y0010844D01*
X0003057Y0012283D02*
Y0012167D01*
X0021260Y0008060D02*
X0019690Y0006490D01*
X0038223Y0011023D02*
X0037767Y0010567D01*
X0020846Y0004905D02*
X0020662D01*
X0009404Y0004596D02*
X0009558Y0004442D01*
X0009125Y0004375D02*
X0009142Y0004358D01*
X0058711Y0010011D02*
X0055969Y0007269D01*
X0048740Y0000540D02*
X0048350Y0000150D01*
X0051287Y0002250D02*
Y0001997D01*
X0033060Y0011440D02*
X0034136Y0010363D01*
X0051320Y0004179D02*
X0051370Y0004130D01*
X0017762Y0013840D02*
X0017638D01*
X0060468Y0005268D02*
X0058230Y0003030D01*
X0040540Y0010960D02*
X0040920Y0010580D01*
X0054215Y0002515D02*
X0054200Y0002500D01*
X0057267Y0010567D02*
X0056530Y0009830D01*
X0058610Y0000910D02*
X0057850Y0000150D01*
X0049364Y0011636D02*
X0051433Y0009567D01*
X0055473Y0013773D02*
X0054932Y0013232D01*
X0060402Y0012702D02*
X0060363Y0012663D01*
X0000407Y0000207D02*
X0000350Y0000150D01*
X0050017Y0013817D02*
X0049332Y0013132D01*
X0049372Y0014127D02*
X0049467Y0014032D01*
X0052370Y0013170D02*
X0052132Y0012932D01*
X0049558Y0005358D02*
X0048188Y0003988D01*
X0050043Y0013343D02*
X0049972Y0013272D01*
X0047340Y0003136D02*
Y0002900D01*
X0050362Y0013162D02*
X0050244Y0013044D01*
X0050307Y0002719D02*
Y0002679D01*
X0049344Y0013155D02*
X0049455Y0013044D01*
X0049144Y0013855D02*
X0049727Y0013272D01*
X0049406Y0006645D02*
X0048344D01*
X0048311Y0007689D02*
X0049355Y0006645D01*
X0054620Y0008042D02*
Y0007332D01*
X0057642Y0013358D02*
X0058279Y0012720D01*
X0045923Y0001723D02*
X0045607Y0001407D01*
X0049593Y0013893D02*
X0049307Y0013607D01*
X0046662Y0001962D02*
X0045632Y0000932D01*
X0050060Y0006860D02*
X0049827Y0006627D01*
X0041780Y0011050D02*
Y0006950D01*
X0050058Y0005358D02*
X0048690Y0003990D01*
X0053500Y0014800D02*
X0053085Y0014385D01*
X0052433Y0009567D02*
X0052827Y0009172D01*
X0054334Y0008329D02*
X0054620Y0008042D01*
X0053431Y0011731D02*
X0053005Y0011305D01*
X0052000Y0014800D02*
X0051385Y0014185D01*
X0038977Y0001522D02*
X0039167Y0001332D01*
X0047218Y0007518D02*
X0046860Y0007160D01*
X0047756Y0009195D02*
X0047450D01*
X0052140Y0012860D02*
X0052433Y0012567D01*
X0050200Y0014800D02*
X0050555Y0014444D01*
X0049767Y0010567D02*
X0048285Y0009085D01*
X0050700Y0014800D02*
X0050827Y0014672D01*
X0039660Y0010960D02*
X0039267Y0010567D01*
X0039192Y0012492D02*
X0038540Y0011840D01*
X0008395Y0002105D02*
X0008510Y0001990D01*
X0051231Y0001769D02*
X0051629Y0001371D01*
X0051287Y0002713D02*
X0051835Y0002165D01*
X0053007Y0003993D02*
X0053335Y0003664D01*
X0028712Y0013840D02*
X0025537D01*
X0023225Y0014775D02*
X0023765Y0014235D01*
X0027725Y0014775D02*
X0028660Y0013840D01*
X0007435Y0011565D02*
X0007812Y0011188D01*
X0054715Y0002015D02*
X0054590Y0001890D01*
X0024210Y0008510D02*
X0022190Y0006490D01*
X0029415Y0008215D02*
X0027690Y0006490D01*
X0047550Y0006445D02*
X0046888D01*
X0011362Y0006490D02*
X0010738D01*
X0011210Y0008510D02*
X0009190Y0006490D01*
X0050307Y0002719D02*
X0050250Y0002662D01*
X0051735Y0004265D02*
X0051870Y0004130D01*
X0046248Y0001751D02*
X0047850Y0000150D01*
X0053586Y0004205D02*
X0053088D01*
X0047355Y0005655D02*
X0047175Y0005475D01*
X0046000Y0014800D02*
X0041780Y0010580D01*
X0035074Y0002926D02*
X0037012Y0000988D01*
X0042433Y0009567D02*
X0043220Y0008780D01*
X0042698Y0006280D02*
X0042450D01*
X0042420Y0007207D02*
Y0007093D01*
X0038433Y0009567D02*
X0040920Y0007080D01*
X0044808Y0007380D02*
X0044228D01*
X0042436Y0006736D02*
X0042087Y0006387D01*
X0051267Y0010567D02*
X0049124Y0008424D01*
X0040160Y0010960D02*
X0039767Y0010567D01*
X0045890Y0007690D02*
X0045570Y0007370D01*
X0011415Y0008215D02*
X0010055Y0006855D01*
X0044080Y0007810D02*
Y0007528D01*
X0047767Y0010567D02*
X0044580Y0007380D01*
X0013018Y0010526D02*
X0012736Y0010245D01*
X0041780Y0010220D02*
X0042433Y0009567D01*
X0044080Y0005420D02*
X0044205Y0005294D01*
X0040591Y0012409D02*
X0041195Y0011805D01*
X0042336Y0002855D02*
X0035300D01*
X0038933Y0009567D02*
X0040920Y0007580D01*
X0046455Y0009755D02*
X0046210Y0009510D01*
X0035287Y0006091D02*
X0035473Y0005904D01*
X0032003Y0008374D02*
X0032877Y0007500D01*
X0047745Y0004255D02*
X0048027Y0003972D01*
X0022462Y0006490D02*
X0018737D01*
X0046683Y0002260D02*
X0046474D01*
X0027310Y0001110D02*
X0026350Y0000150D01*
X0031282Y0000718D02*
X0031850Y0000150D01*
X0025670Y0003829D02*
X0026305Y0003195D01*
X0006855Y0003655D02*
X0006607Y0003407D01*
X0013532Y0003467D02*
X0013555Y0003444D01*
X0021695Y0011805D02*
X0021910Y0011590D01*
X0020407Y0011593D02*
X0020812Y0011188D01*
X0028195Y0011805D02*
X0028410Y0011590D01*
X0032640Y0012388D02*
Y0012205D01*
X0027312Y0011112D02*
X0027074Y0010874D01*
X0029262Y0008510D02*
X0025538D01*
X0019460D02*
X0019038D01*
X0010372Y0008127D02*
X0011640Y0006860D01*
X0033364Y0011664D02*
X0032886Y0011186D01*
X0005329Y0008129D02*
X0004027Y0006827D01*
X0006032Y0008468D02*
X0008010Y0006490D01*
X0031329Y0008129D02*
X0030007Y0006807D01*
X0021225Y0014775D02*
X0022160Y0013840D01*
X0028200Y0014800D02*
X0028225Y0014775D01*
X0013500Y0014800D02*
X0012540Y0013840D01*
X0010225Y0014775D02*
X0010765Y0014235D01*
X0009212Y0013840D02*
X0006038D01*
X0009212D02*
X0006038D01*
X0003225Y0014775D02*
X0003762Y0014238D01*
X0004812Y0013840D02*
X0004782D01*
X0004512Y0014110D02*
X0004782Y0013840D01*
X0032673Y0011473D02*
X0032640Y0011440D01*
X0032250Y0013840D02*
X0032038D01*
X0001000Y0003900D02*
X0000350D01*
X0022040Y0003410D02*
X0021755D01*
X0019310Y0001110D02*
X0019285Y0001085D01*
X0038243Y0012257D02*
X0038660Y0011840D01*
X0019820Y0003145D02*
X0019715D01*
X0019855Y0003655D02*
X0019557Y0003357D01*
X0056738Y0010262D02*
X0057642Y0009358D01*
X0041933Y0009567D02*
X0043085Y0008415D01*
X0042620Y0005420D02*
X0042558Y0005358D01*
X0043149Y0007949D02*
X0042932Y0007732D01*
X0005827Y0008173D02*
X0007510Y0006490D01*
X0025762Y0011562D02*
X0025442Y0011242D01*
X0012736Y0010245D02*
X0012442D01*
X0025000Y0014800D02*
X0024122Y0013922D01*
X0012442Y0011058D02*
X0012996Y0010504D01*
X0012442Y0010558D02*
X0012746Y0010254D01*
X0014390Y0001110D02*
X0015350Y0000150D01*
X0014495Y0003410D02*
X0014003D01*
X0012810Y0001110D02*
X0012785Y0001085D01*
X0014310Y0001110D02*
X0013350Y0000150D01*
X0053931Y0011231D02*
X0053267Y0010567D01*
X0056315Y0014115D02*
X0055407Y0013207D01*
X0055268Y0014068D02*
X0054394Y0013194D01*
X0052700Y0014800D02*
X0053540Y0013960D01*
X0056005Y0012532D02*
X0056416Y0012121D01*
X0058305Y0014105D02*
X0056369Y0012169D01*
X0054810Y0013690D02*
X0055215Y0013285D01*
X0054767Y0013067D02*
X0054644Y0012944D01*
X0055120Y0010842D02*
Y0008617D01*
X0057082Y0010917D02*
X0057642Y0010358D01*
X0059211Y0006788D02*
X0060490Y0005510D01*
X0056330Y0008611D02*
Y0008122D01*
X0055880Y0007357D02*
X0055966Y0007271D01*
X0058767Y0010567D02*
X0056330Y0008130D01*
X0056530Y0009970D02*
X0057642Y0008858D01*
X0049489Y0008010D02*
X0050273Y0007227D01*
X0048933Y0009567D02*
X0050355Y0008144D01*
X0050370Y0007728D02*
Y0007400D01*
X0051087Y0005675D02*
X0051011Y0005598D01*
X0048433Y0009567D02*
X0050370Y0007630D01*
X0050335Y0013165D02*
X0050527Y0012972D01*
X0051520Y0007970D02*
X0051472D01*
X0049570Y0003870D02*
X0049420Y0003720D01*
X0056917Y0001217D02*
X0055850Y0000150D01*
X0056822Y0001177D02*
X0057850Y0000150D01*
X0058230Y0003270D02*
X0061350Y0000150D01*
X0049340Y0007660D02*
X0050068Y0006932D01*
X0049762Y0004562D02*
X0049035Y0003835D01*
X0054423Y0013723D02*
X0054144Y0013444D01*
X0050367Y0008167D02*
X0048845Y0006645D01*
X0052227Y0004130D02*
X0051340D01*
X0054995Y0004020D02*
Y0003894D01*
X0055220Y0004020D02*
X0055022Y0003822D01*
X0027545Y0003410D02*
X0027003D01*
X0026334Y0003195D02*
X0026194D01*
X0023812Y0001110D02*
X0023737D01*
X0026810D02*
X0025850Y0000150D01*
X0008990Y0011590D02*
X0008503D01*
X0006725Y0014775D02*
X0007660Y0013840D01*
X0006422Y0011577D02*
X0006905Y0011094D01*
X0053586Y0004205D02*
X0053611Y0004180D01*
X0053295Y0004205D02*
X0053518Y0003982D01*
X0040027Y0000827D02*
X0039350Y0000150D01*
X0051446Y0003053D02*
X0052050Y0002450D01*
X0055530Y0002470D02*
X0056277Y0001722D01*
X0050585Y0005415D02*
X0050706Y0005294D01*
X0010644Y0008355D02*
X0012510Y0006490D01*
X0054994Y0003505D02*
X0055453Y0003047D01*
X0059018Y0001481D02*
X0060350Y0000150D01*
X0055045Y0003200D02*
Y0003138D01*
X0012442Y0011744D02*
Y0010245D01*
X0007090Y0011410D02*
X0007639Y0010861D01*
X0007820Y0010895D02*
X0007800D01*
X0007893Y0011693D02*
X0007294Y0011094D01*
X0003155Y0009455D02*
X0002795Y0009095D01*
X0003058Y0005192D02*
Y0003165D01*
X0005942Y0011058D02*
X0006496Y0010504D01*
X0014495Y0003410D02*
X0014003D01*
X0013810Y0001110D02*
X0012850Y0000150D01*
X0015559Y0004359D02*
X0015490Y0004290D01*
X0013355Y0003655D02*
X0013057Y0003357D01*
X0012443Y0003557D02*
X0012605Y0003394D01*
X0008956Y0002105D02*
X0006544D01*
X0005943Y0002883D02*
Y0002666D01*
X0007610Y0003410D02*
X0007561Y0003361D01*
X0006805Y0002105D02*
X0006690Y0001990D01*
X0008895Y0002105D02*
X0009010Y0001990D01*
X0007310Y0001110D02*
X0006350Y0000150D01*
X0009059Y0004359D02*
X0008990Y0004290D01*
X0005558Y0007358D02*
X0004690Y0006490D01*
X0028540Y0011590D02*
X0028003D01*
X0027195Y0011805D02*
X0027493Y0011507D01*
X0031000Y0014800D02*
X0030394Y0014194D01*
X0020505Y0011805D02*
X0020485Y0011785D01*
X0019725Y0014775D02*
X0020660Y0013840D01*
X0019422Y0011577D02*
X0020012Y0010988D01*
X0028390Y0001110D02*
X0029350Y0000150D01*
X0029029Y0004471D02*
X0029058Y0004442D01*
X0028750Y0004290D02*
X0028310D01*
X0028540Y0003410D02*
X0028255D01*
X0027090D02*
X0027305Y0003195D01*
X0025443Y0003557D02*
X0025605Y0003394D01*
X0015540Y0011590D02*
X0015003D01*
X0028305Y0010105D02*
Y0010045D01*
X0015305Y0011805D02*
X0015165D01*
X0014005D02*
X0013985Y0011785D01*
X0012922Y0011577D02*
X0013512Y0010988D01*
X0012762Y0011562D02*
X0012442Y0011242D01*
X0014500Y0014800D02*
X0013540Y0013840D01*
X0021045Y0003410D02*
X0020503D01*
X0020310Y0001110D02*
X0019350Y0000150D01*
X0018943Y0003557D02*
X0019105Y0003394D01*
X0051111Y0000889D02*
X0051850Y0000150D01*
X0046474Y0002026D02*
X0046717Y0001782D01*
X0050294Y0002706D02*
X0050307Y0002693D01*
X0051287Y0002894D02*
Y0002250D01*
X0049642Y0004358D02*
X0049706Y0004294D01*
X0058695Y0009495D02*
X0056410Y0007210D01*
X0056657Y0005343D02*
X0056910Y0005090D01*
X0048058Y0005358D02*
X0047694Y0004994D01*
X0040920Y0007720D02*
X0038558Y0005358D01*
X0041045Y0006345D02*
X0040058Y0005358D01*
X0061650Y0014450D02*
X0061260Y0014060D01*
X0017490Y0008510D02*
X0019510Y0006490D01*
X0056439Y0013739D02*
X0055927Y0013227D01*
X0058700Y0014800D02*
X0058765Y0014735D01*
X0057000Y0014800D02*
X0056685Y0014485D01*
X0052271Y0009166D02*
X0052536Y0008901D01*
X0060619Y0012881D02*
X0061650Y0011850D01*
X0058577Y0013877D02*
X0056530Y0011830D01*
X0058267Y0010567D02*
X0056740Y0009040D01*
X0053267Y0010567D02*
X0051980Y0009280D01*
X0049682Y0005818D02*
X0050456Y0005044D01*
X0054620Y0007420D02*
X0054542Y0007342D01*
X0057350Y0006330D02*
X0056079D01*
X0058540Y0007340D02*
X0057932Y0006732D01*
X0057642Y0013858D02*
X0058365Y0013135D01*
X0013113Y0006490D02*
X0012238D01*
X0006490Y0008510D02*
X0008510Y0006490D01*
X0013335Y0004905D02*
X0013188D01*
X0002795Y0008205D02*
X0004510Y0006490D01*
X0004190Y0008809D02*
X0006510Y0006490D01*
X0001132Y0005868D02*
X0001805Y0005195D01*
X0004862Y0006490D02*
X0004238D01*
X0009462D02*
X0005737D01*
X0006838Y0004905D02*
X0005943D01*
X0009939Y0008239D02*
X0008190Y0006490D01*
X0006990Y0008510D02*
X0009010Y0006490D01*
X0058199Y0002300D02*
X0058730Y0001770D01*
X0058847Y0007147D02*
X0058227Y0006527D01*
X0057758Y0001241D02*
X0058850Y0000150D01*
X0059558Y0005358D02*
X0058230Y0004030D01*
X0056694Y0003806D02*
X0056770Y0003730D01*
X0059397Y0006697D02*
X0058230Y0005530D01*
X0056535Y0006465D02*
X0056670Y0006330D01*
X0057719Y0001781D02*
X0058159Y0001341D01*
X0055430Y0005570D02*
X0055655Y0005344D01*
X0056866Y0006666D02*
X0056530Y0006330D01*
X0040832Y0010960D02*
X0040650D01*
X0058264Y0001064D02*
X0057350Y0000150D01*
X0050835Y0013665D02*
X0051365Y0013135D01*
X0055558Y0005358D02*
X0055532Y0005332D01*
X0054620Y0007920D02*
X0054130Y0007430D01*
X0051520Y0007970D02*
Y0007831D01*
X0051433Y0009567D02*
X0051720Y0009280D01*
X0003773Y0009073D02*
X0003690Y0008990D01*
X0052330Y0013170D02*
X0052433Y0013067D01*
X0054130Y0013457D02*
X0054711Y0012876D01*
X0054218Y0014018D02*
X0054035Y0013835D01*
X0051372Y0014127D02*
X0051540Y0013960D01*
X0053221Y0013816D02*
X0053301Y0013736D01*
X0052831Y0013131D02*
X0050267Y0010567D01*
X0047386Y0005655D02*
X0047558Y0005484D01*
X0054212Y0009512D02*
X0053827Y0009127D01*
X0061650Y0013450D02*
X0060639Y0012439D01*
X0047700Y0014800D02*
X0048755Y0013744D01*
X0054980Y0010982D02*
Y0008757D01*
X0055081Y0010881D02*
X0054980Y0010780D01*
X0053855Y0010155D02*
X0052885Y0009185D01*
X0056677Y0008823D02*
X0057642Y0007858D01*
X0052931Y0012231D02*
X0051267Y0010567D01*
X0052792Y0013170D02*
X0052848Y0013114D01*
X0052433Y0013067D02*
X0052779Y0012720D01*
X0052820Y0012620D02*
X0050767Y0010567D01*
X0054220Y0009020D02*
X0054032Y0008832D01*
X0055705Y0005505D02*
X0055558Y0005358D01*
X0054220Y0009511D02*
Y0008600D01*
X0052433Y0010567D02*
X0054220Y0008780D01*
X0055120Y0008920D02*
X0054980Y0008780D01*
X0055120Y0009920D02*
X0054980Y0009780D01*
X0052897Y0010603D02*
X0054220Y0009280D01*
X0055120Y0009420D02*
X0054980Y0009280D01*
X0054431Y0008231D02*
X0054270Y0008070D01*
X0054227Y0008527D02*
X0054185Y0008485D01*
X0042150Y0005450D02*
X0042058Y0005358D01*
X0003860Y0008140D02*
X0005145Y0006855D01*
X0006820Y0004105D02*
X0006715D01*
X0006073Y0003873D02*
X0005943Y0003743D01*
Y0003993D02*
Y0003216D01*
X0054135Y0007865D02*
X0054620Y0007380D01*
X0007590Y0003410D02*
X0007855Y0003145D01*
X0056330Y0008170D02*
X0057056Y0007444D01*
X0009558Y0004705D02*
Y0004238D01*
X0009513Y0004705D02*
X0009282Y0004473D01*
X0006834Y0004895D02*
X0006550D01*
X0049340Y0001160D02*
X0049405Y0001095D01*
X0051799Y0002099D02*
X0051157Y0001457D01*
X0005943Y0004905D02*
Y0004507D01*
X0006605Y0004905D02*
X0006595Y0004895D01*
X0013317Y0004845D02*
X0013195D01*
X0006595Y0004905D02*
X0006605Y0004895D01*
X0033560Y0005188D02*
X0033489Y0005117D01*
X0057642Y0008358D02*
X0058260Y0007740D01*
X0034250Y0006590D02*
X0033950D01*
X0052344Y0013930D02*
X0051922D01*
X0060700Y0014800D02*
X0061650Y0013850D01*
X0052310Y0014110D02*
X0052130Y0013930D01*
X0051260Y0013560D02*
X0050988Y0013288D01*
X0051700Y0014800D02*
X0052318Y0014182D01*
X0001805Y0009605D02*
X0000350Y0008150D01*
X0052820Y0012628D02*
Y0012500D01*
X0057192Y0005570D02*
X0056820D01*
X0056032Y0007468D02*
X0056260Y0007240D01*
X0056090Y0006390D02*
X0056080Y0006380D01*
X0054980Y0009520D02*
X0055120Y0009380D01*
X0056120Y0006379D02*
X0056170Y0006330D01*
X0054290Y0008210D02*
X0054620Y0007880D01*
X0009350Y0004290D02*
X0008810D01*
X0056465Y0005265D02*
X0056272Y0005072D01*
X0057304Y0006604D02*
X0057030Y0006330D01*
X0054010Y0007490D02*
X0054070Y0007430D01*
X0034423Y0003568D02*
X0035018Y0002974D01*
X0041145Y0002855D02*
X0042001Y0001998D01*
X0039332Y0001167D02*
X0040350Y0000150D01*
X0044955Y0000755D02*
X0044350Y0000150D01*
X0045056Y0001545D02*
X0044763D01*
X0048781Y0011081D02*
X0048267Y0010567D01*
X0048360Y0008640D02*
X0048719Y0008281D01*
X0048359Y0008141D02*
X0048625Y0007874D01*
X0047225Y0014775D02*
X0048527Y0013472D01*
X0044944Y0002055D02*
X0045467Y0001532D01*
X0045653Y0001953D02*
X0045288Y0001588D01*
X0052200Y0014800D02*
X0052433Y0014567D01*
X0047168Y0009076D02*
X0046873Y0008782D01*
X0049267Y0010567D02*
X0047940Y0009240D01*
X0047433Y0009567D02*
X0047790Y0009210D01*
X0051000Y0014800D02*
X0050885Y0014685D01*
X0046933Y0009567D02*
X0047325Y0009175D01*
X0047672Y0001327D02*
X0048850Y0000150D01*
X0043080Y0005420D02*
X0043310Y0005190D01*
X0048860Y0001160D02*
X0047850Y0000150D01*
X0038058Y0005358D02*
X0037890Y0005190D01*
X0050310Y0000190D02*
X0050350Y0000150D01*
X0052283D02*
X0050292D01*
X0049462Y0000305D02*
X0049344D01*
X0049605Y0001095D02*
X0049344D01*
X0048367Y0001167D02*
X0047350Y0000150D01*
X0049468Y0000268D02*
X0049350Y0000150D01*
X0034846Y0003146D02*
X0034527Y0002827D01*
X0048990Y0000290D02*
X0048850Y0000150D01*
X0044712Y0002012D02*
X0044504Y0001804D01*
X0048992Y0002780D02*
X0047323D01*
X0043946Y0001246D02*
X0042850Y0000150D01*
X0055500Y0014800D02*
X0055027Y0014327D01*
X0032522Y0001977D02*
X0032573Y0001927D01*
X0053119Y0010881D02*
X0053855Y0010144D01*
X0055120Y0010420D02*
X0054980Y0010280D01*
X0022040Y0011590D02*
X0021503D01*
X0056698Y0006998D02*
X0056660Y0006960D01*
X0019262Y0011562D02*
X0018942Y0011242D01*
X0012573Y0003873D02*
X0012443Y0003743D01*
X0052433Y0012567D02*
X0054212Y0010788D01*
X0040300Y0012199D02*
X0040660Y0011840D01*
X0040920Y0010872D02*
Y0006950D01*
X0021045Y0003410D02*
X0020503D01*
X0022040D02*
X0021755D01*
X0028710Y0008510D02*
X0026690Y0006490D01*
X0030862D02*
X0030188D01*
X0040645Y0002855D02*
X0041397Y0002102D01*
X0045168Y0001968D02*
X0044754Y0001554D01*
X0041555Y0002855D02*
X0040840Y0002140D01*
X0038555Y0002855D02*
X0037840Y0002140D01*
X0035106Y0002906D02*
X0034857Y0002657D01*
X0036740Y0005432D02*
X0036982Y0005190D01*
X0034460Y0006918D02*
Y0006536D01*
X0036740Y0006260D02*
X0037810Y0005190D01*
X0034318Y0007060D02*
X0034460Y0006918D01*
X0029829Y0008129D02*
X0028190Y0006490D01*
X0027210Y0008510D02*
X0025232Y0006532D01*
X0025532Y0008468D02*
X0027510Y0006490D01*
X0030762Y0008510D02*
X0030138D01*
X0032877Y0007500D02*
X0031871Y0006490D01*
X0032003Y0008374D02*
X0032877Y0007500D01*
X0041776Y0005576D02*
X0041558Y0005358D01*
X0044365Y0008135D02*
X0045085Y0007415D01*
X0041473Y0005773D02*
X0041058Y0005358D01*
X0043085Y0010385D02*
X0041780Y0009080D01*
X0044164Y0007836D02*
X0044620Y0007380D01*
X0015490Y0008510D02*
X0017510Y0006490D01*
X0017762Y0008510D02*
X0017138D01*
X0022710D02*
X0022088Y0007888D01*
X0017210Y0008510D02*
X0017120Y0008420D01*
X0030210Y0008510D02*
X0030120Y0008420D01*
X0023710Y0008510D02*
X0023620Y0008420D01*
X0020490Y0008510D02*
X0021155Y0007844D01*
X0019236Y0010245D02*
X0018942D01*
X0000523Y0012323D02*
X0000350Y0012150D01*
X0012532Y0008468D02*
X0012867Y0008133D01*
X0016210Y0008510D02*
X0015690Y0007990D01*
X0008819Y0010045D02*
X0008645D01*
X0009812Y0008510D02*
X0006038D01*
X0007210D02*
X0005558Y0006858D01*
X0003068Y0013368D02*
X0002890Y0013190D01*
X0004214Y0005610D02*
X0003400D01*
X0007490Y0008510D02*
X0009469Y0006531D01*
X0003058Y0002335D02*
Y0002307D01*
X0026085Y0003915D02*
X0026367Y0003632D01*
X0020973Y0006773D02*
X0020690Y0006490D01*
X0031360Y0008140D02*
X0032439Y0007060D01*
X0027710Y0008510D02*
X0025690Y0006490D01*
X0042696Y0002496D02*
X0042340Y0002140D01*
X0044556Y0002055D02*
X0044253D01*
X0044445D02*
X0044955Y0001545D01*
X0057642Y0006858D02*
X0057768Y0006732D01*
X0035211Y0005989D02*
X0035127Y0005904D01*
X0031942Y0010886D02*
X0032583Y0010245D01*
X0012327Y0008173D02*
X0012750Y0007750D01*
X0028645Y0004355D02*
X0028710Y0004290D01*
X0024262Y0008510D02*
X0023638D01*
X0030915Y0008215D02*
X0029560Y0006860D01*
X0027490Y0008510D02*
X0029173Y0006827D01*
X0030110Y0008390D02*
X0031940Y0006559D01*
X0033317Y0011710D02*
X0034510Y0010518D01*
X0014296Y0004905D02*
X0014158D01*
X0012670Y0003829D02*
X0013327Y0003172D01*
X0012443Y0003993D02*
Y0003257D01*
X0009558Y0004705D02*
X0009513D01*
X0015800Y0004290D02*
X0015310D01*
X0015642Y0004358D02*
X0015710Y0004290D01*
X0016058Y0004705D02*
Y0004206D01*
X0015904Y0004596D02*
X0016058Y0004442D01*
X0019032Y0008468D02*
X0021010Y0006490D01*
X0015500Y0004355D02*
X0015329D01*
X0014296Y0004905D02*
X0014236Y0004845D01*
X0015625Y0004375D02*
X0015642Y0004358D01*
X0019820Y0004845D02*
X0019695D01*
X0019838Y0004905D02*
X0019691D01*
X0024860Y0008140D02*
X0026510Y0006490D01*
X0024362D02*
X0023738D01*
X0021990Y0008510D02*
X0024010Y0006490D01*
X0057500Y0014800D02*
X0057061Y0014361D01*
X0028962Y0006490D02*
X0025238D01*
X0003560Y0009455D02*
X0003000D01*
X0025327Y0008173D02*
X0027010Y0006490D01*
X0019210Y0008510D02*
X0017232Y0006532D01*
X0058000Y0014800D02*
X0057185Y0013985D01*
X0019225Y0014775D02*
X0020160Y0013840D01*
X0042593Y0006393D02*
X0042480Y0006280D01*
X0024415Y0008215D02*
X0023055Y0006855D01*
X0041780Y0007220D02*
X0042557Y0006442D01*
X0042418Y0007218D02*
X0041850Y0006650D01*
X0009490Y0008510D02*
X0011390Y0006610D01*
X0015443Y0006557D02*
X0015510Y0006490D01*
X0043220Y0010086D02*
Y0008724D01*
X0043620Y0005420D02*
X0043558Y0005358D01*
X0040040Y0010960D02*
X0040920Y0010080D01*
X0041780Y0007720D02*
X0042418Y0007082D01*
X0044080Y0007528D02*
X0044228Y0007380D01*
X0055700Y0014800D02*
X0056327Y0014172D01*
X0055000Y0014800D02*
X0054732Y0014532D01*
X0057570Y0006929D02*
X0057642Y0006858D01*
X0021268Y0006568D02*
X0021190Y0006490D01*
X0020955Y0007255D02*
X0020190Y0006490D01*
X0021765Y0006565D02*
X0021690Y0006490D01*
X0050288Y0014212D02*
X0050465Y0014035D01*
X0051015Y0013815D02*
X0050838Y0013638D01*
X0058200Y0014800D02*
X0058389Y0014611D01*
X0049632Y0013867D02*
X0049965Y0013535D01*
X0040660Y0010960D02*
X0040267Y0010567D01*
X0044000Y0014800D02*
X0041038Y0011838D01*
X0044500Y0014800D02*
X0041412Y0011712D01*
X0039040Y0010960D02*
X0040433Y0009567D01*
X0041780Y0009720D02*
X0041933Y0009567D01*
X0040920Y0007220D02*
X0039058Y0005358D01*
X0039433Y0009567D02*
X0040920Y0008080D01*
X0043220Y0009520D02*
X0041780Y0008080D01*
X0040832Y0010960D02*
X0040920Y0010872D01*
X0041780Y0010720D02*
X0042933Y0009567D01*
X0040650Y0011840D02*
X0038450D01*
X0041780Y0008220D02*
X0042473Y0007527D01*
X0040433Y0009567D02*
X0040920Y0009080D01*
X0043220Y0010020D02*
X0041780Y0008580D01*
X0040920Y0009720D02*
X0036740Y0005540D01*
X0043220Y0007876D02*
Y0007538D01*
X0042055Y0002855D02*
X0041171Y0001971D01*
X0047386Y0005655D02*
X0046988D01*
X0041852Y0006648D02*
X0042148Y0006352D01*
X0054980Y0009020D02*
X0055120Y0008880D01*
X0039933Y0009567D02*
X0040920Y0008580D01*
X0052433Y0014567D02*
X0052523Y0014477D01*
X0047549Y0007451D02*
X0048355Y0006645D01*
X0050933Y0009567D02*
X0051177Y0009322D01*
X0052000Y0009280D02*
X0051522D01*
X0053518Y0003818D02*
X0053379Y0003679D01*
X0051933Y0009567D02*
X0052555Y0008944D01*
X0050433Y0009567D02*
X0050905Y0009094D01*
X0053767Y0010567D02*
X0052319Y0009119D01*
X0049933Y0009567D02*
X0050623Y0008877D01*
X0032285Y0001215D02*
X0032546Y0000954D01*
X0032732Y0002767D02*
X0032975Y0002524D01*
X0032540Y0002153D02*
Y0002100D01*
X0049232Y0000268D02*
X0049350Y0000150D01*
X0034061Y0003439D02*
X0034817Y0002683D01*
X0034311Y0003689D02*
X0034052Y0003429D01*
X0034356Y0003656D02*
X0034072Y0003372D01*
X0034318Y0007060D02*
X0034460Y0006918D01*
X0033560Y0005188D02*
Y0005059D01*
X0038267Y0010567D02*
X0035477Y0007777D01*
X0041558Y0005358D02*
X0041390Y0005190D01*
X0034318Y0007060D02*
X0034031D01*
X0035390Y0008610D02*
X0038810Y0005190D01*
X0042500Y0014800D02*
X0040575Y0012875D01*
X0039777Y0012223D02*
X0040160Y0011840D01*
X0042267Y0010567D02*
X0041780Y0010080D01*
X0043696Y0001496D02*
X0042350Y0000150D01*
X0045640Y0008940D02*
X0044154Y0007454D01*
X0049433Y0009567D02*
X0050627Y0008372D01*
X0049058Y0005358D02*
X0047745Y0004045D01*
X0046468Y0004160D02*
X0046523Y0004105D01*
X0040555Y0002855D02*
X0039072Y0001372D01*
X0043220Y0009020D02*
X0041780Y0007580D01*
X0041225Y0014775D02*
X0045515Y0010485D01*
X0046340Y0004160D02*
X0046379Y0004120D01*
X0039645Y0002855D02*
X0040501Y0001998D01*
X0042225Y0014775D02*
X0046455Y0010544D01*
X0041755Y0000555D02*
X0041350Y0000150D01*
X0046433Y0009567D02*
X0047046Y0008954D01*
X0041000Y0011840D02*
X0040650D01*
X0046267Y0010567D02*
X0046135Y0010435D01*
X0017788Y0000712D02*
X0018350Y0000150D01*
X0048616Y0007916D02*
X0047145Y0006445D01*
X0046027Y0008973D02*
X0046429Y0008570D01*
X0048561Y0005439D02*
X0049642Y0004358D01*
X0046785Y0006715D02*
X0047055Y0006445D01*
X0047050Y0005495D02*
X0046979D01*
X0049055Y0005855D02*
X0048558Y0005358D01*
X0051144Y0013855D02*
X0051290Y0013710D01*
X0047085Y0007415D02*
X0047893Y0006607D01*
X0047627Y0005427D02*
X0047558Y0005358D01*
X0049129Y0003429D02*
X0049120Y0003420D01*
X0056300Y0005030D02*
X0056282D01*
X0059081Y0006881D02*
X0058230Y0006030D01*
X0053893Y0009693D02*
X0053261Y0009061D01*
X0056879Y0004121D02*
X0056906Y0004094D01*
X0054980Y0010982D02*
X0055120Y0010842D01*
X0056382Y0008618D02*
X0057642Y0007358D01*
X0056499Y0009500D02*
X0057642Y0008358D01*
X0056327Y0007673D02*
X0056761Y0007238D01*
X0050838Y0000662D02*
X0051350Y0000150D01*
X0008890Y0001110D02*
X0009850Y0000150D01*
X0002979Y0001279D02*
X0002850Y0001150D01*
X0006432Y0002068D02*
X0006510Y0001990D01*
X0012039Y0000839D02*
X0011350Y0000150D01*
X0011473Y0000773D02*
X0010850Y0000150D01*
X0004193Y0002307D02*
X0004510Y0001990D01*
X0005973Y0002273D02*
X0005690Y0001990D01*
X0021890Y0001110D02*
X0022850Y0000150D01*
X0006585Y0003915D02*
X0006867Y0003632D01*
X0018282Y0000718D02*
X0018850Y0000150D01*
X0009310Y0001110D02*
X0008350Y0000150D01*
X0015540Y0003410D02*
X0015205D01*
X0013310Y0001110D02*
X0012350Y0000150D01*
X0035645Y0002855D02*
X0037193Y0001307D01*
X0032890Y0003110D02*
X0033267Y0002733D01*
X0028810Y0001110D02*
X0027850Y0000150D01*
X0032311Y0001689D02*
X0032483Y0001516D01*
X0033233Y0003110D02*
X0032776D01*
X0023610Y0008390D02*
X0025510Y0006490D01*
X0029045Y0001110D02*
X0025788D01*
X0028750Y0004355D02*
X0028329D01*
X0037903Y0012203D02*
X0036267Y0010567D01*
X0035767D02*
X0035390Y0010190D01*
X0035225Y0014775D02*
X0037079Y0012920D01*
X0032583Y0010245D02*
X0031942D01*
X0032640Y0012360D02*
X0032740Y0012260D01*
X0051629Y0001429D02*
X0051182Y0000982D01*
X0032640Y0011495D02*
Y0011432D01*
X0009000Y0014800D02*
X0008040Y0013840D01*
X0028305Y0010105D02*
X0028165D01*
X0028305D02*
X0028245Y0010045D01*
X0043700Y0014800D02*
X0043725Y0014775D01*
X0023725D02*
X0024415Y0014085D01*
X0027320Y0010895D02*
X0027200D01*
X0019518Y0010526D02*
X0019236Y0010245D01*
X0009225Y0014775D02*
X0009779Y0014220D01*
X0008725Y0014775D02*
X0009365Y0014135D01*
X0054980Y0010020D02*
X0055120Y0009880D01*
X0021805Y0011805D02*
X0021665D01*
X0028712Y0013840D02*
X0025537D01*
X0025725Y0014775D02*
X0026660Y0013840D01*
X0026907Y0011593D02*
X0027312Y0011188D01*
X0024312Y0013840D02*
X0024138D01*
X0013907Y0011593D02*
X0014312Y0011188D01*
X0013000Y0014800D02*
X0012121Y0013921D01*
X0018000Y0014800D02*
X0017394Y0014194D01*
X0015307Y0010105D02*
X0015172D01*
X0036200Y0014800D02*
X0036225Y0014775D01*
X0030490Y0008510D02*
X0032190Y0006810D01*
X0020695Y0011805D02*
X0020993Y0011507D01*
X0029860Y0008140D02*
X0031140Y0006860D01*
X0004188Y0013190D02*
X0002815D01*
X0008734Y0011855D02*
X0008679D01*
X0017635Y0013865D02*
X0017660Y0013840D01*
X0013725Y0014775D02*
X0014660Y0013840D01*
X0015195Y0011805D02*
X0015410Y0011590D01*
X0012225Y0014775D02*
X0013160Y0013840D01*
X0003058Y0003858D02*
X0002795Y0003595D01*
X0003057Y0011357D02*
X0003045Y0011345D01*
X0001805Y0009810D02*
Y0004865D01*
X0000829Y0012171D02*
X0001514Y0011486D01*
X0003045Y0011806D02*
Y0011150D01*
X0000350Y0014800D02*
Y0014746D01*
X0003979Y0013398D02*
X0004188Y0013190D01*
X0001591Y0011563D02*
X0001490Y0011462D01*
X0036000Y0014800D02*
X0035398Y0014198D01*
X0008990Y0011590D02*
X0008503D01*
X0046468Y0004160D02*
X0046267D01*
X0046970Y0005529D02*
X0047005Y0005495D01*
X0048558Y0005358D02*
X0047745Y0004545D01*
X0044058Y0005358D02*
X0043868Y0005168D01*
X0043558Y0005358D02*
X0043390Y0005190D01*
X0043058Y0005358D02*
X0042890Y0005190D01*
X0042558Y0005358D02*
X0042390Y0005190D01*
X0044412Y0004160D02*
X0044432Y0004140D01*
X0045213Y0005040D02*
X0045098D01*
X0040058Y0005358D02*
X0039890Y0005190D01*
X0042058Y0005358D02*
X0041890Y0005190D01*
X0043580Y0005420D02*
X0043819Y0005181D01*
X0044164Y0005040D02*
X0044062D01*
X0040267Y0010567D02*
X0036486Y0006786D01*
X0043730Y0005190D02*
X0036982D01*
X0041058Y0005358D02*
X0040890Y0005190D01*
X0038767Y0010567D02*
X0035736Y0007536D01*
X0035390Y0008110D02*
X0038310Y0005190D01*
X0037058Y0005358D02*
X0036936Y0005236D01*
X0022055Y0004355D02*
X0021990Y0004290D01*
X0021432Y0006568D02*
X0021510Y0006490D01*
X0038018Y0011318D02*
X0037267Y0010567D01*
X0056815Y0013615D02*
X0056132Y0012932D01*
X0020390Y0001110D02*
X0021350Y0000150D01*
X0026890Y0001110D02*
X0027850Y0000150D01*
X0027246Y0004905D02*
X0027162D01*
X0026532Y0003467D02*
X0026555Y0003444D01*
X0045607Y0000893D02*
X0046350Y0000150D01*
X0014110Y0003410D02*
X0014061Y0003361D01*
X0016058Y0004358D02*
X0015960Y0004260D01*
X0030710Y0008510D02*
X0028690Y0006490D01*
X0025810Y0001110D02*
X0025785Y0001085D01*
X0021390Y0001110D02*
X0022350Y0000150D01*
X0040493Y0012293D02*
X0040040Y0011840D01*
X0020032Y0003467D02*
X0020055Y0003444D01*
X0038444Y0012556D02*
X0039160Y0011840D01*
X0013085Y0003915D02*
X0013367Y0003632D01*
X0011860Y0008140D02*
X0012749Y0007250D01*
X0015962Y0006490D02*
X0015387D01*
X0018329Y0008129D02*
X0017027Y0006827D01*
X0006210Y0008510D02*
X0005558Y0007858D01*
X0024829Y0008129D02*
X0023527Y0006827D01*
X0004695Y0008805D02*
X0004790Y0008710D01*
X0004056Y0008856D02*
X0004035Y0008835D01*
X0050623Y0008423D02*
X0050532Y0008332D01*
X0001142Y0004358D02*
X0001805Y0003695D01*
X0006236Y0010245D02*
X0005942D01*
X0003568Y0009368D02*
X0002795Y0008595D01*
X0004750Y0008805D02*
X0004250D01*
X0008805Y0010105D02*
X0008745Y0010045D01*
X0003858Y0009033D02*
X0003968Y0008924D01*
X0008710Y0008510D02*
X0006690Y0006490D01*
X0001805Y0007605D02*
X0000800Y0006600D01*
X0007225Y0014775D02*
X0008160Y0013840D01*
X0003545Y0009455D02*
X0003560Y0009440D01*
X0037433Y0009567D02*
X0041810Y0005190D01*
X0034260Y0007060D02*
X0033932Y0006732D01*
X0036267Y0010567D02*
X0035390Y0009690D01*
X0038558Y0005358D02*
X0038390Y0005190D01*
X0040558Y0005358D02*
X0040390Y0005190D01*
X0040920Y0010220D02*
X0036740Y0006040D01*
X0039558Y0005358D02*
X0039390Y0005190D01*
X0045433Y0004160D02*
X0044412D01*
X0044196Y0000996D02*
X0043350Y0000150D01*
X0047512Y0001312D02*
X0046350Y0000150D01*
X0044840Y0004160D02*
X0044860Y0004140D01*
X0019170Y0003829D02*
X0019827Y0003172D01*
X0019585Y0003915D02*
X0019867Y0003632D01*
X0001667Y0009832D02*
X0001805Y0009695D01*
X0019834Y0004055D02*
X0019694D01*
X0021920Y0006579D02*
X0022010Y0006490D01*
X0016058Y0004705D02*
X0016013D01*
X0020915Y0008215D02*
X0019190Y0006490D01*
X0049655Y0012455D02*
X0049100Y0011900D01*
X0027246Y0004905D02*
X0027186Y0004845D01*
X0020786D02*
X0020679D01*
X0025573Y0003873D02*
X0025443Y0003743D01*
X0026320Y0004845D02*
X0026195D01*
X0022490Y0008510D02*
X0024390Y0006610D01*
X0025443Y0003993D02*
Y0003257D01*
X0026334Y0004055D02*
X0026194D01*
X0029173Y0000473D02*
X0028850Y0000150D01*
X0026338Y0004905D02*
X0026191D01*
X0027990Y0008510D02*
X0029627Y0006872D01*
X0003890Y0005610D02*
X0004308Y0005192D01*
X0005360Y0008140D02*
X0007010Y0006490D01*
X0004362Y0001110D02*
X0004238D01*
X0002795Y0009512D02*
Y0003415D01*
X0006890Y0001110D02*
X0007850Y0000150D01*
X0009756Y0000744D02*
X0010350Y0000150D01*
X0005507Y0002307D02*
X0005190Y0001990D01*
X0007710Y0008510D02*
X0005731Y0006531D01*
X0007805Y0002105D02*
X0007690Y0001990D01*
X0007305Y0002105D02*
X0007190Y0001990D01*
X0004310Y0001110D02*
X0004220Y0001020D01*
X0005943Y0004557D02*
X0005965Y0004535D01*
X0012661Y0000839D02*
X0013350Y0000150D01*
X0003929Y0000729D02*
X0003350Y0000150D01*
X0003193Y0002307D02*
X0003510Y0001990D01*
X0002795Y0006205D02*
X0002960Y0006040D01*
X0005007Y0002307D02*
X0004690Y0001990D01*
X0008805Y0002105D02*
X0008690Y0001990D01*
X0019810Y0001110D02*
X0018850Y0000150D01*
X0016065Y0000865D02*
X0015350Y0000150D01*
X0019161Y0000839D02*
X0019850Y0000150D01*
X0022310Y0001110D02*
X0021350Y0000150D01*
X0030135Y0000865D02*
X0030850Y0000150D01*
X0027390Y0001110D02*
X0028350Y0000150D01*
X0027462Y0003195D02*
X0027165D01*
X0023810Y0001110D02*
X0023717Y0001017D01*
X0022390Y0001110D02*
X0022479Y0001020D01*
X0024782Y0000718D02*
X0025350Y0000150D01*
X0025285Y0000715D02*
X0025850Y0000150D01*
X0032573Y0000873D02*
X0031850Y0000150D01*
X0004007Y0002307D02*
X0003690Y0001990D01*
X0037700Y0012299D02*
X0038223Y0011777D01*
X0037294Y0012205D02*
X0038018Y0011482D01*
X0010283Y0000717D02*
X0010850Y0000150D01*
X0009394Y0002134D02*
X0009538Y0001990D01*
X0045000Y0014800D02*
X0041662Y0011462D01*
X0009377Y0002123D02*
X0009510Y0001990D01*
X0010810Y0001110D02*
X0010717Y0001017D01*
X0050267Y0010567D02*
X0048370Y0008670D01*
X0013390Y0001110D02*
X0014350Y0000150D01*
X0018539Y0000839D02*
X0017850Y0000150D01*
X0051235Y0001265D02*
X0051799Y0000701D01*
X0052254Y0003054D02*
X0051287Y0002087D01*
X0024725Y0014775D02*
X0025333Y0014167D01*
X0049645Y0001160D02*
X0048450D01*
X0059875Y0006625D02*
X0060740Y0005760D01*
X0029810Y0000690D02*
X0030350Y0000150D01*
X0051143Y0001650D02*
X0051053Y0001560D01*
X0051368Y0004168D02*
X0051335Y0004135D01*
X0051287Y0002213D02*
X0051686Y0001814D01*
X0052212Y0004205D02*
X0051950D01*
X0051767Y0010567D02*
X0049423Y0008223D01*
X0005500Y0014800D02*
X0004661Y0013961D01*
X0010500Y0014800D02*
X0009877Y0014177D01*
X0007820Y0011855D02*
X0007540D01*
X0003725Y0014775D02*
X0004265Y0014235D01*
X0015500Y0014800D02*
X0014540Y0013840D01*
X0011500Y0014800D02*
X0010894Y0014194D01*
X0014725Y0014775D02*
X0015660Y0013840D01*
X0008225Y0014775D02*
X0009160Y0013840D01*
X0005982Y0014017D02*
X0006160Y0013840D01*
X0004725Y0014775D02*
X0005260Y0014240D01*
X0017000Y0014800D02*
X0016377Y0014177D01*
X0018725Y0014775D02*
X0019660Y0013840D01*
X0016225Y0014775D02*
X0016762Y0014238D01*
X0022500Y0014800D02*
X0021540Y0013840D01*
X0018982Y0014017D02*
X0019160Y0013840D01*
X0015712D02*
X0012137D01*
X0011225Y0014775D02*
X0011772Y0014228D01*
X0021500Y0014800D02*
X0020540Y0013840D01*
X0027000Y0014800D02*
X0026040Y0013840D01*
X0028000Y0014800D02*
X0027040Y0013840D01*
X0046500Y0014800D02*
X0042267Y0010567D01*
X0022225Y0014775D02*
X0022779Y0014220D01*
X0016725Y0014775D02*
X0017265Y0014235D01*
X0026000Y0014800D02*
X0025353Y0014153D01*
X0030500Y0014800D02*
X0029922Y0014222D01*
X0030812Y0013840D02*
X0030638D01*
X0028725Y0014775D02*
X0029279Y0014220D01*
X0032491Y0013791D02*
X0032477Y0013777D01*
X0030635Y0013865D02*
X0030660Y0013840D01*
X0029500Y0014800D02*
X0028540Y0013840D01*
X0060801Y0009199D02*
X0061650Y0008350D01*
X0032789Y0007589D02*
X0031732Y0006532D01*
X0034318Y0007060D02*
X0034031D01*
X0031871Y0006490D02*
X0031738D01*
X0047755Y0003055D02*
X0047480Y0002780D01*
X0048027Y0002827D02*
X0047980Y0002780D01*
X0047604Y0003396D02*
X0047712Y0003288D01*
X0045600Y0001960D02*
X0045250D01*
X0056580Y0003420D02*
X0056770Y0003230D01*
X0032264Y0010564D02*
X0031945Y0010245D01*
X0032003Y0008374D02*
X0032877Y0007500D01*
X0032539Y0007839D02*
X0031527Y0006827D01*
X0037767Y0010567D02*
X0035390Y0008190D01*
X0039267Y0010567D02*
X0035986Y0007286D01*
X0033310Y0011690D02*
X0034510Y0010490D01*
X0035390Y0010700D02*
Y0008000D01*
X0034311Y0012111D02*
X0034236Y0012036D01*
X0035500Y0014800D02*
X0035215Y0014515D01*
X0031982Y0014017D02*
X0032160Y0013840D01*
X0038000Y0014800D02*
X0034736Y0011536D01*
X0055820Y0003120D02*
X0055574Y0002874D01*
X0054000Y0014800D02*
X0053170Y0013970D01*
X0045440Y0004140D02*
X0044432D01*
X0031785Y0000715D02*
X0032350Y0000150D01*
X0047745Y0004755D02*
X0048142Y0004358D01*
X0039145Y0002855D02*
X0040395Y0001604D01*
X0011262Y0013840D02*
X0011138D01*
X0055812Y0003612D02*
X0055324Y0003124D01*
X0007812Y0011112D02*
X0007522Y0010822D01*
X0049427Y0012727D02*
X0047267Y0010567D01*
X0047745Y0003755D02*
X0047755Y0003744D01*
X0047745Y0004800D02*
Y0003722D01*
X0019073Y0003873D02*
X0018943Y0003743D01*
X0049200Y0014800D02*
X0049493Y0014507D01*
X0035762Y0007510D02*
X0036611Y0006661D01*
X0050515Y0014315D02*
X0050232Y0014032D01*
X0058116Y0002178D02*
X0057671Y0001734D01*
X0034267Y0010567D02*
X0033886Y0010186D01*
X0032003Y0008374D02*
X0032877Y0007500D01*
X0031827Y0008173D02*
X0032689Y0007311D01*
X0040767Y0010567D02*
X0036710Y0006510D01*
X0032039Y0008339D02*
X0030190Y0006490D01*
X0034460Y0006760D02*
X0034288Y0006588D01*
X0056443Y0001243D02*
X0055350Y0000150D01*
X0035390Y0009110D02*
X0039310Y0005190D01*
X0039767Y0010567D02*
X0036236Y0007036D01*
X0050000Y0014800D02*
X0049888Y0014688D01*
X0034010Y0006990D02*
X0034460Y0006540D01*
X0036740Y0006350D02*
Y0005432D01*
X0040255Y0000555D02*
X0039850Y0000150D01*
X0051985Y0012515D02*
X0052433Y0012067D01*
X0049700Y0014800D02*
X0049812Y0014688D01*
X0048267Y0010567D02*
X0046290Y0008590D01*
X0044860Y0004160D02*
X0044840Y0004140D01*
X0044042Y0005060D02*
X0044062Y0005040D01*
X0030310Y0001110D02*
X0030220Y0001020D01*
X0032483Y0001283D02*
X0032285Y0001085D01*
X0032546Y0001846D02*
X0032161Y0001461D01*
X0031539Y0000839D02*
X0030850Y0000150D01*
X0061650Y0014800D02*
X0034934D01*
X0025225Y0014775D02*
X0026160Y0013840D01*
X0035000Y0014800D02*
X0034971Y0014771D01*
X0031725Y0014775D02*
X0032526Y0013974D01*
X0032225Y0014775D02*
X0032667Y0014333D01*
X0032725Y0014775D02*
X0032875Y0014624D01*
X0002500Y0014800D02*
X0002400Y0014700D01*
X0003000Y0014800D02*
X0002627Y0014427D01*
X0013113Y0008510D02*
X0012538D01*
X0010710D02*
X0010685Y0008485D01*
X0016262Y0008510D02*
X0015387D01*
X0015710D02*
X0015527Y0008327D01*
X0014195Y0011805D02*
X0014493Y0011507D01*
X0008490Y0008510D02*
X0010140Y0006860D01*
X0061650Y0000150D02*
X0054016D01*
X0053405Y0004205D02*
X0053078Y0003878D01*
X0034007Y0002993D02*
X0034081Y0002919D01*
X0016410Y0000710D02*
X0015850Y0000150D01*
X0000350Y0002650D02*
X0000407Y0002593D01*
X0000350Y0003150D02*
X0000717Y0002783D01*
X0004915Y0008215D02*
X0003560Y0006860D01*
X0057700Y0014800D02*
X0058265Y0014235D01*
X0061000Y0014800D02*
X0060624Y0014424D01*
X0060500Y0014800D02*
X0060343Y0014643D01*
X0060000Y0014800D02*
X0059970Y0014770D01*
X0061500Y0014800D02*
X0060825Y0014125D01*
X0060200Y0014800D02*
X0060375Y0014625D01*
X0059700Y0014800D02*
X0059720Y0014780D01*
X0058635Y0013865D02*
X0058684Y0013816D01*
X0061650Y0010450D02*
X0060927Y0009727D01*
X0057642Y0014358D02*
X0058710Y0013290D01*
X0059000Y0014800D02*
X0058894Y0014694D01*
X0058570Y0012429D02*
X0058797Y0012202D01*
X0061650Y0012950D02*
X0060834Y0012134D01*
X0058985Y0012515D02*
X0059009Y0012490D01*
X0057144Y0013855D02*
X0057642Y0013358D01*
X0060767Y0010567D02*
X0060654Y0010454D01*
X0061650Y0012450D02*
X0060926Y0011726D01*
X0061650Y0011450D02*
X0060767Y0010567D01*
X0057642Y0012858D02*
X0058680Y0011819D01*
X0057642Y0011858D02*
X0058994Y0010506D01*
X0057642Y0009858D02*
X0058978Y0008522D01*
X0057642Y0009358D02*
X0058777Y0008223D01*
X0028500Y0014800D02*
X0027540Y0013840D01*
X0060603Y0010896D02*
X0061650Y0009850D01*
Y0008450D02*
X0060927Y0007727D01*
X0061650Y0008950D02*
X0060853Y0008153D01*
X0061650Y0009450D02*
X0060668Y0008468D01*
X0037500Y0014800D02*
X0034486Y0011786D01*
X0061267Y0010567D02*
X0060844Y0010144D01*
X0057642Y0011358D02*
X0058787Y0010213D01*
X0057642Y0010858D02*
X0058677Y0009822D01*
X0001000Y0006600D02*
Y0006082D01*
X0000350Y0012454D02*
Y0006600D01*
X0003790Y0000710D02*
X0004350Y0000150D01*
X0001805Y0005605D02*
X0001000Y0004800D01*
X0000350Y0007650D02*
X0001805Y0006195D01*
X0000483Y0000150D02*
X0000350D01*
Y0007150D02*
X0000900Y0006600D01*
X0040935Y0006735D02*
X0039558Y0005358D01*
X0047933Y0009567D02*
X0049070Y0008430D01*
X0042018Y0005482D02*
X0042310Y0005190D01*
X0045860Y0008160D02*
X0045115Y0007415D01*
X0043085Y0008450D02*
Y0008150D01*
X0042933Y0009567D02*
X0043220Y0009280D01*
X0044365Y0008341D02*
Y0008150D01*
X0044120Y0005420D02*
X0044058Y0005358D01*
X0045644Y0007314D02*
X0045684Y0007274D01*
X0045658Y0006600D02*
X0045644Y0006586D01*
X0046232Y0009268D02*
X0046806Y0008694D01*
X0044929Y0008571D02*
X0046060Y0007440D01*
X0045400Y0007415D02*
X0044960D01*
X0043085Y0010640D02*
Y0010360D01*
X0044020Y0010985D02*
X0043430D01*
X0050902Y0005489D02*
X0050403Y0004990D01*
X0052758Y0010558D02*
X0051494Y0009294D01*
X0056262Y0001562D02*
X0054850Y0000150D01*
X0056580Y0003628D02*
Y0002657D01*
X0048000Y0014800D02*
X0044157Y0010957D01*
X0054995Y0004005D02*
X0055820Y0003180D01*
X0045467Y0000767D02*
X0044850Y0000150D01*
X0055411Y0004020D02*
X0054995D01*
X0056929Y0005229D02*
X0056594Y0004894D01*
X0056580Y0002920D02*
X0056770Y0002730D01*
X0056580Y0002657D02*
X0056768Y0002469D01*
X0054579Y0001921D02*
X0056350Y0000150D01*
X0058230Y0004770D02*
X0061650Y0001350D01*
X0055820Y0002620D02*
X0054669Y0001469D01*
X0058282Y0006218D02*
X0061650Y0002850D01*
X0055934Y0002229D02*
X0056328Y0001835D01*
X0055931Y0002231D02*
X0054579Y0000879D01*
X0060673Y0004973D02*
X0058230Y0002530D01*
X0057192Y0005570D02*
X0057220Y0005542D01*
X0061650Y0005950D02*
X0061277Y0005577D01*
X0056978Y0004165D02*
X0056884Y0004071D01*
X0057365Y0006635D02*
X0057473Y0006527D01*
X0051850Y0003150D02*
X0051287Y0002587D01*
X0049035Y0002965D02*
X0049106Y0002894D01*
X0049221Y0003008D02*
X0048992Y0002780D01*
X0051850Y0003150D02*
X0052215Y0002785D01*
X0048540Y0002840D02*
X0048480Y0002780D01*
X0049570Y0004000D02*
Y0003739D01*
X0049809Y0004397D02*
X0049684Y0004271D01*
X0058290Y0007590D02*
X0057546Y0006846D01*
X0061650Y0004950D02*
X0058471Y0001771D01*
X0055679Y0005570D02*
X0055402D01*
X0056571Y0004916D02*
X0056661Y0004827D01*
X0058558Y0005358D02*
X0058230Y0005030D01*
X0059064Y0008864D02*
X0057484Y0007284D01*
X0056080Y0006394D02*
Y0006350D01*
X0056770Y0003570D02*
X0056580Y0003380D01*
X0058690Y0007310D02*
X0058838Y0007161D01*
X0056880Y0004238D02*
Y0004150D01*
X0061650Y0004450D02*
X0058884Y0001684D01*
X0055820Y0003611D02*
Y0002500D01*
X0056766Y0003878D02*
X0056625Y0003738D01*
X0056770Y0003070D02*
X0056580Y0002880D01*
X0016829Y0008129D02*
X0015679Y0006979D01*
X0025442Y0011558D02*
X0026140Y0010860D01*
X0019267Y0010567D02*
X0018945Y0010245D01*
X0018942Y0011058D02*
X0019496Y0010504D01*
X0020568Y0010776D02*
X0020470Y0010679D01*
X0020812Y0011112D02*
X0020444Y0010744D01*
X0020725Y0014775D02*
X0021660Y0013840D01*
X0021805Y0010105D02*
X0021665D01*
X0025442Y0011744D02*
Y0010245D01*
X0021805Y0010045D02*
X0021639D01*
X0021805Y0010105D02*
Y0010050D01*
X0022210Y0008510D02*
X0021570Y0007870D01*
X0026018Y0010526D02*
X0025736Y0010245D01*
X0032810Y0003110D02*
X0032782Y0003082D01*
X0025442Y0010558D02*
X0025746Y0010254D01*
X0031942Y0010886D02*
Y0010245D01*
X0028305Y0010045D02*
X0028139D01*
X0027334Y0011805D02*
X0026988D01*
G01X0008645Y0010045D02*
G03X0008672Y0010105I0000389J0000205D01*
G01X0013195Y0004845D02*
G03X0013188Y0004905I0000395J0000011D01*
G01X0013550Y0010990D02*
G03X0013112Y0010598I0000000J0000440D01*
G01X0018600Y0008110D02*
G03X0019038Y0008510I0000000J0000440D01*
G01X0023738Y0006490D02*
G03X0023300Y0006890I0000438J0000040D01*
G01X0021700Y0006560D02*
G03X0021875Y0006596I0000000J0000440D01*
G01X0034866Y0000150D02*
G03X0035521Y0001400I0000866J0001250D01*
G01X0031738Y0006490D02*
G03X0031300Y0006890I0000438J0000040D01*
G01X0038200Y0001470D02*
G03X0038268Y0001385I0000375J0000230D01*
G01X0026110Y0010700D02*
G03X0026121Y0010602I0000440J0000000D01*
G01X0042390Y0000950D02*
G03X0042257Y0001265I0000440J0000000D01*
G01X0045250Y0001590D02*
G03X0045056Y0001545I0000000J0000440D01*
G01X0032488Y0013770D02*
G03X0032250Y0013840I0000238J0000370D01*
G01X0047329Y0005379D02*
G03X0047050Y0005495I0000279J0000279D01*
G01X0038010Y0014010D02*
G03X0037710Y0013892I0000000J0000440D01*
G01X0033065Y0014800D02*
G03X0032488Y0013770I0000935J0001200D01*
G01X0050840Y0000700D02*
G03X0050835Y0000761I0000440J0000000D01*
G01X0040825Y0001180D02*
G03X0040757Y0001265I0000375J0000230D01*
G01X0039463Y0013045D02*
G03X0039170Y0012630I0000147J0000415D01*
G01X0050363Y0001148D02*
G03X0050355Y0001160I0000363J0000248D01*
G01X0039463Y0013155D02*
G03X0039460Y0013100I0000437J0000055D01*
G01X0046650Y0010590D02*
G03X0046225Y0010264I0000000J0000440D01*
G01X0045983Y0009750D02*
G03X0046225Y0010036I0000183J0000400D01*
Y0010264D02*
G03X0045800Y0010590I0000425J0000114D01*
G01X0054671Y0001400D02*
G03X0054537Y0002025I0001521J0000000D01*
G01X0057850Y0006740D02*
G03X0057411Y0006325I0000000J0000440D01*
G01X0054016Y0007792D02*
G03X0054290Y0008200I0000166J0000408D01*
G01X0000415Y0014800D02*
G03X0000350Y0014746I0000935J0001200D01*
G01X0001379Y0012079D02*
G03X0001360Y0011950I0000421J0000129D01*
G01X0000350Y0012454D02*
G03X0001350Y0012079I0001000J0001146D01*
G01X0007810Y0011150D02*
G03X0007846Y0010975I0000440J0000000D01*
G01X0005600Y0014240D02*
G03X0005425Y0014204I0000000J0000440D01*
G01X0003057Y0011007D02*
G03X0003030Y0011041I0000357J0000257D01*
G01X0009975Y0014096D02*
G03X0009650Y0014240I0000325J0000296D01*
G01X0015003Y0011590D02*
G03X0015165Y0011805I0000253J0000360D01*
G01X0056939Y0001231D02*
G03X0057347Y0000957I0000408J0000166D01*
G01X0054255Y0002644D02*
G03X0054212Y0002489I0000395J0000194D01*
G01X0060349Y0010703D02*
G03X0060927Y0011687I0000549J0000984D01*
G01X0060866Y0014022D02*
G03X0059800Y0014782I0001066J0000367D01*
G01X0052265Y0002637D02*
G03X0051629Y0001400I0000885J0001237D01*
G01X0051266Y0004200D02*
G03X0051450Y0004160I0000184J0000400D01*
G01X0057411Y0006325D02*
G03X0057350Y0006330I0000061J0000375D01*
G01X0059079Y0014522D02*
G03X0058700Y0014739I0000379J0000222D01*
G01X0049550Y0003740D02*
G03X0049118Y0003386I0000000J0000440D01*
G01X0044750Y0002010D02*
G03X0044964Y0002065I0000000J0000440D01*
G01X0049600Y0006690D02*
G03X0049406Y0006645I0000000J0000440D01*
G01X0048066Y0005365D02*
G03X0048260Y0005320I0000194J0000395D01*
G01X0041575Y0002140D02*
G03X0041200Y0001930I0000000J0000440D01*
G01X0046050Y0007440D02*
G03X0045696Y0007261I0000000J0000440D01*
G01X0048344Y0006645D02*
G03X0048150Y0006690I0000194J0000395D01*
G01X0046802Y0007263D02*
G03X0047150Y0007513I0000052J0000437D01*
G01X0047450Y0009195D02*
G03X0047171Y0009079I0000000J0000395D01*
G01X0051325Y0013080D02*
G03X0050950Y0013290I0000375J0000230D01*
G01X0038575Y0002140D02*
G03X0038200Y0001930I0000000J0000440D01*
G01X0047150Y0007513D02*
G03X0047309Y0007543I0000000J0000440D01*
G01X0050840Y0013600D02*
G03X0050760Y0013853I0000440J0000000D01*
G01X0053073Y0003365D02*
G03X0053068Y0003384I0000423J0000119D01*
G01X0044298Y0005420D02*
G03X0044160Y0005100I0000302J0000320D01*
G01X0032290Y0001150D02*
G03X0032120Y0001497I0000440J0000000D01*
G01X0041780Y0011050D02*
G03X0041139Y0011817I0000780J0000000D01*
G01X0030312Y0001110D02*
G03X0030750Y0000710I0000438J0000040D01*
G01X0039910Y0013892D02*
G03X0039610Y0014010I0000300J0000322D01*
G01X0044321Y0000871D02*
G03X0044600Y0000755I0000279J0000279D01*
G01X0037263Y0013045D02*
G03X0036970Y0012630I0000147J0000415D01*
G01X0055045Y0003200D02*
G03X0054959Y0003446I0000395J0000000D01*
G01X0037710Y0013892D02*
G03X0037410Y0014010I0000300J0000322D01*
G01X0034510Y0010329D02*
G03X0034287Y0010390I0000223J0000379D01*
G01X0022050Y0007890D02*
G03X0021875Y0007854I0000000J0000440D01*
G01X0028139Y0010045D02*
G03X0028165Y0010105I0000389J0000205D01*
G01X0022428Y0007225D02*
G03X0022490Y0007450I0000378J0000225D01*
G01X0021525Y0007854D02*
G03X0021350Y0007890I0000175J0000404D01*
G01X0016400Y0006890D02*
G03X0015962Y0006490I0000000J0000440D01*
G01X0011469Y0000775D02*
G03X0011700Y0000710I0000231J0000375D01*
G01X0010300Y0000716D02*
G03X0010737Y0001110I0000000J0000440D01*
G01X0053810Y0009950D02*
G03X0054220Y0009511I0000440J0000000D01*
G01X0013195Y0004845D02*
G03X0013188Y0004905I0000395J0000011D01*
G01X0012100Y0008110D02*
G03X0012538Y0008510I0000000J0000440D01*
G01X0003058Y0002665D02*
G03X0003012Y0002750I0000408J0000165D01*
G01X0026567Y0003450D02*
G03X0026334Y0003195I0000183J0000400D01*
G01X0020679Y0004845D02*
G03X0020662Y0004905I0000429J0000095D01*
G01X0008810Y0004290D02*
G03X0008829Y0004355I0000410J0000160D01*
G01X0007679Y0003145D02*
G03X0007503Y0003410I0000429J0000095D01*
G01X0003057Y0012167D02*
G03X0003028Y0012225I0000407J0000167D01*
G01X0006158Y0004666D02*
G03X0005943Y0004507I0000142J0000416D01*
G01X0001350Y0002921D02*
G03X0000350Y0002546I0000000J0001521D01*
G01X0006006Y0002775D02*
G03X0005943Y0002666I0000344J0000275D01*
G01X0032488Y0013770D02*
G03X0032250Y0013840I0000238J0000370D01*
G01X0003800Y0014240D02*
G03X0003475Y0014096I0000000J0000440D01*
G01X0002798Y0014064D02*
G03X0002284Y0014800I0001448J0000464D01*
G01X0011800Y0006890D02*
G03X0011362Y0006490I0000000J0000440D01*
G01X0012729Y0007500D02*
G03X0013113Y0006490I0001521J0000000D01*
G01X0015771Y0007500D02*
G03X0015387Y0008510I0001521J0000000D01*
G01X0049462Y0000305D02*
G03X0049508Y0000150I0000438J0000045D01*
G01X0051629Y0001400D02*
G03X0052283Y0000150I0001521J0000000D01*
G01X0038450Y0012630D02*
G03X0038137Y0013051I0000440J0000000D01*
G01X0032479Y0001400D02*
G03X0033133Y0000150I0001521J0000000D01*
G01X0035521Y0001400D02*
G03X0034000Y0002921I0001521J0000000D01*
G01X0000350Y0000254D02*
G03X0000483Y0000150I0001000J0001146D01*
G01X0003800Y0006890D02*
G03X0003600Y0006842I0000000J0000440D01*
G01X0058673Y0011687D02*
G03X0059250Y0010703I0001127J0000000D01*
G01X0060927Y0011687D02*
G03X0060350Y0012671I0001127J0000000D01*
G01X0058760Y0008186D02*
G03X0058700Y0008190I0000060J0000436D01*
G01X0058673Y0009718D02*
G03X0059250Y0008734I0001127J0000000D01*
G01X0059128Y0012750D02*
G03X0059250Y0012671I0000672J0000905D01*
G01X0060927Y0009718D02*
G03X0060349Y0010703I0001127J0000000D01*
G01X0059800Y0006623D02*
G03X0060927Y0007750I0000000J0001127D01*
G03X0060350Y0008734I0001127J0000000D01*
G01X0003150Y0014240D02*
G03X0002798Y0014064I0000000J0000440D01*
G01X0059250Y0012671D02*
G03X0058673Y0011687I0000550J0000984D01*
G01X0059250Y0010703D02*
G03X0058672Y0009718I0000550J0000985D01*
G01X0055425Y0013193D02*
G03X0055150Y0013290I0000275J0000343D01*
G01X0058700Y0007310D02*
G03X0058760Y0007314I0000000J0000440D01*
G01X0060350Y0008734D02*
G03X0060927Y0009718I0000550J0000984D01*
G01X0051922Y0013930D02*
G03X0051700Y0013990I0000222J0000380D01*
G01X0050040Y0013853D02*
G03X0049960Y0013600I0000360J0000253D01*
G01X0056079Y0006330D02*
G03X0056080Y0006350I0000379J0000020D01*
G01X0058119Y0002181D02*
G03X0058230Y0002450I0000269J0000269D01*
G01X0033940Y0002920D02*
G03X0034089Y0003250I0000290J0000330D01*
G01X0001805Y0004865D02*
G03X0001510Y0004450I0000145J0000415D01*
G01X0003600Y0006842D02*
G03X0003400Y0006890I0000200J0000392D01*
G01X0004362Y0001110D02*
G03X0004800Y0000710I0000438J0000040D01*
G01X0006667Y0010622D02*
G03X0006521Y0010529I0000133J0000372D01*
G01X0037263Y0013155D02*
G03X0037260Y0013100I0000437J0000055D01*
G01X0021639Y0010045D02*
G03X0021665Y0010105I0000389J0000205D01*
G01X0022650Y0014240D02*
G03X0022212Y0013840I0000000J0000440D01*
G01X0032790Y0002550D02*
G03X0032728Y0002775I0000440J0000000D01*
G01X0017200Y0014240D02*
G03X0017000Y0014192I0000000J0000440D01*
G01X0029150Y0014240D02*
G03X0028712Y0013840I0000000J0000440D01*
G01X0027567Y0011550D02*
G03X0027310Y0011150I0000183J0000400D01*
G01X0054212Y0002489D02*
G03X0054055Y0002622I0001062J0001089D01*
G01X0056880Y0004238D02*
G03X0056951Y0004214I0000179J0000402D01*
G01X0010300Y0014240D02*
G03X0009975Y0014096I0000000J0000440D01*
G01X0008067Y0011550D02*
G03X0007810Y0011150I0000183J0000400D01*
G01X0003560Y0009450D02*
G03X0003858Y0009033I0000440J0000000D01*
G01X0001396Y0010975D02*
G03X0001360Y0010800I0000404J0000175D01*
G01X0026338Y0004905D02*
G03X0026320Y0004845I0000412J0000155D01*
G01X0020972Y0007225D02*
G03X0020910Y0007000I0000378J0000225D01*
G01X0021875Y0006596D02*
G03X0022050Y0006560I0000175J0000404D01*
G01X0022975Y0014096D02*
G03X0022650Y0014240I0000325J0000296D01*
G01X0021067Y0011550D02*
G03X0020810Y0011150I0000183J0000400D01*
G01X0028540Y0003410D02*
G03X0028331Y0003239I0000160J0000410D01*
G03X0028255Y0003410I0000431J0000089D01*
G01X0029058Y0004164D02*
G03X0028750Y0004290I0000308J0000314D01*
G01X0014567Y0011550D02*
G03X0014310Y0011150I0000183J0000400D01*
G01X0034000Y0002921D02*
G03X0033941Y0002920I0000000J0001521D01*
G01X0023300Y0006890D02*
G03X0023094Y0006839I0000000J0000440D01*
G01X0019846Y0004025D02*
G03X0019810Y0003850I0000404J0000175D01*
G01X0020679Y0003145D02*
G03X0020503Y0003410I0000429J0000095D01*
G01X0022900Y0000710D02*
G03X0023106Y0000761I0000000J0000440D01*
G01X0022040Y0003410D02*
G03X0021831Y0003239I0000160J0000410D01*
G01X0023300Y0000716D02*
G03X0023737Y0001110I0000000J0000440D01*
G01X0019715Y0003145D02*
G03X0019300Y0003440I0000415J0000145D01*
G01X0019695Y0004850D02*
G03X0019691Y0004905I0000395J0000000D01*
G01X0016058Y0004206D02*
G03X0015800Y0004290I0000258J0000356D01*
G01X0013346Y0004025D02*
G03X0013310Y0003850I0000404J0000175D01*
G01X0014179Y0003145D02*
G03X0014003Y0003410I0000429J0000095D01*
G01X0016058Y0004206D02*
G03X0015800Y0004290I0000258J0000356D01*
G01X0016475Y0014096D02*
G03X0016150Y0014240I0000325J0000296D01*
G01X0006350Y0002060D02*
G03X0006544Y0002105I0000000J0000440D01*
G01X0006846Y0004025D02*
G03X0006810Y0003850I0000404J0000175D01*
G01X0004362Y0001110D02*
G03X0004800Y0000710I0000438J0000040D01*
G01X0003012Y0002750D02*
G03X0003058Y0002835I0000362J0000250D01*
G01X0032038Y0013840D02*
G03X0031600Y0014240I0000438J0000040D01*
G01X0025537Y0013840D02*
G03X0025100Y0014233I0000437J0000046D01*
G01X0006038Y0013840D02*
G03X0005600Y0014240I0000438J0000040D01*
G01X0012137Y0013840D02*
G03X0011700Y0014233I0000437J0000046D01*
G01X0017638Y0013840D02*
G03X0017200Y0014240I0000438J0000040D01*
G01X0027165Y0003195D02*
G03X0027003Y0003410I0000415J0000145D01*
G01X0047745Y0004800D02*
G03X0047629Y0005079I0000395J0000000D01*
G01X0048700Y0005760D02*
G03X0048690Y0005855I0000440J0000000D01*
G01X0049113Y0003400D02*
G03X0049139Y0003550I0000413J0000150D01*
G01X0056250Y0007240D02*
G03X0056033Y0007183I0000000J0000440D01*
G01X0056868Y0004054D02*
G03X0056880Y0004150I0000368J0000096D01*
G01X0050310Y0007950D02*
G03X0050370Y0007728I0000440J0000000D01*
G01X0015500Y0004355D02*
G03X0015779Y0004471I0000000J0000395D01*
G01X0045600Y0001960D02*
G03X0045649Y0001963I0000000J0000440D01*
G01X0035473Y0005904D02*
G03X0035300Y0005939I0000173J0000404D01*
G01X0026346Y0004025D02*
G03X0026310Y0003850I0000404J0000175D01*
G01X0025800Y0003440D02*
G03X0025443Y0003257I0000000J0000440D01*
G01X0017750Y0000710D02*
G03X0017975Y0000772I0000000J0000440D01*
G03X0018200Y0000710I0000225J0000378D01*
G01X0024250D02*
G03X0024475Y0000772I0000000J0000440D01*
G01X0002960Y0001550D02*
G03X0003008Y0001350I0000440J0000000D01*
G01X0004800Y0000710D02*
G03X0005000Y0000758I0000000J0000440D01*
G01X0011262Y0008510D02*
G03X0011700Y0008110I0000438J0000040D01*
G01X0011900Y0008158D02*
G03X0012100Y0008110I0000200J0000392D01*
G01X0011700D02*
G03X0011900Y0008158I0000000J0000440D01*
G01X0009812Y0008510D02*
G03X0010250Y0008110I0000438J0000040D01*
G03X0010688Y0008510I0000000J0000440D01*
G01X0003008Y0006250D02*
G03X0002960Y0006050I0000392J0000200D01*
Y0006450D02*
G03X0003008Y0006250I0000440J0000000D01*
G01X0005300Y0006884D02*
G03X0004862Y0006490I0000000J0000440D01*
G01X0003400Y0006890D02*
G03X0002960Y0006450I0000000J0000440D01*
G01X0001510Y0003150D02*
G03X0001586Y0002902I0000440J0000000D01*
G01X0001510Y0004450D02*
G03X0001805Y0004034I0000440J0000000D01*
G01X0003600Y0000758D02*
G03X0003800Y0000710I0000200J0000392D01*
G01X0002960Y0001150D02*
G03X0003400Y0000710I0000440J0000000D01*
G01X0005000Y0000758D02*
G03X0005200Y0000710I0000200J0000392D01*
G01X0003400D02*
G03X0003600Y0000758I0000000J0000440D01*
G01X0006766Y0003192D02*
G03X0006350Y0003490I0000416J0000142D01*
G01X0005200Y0000710D02*
G03X0005525Y0000853I0000000J0000440D01*
G01X0005850Y0000710D02*
G03X0006288Y0001110I0000000J0000440D01*
G01X0005525Y0000853D02*
G03X0005850Y0000710I0000325J0000297D01*
G01X0011700D02*
G03X0012025Y0000853I0000000J0000440D01*
G01X0012350Y0000710D02*
G03X0012788Y0001110I0000000J0000440D01*
G01X0012025Y0000853D02*
G03X0012350Y0000710I0000325J0000297D01*
G01X0010738Y0006490D02*
G03X0010300Y0006890I0000438J0000040D01*
G01X0009900Y0006884D02*
G03X0009462Y0006490I0000000J0000440D01*
G01X0012238D02*
G03X0011800Y0006890I0000438J0000040D01*
G01X0022900Y0006884D02*
G03X0022462Y0006490I0000000J0000440D01*
G01X0017238D02*
G03X0016800Y0006890I0000438J0000040D01*
G01X0013215Y0003145D02*
G03X0012800Y0003440I0000415J0000145D01*
G01X0017312Y0001110D02*
G03X0017750Y0000710I0000438J0000040D01*
G01X0018850D02*
G03X0019288Y0001110I0000000J0000440D01*
G01X0018525Y0000853D02*
G03X0018850Y0000710I0000325J0000297D01*
G01X0018200D02*
G03X0018525Y0000853I0000000J0000440D01*
G01X0016600Y0000758D02*
G03X0016800Y0000710I0000200J0000392D01*
G01X0016400D02*
G03X0016600Y0000758I0000000J0000440D01*
G01X0016800Y0000710D02*
G03X0017238Y0001110I0000000J0000440D01*
G01X0025350Y0000710D02*
G03X0025788Y0001110I0000000J0000440D01*
G01X0025025Y0000853D02*
G03X0025350Y0000710I0000325J0000297D01*
G01X0024700D02*
G03X0025025Y0000853I0000000J0000440D01*
G01X0021810Y0004290D02*
G03X0021829Y0004355I0000410J0000160D01*
G01X0014176Y0004845D02*
G03X0014158Y0004905I0000429J0000095D01*
G01X0028960Y0000850D02*
G03X0029400Y0000410I0000440J0000000D01*
G03X0029817Y0000710I0000000J0000440D01*
G01X0031850D02*
G03X0032290Y0001150I0000000J0000440D01*
G01X0031525Y0000853D02*
G03X0031850Y0000710I0000325J0000297D01*
G01X0031200D02*
G03X0031525Y0000853I0000000J0000440D01*
G01X0029045Y0001110D02*
G03X0028960Y0000850I0000355J0000260D01*
G01X0029400Y0006890D02*
G03X0028962Y0006490I0000000J0000440D01*
G01X0024800Y0006890D02*
G03X0024362Y0006490I0000000J0000440D01*
G01X0018400Y0008158D02*
G03X0018600Y0008110I0000200J0000392D01*
G01X0018200D02*
G03X0018400Y0008158I0000000J0000440D01*
G01X0016262Y0008510D02*
G03X0016700Y0008110I0000438J0000040D01*
G03X0017138Y0008510I0000000J0000440D01*
G01X0020810Y0008500D02*
G03X0021250Y0008060I0000440J0000000D01*
G03X0021690Y0008500I0000000J0000440D01*
G01X0017762Y0008510D02*
G03X0018200Y0008110I0000438J0000040D01*
G01X0021690Y0008500D02*
G03X0021690Y0008510I0000440J0000000D01*
G01X0019460Y0008500D02*
G03X0019900Y0008060I0000440J0000000D01*
G03X0020340Y0008500I0000000J0000440D01*
G01X0020810Y0008510D02*
G03X0020810Y0008500I0000440J0000010D01*
G01X0020340D02*
G03X0020340Y0008510I0000440J0000000D01*
G01X0020910Y0007450D02*
G03X0020972Y0007225I0000440J0000000D01*
G01X0021350Y0007890D02*
G03X0020910Y0007450I0000000J0000440D01*
G01X0024700Y0008110D02*
G03X0024900Y0008158I0000000J0000440D01*
G01X0019460Y0008510D02*
G03X0019460Y0008500I0000440J0000010D01*
G01X0022762Y0008510D02*
G03X0023200Y0008110I0000438J0000040D01*
G03X0023638Y0008510I0000000J0000440D01*
G01X0024900Y0008158D02*
G03X0025100Y0008110I0000200J0000392D01*
G01X0022050Y0006560D02*
G03X0022490Y0007000I0000000J0000440D01*
G01X0021875Y0007854D02*
G03X0021700Y0007890I0000175J0000404D01*
G01X0022490Y0007000D02*
G03X0022428Y0007225I0000440J0000000D01*
G01X0020910Y0007000D02*
G03X0021350Y0006560I0000440J0000000D01*
G01X0021525Y0006596D02*
G03X0021700Y0006560I0000175J0000404D01*
G01X0022490Y0007450D02*
G03X0022050Y0007890I0000440J0000000D01*
G01X0021700D02*
G03X0021525Y0007854I0000000J0000440D01*
G01X0001360Y0010800D02*
G03X0001460Y0010521I0000440J0000000D01*
G01X0003260Y0008550D02*
G03X0003700Y0008110I0000440J0000000D01*
G03X0004140Y0008550I0000000J0000440D01*
G03X0003700Y0008990I0000440J0000000D01*
G03X0003260Y0008550I0000000J0000440D01*
G01X0004750Y0008805D02*
G03X0004851Y0008818I0000000J0000395D01*
G01X0005400Y0008158D02*
G03X0005600Y0008110I0000200J0000392D01*
G01X0004760Y0008550D02*
G03X0005200Y0008110I0000440J0000000D01*
G01X0005162Y0008988D02*
G03X0005082Y0008974I0000038J0000438D01*
G01X0005200Y0008110D02*
G03X0005400Y0008158I0000000J0000440D01*
G01X0003475Y0013503D02*
G03X0003800Y0013360I0000325J0000297D01*
G01X0004200Y0014240D02*
G03X0004000Y0014192I0000000J0000440D01*
G01X0003150Y0013360D02*
G03X0003475Y0013503I0000000J0000440D01*
G01X0002865Y0013465D02*
G03X0003150Y0013360I0000285J0000335D01*
G01X0003045Y0011806D02*
G03X0003057Y0011833I0000395J0000194D01*
G01X0007100Y0011140D02*
G03X0006660Y0010700I0000000J0000440D01*
G01X0007100Y0011410D02*
G03X0007540Y0011850I0000000J0000440D01*
G01X0011700Y0014234D02*
G03X0011262Y0013840I0000000J0000440D01*
G01X0010700Y0014240D02*
G03X0010500Y0014192I0000000J0000440D01*
G01X0017638Y0013840D02*
G03X0017200Y0014240I0000438J0000040D01*
G01X0020050Y0011410D02*
G03X0020488Y0011805I0000000J0000440D01*
G01X0019632Y0011711D02*
G03X0020050Y0011409I0000418J0000139D01*
G01X0023700Y0014240D02*
G03X0023500Y0014192I0000000J0000440D01*
G01X0019038Y0013840D02*
G03X0018600Y0014240I0000438J0000040D01*
G01X0020834Y0010895D02*
G03X0020571Y0010779I0000016J0000395D01*
G01X0030200Y0014240D02*
G03X0030000Y0014192I0000000J0000440D01*
G03X0029800Y0014240I0000200J0000392D01*
G01X0031250D02*
G03X0030812Y0013840I0000000J0000440D01*
G01X0026550Y0011410D02*
G03X0026988Y0011805I0000000J0000440D01*
G01X0026132Y0011711D02*
G03X0026550Y0011409I0000418J0000139D01*
G01X0032900Y0011410D02*
G03X0033317Y0011710I0000000J0000440D01*
G01X0032640Y0011495D02*
G03X0032900Y0011410I0000260J0000355D01*
G01X0031400Y0008158D02*
G03X0031600Y0008110I0000200J0000392D01*
G01X0025100D02*
G03X0025538Y0008510I0000000J0000440D01*
G01X0031200Y0008110D02*
G03X0031400Y0008158I0000000J0000440D01*
G01X0029262Y0008510D02*
G03X0029700Y0008110I0000438J0000040D01*
G03X0030138Y0008510I0000000J0000440D01*
G01X0042325Y0001260D02*
G03X0042765Y0001700I0000000J0000440D01*
G03X0042325Y0002140I0000440J0000000D01*
G01X0041132Y0001385D02*
G03X0041200Y0001470I0000307J0000315D01*
G01X0042257Y0001265D02*
G03X0042325Y0001260I0000068J0000435D01*
G01X0041882Y0001385D02*
G03X0041950Y0001470I0000307J0000315D01*
G01X0041200D02*
G03X0041268Y0001385I0000375J0000230D01*
G01X0041507Y0001265D02*
G03X0041575Y0001260I0000068J0000435D01*
G01X0041643Y0001265D02*
G03X0041575Y0001180I0000307J0000315D01*
G01X0040825Y0002140D02*
G03X0040385Y0001700I0000000J0000440D01*
G01X0039015D02*
G03X0038575Y0002140I0000440J0000000D01*
G01X0037893Y0001265D02*
G03X0037825Y0001180I0000307J0000315D01*
G01X0038507Y0001265D02*
G03X0038575Y0001260I0000068J0000435D01*
G01X0038643Y0001265D02*
G03X0038575Y0001180I0000307J0000315D01*
G01X0037825Y0002140D02*
G03X0037385Y0001700I0000000J0000440D01*
G01X0040825Y0001260D02*
G03X0040893Y0001265I0000000J0000440D01*
G01X0041950Y0000510D02*
G03X0042390Y0000950I0000000J0000440D01*
G01X0041950Y0001930D02*
G03X0041575Y0002140I0000375J0000230D01*
Y0000720D02*
G03X0041950Y0000510I0000375J0000230D01*
G01X0040757Y0001265D02*
G03X0040825Y0001260I0000068J0000435D01*
G01X0041575D02*
G03X0041643Y0001265I0000000J0000440D01*
G01X0041200Y0000510D02*
G03X0041575Y0000720I0000000J0000440D01*
G01X0040825D02*
G03X0041200Y0000510I0000375J0000230D01*
G01X0040010Y0000950D02*
G03X0040450Y0000510I0000440J0000000D01*
G01X0040893Y0001265D02*
G03X0040825Y0001180I0000307J0000315D01*
G01X0040450Y0000510D02*
G03X0040825Y0000720I0000000J0000440D01*
G01X0040450Y0001390D02*
G03X0040010Y0000950I0000000J0000440D01*
G01X0037825Y0001260D02*
G03X0037893Y0001265I0000000J0000440D01*
G01X0038950Y0000510D02*
G03X0039390Y0000950I0000000J0000440D01*
G03X0038950Y0001390I0000440J0000000D01*
G01X0038575Y0000720D02*
G03X0038950Y0000510I0000375J0000230D01*
G01X0037757Y0001265D02*
G03X0037825Y0001260I0000068J0000435D01*
G01X0038575D02*
G03X0038643Y0001265I0000000J0000440D01*
G01X0038200Y0000510D02*
G03X0038575Y0000720I0000000J0000440D01*
G01X0037825D02*
G03X0038200Y0000510I0000375J0000230D01*
G01X0037010Y0000950D02*
G03X0037450Y0000510I0000440J0000000D01*
G01X0038132Y0001385D02*
G03X0038200Y0001470I0000307J0000315D01*
G01X0037450Y0000510D02*
G03X0037825Y0000720I0000000J0000440D01*
G01X0037450Y0001390D02*
G03X0037010Y0000950I0000000J0000440D01*
G01X0038200Y0001930D02*
G03X0037825Y0002140I0000375J0000230D01*
G01X0048346Y0008000D02*
G03X0048360Y0008110I0000426J0000110D01*
G01X0044964Y0002065D02*
G03X0045250Y0001960I0000286J0000335D01*
G01X0046750Y0008590D02*
G03X0046525Y0008528I0000000J0000440D01*
G01X0045860Y0007850D02*
G03X0046290Y0007410I0000440J0000000D01*
G01X0046765Y0008590D02*
G03X0046750Y0008590I0000015J0000440D01*
G01X0045860Y0008150D02*
G03X0045886Y0008000I0000440J0000000D01*
G01X0046300Y0008590D02*
G03X0045860Y0008150I0000000J0000440D01*
G01X0046525Y0008528D02*
G03X0046300Y0008590I0000225J0000378D01*
G01X0038268Y0001385D02*
G03X0038200Y0001390I0000068J0000435D01*
G01X0050200Y0005040D02*
G03X0049760Y0004600I0000000J0000440D01*
G01X0055045Y0003200D02*
G03X0054959Y0003446I0000395J0000000D01*
G01X0053000Y0003983D02*
G03X0053088Y0004205I0000350J0000267D01*
G01X0053043Y0003048D02*
G03X0053076Y0003137I0000393J0000198D01*
G01X0053562Y0003692D02*
G03X0053500Y0003696I0000062J0000436D01*
G01X0054055Y0002622D02*
G03X0054255Y0002733I0000105J0000428D01*
G01X0054016Y0008607D02*
G03X0054040Y0008750I0000416J0000143D01*
Y0007650D02*
G03X0054016Y0007792I0000440J0000000D01*
G01X0053275Y0009046D02*
G03X0052950Y0009190I0000325J0000296D01*
G01X0054290Y0008200D02*
G03X0054016Y0008607I0000440J0000000D01*
G01X0045617Y0009750D02*
G03X0045360Y0009350I0000183J0000400D01*
G01X0044967Y0010167D02*
G03X0044527Y0010607I0000440J0000000D01*
G01X0049570Y0003739D02*
G03X0049550Y0003739I0000020J0000439D01*
G01X0044967Y0008751D02*
G03X0045144Y0009104I0000263J0000353D01*
G01X0044965Y0009459D02*
G03X0045144Y0009813I0000261J0000354D01*
G01X0044527Y0008310D02*
G03X0044967Y0008750I0000000J0000440D01*
G01X0044080Y0009465D02*
G03X0044089Y0009459I0000270J0000348D01*
G01X0045144Y0009813D02*
G03X0044967Y0010166I0000440J0000000D01*
G01X0045360Y0009350D02*
G03X0045800Y0008910I0000440J0000000D01*
G03X0046240Y0009350I0000000J0000440D01*
G03X0045983Y0009750I0000440J0000000D01*
G01X0043220Y0008724D02*
G03X0043085Y0008450I0000210J0000274D01*
G01X0045360Y0010150D02*
G03X0045617Y0009750I0000440J0000000D01*
G01X0045800Y0010590D02*
G03X0045360Y0010150I0000000J0000440D01*
G01X0046650Y0009710D02*
G03X0047090Y0010150I0000000J0000440D01*
G03X0046650Y0010590I0000440J0000000D01*
G01X0046225Y0010036D02*
G03X0046650Y0009710I0000425J0000114D01*
G01X0046772Y0006700D02*
G03X0046890Y0007000I0000322J0000300D01*
G01X0038575Y0001180D02*
G03X0038507Y0001265I0000375J0000230D01*
G01X0043085Y0010360D02*
G03X0043220Y0010086I0000345J0000000D01*
G01X0040650Y0013570D02*
G03X0040210Y0014010I0000440J0000000D01*
G01X0040337Y0013149D02*
G03X0040650Y0013570I0000127J0000421D01*
G01X0039170D02*
G03X0039463Y0013155I0000440J0000000D01*
G01X0039610Y0014010D02*
G03X0039170Y0013570I0000000J0000440D01*
G01X0039460Y0013100D02*
G03X0039463Y0013045I0000440J0000000D01*
G01X0040210Y0012190D02*
G03X0040650Y0012630I0000000J0000440D01*
G01X0039910Y0012308D02*
G03X0040210Y0012190I0000300J0000322D01*
G01X0039170Y0012630D02*
G03X0039610Y0012190I0000440J0000000D01*
G01X0040337Y0013051D02*
G03X0040340Y0013100I0000437J0000049D01*
G01X0039610Y0012190D02*
G03X0039910Y0012308I0000000J0000440D01*
G01X0040340Y0013100D02*
G03X0040337Y0013149I0000440J0000000D01*
G01X0040650Y0012630D02*
G03X0040337Y0013051I0000440J0000000D01*
G01X0038450Y0013570D02*
G03X0038010Y0014010I0000440J0000000D01*
G01X0038137Y0013149D02*
G03X0038450Y0013570I0000127J0000421D01*
G01X0036970D02*
G03X0037263Y0013155I0000440J0000000D01*
G01X0037410Y0014010D02*
G03X0036970Y0013570I0000000J0000440D01*
G01X0037260Y0013100D02*
G03X0037263Y0013045I0000440J0000000D01*
G01X0038010Y0012190D02*
G03X0038450Y0012630I0000000J0000440D01*
G01X0037710Y0012308D02*
G03X0038010Y0012190I0000300J0000322D01*
G01X0036970Y0012630D02*
G03X0037410Y0012190I0000440J0000000D01*
G01X0038137Y0013051D02*
G03X0038140Y0013100I0000437J0000049D01*
G01X0037410Y0012190D02*
G03X0037710Y0012308I0000000J0000440D01*
G01X0052210Y0002850D02*
G03X0052265Y0002637I0000440J0000000D01*
G01X0053150Y0002921D02*
G03X0053084Y0002919I0000000J0001521D01*
G01X0044527Y0010607D02*
G03X0044365Y0010576I0000000J0000440D01*
G01X0050315Y0000205D02*
G03X0050532Y0000280I0000015J0000395D01*
G01X0038882Y0001385D02*
G03X0039015Y0001700I0000307J0000315D01*
G01X0046523Y0004105D02*
G03X0046513Y0004052I0000427J0000105D01*
G01X0037518Y0001385D02*
G03X0037450Y0001390I0000068J0000435D01*
G01X0038200D02*
G03X0038132Y0001385I0000000J0000440D01*
G01X0038950Y0001390D02*
G03X0038882Y0001385I0000000J0000440D01*
G01X0040518D02*
G03X0040450Y0001390I0000068J0000435D01*
G01X0041200D02*
G03X0041132Y0001385I0000000J0000440D01*
G01X0034311Y0003689D02*
G03X0034331Y0003710I0000311J0000311D01*
G01X0028305Y0011805D02*
G03X0028540Y0011590I0000395J0000195D01*
G01X0041950Y0001390D02*
G03X0041882Y0001385I0000000J0000440D01*
G01X0041268D02*
G03X0041200Y0001390I0000068J0000435D01*
G01X0013550Y0011410D02*
G03X0013988Y0011805I0000000J0000440D01*
G01X0013132Y0011711D02*
G03X0013550Y0011409I0000418J0000139D01*
G01X0015305Y0011805D02*
G03X0015540Y0011590I0000395J0000195D01*
G01X0005943Y0002883D02*
G03X0006006Y0002775I0000407J0000167D01*
G01X0008045Y0003410D02*
G03X0007960Y0003150I0000355J0000260D01*
G01X0001586Y0002902D02*
G03X0001350Y0002920I0000236J0001502D01*
G01X0006300Y0003810D02*
G03X0006715Y0004105I0000000J0000440D01*
G01X0021350Y0006560D02*
G03X0021525Y0006596I0000000J0000440D01*
G01X0001805Y0003565D02*
G03X0001510Y0003150I0000145J0000415D01*
G01X0006350Y0003490D02*
G03X0005943Y0003216I0000000J0000440D01*
G01X0033500Y0002836D02*
G03X0032479Y0001400I0000500J0001436D01*
G01X0003800Y0000710D02*
G03X0004238Y0001110I0000000J0000440D01*
G01X0035021Y0002971D02*
G03X0035300Y0002855I0000279J0000279D01*
G01X0003008Y0001350D02*
G03X0002960Y0001150I0000392J0000200D01*
G01X0003058Y0003165D02*
G03X0002795Y0003415I0000408J0000165D01*
G01X0002871Y0001400D02*
G03X0002718Y0002065I0001521J0000000D01*
G01X0003028Y0012225D02*
G03X0003057Y0012283I0000378J0000225D01*
G01X0034287Y0010390D02*
G03X0033904Y0010168I0000000J0000440D01*
G01X0033534Y0010750D02*
G03X0033094Y0011190I0000440J0000000D01*
G01X0033497Y0010575D02*
G03X0033533Y0010750I0000403J0000175D01*
G01X0053140Y0003640D02*
G03X0053000Y0003983I0000490J0000000D01*
G01X0051143Y0001650D02*
G03X0051287Y0001997I0000346J0000347D01*
G01X0050350Y0005410D02*
G03X0050500Y0005436I0000000J0000440D01*
G01X0051240Y0001200D02*
G03X0051053Y0001560I0000440J0000000D01*
G01X0011138Y0013840D02*
G03X0010700Y0014240I0000438J0000040D01*
G01X0046050Y0001704D02*
G03X0046490Y0002144I0000000J0000440D01*
G01X0027200Y0010895D02*
G03X0026972Y0010823I0000000J0000395D01*
G01X0026550Y0011140D02*
G03X0026110Y0010700I0000000J0000440D01*
G01X0001366Y0010250D02*
G03X0001805Y0009810I0000440J0000000D01*
G01X0018737Y0006490D02*
G03X0018300Y0006883I0000437J0000046D01*
G01X0046490Y0002144D02*
G03X0046474Y0002260I0000440J0000000D01*
G01X0010096Y0000766D02*
G03X0010300Y0000716I0000204J0000390D01*
G01X0048510Y0011487D02*
G03X0048950Y0011047I0000440J0000000D01*
G03X0049390Y0011487I0000000J0000440D01*
G03X0048950Y0011927I0000440J0000000D01*
G03X0048510Y0011487I0000000J0000440D01*
G01X0032540Y0002153D02*
G03X0032790Y0002550I0000190J0000397D01*
G01X0025238Y0006490D02*
G03X0024800Y0006890I0000438J0000040D01*
G01X0005737Y0006490D02*
G03X0005300Y0006883I0000437J0000046D01*
G01X0013979Y0010645D02*
G03X0013550Y0010989I0000429J0000095D01*
G01X0014318Y0010886D02*
G03X0014121Y0010779I0000082J0000386D01*
G01X0053500Y0003696D02*
G03X0053074Y0003365I0000000J0000440D01*
G01X0024138Y0013840D02*
G03X0023700Y0014240I0000438J0000040D01*
G01X0057347Y0000957D02*
G03X0057787Y0001397I0000000J0000440D01*
G01X0058159Y0001350D02*
G03X0058599Y0000910I0000440J0000000D01*
G03X0059039Y0001350I0000000J0000440D01*
G03X0058599Y0001790I0000440J0000000D01*
G03X0058159Y0001350I0000000J0000440D01*
G01X0055260Y0014150D02*
G03X0055700Y0013710I0000440J0000000D01*
G03X0056140Y0014150I0000000J0000440D01*
G03X0055700Y0014590I0000440J0000000D01*
G03X0055260Y0014150I0000000J0000440D01*
G01X0052254Y0010994D02*
G03X0052694Y0010554I0000440J0000000D01*
G03X0053134Y0010994I0000000J0000440D01*
G03X0052694Y0011434I0000440J0000000D01*
G03X0052254Y0010994I0000000J0000440D01*
G01X0055165Y0002275D02*
G03X0055605Y0002715I0000000J0000440D01*
G03X0055165Y0003155I0000440J0000000D01*
G01X0055059Y0002287D02*
G03X0055165Y0002274I0000106J0000428D01*
G01X0056700Y0010260D02*
G03X0057140Y0010700I0000000J0000440D01*
G03X0056700Y0011140I0000440J0000000D01*
G01X0056530Y0010294D02*
G03X0056700Y0010260I0000170J0000406D01*
G01X0051700Y0012410D02*
G03X0052140Y0012850I0000000J0000440D01*
G01X0051433Y0013200D02*
G03X0051325Y0013080I0000267J0000350D01*
Y0012620D02*
G03X0051700Y0012410I0000375J0000230D01*
G01X0053190Y0014100D02*
G03X0052750Y0014540I0000440J0000000D01*
G03X0052310Y0014100I0000000J0000440D01*
G01X0054210D02*
G03X0054650Y0013660I0000440J0000000D01*
G03X0055090Y0014100I0000000J0000440D01*
G03X0054650Y0014540I0000440J0000000D01*
G03X0054210Y0014100I0000000J0000440D01*
G01X0056140Y0012850D02*
G03X0055700Y0013290I0000440J0000000D01*
G01X0056310Y0014050D02*
G03X0056750Y0013610I0000440J0000000D01*
G03X0057190Y0014050I0000000J0000440D01*
G03X0056750Y0014490I0000440J0000000D01*
G03X0056310Y0014050I0000000J0000440D01*
G01X0061100Y0013210D02*
G03X0061540Y0013650I0000000J0000440D01*
G03X0061100Y0014090I0000440J0000000D01*
G01X0058260Y0012850D02*
G03X0058700Y0012410I0000440J0000000D01*
G01X0060863Y0013279D02*
G03X0061100Y0013210I0000237J0000371D01*
G01X0058700Y0012410D02*
G03X0059128Y0012750I0000000J0000440D01*
G01X0058700Y0013290D02*
G03X0058260Y0012850I0000000J0000440D01*
G01X0061100Y0014090D02*
G03X0060866Y0014022I0000000J0000440D01*
G01X0058260Y0014300D02*
G03X0058691Y0013860I0000440J0000000D01*
G01X0058700Y0014740D02*
G03X0058260Y0014300I0000000J0000440D01*
G01X0049960Y0013600D02*
G03X0050400Y0013160I0000440J0000000D01*
G03X0050840Y0013600I0000000J0000440D01*
G01X0050510Y0012850D02*
G03X0050950Y0012410I0000440J0000000D01*
G03X0051325Y0012620I0000000J0000440D01*
G01X0050950Y0013290D02*
G03X0050510Y0012850I0000000J0000440D01*
G01X0049410D02*
G03X0049850Y0012410I0000440J0000000D01*
G03X0050290Y0012850I0000000J0000440D01*
G03X0049850Y0013290I0000440J0000000D01*
G03X0049410Y0012850I0000000J0000440D01*
G01X0047629Y0003421D02*
G03X0047710Y0003538I0000279J0000279D01*
Y0003250D02*
G03X0048150Y0002810I0000440J0000000D01*
G01X0048425Y0003893D02*
G03X0048150Y0003990I0000275J0000343D01*
G01X0047736Y0003400D02*
G03X0047710Y0003250I0000414J0000150D01*
G01X0048150Y0003990D02*
G03X0047745Y0003722I0000000J0000440D01*
G01X0048700Y0002810D02*
G03X0049131Y0003164I0000000J0000440D01*
G01X0049118Y0003386D02*
G03X0049113Y0003400I0000418J0000136D01*
G01X0048150Y0002810D02*
G03X0048425Y0002906I0000000J0000440D01*
G01X0049140Y0003550D02*
G03X0048700Y0003990I0000440J0000000D01*
G01X0050060Y0006850D02*
G03X0050121Y0006626I0000440J0000000D01*
G01X0049406Y0005855D02*
G03X0049600Y0005810I0000194J0000395D01*
G01X0047561Y0005481D02*
G03X0047840Y0005365I0000279J0000279D01*
G01X0056740Y0009050D02*
G03X0056475Y0009453I0000440J0000000D01*
G01X0048390Y0008800D02*
G03X0047950Y0009240I0000440J0000000D01*
G01X0048207Y0008443D02*
G03X0048390Y0008800I0000257J0000357D01*
G01X0046291Y0007410D02*
G03X0046250Y0007392I0000159J0000410D01*
G01X0049975Y0006480D02*
G03X0049600Y0006690I0000375J0000230D01*
Y0005810D02*
G03X0049921Y0005949I0000000J0000440D01*
G01X0052140Y0012850D02*
G03X0052002Y0013170I0000440J0000000D01*
G01X0049910Y0005850D02*
G03X0050350Y0005410I0000440J0000000D01*
G01X0049921Y0005949D02*
G03X0049910Y0005850I0000429J0000099D01*
G01X0052310Y0014100D02*
G03X0052344Y0013930I0000440J0000000D01*
G01X0054040Y0008750D02*
G03X0053600Y0009190I0000440J0000000D01*
G01X0048510Y0014250D02*
G03X0048950Y0013810I0000440J0000000D01*
G03X0049390Y0014250I0000000J0000440D01*
G03X0048950Y0014690I0000440J0000000D01*
G03X0048510Y0014250I0000000J0000440D01*
G01X0049410D02*
G03X0049850Y0013810I0000440J0000000D01*
G01X0058691Y0013860D02*
G03X0058672Y0013655I0001109J0000205D01*
G01X0050290Y0014250D02*
G03X0049850Y0014690I0000440J0000000D01*
G03X0049410Y0014250I0000000J0000440D01*
G01X0049850Y0013810D02*
G03X0050040Y0013853I0000000J0000440D01*
G01X0050950Y0013810D02*
G03X0051390Y0014250I0000000J0000440D01*
G03X0050950Y0014690I0000440J0000000D01*
G03X0050510Y0014250I0000000J0000440D01*
G01X0048510Y0013350D02*
G03X0048950Y0012910I0000440J0000000D01*
G03X0049390Y0013350I0000000J0000440D01*
G03X0048950Y0013790I0000440J0000000D01*
G03X0048510Y0013350I0000000J0000440D01*
G01X0047750Y0007484D02*
G03X0047920Y0007450I0000170J0000406D01*
G01X0048360Y0008110D02*
G03X0048207Y0008443I0000440J0000000D01*
G01X0047309Y0007543D02*
G03X0047580Y0007450I0000271J0000347D01*
G01X0047920D02*
G03X0048360Y0007890I0000000J0000440D01*
G03X0048346Y0008000I0000440J0000000D01*
G01X0011250Y0000716D02*
G03X0011469Y0000775I0000000J0000440D01*
G01X0050362Y0001160D02*
G03X0050363Y0001149I0000438J0000040D01*
G01X0023106Y0000761D02*
G03X0023300Y0000716I0000194J0000395D01*
G01X0051339Y0004130D02*
G03X0051266Y0004200I0000339J0000280D01*
G01X0018300Y0006884D02*
G03X0017862Y0006490I0000000J0000440D01*
G01X0050121Y0006626D02*
G03X0049975Y0006480I0000229J0000376D01*
G01X0045144Y0009104D02*
G03X0044967Y0009457I0000440J0000000D01*
G01X0048610Y0007990D02*
G03X0049050Y0007550I0000440J0000000D01*
G03X0049490Y0007990I0000000J0000440D01*
G03X0049050Y0008430I0000440J0000000D01*
G03X0048610Y0007990I0000000J0000440D01*
G01X0051450Y0004160D02*
G03X0051737Y0004267I0000000J0000440D01*
G01X0045433Y0004160D02*
G03X0045440Y0004140I0000417J0000140D01*
G01X0050500Y0005436D02*
G03X0050650Y0005410I0000150J0000414D01*
G01X0048260Y0005320D02*
G03X0048700Y0005760I0000000J0000440D01*
G01X0048150Y0006690D02*
G03X0047736Y0006398I0000000J0000440D01*
G01X0050292Y0000150D02*
G03X0050315Y0000205I0000392J0000200D01*
G01X0043220Y0007538D02*
G03X0042850Y0007740I0000370J0000238D01*
G01X0042420Y0007093D02*
G03X0042410Y0007000I0000430J0000093D01*
G01X0042850Y0007740D02*
G03X0042410Y0007300I0000000J0000440D01*
G01X0047580Y0007450D02*
G03X0047750Y0007484I0000000J0000440D01*
G01X0045600Y0001960D02*
G03X0045649Y0001963I0000000J0000440D01*
G01X0035300Y0005940D02*
G03X0035127Y0005904I0000000J0000440D01*
G01X0026310Y0003850D02*
G03X0026567Y0003450I0000440J0000000D01*
G01X0026346Y0004025D02*
G03X0026310Y0003850I0000404J0000175D01*
G01X0006810D02*
G03X0007067Y0003450I0000440J0000000D01*
G01X0006846Y0004025D02*
G03X0006810Y0003850I0000404J0000175D01*
G01X0013310D02*
G03X0013567Y0003450I0000440J0000000D01*
G01X0013346Y0004025D02*
G03X0013310Y0003850I0000404J0000175D01*
G01X0015290Y0003159D02*
G03X0015205Y0003410I0000440J0000009D01*
G01X0019810Y0003850D02*
G03X0020067Y0003450I0000440J0000000D01*
G01X0019846Y0004025D02*
G03X0019810Y0003850I0000404J0000175D01*
G01X0021045Y0003410D02*
G03X0020960Y0003150I0000355J0000260D01*
G01X0014310Y0011150D02*
G03X0014346Y0010975I0000440J0000000D01*
G01X0014567Y0011550D02*
G03X0014310Y0011150I0000183J0000400D01*
G01X0008807Y0010105D02*
G03X0008819Y0010045I0000393J0000045D01*
G01X0001350Y0012079D02*
G03X0001379Y0012079I0000000J0001521D01*
G01X0008067Y0011550D02*
G03X0007810Y0011150I0000183J0000400D01*
G01X0001460Y0010521D02*
G03X0001367Y0010250I0000346J0000271D01*
G01X0001360Y0011150D02*
G03X0001396Y0010975I0000440J0000000D01*
G01X0001360Y0011950D02*
G03X0001591Y0011563I0000440J0000000D01*
G01X0020810Y0011150D02*
G03X0020858Y0010950I0000440J0000000D01*
G01X0021067Y0011550D02*
G03X0020810Y0011150I0000183J0000400D01*
G01X0027310D02*
G03X0027346Y0010975I0000440J0000000D01*
G01X0027567Y0011550D02*
G03X0027310Y0011150I0000183J0000400D01*
G01X0047550Y0001310D02*
G03X0047842Y0001421I0000000J0000440D01*
G01X0010094Y0006839D02*
G03X0009900Y0006884I0000194J0000395D01*
G01X0023094Y0006839D02*
G03X0022900Y0006884I0000194J0000395D01*
G01X0018200Y0014234D02*
G03X0017762Y0013840I0000000J0000440D01*
G01X0017000Y0014192D02*
G03X0016800Y0014240I0000200J0000392D01*
G01X0004511Y0014111D02*
G03X0004200Y0014240I0000311J0000311D01*
G01X0025100Y0014234D02*
G03X0024932Y0014200I0000000J0000440D01*
G03X0024750Y0014239I0000182J0000400D01*
G01X0030638Y0013840D02*
G03X0030200Y0014240I0000438J0000040D01*
G01X0047151Y0001563D02*
G03X0047550Y0001309I0000399J0000187D01*
G01X0030975Y0000772D02*
G03X0031200Y0000710I0000225J0000378D01*
G01X0030750D02*
G03X0030975Y0000772I0000000J0000440D01*
G01X0018943Y0003993D02*
G03X0019300Y0003810I0000357J0000257D01*
G03X0019694Y0004055I0000000J0000440D01*
G01X0019810Y0003850D02*
G03X0020067Y0003450I0000440J0000000D01*
G03X0019820Y0003145I0000183J0000400D01*
G01X0040920Y0006950D02*
G03X0042450Y0005420I0001530J0000000D01*
G01X0054959Y0003446D02*
G03X0055040Y0003700I0000359J0000254D01*
G01X0008807Y0010105D02*
G03X0008819Y0010045I0000393J0000045D01*
G01X0013112Y0010598D02*
G03X0013021Y0010529I0000188J0000348D01*
G01X0013112Y0010598D02*
G03X0013021Y0010529I0000188J0000348D01*
G01X0014318Y0010886D02*
G03X0014121Y0010779I0000082J0000386D01*
G01X0015307Y0010105D02*
G03X0015319Y0010045I0000393J0000045D01*
G01X0015307Y0010105D02*
G03X0015319Y0010045I0000393J0000045D01*
G01X0012443Y0003993D02*
G03X0012800Y0003810I0000357J0000257D01*
G01X0015310Y0004290D02*
G03X0015329Y0004355I0000410J0000160D01*
G01X0056005Y0012532D02*
G03X0056141Y0012850I0000305J0000318D01*
G01X0055150Y0013290D02*
G03X0054711Y0012876I0000000J0000440D01*
G01X0056530Y0011850D02*
G03X0056419Y0012119I0000380J0000000D01*
G01X0056530Y0011850D02*
G03X0056419Y0012119I0000380J0000000D01*
G01X0056740Y0009050D02*
G03X0056475Y0009453I0000440J0000000D01*
G01X0055950Y0007460D02*
G03X0056390Y0007900I0000000J0000440D01*
G03X0056330Y0008122I0000440J0000000D01*
G01X0050370Y0007400D02*
G03X0050391Y0007276I0000380J0000000D01*
G01X0051109Y0004322D02*
G03X0051183Y0004250I0000341J0000278D01*
G01X0053600Y0009190D02*
G03X0053275Y0009046I0000000J0000440D01*
G01X0057220Y0005520D02*
G03X0056910Y0005100I0000130J0000420D01*
G01X0056951Y0004214D02*
G03X0056978Y0004165I0000399J0000186D01*
G01X0056769Y0003881D02*
G03X0056782Y0003895I0000269J0000269D01*
G01X0050391Y0007276D02*
G03X0050060Y0006850I0000109J0000426D01*
G01X0018600Y0014240D02*
G03X0018394Y0014189I0000000J0000440D01*
G01X0025443Y0003993D02*
G03X0025800Y0003810I0000357J0000257D01*
G01X0003475Y0014096D02*
G03X0003150Y0014240I0000325J0000296D01*
G01X0008503Y0011590D02*
G03X0008679Y0011855I0000253J0000360D01*
G01X0006300Y0011560D02*
G03X0006669Y0011760I0000000J0000440D01*
G01X0005942Y0011744D02*
G03X0006300Y0011560I0000358J0000256D01*
G01X0052212Y0004205D02*
G03X0052227Y0004130I0000438J0000045D01*
G01X0010300Y0006890D02*
G03X0010094Y0006839I0000000J0000440D01*
G01X0056282Y0005030D02*
G03X0056158Y0005264I0000432J0000080D01*
G01X0049760Y0004600D02*
G03X0049809Y0004397I0000440J0000000D01*
G01X0054650Y0002010D02*
G03X0055059Y0002287I0000000J0000440D01*
G01X0053076Y0003137D02*
G03X0053217Y0002919I0000424J0000119D01*
G01X0055165Y0003155D02*
G03X0055045Y0003138I0000000J0000440D01*
G01X0007800Y0010895D02*
G03X0007531Y0010789I0000000J0000395D01*
G01X0007810Y0011150D02*
G03X0007846Y0010975I0000440J0000000D01*
G01X0006660Y0010700D02*
G03X0006667Y0010622I0000440J0000000D01*
G03X0006521Y0010529I0000133J0000372D01*
G01X0007531Y0010789D02*
G03X0007100Y0011140I0000431J0000089D01*
G01X0002795Y0009512D02*
G03X0003000Y0009455I0000205J0000338D01*
G01X0019300Y0003440D02*
G03X0018943Y0003257I0000000J0000440D01*
G01X0003030Y0011041D02*
G03X0003045Y0011150I0000380J0000109D01*
G01X0013310Y0003850D02*
G03X0013567Y0003450I0000440J0000000D01*
G01X0014495Y0003410D02*
G03X0014410Y0003150I0000355J0000260D01*
G01X0002216Y0000150D02*
G03X0002871Y0001400I0000866J0001250D01*
G01X0005943Y0003993D02*
G03X0006300Y0003810I0000357J0000257D01*
G01X0005943Y0002333D02*
G03X0006350Y0002060I0000407J0000167D01*
G01X0012800Y0003440D02*
G03X0012443Y0003257I0000000J0000440D01*
G01X0009150Y0002060D02*
G03X0009394Y0002134I0000000J0000440D01*
G01X0027334Y0011805D02*
G03X0027567Y0011550I0000416J0000145D01*
G01X0025800Y0011560D02*
G03X0026132Y0011711I0000000J0000440D01*
G01X0025442Y0011744D02*
G03X0025800Y0011560I0000358J0000256D01*
G01X0053858Y0010150D02*
G03X0053810Y0009950I0000392J0000200D01*
G01X0021805Y0011805D02*
G03X0022040Y0011590I0000395J0000195D01*
G01X0021503D02*
G03X0021665Y0011805I0000253J0000360D01*
G01X0019300Y0011560D02*
G03X0019632Y0011711I0000000J0000440D01*
G01X0018942Y0011744D02*
G03X0019300Y0011560I0000358J0000256D01*
G01X0003800Y0013360D02*
G03X0003979Y0013398I0000000J0000440D01*
G01X0006669Y0011760D02*
G03X0007100Y0011410I0000431J0000090D01*
G01X0029058Y0004164D02*
G03X0028750Y0004290I0000308J0000314D01*
G01X0026194Y0003195D02*
G03X0025800Y0003440I0000394J0000195D01*
G01X0012800Y0011560D02*
G03X0013132Y0011711I0000000J0000440D01*
G01X0012442Y0011744D02*
G03X0012800Y0011560I0000358J0000256D01*
G01X0048050Y0001369D02*
G03X0048450Y0001161I0000400J0000281D01*
G01X0046660Y0002000D02*
G03X0047100Y0001560I0000440J0000000D01*
G03X0047152Y0001563I0000000J0000440D01*
G01X0050650Y0005410D02*
G03X0050902Y0005489I0000000J0000440D01*
G01X0049131Y0003164D02*
G03X0049221Y0003008I0000419J0000136D01*
G01X0053611Y0004180D02*
G03X0053510Y0003900I0000339J0000280D01*
G01X0051011Y0005598D02*
G03X0051063Y0005699I0000361J0000252D01*
G01X0051737Y0004267D02*
G03X0051950Y0004205I0000213J0000333D01*
G01X0055040Y0003700D02*
G03X0054995Y0003894I0000440J0000000D01*
G01X0056912Y0005055D02*
G03X0056661Y0004827I0000147J0000415D01*
G01X0044365Y0008341D02*
G03X0044527Y0008310I0000162J0000409D01*
G01X0050510Y0014250D02*
G03X0050590Y0013997I0000440J0000000D01*
G01X0050210D02*
G03X0050290Y0014250I0000360J0000253D01*
G01X0051300Y0009340D02*
G03X0050897Y0009078I0000000J0000440D01*
G01X0050653Y0008379D02*
G03X0050310Y0007950I0000097J0000429D01*
G01X0056080Y0006394D02*
G03X0056250Y0006360I0000170J0000406D01*
G01X0015387Y0006490D02*
G03X0015771Y0007500I0001137J0001010D01*
G01X0004210Y0005550D02*
G03X0004394Y0005192I0000440J0000000D01*
G01X0016150Y0014240D02*
G03X0015712Y0013840I0000000J0000440D01*
G01X0056328Y0001835D02*
G03X0056260Y0001600I0000372J0000235D01*
G01X0058230Y0006078D02*
G03X0058290Y0006300I0000380J0000222D01*
G01X0056700Y0011140D02*
G03X0056530Y0011106I0000000J0000440D01*
G01X0057411Y0006325D02*
G03X0057350Y0006330I0000061J0000375D01*
G01X0055540Y0005262D02*
G03X0055402Y0005570I0000440J0000012D01*
G01X0051454Y0007960D02*
G03X0051472Y0007970I0000204J0000390D01*
G01X0050897Y0009078D02*
G03X0050560Y0008650I0000103J0000428D01*
G01X0051522Y0009280D02*
G03X0051300Y0009340I0000222J0000380D01*
G01X0050560Y0008650D02*
G03X0050653Y0008379I0000440J0000000D01*
G01X0054140Y0013550D02*
G03X0053700Y0013990I0000440J0000000D01*
G01X0053133Y0013883D02*
G03X0053190Y0014100I0000383J0000217D01*
G01X0055700Y0013290D02*
G03X0055425Y0013193I0000000J0000440D01*
G01X0053700Y0013990D02*
G03X0053301Y0013736I0000000J0000440D01*
G01X0054130Y0013457D02*
G03X0054140Y0013550I0000430J0000093D01*
G01X0052820Y0012500D02*
G03X0052931Y0012231I0000380J0000000D01*
G01X0052760Y0012850D02*
G03X0052820Y0012628I0000440J0000000D01*
G01X0052848Y0013114D02*
G03X0052760Y0012850I0000352J0000264D01*
G01X0054220Y0008600D02*
G03X0054331Y0008331I0000380J0000000D01*
G01X0056250Y0007240D02*
G03X0056033Y0007183I0000000J0000440D01*
G01X0007067Y0003450D02*
G03X0006820Y0003145I0000183J0000400D01*
G01X0002718Y0002065D02*
G03X0003058Y0002335I0000068J0000435D01*
G01X0006550Y0004895D02*
G03X0006271Y0004779I0000000J0000395D01*
G01X0006550Y0004895D02*
G03X0006271Y0004779I0000000J0000395D01*
G01X0006838Y0004905D02*
G03X0006834Y0004895I0000412J0000155D01*
G01X0009000Y0004355D02*
G03X0009279Y0004471I0000000J0000395D01*
G01X0006820Y0004105D02*
G03X0006846Y0004025I0000430J0000095D01*
G01X0042410Y0007300D02*
G03X0042420Y0007207I0000440J0000000D01*
G01X0013334Y0004055D02*
G03X0013346Y0004025I0000416J0000145D01*
G01X0012443Y0003993D02*
G03X0012800Y0003810I0000357J0000257D01*
G03X0013194Y0004055I0000000J0000440D01*
G01X0053810Y0010350D02*
G03X0053858Y0010150I0000440J0000000D01*
G01X0056250Y0006360D02*
G03X0056690Y0006800I0000000J0000440D01*
G03X0056250Y0007240I0000440J0000000D01*
G01X0056080Y0006394D02*
G03X0056250Y0006360I0000170J0000406D01*
G01X0053219Y0013819D02*
G03X0053133Y0013883I0000269J0000269D01*
G01X0056033Y0007183D02*
G03X0055969Y0007269I0000333J0000183D01*
G01X0051260Y0013550D02*
G03X0051433Y0013200I0000440J0000000D01*
G01X0051700Y0013990D02*
G03X0051260Y0013550I0000000J0000440D01*
G01X0053219Y0013819D02*
G03X0053133Y0013883I0000269J0000269D01*
G01X0056033Y0007183D02*
G03X0055969Y0007269I0000333J0000183D01*
G01X0056158Y0005264D02*
G03X0056250Y0005286I0000058J0000436D01*
G01X0055880Y0007465D02*
G03X0055950Y0007459I0000070J0000435D01*
G01X0054568Y0007319D02*
G03X0054300Y0007430I0000268J0000269D01*
G01X0056250Y0006360D02*
G03X0056690Y0006800I0000000J0000440D01*
G03X0056250Y0007240I0000440J0000000D01*
G01X0056912Y0005055D02*
G03X0056661Y0004827I0000147J0000415D01*
G01X0055792Y0005386D02*
G03X0055540Y0005262I0000058J0000436D01*
G01X0034311Y0003689D02*
G03X0034331Y0003710I0000311J0000311D01*
G01X0035021Y0002971D02*
G03X0035300Y0002855I0000279J0000279D01*
G01X0044321Y0000871D02*
G03X0044600Y0000755I0000279J0000279D01*
G01X0045250Y0000710D02*
G03X0045690Y0001150I0000000J0000440D01*
G03X0045250Y0001590I0000440J0000000D01*
G01X0045056Y0000755D02*
G03X0045250Y0000710I0000194J0000395D01*
G01X0037825Y0001180D02*
G03X0037757Y0001265I0000375J0000230D01*
G01X0037385Y0001700D02*
G03X0037518Y0001385I0000440J0000000D01*
G01X0046871Y0008779D02*
G03X0046765Y0008590I0000279J0000279D01*
G01X0046871Y0008779D02*
G03X0046765Y0008590I0000279J0000279D01*
G01X0047950Y0009240D02*
G03X0047756Y0009195I0000000J0000440D01*
G01X0047450D02*
G03X0047171Y0009079I0000000J0000395D01*
G01X0048710Y0000700D02*
G03X0049150Y0000260I0000440J0000000D01*
Y0001140D02*
G03X0048710Y0000700I0000000J0000440D01*
G01X0049344Y0001095D02*
G03X0049150Y0001140I0000194J0000395D01*
Y0000260D02*
G03X0049344Y0000305I0000000J0000440D01*
G01X0054016Y0000150D02*
G03X0054671Y0001400I0000866J0001250D01*
G01X0050315Y0000205D02*
G03X0050532Y0000280I0000015J0000395D01*
G01X0051143Y0001650D02*
G03X0051287Y0001997I0000346J0000347D01*
G01X0050532Y0000280D02*
G03X0050840Y0000700I0000132J0000420D01*
G01X0055679Y0005570D02*
G03X0055791Y0005386I0000421J0000130D01*
G01X0054620Y0007332D02*
G03X0054568Y0007319I0000080J0000432D01*
G01X0020834Y0011805D02*
G03X0021067Y0011550I0000416J0000145D01*
G01X0038450Y0011840D02*
G03X0038010Y0011400I0000000J0000440D01*
G03X0038450Y0010960I0000440J0000000D01*
G01X0041139Y0011817D02*
G03X0041000Y0011840I0000139J0000417D01*
G01X0005163Y0009005D02*
G03X0005162Y0008988I0000437J0000055D01*
G01X0016800Y0006890D02*
G03X0016600Y0006842I0000000J0000440D01*
G01X0029750Y0006890D02*
G03X0029575Y0006854I0000000J0000440D01*
G01X0033094Y0011190D02*
G03X0032918Y0011154I0000000J0000440D01*
G01X0044556Y0002055D02*
G03X0044750Y0002010I0000194J0000395D01*
G01X0031600Y0008110D02*
G03X0032003Y0008374I0000000J0000440D01*
G01X0033901Y0006830D02*
G03X0034031Y0007060I0000301J0000320D01*
G01X0033940Y0006650D02*
G03X0033901Y0006830I0000440J0000000D01*
G01X0026972Y0010823D02*
G03X0026550Y0011140I0000422J0000123D01*
G01X0020858Y0010950D02*
G03X0020834Y0010895I0000392J0000200D01*
G01X0004214Y0005610D02*
G03X0004210Y0005550I0000436J0000060D01*
G01X0028310Y0004290D02*
G03X0028329Y0004355I0000410J0000160D01*
G01X0013113Y0008510D02*
G03X0012729Y0007500I0001137J0001010D01*
G01X0045649Y0001963D02*
G03X0046050Y0001704I0000401J0000181D01*
G01X0004750Y0008805D02*
G03X0004851Y0008818I0000000J0000395D01*
G01X0005163Y0009005D02*
G03X0005162Y0008988I0000437J0000055D01*
G01X0033936Y0006590D02*
G03X0033940Y0006650I0000436J0000060D01*
G01X0016600Y0006842D02*
G03X0016400Y0006890I0000200J0000392D01*
G01X0019834Y0004055D02*
G03X0019846Y0004025I0000416J0000145D01*
G01X0019300Y0003810D02*
G03X0019694Y0004055I0000000J0000440D01*
G01X0027545Y0003410D02*
G03X0027462Y0003195I0000355J0000260D01*
G01X0041780Y0006950D02*
G03X0042450Y0006280I0000670J0000000D01*
G01X0045658Y0006600D02*
G03X0045632Y0006539I0000392J0000200D01*
G01X0044960Y0007415D02*
G03X0044808Y0007380I0000000J0000345D01*
G01X0050403Y0004990D02*
G03X0050200Y0005040I0000203J0000390D01*
G01X0042420Y0006900D02*
G03X0042698Y0006280I0000830J0000000D01*
G01X0043085Y0008150D02*
G03X0043220Y0007876I0000345J0000000D01*
G01X0046250Y0007392D02*
G03X0046050Y0007440I0000200J0000392D01*
G01X0059800Y0014783D02*
G03X0059079Y0014522I0000000J0001128D01*
G01X0050760Y0013853D02*
G03X0050950Y0013810I0000190J0000397D01*
G01X0045633Y0006539D02*
G03X0045577Y0006534I0000017J0000439D01*
G01X0042410Y0007000D02*
G03X0042420Y0006907I0000440J0000000D01*
G01X0054568Y0007319D02*
G03X0054300Y0007430I0000268J0000269D01*
G01X0051520Y0007831D02*
G03X0051454Y0007960I0000420J0000131D01*
G01X0053981Y0007430D02*
G03X0054040Y0007650I0000381J0000220D01*
G01X0052269Y0009169D02*
G03X0052000Y0009280I0000269J0000269D01*
G01X0052950Y0009190D02*
G03X0052536Y0008901I0000000J0000440D01*
G01X0052269Y0009169D02*
G03X0052000Y0009280I0000269J0000269D01*
G01X0032411Y0001789D02*
G03X0032540Y0002100I0000311J0000311D01*
G01X0032411Y0001789D02*
G03X0032540Y0002100I0000311J0000311D01*
G01X0033560Y0005059D02*
G03X0033489Y0005117I0000313J0000309D01*
G01X0032790Y0003000D02*
G03X0032776Y0003110I0000440J0000000D01*
G01X0035355Y0007827D02*
G03X0035390Y0008000I0000405J0000173D01*
G01X0036740Y0006350D02*
G03X0036611Y0006661I0000440J0000000D01*
G01X0035561Y0007711D02*
G03X0035355Y0007827I0000311J0000311D01*
G01X0031600Y0014240D02*
G03X0031425Y0014204I0000000J0000440D01*
G01X0041950Y0001470D02*
G03X0042018Y0001385I0000375J0000230D01*
G03X0041950Y0001390I0000068J0000435D01*
G01X0046890Y0007000D02*
G03X0046802Y0007263I0000440J0000000D01*
G01X0045577Y0006534D02*
G03X0045644Y0006586I0000177J0000296D01*
G01X0040385Y0001700D02*
G03X0040518Y0001385I0000440J0000000D01*
G01X0045696Y0007261D02*
G03X0045684Y0007274I0000256J0000231D01*
G01X0041200Y0001930D02*
G03X0040825Y0002140I0000375J0000230D01*
G01X0046888Y0006445D02*
G03X0046772Y0006700I0000438J0000045D01*
G01X0046963Y0005550D02*
G03X0046988Y0005655I0000413J0000150D01*
G01X0047736Y0006398D02*
G03X0047550Y0006445I0000186J0000348D01*
G01X0047561Y0005481D02*
G03X0047840Y0005365I0000279J0000279D01*
G01X0056698Y0007012D02*
G03X0057138Y0006572I0000440J0000000D01*
G03X0057578Y0007012I0000000J0000440D01*
G03X0057138Y0007452I0000440J0000000D01*
G03X0056698Y0007012I0000000J0000440D01*
G01X0056400Y0005260D02*
G03X0056820Y0005570I0000000J0000440D01*
G01X0056250Y0005286D02*
G03X0056400Y0005260I0000150J0000414D01*
G03X0056820Y0005570I0000000J0000440D01*
G01X0056250Y0005286D02*
G03X0056400Y0005260I0000150J0000414D01*
G01X0060460Y0005350D02*
G03X0060900Y0004910I0000440J0000000D01*
G03X0061340Y0005350I0000000J0000440D01*
G03X0060900Y0005790I0000440J0000000D01*
G03X0060460Y0005350I0000000J0000440D01*
G01X0056330Y0008611D02*
G03X0056740Y0009050I0000030J0000439D01*
G01X0054220Y0010789D02*
G03X0053810Y0010350I0000030J0000439D01*
G01X0056330Y0008611D02*
G03X0056740Y0009050I0000030J0000439D01*
G01X0047842Y0001421D02*
G03X0048048Y0001369I0000208J0000388D01*
G01X0050836Y0000761D02*
G03X0051240Y0001200I0000036J0000439D01*
G01X0050836Y0000761D02*
G03X0051240Y0001200I0000036J0000439D01*
G01X0008831Y0003239D02*
G03X0008755Y0003410I0000431J0000089D01*
G01X0008956Y0002105D02*
G03X0009150Y0002060I0000194J0000395D01*
G01X0006810Y0003850D02*
G03X0007067Y0003450I0000440J0000000D01*
G01X0009558Y0004238D02*
G03X0009350Y0004290I0000208J0000388D01*
G01X0013335Y0004905D02*
G03X0013317Y0004845I0000412J0000155D01*
G01X0009040Y0003410D02*
G03X0008831Y0003239I0000160J0000410D01*
G01X0018943Y0003993D02*
G03X0019300Y0003810I0000357J0000257D01*
G01X0012800D02*
G03X0013194Y0004055I0000000J0000440D01*
G01X0009463Y0001110D02*
G03X0009900Y0000720I0000437J0000050D01*
G01X0015540Y0003410D02*
G03X0015290Y0003159I0000160J0000410D01*
G01X0021831Y0003239D02*
G03X0021755Y0003410I0000431J0000089D01*
G01X0033233Y0003110D02*
G03X0033500Y0002836I0000417J0000140D01*
G01X0034090Y0003250D02*
G03X0034052Y0003429I0000440J0000000D01*
G01X0034331Y0003710D02*
G03X0034421Y0003571I0000369J0000140D01*
G01X0032728Y0002775D02*
G03X0032790Y0003000I0000378J0000225D01*
G01X0026310Y0003850D02*
G03X0026567Y0003450I0000440J0000000D01*
G01X0038140Y0013100D02*
G03X0038137Y0013149I0000440J0000000D01*
G01X0027346Y0010975D02*
G03X0027320Y0010895I0000404J0000175D01*
G01X0027310Y0011150D02*
G03X0027346Y0010975I0000440J0000000D01*
G01X0020810Y0011150D02*
G03X0020858Y0010950I0000440J0000000D01*
G01X0040210Y0014010D02*
G03X0039910Y0013892I0000000J0000440D01*
G01X0028003Y0011590D02*
G03X0028165Y0011805I0000253J0000360D01*
G01X0027567Y0011550D02*
G03X0027310Y0011150I0000183J0000400D01*
G03X0027346Y0010975I0000440J0000000D01*
G01X0014310Y0011150D02*
G03X0014346Y0010975I0000440J0000000D01*
G01X0007846D02*
G03X0007820Y0010895I0000404J0000175D01*
G01X0014334Y0011805D02*
G03X0014567Y0011550I0000416J0000145D01*
G01X0021067D02*
G03X0020810Y0011150I0000183J0000400D01*
G03X0020858Y0010950I0000440J0000000D01*
G01X0008734Y0011855D02*
G03X0008990Y0011590I0000416J0000145D01*
G01X0007820Y0011855D02*
G03X0008067Y0011550I0000430J0000095D01*
G01X0016800Y0014240D02*
G03X0016475Y0014096I0000000J0000440D01*
G01X0014567Y0011550D02*
G03X0014310Y0011150I0000183J0000400D01*
G03X0014346Y0010975I0000440J0000000D01*
G01X0001489Y0011461D02*
G03X0001360Y0011150I0000311J0000311D01*
G03X0001396Y0010975I0000440J0000000D01*
G01X0001489Y0011461D02*
G03X0001360Y0011150I0000311J0000311D01*
G01X0002815Y0013190D02*
G03X0002865Y0013465I0001465J0000410D01*
G01X0008067Y0011550D02*
G03X0007810Y0011150I0000183J0000400D01*
G03X0007846Y0010975I0000440J0000000D01*
G01X0047710Y0003538D02*
G03X0047736Y0003400I0000440J0000012D01*
G01X0045886Y0008000D02*
G03X0045860Y0007850I0000414J0000150D01*
G01X0046513Y0004052D02*
G03X0046260Y0004140I0000263J0000352D01*
G01X0044041Y0005061D02*
G03X0043730Y0005190I0000311J0000311D01*
G01X0034460Y0006536D02*
G03X0034250Y0006589I0000210J0000386D01*
G01X0035211Y0005989D02*
G03X0035287Y0006091I0000311J0000311D01*
G01X0050400Y0014040D02*
G03X0050210Y0013997I0000000J0000440D01*
G01X0025800Y0003810D02*
G03X0026194Y0004055I0000000J0000440D01*
G01X0023812Y0001110D02*
G03X0024250Y0000710I0000438J0000040D01*
G01X0026346Y0004025D02*
G03X0026310Y0003850I0000404J0000175D01*
G03X0026567Y0003450I0000440J0000000D01*
G01X0013346Y0004025D02*
G03X0013310Y0003850I0000404J0000175D01*
G03X0013567Y0003450I0000440J0000000D01*
G01X0058673Y0013655D02*
G03X0058734Y0013289I0001127J0000000D01*
G01X0015962Y0001110D02*
G03X0016400Y0000710I0000438J0000040D01*
G01X0022558Y0004238D02*
G03X0022350Y0004290I0000208J0000388D01*
G01X0027179Y0004845D02*
G03X0027162Y0004905I0000429J0000095D01*
G01X0019846Y0004025D02*
G03X0019810Y0003850I0000404J0000175D01*
G03X0020067Y0003450I0000440J0000000D01*
G01X0005600Y0008110D02*
G03X0006038Y0008510I0000000J0000440D01*
G01X0003971Y0008921D02*
G03X0004250Y0008805I0000279J0000279D01*
G01X0004851Y0008818D02*
G03X0004760Y0008550I0000349J0000268D01*
G01X0035561Y0007711D02*
G03X0035355Y0007827I0000311J0000311D01*
G01X0035211Y0005989D02*
G03X0035287Y0006091I0000311J0000311D01*
G01X0044041Y0005061D02*
G03X0043730Y0005190I0000311J0000311D01*
G01X0046260Y0004140D02*
G03X0046267Y0004160I0000410J0000160D01*
G01X0019695Y0004850D02*
G03X0019691Y0004905I0000395J0000000D01*
G01X0019838D02*
G03X0019820Y0004845I0000412J0000155D01*
G01X0022250Y0004355D02*
G03X0022529Y0004471I0000000J0000395D01*
G01X0026334Y0004055D02*
G03X0026346Y0004025I0000416J0000145D01*
G01X0025443Y0003993D02*
G03X0025800Y0003810I0000357J0000257D01*
G03X0026194Y0004055I0000000J0000440D01*
G01X0026195Y0004850D02*
G03X0026191Y0004905I0000395J0000000D01*
G01X0028750Y0004355D02*
G03X0029029Y0004471I0000000J0000395D01*
G01X0026195Y0004850D02*
G03X0026191Y0004905I0000395J0000000D01*
G01X0034182Y0012090D02*
G03X0035521Y0013600I0000182J0001510D01*
G01X0010812Y0001110D02*
G03X0011250Y0000716I0000438J0000046D01*
G01X0002960Y0006050D02*
G03X0003400Y0005610I0000440J0000000D01*
G01X0003008Y0006250D02*
G03X0002960Y0006050I0000392J0000200D01*
G01X0004800Y0000710D02*
G03X0005000Y0000758I0000000J0000440D01*
G01X0003400Y0001990D02*
G03X0002960Y0001550I0000000J0000440D01*
G03X0003008Y0001350I0000440J0000000D01*
G01X0004800Y0000710D02*
G03X0005000Y0000758I0000000J0000440D01*
G01X0022462Y0001110D02*
G03X0022900Y0000710I0000438J0000040D01*
G01X0048425Y0002906D02*
G03X0048700Y0002810I0000275J0000344D01*
G01X0017750Y0000710D02*
G03X0017975Y0000772I0000000J0000440D01*
G01X0004238Y0006490D02*
G03X0003800Y0006890I0000438J0000040D01*
G01X0017750Y0000710D02*
G03X0017975Y0000772I0000000J0000440D01*
G01X0017312Y0001110D02*
G03X0017750Y0000710I0000438J0000040D01*
G01X0029817D02*
G03X0030238Y0001110I0000017J0000440D01*
G01X0024250Y0000710D02*
G03X0024475Y0000772I0000000J0000440D01*
G01X0052257Y0003048D02*
G03X0052210Y0002850I0000393J0000198D01*
G01X0024475Y0000772D02*
G03X0024700Y0000710I0000225J0000378D01*
G01X0024250D02*
G03X0024475Y0000772I0000000J0000440D01*
G01X0023812Y0001110D02*
G03X0024250Y0000710I0000438J0000040D01*
G01X0030750D02*
G03X0030975Y0000772I0000000J0000440D01*
G01X0010812Y0001110D02*
G03X0011250Y0000716I0000438J0000046D01*
G03X0011469Y0000775I0000000J0000440D01*
G01X0011250Y0000716D02*
G03X0011469Y0000775I0000000J0000440D01*
G01X0050590Y0013997D02*
G03X0050400Y0014040I0000190J0000397D01*
G01X0013567Y0003450D02*
G03X0013320Y0003145I0000183J0000400D01*
G01X0046708Y0002200D02*
G03X0046660Y0002000I0000392J0000200D01*
G01X0056475Y0009453D02*
G03X0056530Y0009650I0000325J0000197D01*
G01X0050362Y0001160D02*
G03X0050363Y0001149I0000438J0000040D01*
G01X0051240Y0001200D02*
G03X0051053Y0001560I0000440J0000000D01*
G01X0052221Y0003150D02*
G03X0052257Y0003048I0000429J0000096D01*
G01X0053217Y0002919D02*
G03X0053150Y0002920I0000067J0001519D01*
G01X0053084Y0002919D02*
G03X0053043Y0003048I0000434J0000069D01*
G01X0004511Y0014111D02*
G03X0004200Y0014240I0000311J0000311D01*
G03X0004000Y0014192I0000000J0000440D01*
G01X0005425Y0014204D02*
G03X0005250Y0014240I0000175J0000404D01*
G03X0004812Y0013840I0000000J0000440D01*
G01X0010700Y0014240D02*
G03X0010500Y0014192I0000000J0000440D01*
G01X0004000D02*
G03X0003800Y0014240I0000200J0000392D01*
G01X0010500Y0014192D02*
G03X0010300Y0014240I0000200J0000392D01*
G01X0017200D02*
G03X0017000Y0014192I0000000J0000440D01*
G01X0014346Y0010975D02*
G03X0014318Y0010886I0000404J0000175D01*
G01X0018394Y0014189D02*
G03X0018200Y0014234I0000194J0000395D01*
G01X0009650Y0014240D02*
G03X0009212Y0013840I0000000J0000440D01*
G01X0053510Y0003900D02*
G03X0053562Y0003692I0000440J0000000D01*
G01X0023300Y0014240D02*
G03X0022975Y0014096I0000000J0000440D01*
G01X0023500Y0014192D02*
G03X0023300Y0014240I0000200J0000392D01*
G01X0023700D02*
G03X0023500Y0014192I0000000J0000440D01*
G01X0024750Y0014240D02*
G03X0024312Y0013840I0000000J0000440D01*
G01X0029800Y0014240D02*
G03X0029475Y0014096I0000000J0000440D01*
G01X0030200Y0014240D02*
G03X0030000Y0014192I0000000J0000440D01*
G01X0058260Y0007750D02*
G03X0058700Y0007310I0000440J0000000D01*
G01X0056910Y0005100D02*
G03X0056912Y0005055I0000440J0000000D01*
G01X0058700Y0008190D02*
G03X0058260Y0007750I0000000J0000440D01*
G01X0030762Y0008510D02*
G03X0031200Y0008110I0000438J0000040D01*
G01X0029575Y0006854D02*
G03X0029400Y0006890I0000175J0000404D01*
G01X0058760Y0007314D02*
G03X0059800Y0006622I0001040J0000436D01*
G01X0030188Y0006490D02*
G03X0029750Y0006890I0000438J0000040D01*
G01X0047340Y0003136D02*
G03X0047379Y0003171I0000240J0000314D01*
G01X0046683Y0002260D02*
G03X0046708Y0002200I0000417J0000140D01*
G01X0031300Y0006890D02*
G03X0030862Y0006490I0000000J0000440D01*
G01X0047323Y0002780D02*
G03X0047340Y0002900I0000423J0000120D01*
G01X0056580Y0003628D02*
G03X0056625Y0003738I0000380J0000222D01*
G01X0035521Y0013600D02*
G03X0034934Y0014800I0001521J0000000D01*
G01X0035390Y0010700D02*
G03X0035261Y0011011I0000440J0000000D01*
G01X0035355Y0007827D02*
G03X0035390Y0008000I0000405J0000173D01*
G01X0032760Y0012267D02*
G03X0032640Y0012205I0000140J0000417D01*
G01X0031425Y0014204D02*
G03X0031250Y0014240I0000175J0000404D01*
G01X0056782Y0003895D02*
G03X0056770Y0003800I0000368J0000095D01*
G01X0041575Y0001180D02*
G03X0041507Y0001265I0000375J0000230D01*
G01X0046979Y0005495D02*
G03X0046963Y0005550I0000429J0000095D01*
G01X0045179Y0005121D02*
G03X0045213Y0005040I0000421J0000129D01*
G01X0042325Y0002140D02*
G03X0041950Y0001930I0000000J0000440D01*
G01X0044160Y0005100D02*
G03X0044164Y0005040I0000440J0000000D01*
G01X0047745Y0004800D02*
G03X0047629Y0005079I0000395J0000000D01*
G01X0046513Y0004052D02*
G03X0046260Y0004140I0000263J0000352D01*
G01X0048700Y0003990D02*
G03X0048425Y0003893I0000000J0000440D01*
G01X0047340Y0003136D02*
G03X0047379Y0003171I0000240J0000314D01*
G01X0047629Y0003421D02*
G03X0047710Y0003538I0000279J0000279D01*
G01X0056260Y0001600D02*
G03X0056700Y0001160I0000440J0000000D01*
G01X0057651Y0001714D02*
G03X0057669Y0001731I0000251J0000286D01*
G01X0056700Y0001160D02*
G03X0056939Y0001231I0000000J0000440D01*
G01X0030750Y0000710D02*
G03X0030975Y0000772I0000000J0000440D01*
G01X0053068Y0003384D02*
G03X0053140Y0003640I0000418J0000256D01*
G01X0056769Y0003881D02*
G03X0056782Y0003895I0000269J0000269D01*
G01X0054537Y0002025D02*
G03X0054650Y0002010I0000113J0000425D01*
G01X0060350Y0012671D02*
G03X0060863Y0013279I0000550J0000984D01*
G01X0058734Y0013289D02*
G03X0058700Y0013290I0000034J0000439D01*
G01X0059250Y0008734D02*
G03X0058760Y0008186I0000550J0000984D01*
G01X0044080Y0007810D02*
G03X0044365Y0008150I0000060J0000340D01*
G01X0045644Y0007314D02*
G03X0045400Y0007415I0000244J0000244D01*
G01X0043430Y0010985D02*
G03X0043085Y0010640I0000000J0000345D01*
G01X0044365D02*
G03X0044020Y0010985I0000345J0000000D01*
G01X0055820Y0002500D02*
G03X0055931Y0002231I0000380J0000000D01*
G01X0056580Y0003628D02*
G03X0056625Y0003738I0000380J0000222D01*
G01X0057787Y0001397D02*
G03X0057651Y0001714I0000440J0000000D01*
G03X0057669Y0001731I0000251J0000286D01*
G01X0055411Y0004020D02*
G03X0055820Y0003611I0000439J0000030D01*
G01X0058119Y0002181D02*
G03X0058230Y0002450I0000269J0000269D01*
G01X0058290Y0006300D02*
G03X0057850Y0006740I0000440J0000000D01*
G01X0009900Y0000720D02*
G03X0010096Y0000766I0000000J0000440D01*
G01X0051183Y0004250D02*
G03X0051071Y0004284I0000183J0000400D01*
G01X0049681Y0004269D02*
G03X0049570Y0004000I0000269J0000269D01*
G01X0050307Y0002679D02*
G03X0050250Y0002662I0000096J0000429D01*
G01X0049645Y0001160D02*
G03X0049605Y0001095I0000355J0000260D01*
G01X0051737Y0004267D02*
G03X0051950Y0004205I0000213J0000333D01*
G01X0056569Y0004919D02*
G03X0056300Y0005030I0000269J0000269D01*
G01X0056881Y0004069D02*
G03X0056868Y0004054I0000269J0000269D01*
G01X0056880Y0004238D02*
G03X0056951Y0004214I0000179J0000402D01*
G01X0055411Y0004020D02*
G03X0055820Y0003611I0000439J0000030D01*
G01X0015145Y0010045D02*
G03X0015172Y0010105I0000389J0000205D01*
G01X0020470Y0010679D02*
G03X0020050Y0010989I0000420J0000129D01*
Y0010990D02*
G03X0019612Y0010598I0000000J0000440D01*
G03X0019521Y0010529I0000188J0000348D01*
G01X0019612Y0010598D02*
G03X0019521Y0010529I0000188J0000348D01*
G01X0020834Y0010895D02*
G03X0020571Y0010779I0000016J0000395D01*
G01X0026121Y0010602D02*
G03X0026021Y0010529I0000179J0000352D01*
G01X0026121Y0010602D02*
G03X0026021Y0010529I0000179J0000352D01*
G01X0029475Y0014096D02*
G03X0029150Y0014240I0000325J0000296D01*
G01X0027200Y0010895D02*
G03X0026972Y0010823I0000000J0000395D01*
G01X0027342Y0010084D02*
G03X0027361Y0010045I0000408J0000166D01*
G01X0024262Y0008510D02*
G03X0024700Y0008110I0000438J0000040D01*
G54D60*
G01X0000325Y0005692D02*
X0000242Y0005608D01*
Y0005442D01*
X0000325Y0005358D01*
X0000408D01*
X0000575Y0005525D01*
X0000742Y0005358D01*
Y0005692D01*
G54D61*
G01X0015700Y0010750D02*
Y0010500D01*
Y0010150D01*
X0016000Y0009850D01*
X0019400D01*
X0019800Y0010250D01*
X0020600D01*
X0020850Y0010500D01*
X0022200D01*
Y0010750D01*
Y0010500D01*
Y0010050D01*
X0022400Y0009850D01*
X0025900D01*
X0026300Y0010250D01*
X0026950D01*
X0027200Y0010500D01*
X0028700D01*
Y0010750D01*
Y0010500D01*
Y0010000D01*
X0028850Y0009850D01*
X0033050D01*
X0034500Y0008400D01*
Y0008150D01*
X0035600Y0005250D02*
Y0004400D01*
X0035950Y0004050D01*
X0043050D01*
X0044000Y0003100D01*
X0045250D01*
X0019300Y0004250D02*
Y0004450D01*
X0020950D01*
X0021250Y0004750D01*
X0022250D01*
X0022600Y0005100D01*
X0025550D01*
X0025800Y0004850D01*
Y0004450D01*
Y0004250D01*
Y0004450D01*
X0027350D01*
X0027650Y0004750D01*
X0028750D01*
X0029100Y0005100D01*
X0032300D01*
X0033350Y0006150D01*
X0045600Y0005250D02*
X0045850D01*
X0046000Y0005100D01*
X0047050D01*
X0047350Y0004800D01*
Y0003700D01*
X0047100Y0003450D01*
X0046900D01*
X0044600Y0005100D02*
X0045050Y0005550D01*
X0045750D01*
X0045880Y0005680D01*
Y0005880D01*
X0046050Y0006050D01*
X0047550D01*
X0047840Y0005760D01*
X0048260D01*
X0010500Y0009400D02*
X0004950D01*
X0004750Y0009200D01*
X0004250D01*
X0004000Y0009450D01*
X0044750Y0002450D02*
X0043800D01*
X0042750Y0003500D01*
X0035550D01*
X0035000Y0004050D01*
Y0005250D01*
X0033500Y0006650D02*
X0032400Y0005550D01*
X0031000D01*
X0030000Y0009400D02*
X0030200Y0009200D01*
X0030850D01*
X0031000Y0009350D01*
X0032650D01*
X0033900Y0008100D01*
X0033500Y0006650D02*
X0032400Y0005550D01*
X0031000D01*
X0017000Y0009400D02*
X0017200Y0009200D01*
X0017700D01*
X0017900Y0009400D01*
X0023500D01*
X0030000D02*
X0024500D01*
X0024300Y0009200D01*
X0023700D01*
X0023500Y0009400D01*
X0017000D02*
X0011450D01*
X0011250Y0009200D01*
X0010700D01*
X0010500Y0009400D01*
X0005000Y0005550D02*
X0005250Y0005300D01*
X0011500D01*
X0018000D01*
Y0005550D01*
X0024500D02*
Y0005300D01*
X0030750D01*
X0031000Y0005550D01*
X0045250Y0002750D02*
X0043950D01*
X0042950Y0003750D01*
X0035800D01*
X0035300Y0004250D01*
Y0005500D01*
X0033600Y0008850D02*
X0032800Y0009650D01*
X0030350D01*
Y0009450D01*
X0030650Y0005550D02*
X0030900Y0005800D01*
X0032250D01*
X0033600Y0007150D01*
Y0008850D02*
X0032800Y0009650D01*
X0030350D01*
Y0009450D01*
X0012800Y0004250D02*
Y0004450D01*
X0014400D01*
X0014700Y0004750D01*
X0015500D01*
X0015850Y0005100D01*
X0019050D01*
X0019300Y0004850D01*
Y0004450D01*
Y0004250D01*
X0030650Y0005550D02*
X0024900D01*
X0024650Y0005800D01*
X0024400D01*
X0024150Y0005550D01*
X0023850Y0009450D02*
Y0009650D01*
X0017400D01*
Y0009450D01*
X0018000Y0005550D02*
Y0005300D01*
X0011500D01*
Y0005550D01*
X0024150D02*
X0018350D01*
X0018100Y0005800D01*
X0017900D01*
X0017650Y0005550D01*
X0018000D02*
Y0005300D01*
X0024500D01*
Y0005550D01*
X0017650D02*
X0011950D01*
X0011700Y0005800D01*
X0011400D01*
X0011150Y0005550D01*
X0005350D01*
X0005100Y0005800D01*
X0004900D01*
X0004650Y0005550D01*
X0030350Y0009450D02*
Y0009650D01*
X0023850D01*
Y0009450D01*
X0010900D02*
Y0009650D01*
X0004600D01*
X0004400Y0009450D01*
X0017400D02*
Y0009650D01*
X0010900D01*
Y0009450D01*
X0006300Y0004250D02*
X0006550Y0004500D01*
X0007750D01*
X0008000Y0004750D01*
X0009000D01*
X0009350Y0005100D01*
X0012534D01*
X0012800Y0004834D01*
Y0004450D01*
Y0004250D01*
X0032400Y0004150D02*
X0032300Y0004250D01*
Y0005100D01*
X0033350Y0006150D01*
X0034700Y0005500D02*
Y0003850D01*
X0035300Y0003250D01*
X0042500D01*
X0044600Y0001150D01*
X0045250D01*
X0047150Y0007953D02*
Y0008500D01*
X0047450Y0008800D01*
X0047950D01*
X0049150Y0000700D02*
X0049700D01*
X0049800Y0000600D01*
X0050300D01*
X0050400Y0000700D01*
X0019300Y0012450D02*
X0022200D01*
Y0003000D02*
X0021950Y0002750D01*
X0019550D01*
X0019300Y0003000D01*
X0025800Y0012450D02*
X0028700D01*
X0009200Y0010750D02*
Y0010500D01*
Y0010150D01*
X0009500Y0009850D01*
X0012900D01*
X0013300Y0010250D01*
X0014150D01*
X0014400Y0010500D01*
X0015700D01*
Y0010750D01*
X0012800Y0002500D02*
X0015700D01*
X0052100Y0004950D02*
X0053850D01*
X0054600Y0004200D01*
Y0003700D01*
X0025800Y0002550D02*
X0028700D01*
X0009150Y0012000D02*
X0008900Y0012250D01*
X0006550D01*
X0006300Y0012000D01*
X0051800Y0004950D02*
Y0004750D01*
X0051950Y0004600D01*
X0053750D01*
X0054300Y0004050D01*
Y0003550D01*
X0054650Y0003200D01*
Y0002450D01*
X0009200Y0010750D02*
Y0010500D01*
X0007800D01*
X0007550Y0010250D01*
X0006800D01*
X0006400Y0009850D01*
X0003000D01*
X0002700Y0010150D01*
Y0010750D01*
X0015700Y0003000D02*
X0015450Y0002750D01*
X0013050D01*
X0012800Y0003000D01*
X0006350Y0002500D02*
X0009150D01*
X0028700Y0012000D02*
X0028500Y0012200D01*
X0026000D01*
X0025800Y0012000D01*
X0022200D02*
X0022000Y0012200D01*
X0019500D01*
X0019300Y0012000D01*
X0006300Y0012450D02*
X0009200D01*
X0028700Y0003000D02*
X0028500Y0002800D01*
X0026000D01*
X0025800Y0003000D01*
X0015700Y0012000D02*
X0015500Y0012200D01*
X0013000D01*
X0012800Y0012000D01*
X0019300Y0002500D02*
X0022200D01*
X0012800Y0012450D02*
X0015700D01*
X0049600Y0006250D02*
X0048150D01*
X0009200Y0003000D02*
X0008950Y0002750D01*
X0006650D01*
X0006350Y0003050D01*
X0002650Y0012000D02*
Y0011150D01*
X0002400Y0010900D01*
Y0003250D01*
X0002650Y0003000D01*
Y0002500D02*
X0002200Y0002950D01*
Y0011050D01*
X0002400Y0011250D01*
Y0012200D01*
X0002650Y0012450D01*
G54D64*
G01X0048450Y0001650D02*
X0050450D01*
X0050797Y0001997D01*
Y0002250D01*
Y0003097D01*
X0051340Y0003640D01*
X0052650D01*
G54D65*
G01X0041752Y0019628D02*
X0042169Y0018794D01*
X0041058Y0019628D02*
X0041891D01*
X0042169Y0019905D01*
Y0020183D01*
X0041891Y0020461D01*
X0041058D01*
Y0018794D01*
X0040241Y0019628D02*
X0039408D01*
X0040519Y0018794D02*
X0039408D01*
Y0020461D01*
X0040519D01*
X0037897Y0018794D02*
Y0020461D01*
X0037758Y0018794D02*
X0038591D01*
X0038869Y0019350D01*
Y0019905D01*
X0038591Y0020461D01*
X0037758D01*
X0037219Y0018794D02*
X0036247D01*
Y0020461D01*
X0034736Y0018794D02*
X0034597Y0019072D01*
Y0020183D01*
X0034736Y0020461D01*
X0035569D01*
X0035708Y0020183D01*
Y0019072D01*
X0035569Y0018794D01*
X0034736D01*
X0034058Y0020183D02*
X0033919Y0020461D01*
X0033086D01*
X0032947Y0020183D01*
Y0019905D01*
X0033086Y0019628D01*
X0033919D01*
X0034058Y0019350D01*
Y0019072D01*
X0033919Y0018794D01*
X0033086D01*
X0032947Y0019072D01*
X0030133Y0018794D02*
X0029022D01*
X0030133Y0019905D01*
Y0020183D01*
X0029994Y0020461D01*
X0029161D01*
X0029022Y0020183D01*
X0025791Y0019628D02*
X0026208Y0018794D01*
X0025097Y0019628D02*
X0025930D01*
X0026208Y0019905D01*
Y0020183D01*
X0025930Y0020461D01*
X0025097D01*
Y0018794D01*
X0024280Y0019628D02*
X0023447D01*
X0024558Y0018794D02*
X0023447D01*
Y0020461D01*
X0024558D01*
X0022908D02*
Y0018794D01*
X0022630Y0019072D01*
X0022075Y0020183D01*
X0021797Y0020461D01*
Y0018794D01*
X0021258Y0020461D02*
Y0018794D01*
X0020980Y0019072D01*
X0020425Y0020183D01*
X0020147Y0020461D01*
Y0018794D01*
X0019608D02*
X0019053D01*
X0019330D02*
Y0020461D01*
X0019608D02*
X0019053D01*
X0015961Y0019628D02*
X0014850D01*
X0010925Y0019072D02*
X0011203Y0018794D01*
X0011758D01*
X0012036Y0019072D01*
Y0019350D01*
X0011480Y0019905D01*
X0012036Y0020461D01*
X0010925D01*
X0007694Y0019628D02*
X0008111Y0018794D01*
X0007000Y0019628D02*
X0007833D01*
X0008111Y0019905D01*
Y0020183D01*
X0007833Y0020461D01*
X0007000D01*
Y0018794D01*
X0006183Y0019628D02*
X0005350D01*
X0006461Y0018794D02*
X0005350D01*
Y0020461D01*
X0006461D01*
X0004255Y0018794D02*
Y0019628D01*
X0004811Y0020461D02*
X0004394Y0019628D01*
X0004116D01*
X0003700Y0020461D01*
X0003161Y0019350D02*
X0002050D01*
X0003161Y0018794D02*
Y0019628D01*
X0002744Y0020461D01*
X0002466D01*
X0002050Y0019628D01*
Y0018794D01*
X0001511D02*
X0000539D01*
Y0020461D01*
X0009900Y0006050D02*
X0003400D01*
X0009900Y0001550D02*
X0004800D01*
Y0001150D01*
X0003400Y0001550D02*
X0004800D01*
Y0001150D01*
X0022900Y0001550D02*
X0017750D01*
Y0001150D01*
X0016400Y0001550D02*
X0017750D01*
Y0001150D01*
X0029400Y0001550D02*
X0024250D01*
Y0001150D01*
X0022900Y0001550D02*
X0024250D01*
Y0001150D01*
X0029400Y0001550D02*
X0030750D01*
Y0001150D01*
X0011250Y0001156D02*
Y0001500D01*
X0011200Y0001550D01*
X0009900D01*
X0011250Y0001156D02*
Y0001500D01*
Y0001550D01*
X0016400D01*
X0004200Y0013800D02*
X0004600Y0013400D01*
X0005600D01*
X0012100D02*
X0010700D01*
X0005600D01*
X0010700Y0013800D02*
Y0013400D01*
X0005600D01*
X0017200Y0013800D02*
Y0013400D01*
X0012100D01*
X0018600D02*
X0017200D01*
X0012100D01*
X0025100D02*
X0023700D01*
X0018600D01*
X0023700Y0013800D02*
Y0013400D01*
X0018600D01*
X0031600D02*
X0030200D01*
X0025100D01*
X0030200Y0013800D02*
Y0013400D01*
X0025100D01*
X0031600Y0008950D02*
X0032050D01*
X0033500Y0007500D01*
X0033499D01*
X0032054Y0006050D01*
X0029400D01*
X0046900Y0003150D02*
Y0002900D01*
X0046700Y0002700D01*
X0045900D01*
X0045600Y0002400D01*
X0045250D01*
X0031600Y0008950D02*
X0032050D01*
X0033500Y0007500D01*
X0034450D01*
X0034950Y0008000D01*
Y0010700D01*
X0032250Y0013400D01*
X0031600D01*
Y0008950D02*
X0032050D01*
X0033500Y0007500D01*
X0034450D01*
X0034500D01*
X0034900Y0007100D01*
X0035950Y0006050D01*
Y0004700D01*
X0036250Y0004400D01*
X0043550D01*
X0044250Y0003700D01*
X0046250D01*
X0046500Y0003450D01*
X0046900D01*
X0030750Y0001150D02*
Y0001550D01*
X0031550D01*
X0032100Y0002100D01*
Y0003300D01*
X0032350Y0003550D01*
X0033550D01*
X0034000Y0004000D01*
Y0005400D01*
X0034900Y0006300D01*
Y0007100D01*
X0034500Y0007500D01*
X0034450D01*
X0033500D01*
X0032050Y0008950D01*
X0031600D01*
X0007250Y0003850D02*
X0009350D01*
X0009650Y0003550D01*
Y0002500D01*
X0010000Y0002150D01*
X0016150D01*
Y0003500D01*
X0015800Y0003850D01*
X0013750D01*
X0033250D02*
X0032700D01*
X0032200D01*
X0031800Y0003450D01*
Y0002450D01*
X0031500Y0002150D01*
X0029150D01*
Y0003450D01*
X0028750Y0003850D01*
X0026750D01*
X0034200Y0009250D02*
X0032200Y0011250D01*
Y0012500D01*
X0031950Y0012750D01*
X0029150D01*
Y0011450D01*
X0028850Y0011150D01*
X0027750D01*
X0021250D02*
X0022350D01*
X0022650Y0011450D01*
Y0012750D01*
X0029150D01*
Y0011450D01*
X0028850Y0011150D01*
X0027750D01*
X0014750D02*
X0015850D01*
X0016150Y0011450D01*
Y0012750D01*
X0022650D01*
Y0011450D01*
X0022350Y0011150D01*
X0021250D01*
X0008250D02*
X0009350D01*
X0009650Y0011450D01*
Y0012750D01*
X0016150D01*
Y0011450D01*
X0015850Y0011150D01*
X0014750D01*
X0001800D02*
X0002100Y0011450D01*
Y0012300D01*
X0002550Y0012750D01*
X0009650D01*
Y0011450D01*
X0009350Y0011150D01*
X0008250D01*
X0046950Y0004300D02*
X0046650Y0004600D01*
X0043880D01*
X0043730Y0004750D01*
X0036800D01*
X0036300Y0005250D01*
Y0006350D01*
X0035450Y0007200D01*
X0020250Y0003850D02*
X0022350D01*
X0022650Y0003550D01*
Y0002150D01*
X0029150D01*
Y0003450D01*
X0028750Y0003850D01*
X0026750D01*
X0013750D02*
X0015800D01*
X0016150Y0003500D01*
Y0002150D01*
X0022650D01*
Y0003550D01*
X0022350Y0003850D01*
X0020250D01*
X0033250D02*
X0032700D01*
Y0004950D01*
X0033900Y0006150D01*
X0033950D01*
X0016400Y0006050D02*
X0009900D01*
X0022900D02*
X0016400D01*
X0029400D02*
X0022900D01*
X0012100Y0008950D02*
X0005600D01*
X0018600D02*
X0012100D01*
X0025100D02*
X0018600D01*
X0031600D02*
X0025100D01*
X0035250Y0007400D02*
X0035450Y0007200D01*
X0034200Y0009250D02*
X0034500Y0008950D01*
X0040650Y0011400D02*
X0041000D01*
X0033950Y0006150D02*
X0034250D01*
X0040650Y0011400D02*
X0038450D01*
G54D72*
G01X0042850Y0007300D02*
Y0007000D01*
Y0006900D01*
X0043250Y0006500D02*
X0045050D01*
Y0006950D02*
X0044050D01*
X0043650Y0007350D02*
Y0008300D01*
X0041350Y0011050D02*
Y0006950D01*
X0042450Y0005850D02*
X0045650D01*
X0043650Y0010500D02*
Y0008300D01*
X0043850Y0010500D02*
X0043650D01*
G01X0042850Y0006900D02*
G03X0043250Y0006500I0000400J0000000D01*
G01X0043650Y0007350D02*
G03X0044050Y0006950I0000400J0000000D01*
G01X0041350Y0011050D02*
G03X0041000Y0011400I0000350J0000000D01*
G01X0041350Y0006950D02*
G03X0042450Y0005850I0001100J0000000D01*
G54D62*
X0057850Y0006300D03*
X0047100Y0002400D03*
X0056200Y0003850D03*
X0022200Y0010750D03*
X0028700D03*
X0034500Y0008150D03*
X0035600Y0005250D03*
X0045250Y0003100D03*
X0025800Y0004250D03*
X0058700Y0007750D03*
X0055850Y0004050D03*
X0045600Y0005250D03*
X0056700Y0001600D03*
X0050800Y0001200D03*
X0004000Y0009450D03*
X0044750Y0002450D03*
X0035000Y0005250D03*
X0033900Y0008100D03*
X0033500Y0006650D03*
X0030000Y0009400D03*
X0023500D03*
X0010500D03*
X0005000Y0005550D03*
X0031000D03*
X0045250Y0002750D03*
X0035300Y0005500D03*
X0019300Y0004250D03*
X0011500Y0005550D03*
X0024150D03*
X0054700Y0006900D03*
X0051300Y0008900D03*
X0051250Y0008350D03*
X0054350Y0005750D03*
X0017650Y0005550D03*
X0011150D03*
X0004650D03*
X0023850Y0009450D03*
X0057150Y0002250D03*
X0051000Y0008650D03*
X0004400Y0009450D03*
X0017400D03*
X0010900D03*
X0053700Y0013550D03*
X0055750Y0008250D03*
X0053200Y0012850D03*
X0053950Y0006650D03*
X0006300Y0004250D03*
X0012800D03*
X0032400Y0004150D03*
X0033350Y0006150D03*
X0054250Y0009950D03*
X0051700Y0013550D03*
X0054050Y0006150D03*
X0056250Y0006800D03*
X0055850Y0004950D03*
X0045250Y0001150D03*
X0049150Y0000700D03*
X0050400D03*
X0032350Y0003000D03*
Y0002550D03*
X0056100Y0005700D03*
X0054250Y0010350D03*
X0019300Y0012450D03*
X0022200D03*
Y0003000D03*
X0019300D03*
X0025800Y0012450D03*
X0028700D03*
X0015700Y0010750D03*
X0012800Y0002500D03*
X0015700D03*
X0055150Y0012850D03*
X0055950Y0007900D03*
X0050750Y0007950D03*
X0051800Y0005750D03*
X0057350Y0004400D03*
Y0005100D03*
X0051550Y0006156D03*
X0051100Y0007700D03*
X0052100Y0004950D03*
X0054600Y0003700D03*
X0025800Y0002550D03*
X0028700D03*
X0009150Y0012000D03*
X0006300D03*
X0051800Y0004950D03*
X0054650Y0002450D03*
X0009200Y0010750D03*
X0002700D03*
X0015700Y0003000D03*
X0012800D03*
X0006350Y0002500D03*
X0009150D03*
X0051600Y0007200D03*
X0051950Y0006250D03*
X0028700Y0012000D03*
X0025800D03*
X0022200D03*
X0019300D03*
X0006300Y0012450D03*
X0009200D03*
X0028700Y0003000D03*
X0025800D03*
X0015700Y0012000D03*
X0012800D03*
X0019300Y0002500D03*
X0022200D03*
X0047100Y0002000D03*
X0056250Y0004250D03*
X0012800Y0012450D03*
X0015700D03*
X0009200Y0003000D03*
X0006350Y0003050D03*
X0002650Y0012000D03*
Y0003000D03*
G54D66*
X0059800Y0007750D03*
Y0009718D03*
Y0011687D03*
Y0013655D03*
G54D67*
X0034000Y0013600D03*
X0001350D03*
X0014250Y0007500D03*
X0053150Y0001400D03*
X0034000D03*
X0001350D03*
G54D68*
X0034287Y0009950D03*
X0033094Y0010750D03*
X0048050Y0001809D03*
X0053500Y0003256D03*
X0053272Y0008182D03*
X0048416Y0003399D03*
X0011700Y0013794D03*
X0054703Y0005247D03*
X0046050Y0002144D03*
X0033247Y0004750D03*
X0026550Y0010700D03*
X0020050Y0010550D03*
X0013747Y0004750D03*
X0013550Y0010550D03*
X0001806Y0010250D03*
X0018300Y0006444D03*
X0045860Y0003160D03*
X0010300Y0001156D03*
X0048950Y0011487D03*
X0021400Y0004450D03*
X0033247Y0004200D03*
X0024800Y0006450D03*
X0008400Y0004450D03*
X0005300Y0006444D03*
X0014756Y0010250D03*
X0054956Y0006500D03*
X0055350D03*
X0050797Y0002250D03*
X0052650Y0003640D03*
X0018200Y0013794D03*
X0057347Y0001397D03*
X0058599Y0001350D03*
X0053000Y0006106D03*
X0055700Y0014150D03*
X0052694Y0010994D03*
X0055165Y0002715D03*
X0056700Y0010700D03*
X0055100Y0005250D03*
X0053000Y0006500D03*
X0051700Y0012850D03*
X0052750Y0014100D03*
X0054650D03*
X0055700Y0012850D03*
X0056750Y0014050D03*
X0061100Y0013650D03*
X0058700Y0012850D03*
Y0014300D03*
X0050400Y0013600D03*
X0050950Y0012850D03*
X0049850D03*
X0048150Y0003550D03*
Y0003250D03*
X0048700D03*
Y0003550D03*
X0050500Y0006850D03*
X0049600Y0006250D03*
X0048150D03*
X0018000Y0005550D03*
X0024500D03*
X0047950Y0008800D03*
X0047150Y0007953D03*
X0050650Y0006250D03*
X0052950Y0007650D03*
Y0008750D03*
X0050650Y0005850D03*
X0050350D03*
Y0006250D03*
X0052700Y0008200D03*
X0053600Y0008750D03*
X0048950Y0014250D03*
X0049850D03*
X0050950D03*
X0048950Y0013350D03*
X0047580Y0008110D03*
Y0007890D03*
X0047920D03*
Y0008110D03*
X0038450Y0011400D03*
X0011250Y0001156D03*
X0050000Y0002194D03*
X0052650Y0003246D03*
X0023300Y0001156D03*
X0025100Y0013794D03*
X0050403Y0002250D03*
X0008256Y0010250D03*
X0022900Y0006444D03*
X0046259Y0006704D03*
X0009900Y0006444D03*
X0049050Y0007990D03*
X0051000Y0003850D03*
X0050600D03*
X0052650Y0004250D03*
X0046950Y0004000D03*
Y0004300D03*
X0048260Y0005760D03*
X0044600Y0005100D03*
X0050000Y0000900D03*
X0043650Y0008300D03*
X0042850Y0007300D03*
Y0007000D03*
X0045050Y0006450D03*
Y0006250D03*
Y0006950D03*
X0045300D03*
X0040650Y0011400D03*
X0045650Y0005850D03*
Y0006100D03*
X0035250Y0007400D03*
X0035450Y0007200D03*
X0046900Y0003150D03*
Y0003450D03*
X0045250Y0002400D03*
X0034500Y0008950D03*
X0034200Y0009250D03*
X0033950Y0006150D03*
X0034250D03*
X0033250Y0003850D03*
X0029400Y0001550D03*
X0026750Y0003850D03*
X0007250D03*
X0013750D03*
X0020250D03*
X0014750Y0011150D03*
X0008250D03*
X0001800D03*
X0021250D03*
X0027750D03*
X0031600Y0008950D03*
X0025100D03*
X0018600D03*
X0012100D03*
X0005600D03*
X0047550Y0001750D03*
X0003400Y0006050D03*
X0009900D03*
X0029400D03*
X0016400D03*
X0022900D03*
X0017000Y0009400D03*
X0017200Y0013800D03*
X0018600Y0013400D03*
X0012100D03*
X0010700Y0013800D03*
X0005600Y0013400D03*
X0004200Y0013800D03*
X0023700D03*
X0025100Y0013400D03*
X0030200Y0013800D03*
X0031600Y0013400D03*
X0034700Y0005500D03*
X0048450Y0001650D03*
X0030750Y0001150D03*
X0022900Y0001550D03*
X0017750Y0001150D03*
X0016400Y0001550D03*
X0024250Y0001150D03*
X0003400Y0001550D03*
X0009900D03*
X0004800Y0001150D03*
X0012100Y0008550D03*
X0011700D03*
X0010250D03*
X0003800Y0006450D03*
X0003400D03*
X0001950Y0003150D03*
Y0004450D03*
X0003800Y0001150D03*
X0003400D03*
X0007250Y0004200D03*
X0008400Y0003150D03*
X0007250Y0003050D03*
Y0004750D03*
X0005200Y0001150D03*
X0005850D03*
X0009900Y0001160D03*
X0011700Y0001150D03*
X0012350D03*
X0010300Y0006450D03*
X0011800D03*
X0016800D03*
X0016400D03*
X0013750Y0004200D03*
Y0003050D03*
X0014850Y0003150D03*
X0014900Y0004450D03*
X0018850Y0001150D03*
X0018200D03*
X0016800D03*
X0016400D03*
X0020250Y0004750D03*
Y0004200D03*
Y0003050D03*
X0021400Y0003150D03*
X0022900Y0001150D03*
X0025350D03*
X0024700D03*
X0023300Y0006450D03*
X0033650Y0003250D03*
X0027900Y0003150D03*
X0029400Y0000850D03*
X0026750Y0004200D03*
Y0003050D03*
X0031850Y0001150D03*
X0031200D03*
X0029800D03*
X0027900Y0004450D03*
X0026750Y0004750D03*
X0029400Y0006450D03*
X0029750D03*
X0031300D03*
X0018600Y0008550D03*
X0018200D03*
X0016700D03*
X0021250Y0008500D03*
X0019900D03*
X0021350Y0007450D03*
X0021700D03*
X0024700Y0008550D03*
X0023200D03*
X0025100D03*
X0022050Y0007000D03*
X0021700D03*
X0021350D03*
X0022050Y0007450D03*
X0001800Y0010800D03*
X0003700Y0008550D03*
X0005600D03*
X0005200D03*
X0005600Y0013800D03*
X0005250D03*
X0003800D03*
X0003150D03*
X0001800Y0011950D03*
X0008250D03*
Y0010800D03*
X0007100Y0010700D03*
Y0011850D03*
X0010300Y0013800D03*
X0009650D03*
X0013550Y0011850D03*
X0014750Y0010800D03*
Y0011950D03*
X0018600Y0013800D03*
X0016800D03*
X0016150D03*
X0020050Y0011850D03*
X0021250Y0010250D03*
Y0010750D03*
Y0011950D03*
X0022650Y0013800D03*
X0023300D03*
X0024750D03*
X0027750Y0011950D03*
X0029150Y0013800D03*
X0029800D03*
X0031600D03*
X0031250D03*
X0027750Y0010800D03*
Y0010250D03*
X0026550Y0011850D03*
X0032900D03*
X0031600Y0008550D03*
X0031200D03*
X0029700D03*
X0042325Y0001700D03*
X0041575D03*
X0040825D03*
X0038575D03*
X0037825D03*
X0041950Y0000950D03*
X0041200D03*
X0040450D03*
X0038950D03*
X0038200D03*
X0037450D03*
X0046750Y0008150D03*
Y0007700D03*
X0046300Y0007850D03*
Y0008150D03*
X0046550Y0005700D03*
X0046100D03*
Y0005400D03*
X0046550D03*
X0045850Y0004300D03*
Y0003950D03*
Y0003450D03*
X0049900Y0000350D03*
X0049550Y0003300D03*
X0050200Y0004600D03*
X0051450D03*
X0053950Y0003900D03*
Y0003050D03*
X0053600Y0007650D03*
X0053850Y0008200D03*
X0044527Y0010167D03*
X0044704Y0009813D03*
X0044350D03*
X0044527Y0009459D03*
X0044704Y0009104D03*
X0044350D03*
X0044527Y0008750D03*
X0045800Y0009350D03*
Y0010150D03*
X0046650D03*
X0046450Y0007000D03*
X0046050D03*
X0046450Y0006400D03*
X0046050D03*
X0043850Y0008300D03*
Y0010500D03*
X0043650D03*
X0040210Y0013570D03*
X0039610D03*
X0039900Y0013100D03*
X0040210Y0012630D03*
X0039610D03*
X0038010Y0013570D03*
X0037410D03*
X0037700Y0013100D03*
X0038010Y0012630D03*
X0037410D03*
X0052650Y0002850D03*
X0031386Y0012136D03*
X0031040D03*
X0030677D03*
X0030323D03*
X0029968D03*
X0029614D03*
X0031209Y0011781D03*
X0030854D03*
X0030500D03*
X0030146D03*
X0029791D03*
X0031386Y0011427D03*
X0031040D03*
X0030677D03*
X0030323D03*
X0029968D03*
X0029614D03*
X0031209Y0011073D03*
X0030854D03*
X0030500D03*
X0030146D03*
X0029791D03*
X0031386Y0010718D03*
X0031040D03*
X0030677D03*
X0030323D03*
X0029968D03*
X0029614D03*
X0031209Y0010364D03*
X0030854D03*
X0030500D03*
X0030146D03*
X0029791D03*
X0024886Y0012136D03*
X0024540D03*
X0024177D03*
X0023823D03*
X0023468D03*
X0023114D03*
X0024709Y0011781D03*
X0024354D03*
X0024000D03*
X0023646D03*
X0023291D03*
X0024886Y0011427D03*
X0024540D03*
X0024177D03*
X0023823D03*
X0023468D03*
X0023114D03*
X0024709Y0011073D03*
X0024354D03*
X0024000D03*
X0023646D03*
X0023291D03*
X0024886Y0010718D03*
X0024540D03*
X0024177D03*
X0023823D03*
X0023468D03*
X0023114D03*
X0024709Y0010364D03*
X0024354D03*
X0024000D03*
X0023646D03*
X0023291D03*
X0018386Y0012136D03*
X0018040D03*
X0017677D03*
X0017323D03*
X0016968D03*
X0016614D03*
X0018209Y0011781D03*
X0017854D03*
X0017500D03*
X0017146D03*
X0016791D03*
X0018386Y0011427D03*
X0018040D03*
X0017677D03*
X0017323D03*
X0016968D03*
X0016614D03*
X0018209Y0011073D03*
X0017854D03*
X0017500D03*
X0017146D03*
X0016791D03*
X0018386Y0010718D03*
X0018040D03*
X0017677D03*
X0017323D03*
X0016968D03*
X0016614D03*
X0018209Y0010364D03*
X0017854D03*
X0017500D03*
X0017146D03*
X0016791D03*
X0011886Y0012136D03*
X0011540D03*
X0011177D03*
X0010823D03*
X0010468D03*
X0010114D03*
X0011709Y0011781D03*
X0011354D03*
X0011000D03*
X0010646D03*
X0010291D03*
X0011886Y0011427D03*
X0011540D03*
X0011177D03*
X0010823D03*
X0010468D03*
X0010114D03*
X0011709Y0011073D03*
X0011354D03*
X0011000D03*
X0010646D03*
X0010291D03*
X0011886Y0010718D03*
X0011540D03*
X0011177D03*
X0010823D03*
X0010468D03*
X0010114D03*
X0011709Y0010364D03*
X0011354D03*
X0011000D03*
X0010646D03*
X0010291D03*
X0005386Y0012136D03*
X0005040D03*
X0004677D03*
X0004323D03*
X0003968D03*
X0003614D03*
X0005209Y0011781D03*
X0004854D03*
X0004500D03*
X0004146D03*
X0003791D03*
X0005386Y0011427D03*
X0005040D03*
X0004677D03*
X0004323D03*
X0003968D03*
X0003614D03*
X0005209Y0011073D03*
X0004854D03*
X0004500D03*
X0004146D03*
X0003791D03*
X0005386Y0010718D03*
X0005040D03*
X0004677D03*
X0004323D03*
X0003968D03*
X0003614D03*
X0005209Y0010364D03*
X0004854D03*
X0004500D03*
X0004146D03*
X0003791D03*
X0031209Y0004636D03*
X0030854D03*
X0030500D03*
X0030146D03*
X0029791D03*
X0031386Y0004281D03*
X0031040D03*
X0030677D03*
X0030323D03*
X0029968D03*
X0029614D03*
X0031209Y0003927D03*
X0030854D03*
X0030500D03*
X0030146D03*
X0029791D03*
X0031386Y0003573D03*
X0031040D03*
X0030677D03*
X0030323D03*
X0029968D03*
X0029614D03*
X0031209Y0003218D03*
X0030854D03*
X0030500D03*
X0030146D03*
X0029791D03*
X0031386Y0002864D03*
X0031040D03*
X0030677D03*
X0030323D03*
X0029968D03*
X0029614D03*
X0024709Y0004636D03*
X0024354D03*
X0024000D03*
X0023646D03*
X0023291D03*
X0024886Y0004281D03*
X0024540D03*
X0024177D03*
X0023833D03*
X0023468D03*
X0023114D03*
X0024709Y0003927D03*
X0024354D03*
X0024000D03*
X0023646D03*
X0023291D03*
X0024886Y0003573D03*
X0024540D03*
X0024177D03*
X0023823D03*
X0023468D03*
X0023114D03*
X0024709Y0003218D03*
X0024354D03*
X0024000D03*
X0023646D03*
X0023291D03*
X0024886Y0002864D03*
X0024540D03*
X0024177D03*
X0023833D03*
X0023468D03*
X0023114D03*
X0018209Y0004636D03*
X0017854D03*
X0017500D03*
X0017146D03*
X0016791D03*
X0018386Y0004281D03*
X0018040D03*
X0017677D03*
X0017323D03*
X0016968D03*
X0016614D03*
X0018209Y0003927D03*
X0017854D03*
X0017500D03*
X0017146D03*
X0016791D03*
X0018386Y0003573D03*
X0018040D03*
X0017677D03*
X0017323D03*
X0016968D03*
X0016614D03*
X0018209Y0003218D03*
X0017854D03*
X0017500D03*
X0017146D03*
X0016791D03*
X0018386Y0002864D03*
X0018040D03*
X0017677D03*
X0017323D03*
X0016968D03*
X0016614D03*
X0011709Y0004636D03*
X0011354D03*
X0011000D03*
X0010646D03*
X0010291D03*
X0011886Y0004281D03*
X0011540D03*
X0011177D03*
X0010823D03*
X0010468D03*
X0010114D03*
X0011709Y0003927D03*
X0011354D03*
X0011000D03*
X0010646D03*
X0010291D03*
X0011886Y0003573D03*
X0011540D03*
X0011177D03*
X0010823D03*
X0010468D03*
X0010114D03*
X0011709Y0003218D03*
X0011354D03*
X0011000D03*
X0010646D03*
X0010291D03*
X0011886Y0002864D03*
X0011540D03*
X0011177D03*
X0010823D03*
X0010468D03*
X0010114D03*
X0005209Y0004636D03*
X0004854D03*
X0004500D03*
X0004146D03*
X0003791D03*
X0005386Y0004281D03*
X0005031D03*
X0004677D03*
X0004323D03*
X0003968D03*
X0003614D03*
X0005209Y0003927D03*
X0004854D03*
X0004500D03*
X0004146D03*
X0003791D03*
X0005386Y0003573D03*
X0005040D03*
X0004677D03*
X0004323D03*
X0003968D03*
X0003614D03*
X0005209Y0003218D03*
X0004854D03*
X0004500D03*
X0004146D03*
X0003791D03*
X0005386Y0002864D03*
X0005040D03*
X0004677D03*
X0004323D03*
X0003968D03*
X0003614D03*
G54D69*
X0002650Y0002500D03*
Y0012450D03*
G54D70*
X0057138Y0007012D03*
X0056400Y0005700D03*
X0057059Y0004640D03*
X0060900Y0005350D03*
X0056300Y0009050D03*
X0030650Y0005550D03*
X0033600Y0007150D03*
Y0008850D03*
X0030350Y0009450D03*
G54D71*
X0030499Y0011250D03*
X0023999D03*
X0017499D03*
X0010999D03*
X0004499D03*
X0004500Y0003750D03*
X0011000D03*
X0017500D03*
X0024000D03*
X0030500D03*
M02*
