%
T1C0.0120F200S100
X001800Y010800
X001800Y011150
X001800Y011950
X001806Y010250
X001950Y003150
X002650Y002500
X002650Y003000
X001950Y004450
X002650Y012000
X002650Y012450
X002700Y010750
X003150Y013800
X003400Y001150
X003400Y001550
X003614Y002864
X003614Y003573
X003614Y004281
X003400Y006050
X003400Y006450
X003614Y010718
X003614Y011427
X003614Y012136
X003700Y008550
X003791Y003218
X003791Y003927
X003791Y004636
X003791Y010364
X003791Y011073
X003791Y011781
X003800Y001150
X003968Y002864
X003968Y003573
X003968Y004281
X003800Y006450
X003968Y010718
X003968Y011427
X003968Y012136
X003800Y013800
X004000Y009450
X004146Y003218
X004146Y003927
X004146Y004636
X004146Y010364
X004146Y011073
X004146Y011781
X004200Y013800
X004323Y002864
X004323Y003573
X004323Y004281
X004323Y010718
X004323Y011427
X004323Y012136
X004400Y009450
X004500Y003218
X004500Y003927
X004500Y004636
X004500Y010364
X004500Y011073
X004500Y011781
X004650Y005550
X004677Y002864
X004677Y003573
X004677Y004281
X004677Y010718
X004677Y011427
X004677Y012136
X004800Y001150
X004854Y003218
X004854Y003927
X004854Y004636
X004854Y010364
X004854Y011073
X004854Y011781
X005000Y005550
X005031Y004281
X005040Y002864
X005040Y003573
X005200Y001150
X005200Y008550
X005040Y010718
X005040Y011427
X005040Y012136
X005209Y003218
X005209Y003927
X005209Y004636
X005209Y010364
X005209Y011073
X005209Y011781
X005250Y013800
X005300Y006444
X005386Y002864
X005386Y003573
X005386Y004281
X005386Y010718
X005386Y011427
X005386Y012136
X005600Y008550
X005600Y008950
X005600Y013400
X005600Y013800
X005850Y001150
X006300Y004250
X006350Y002500
X006350Y003050
X006300Y012000
X006300Y012450
X007100Y010700
X007100Y011850
X007250Y003050
X007250Y003850
X007250Y004200
X007250Y004750
X008250Y010800
X008250Y011150
X008250Y011950
X008256Y010250
X008400Y003150
X009150Y002500
X008400Y004450
X009150Y012000
X009200Y003000
X009200Y010750
X009200Y012450
X009650Y013800
X009900Y001160
X009900Y001550
X010114Y002864
X010114Y003573
X010114Y004281
X009900Y006050
X009900Y006444
X010114Y010718
X010114Y011427
X010114Y012136
X010250Y008550
X010291Y003218
X010291Y003927
X010291Y004636
X010291Y010364
X010291Y011073
X010291Y011781
X010300Y001156
X010468Y002864
X010468Y003573
X010468Y004281
X010300Y006450
X010468Y010718
X010468Y011427
X010468Y012136
X010300Y013800
X010500Y009400
X010646Y003218
X010646Y003927
X010646Y004636
X010646Y010364
X010646Y011073
X010646Y011781
X010700Y013800
X010823Y002864
X010823Y003573
X010823Y004281
X010823Y010718
X010823Y011427
X010823Y012136
X010900Y009450
X011000Y003218
X011000Y003927
X011000Y004636
X011000Y010364
X011000Y011073
X011000Y011781
X011150Y005550
X011177Y002864
X011177Y003573
X011177Y004281
X011177Y010718
X011177Y011427
X011177Y012136
X011250Y001156
X011354Y003218
X011354Y003927
X011354Y004636
X011354Y010364
X011354Y011073
X011354Y011781
X011500Y005550
X011540Y002864
X011540Y003573
X011540Y004281
X011540Y010718
X011540Y011427
X011540Y012136
X011700Y001150
X011709Y003218
X011709Y003927
X011709Y004636
X011700Y008550
X011709Y010364
X011709Y011073
X011709Y011781
X011700Y013794
X011800Y006450
X011886Y002864
X011886Y003573
X011886Y004281
X011886Y010718
X011886Y011427
X011886Y012136
X012100Y008550
X012100Y008950
X012100Y013400
X012350Y001150
X012800Y002500
X012800Y003000
X012800Y004250
X013550Y010550
X013550Y011850
X012800Y012000
X012800Y012450
X013747Y004750
X013750Y003050
X013750Y003850
X013750Y004200
X014750Y010800
X014750Y011150
X014750Y011950
X014756Y010250
X014850Y003150
X014900Y004450
X015700Y002500
X015700Y003000
X015700Y010750
X015700Y012000
X015700Y012450
X016150Y013800
X016400Y001150
X016400Y001550
X016614Y002864
X016614Y003573
X016614Y004281
X016400Y006050
X016400Y006450
X016614Y010718
X016614Y011427
X016614Y012136
X016700Y008550
X016791Y003218
X016791Y003927
X016791Y004636
X016791Y010364
X016791Y011073
X016791Y011781
X016800Y001150
X016968Y002864
X016968Y003573
X016968Y004281
X016800Y006450
X016968Y010718
X016968Y011427
X016968Y012136
X016800Y013800
X017000Y009400
X017146Y003218
X017146Y003927
X017146Y004636
X017146Y010364
X017146Y011073
X017146Y011781
X017200Y013800
X017323Y002864
X017323Y003573
X017323Y004281
X017323Y010718
X017323Y011427
X017323Y012136
X017400Y009450
X017500Y003218
X017500Y003927
X017500Y004636
X017500Y010364
X017500Y011073
X017500Y011781
X017650Y005550
X017677Y002864
X017677Y003573
X017677Y004281
X017677Y010718
X017677Y011427
X017677Y012136
X017750Y001150
X017854Y003218
X017854Y003927
X017854Y004636
X017854Y010364
X017854Y011073
X017854Y011781
X018000Y005550
X018040Y002864
X018040Y003573
X018040Y004281
X018040Y010718
X018040Y011427
X018040Y012136
X018200Y001150
X018209Y003218
X018209Y003927
X018209Y004636
X018200Y008550
X018209Y010364
X018209Y011073
X018209Y011781
X018200Y013794
X018300Y006444
X018386Y002864
X018386Y003573
X018386Y004281
X018386Y010718
X018386Y011427
X018386Y012136
X018600Y008550
X018600Y008950
X018600Y013400
X018600Y013800
X018850Y001150
X019300Y002500
X019300Y003000
X019300Y004250
X019900Y008500
X019300Y012000
X019300Y012450
X020050Y010550
X020050Y011850
X020250Y003050
X020250Y003850
X020250Y004200
X020250Y004750
X021250Y008500
X021350Y007000
X021350Y007450
X021250Y010250
X021250Y010750
X021250Y011150
X021250Y011950
X021400Y003150
X021400Y004450
X021700Y007000
X021700Y007450
X022050Y007000
X022050Y007450
X022200Y002500
X022200Y003000
X022200Y010750
X022200Y012000
X022200Y012450
X022650Y013800
X022900Y001150
X022900Y001550
X022900Y006050
X022900Y006444
X023114Y002864
X023114Y003573
X023114Y004281
X023200Y008550
X023114Y010718
X023114Y011427
X023114Y012136
X023291Y003218
X023291Y003927
X023291Y004636
X023300Y001156
X023300Y006450
X023291Y010364
X023291Y011073
X023291Y011781
X023300Y013800
X023468Y002864
X023468Y003573
X023468Y004281
X023500Y009400
X023468Y010718
X023468Y011427
X023468Y012136
X023646Y003218
X023646Y003927
X023646Y004636
X023646Y010364
X023646Y011073
X023646Y011781
X023700Y013800
X023823Y003573
X023833Y002864
X023833Y004281
X023823Y010718
X023823Y011427
X023823Y012136
X023850Y009450
X024000Y003218
X024000Y003927
X024000Y004636
X024000Y010364
X024000Y011073
X024000Y011781
X024150Y005550
X024177Y002864
X024177Y003573
X024177Y004281
X024177Y010718
X024177Y011427
X024177Y012136
X024250Y001150
X024354Y003218
X024354Y003927
X024354Y004636
X024354Y010364
X024354Y011073
X024354Y011781
X024500Y005550
X024540Y002864
X024540Y003573
X024540Y004281
X024540Y010718
X024540Y011427
X024540Y012136
X024700Y001150
X024709Y003218
X024709Y003927
X024709Y004636
X024700Y008550
X024709Y010364
X024709Y011073
X024709Y011781
X024750Y013800
X024800Y006450
X024886Y002864
X024886Y003573
X024886Y004281
X025100Y008550
X025100Y008950
X024886Y010718
X024886Y011427
X024886Y012136
X025100Y013400
X025100Y013794
X025350Y001150
X025800Y002550
X025800Y003000
X025800Y004250
X025800Y012000
X025800Y012450
X026550Y010700
X026550Y011850
X026750Y003050
X026750Y003850
X026750Y004200
X026750Y004750
X027750Y010250
X027750Y010800
X027750Y011150
X027750Y011950
X027900Y003150
X027900Y004450
X028700Y002550
X028700Y003000
X028700Y010750
X028700Y012000
X028700Y012450
X029150Y013800
X029400Y000850
X029400Y001550
X029614Y002864
X029614Y003573
X029614Y004281
X029400Y006050
X029400Y006450
X029614Y010718
X029614Y011427
X029614Y012136
X029700Y008550
X029750Y006450
X029791Y003218
X029791Y003927
X029791Y004636
X029800Y001150
X029791Y010364
X029791Y011073
X029791Y011781
X029800Y013800
X029968Y002864
X029968Y003573
X029968Y004281
X030000Y009400
X029968Y010718
X029968Y011427
X029968Y012136
X030146Y003218
X030146Y003927
X030146Y004636
X030146Y010364
X030146Y011073
X030146Y011781
X030200Y013800
X030323Y002864
X030323Y003573
X030323Y004281
X030350Y009450
X030323Y010718
X030323Y011427
X030323Y012136
X030500Y003218
X030500Y003927
X030500Y004636
X030650Y005550
X030500Y010364
X030500Y011073
X030500Y011781
X030677Y002864
X030677Y003573
X030677Y004281
X030750Y001150
X030677Y010718
X030677Y011427
X030677Y012136
X030854Y003218
X030854Y003927
X030854Y004636
X031000Y005550
X030854Y010364
X030854Y011073
X030854Y011781
X031040Y002864
X031040Y003573
X031040Y004281
X031200Y001150
X031200Y008550
X031040Y010718
X031040Y011427
X031040Y012136
X031209Y003218
X031209Y003927
X031209Y004636
X031209Y010364
X031209Y011073
X031209Y011781
X031250Y013800
X031300Y006450
X031386Y002864
X031386Y003573
X031386Y004281
X031386Y010718
X031386Y011427
X031386Y012136
X031600Y008550
X031600Y008950
X031600Y013400
X031600Y013800
X031850Y001150
X032350Y002550
X032350Y003000
X032400Y004150
X032900Y011850
X033094Y010750
X033247Y004200
X033250Y003850
X033247Y004750
X033350Y006150
X033500Y006650
X033600Y007150
X033600Y008850
X033650Y003250
X033900Y008100
X033950Y006150
X034200Y009250
X034250Y006150
X034287Y009950
X034500Y008150
X034500Y008950
X034700Y005500
X035000Y005250
X035250Y007400
X035300Y005500
X035450Y007200
X035600Y005250
X037410Y012630
X037410Y013570
X037450Y000950
X037700Y013100
X037825Y001700
X038010Y012630
X038010Y013570
X038200Y000950
X038450Y011400
X038575Y001700
X038950Y000950
X039610Y012630
X039610Y013570
X039900Y013100
X040210Y012630
X040210Y013570
X040450Y000950
X040650Y011400
X040825Y001700
X041200Y000950
X041575Y001700
X041950Y000950
X042325Y001700
X042850Y007000
X042850Y007300
X043650Y008300
X043850Y008300
X043850Y010500
X043650Y010500
X044350Y009104
X044527Y008750
X044527Y009459
X044350Y009813
X044527Y010167
X044600Y005100
X044704Y009104
X044704Y009813
X044750Y002450
X045050Y006250
X045050Y006450
X045050Y006950
X045250Y001150
X045250Y002400
X045250Y002750
X045250Y003100
X045300Y006950
X045600Y005250
X045650Y005850
X045650Y006100
X045800Y009350
X045800Y010150
X045850Y003450
X045850Y003950
X045850Y004300
X045860Y003160
X046050Y002144
X046050Y006400
X046050Y007000
X046100Y005400
X046100Y005700
X046259Y006704
X046300Y007850
X046300Y008150
X046450Y006400
X046450Y007000
X046550Y005400
X046550Y005700
X046650Y010150
X046750Y007700
X046750Y008150
X046900Y003150
X046900Y003450
X046950Y004000
X046950Y004300
X047100Y002000
X047100Y002400
X047150Y007953
X047550Y001750
X047580Y007890
X047580Y008110
X047920Y007890
X047920Y008110
X047950Y008800
X048050Y001809
X048150Y003250
X048150Y003550
X048260Y005760
X048150Y006250
X048416Y003399
X048450Y001650
X048700Y003250
X048700Y003550
X048950Y011487
X048950Y013350
X048950Y014250
X049050Y007990
X049150Y000700
X049550Y003300
X049600Y006250
X049850Y012850
X049850Y014250
X049900Y000350
X050000Y000900
X050000Y002194
X050200Y004600
X050350Y005850
X050350Y006250
X050400Y000700
X050400Y013600
X050403Y002250
X050500Y006850
X050600Y003850
X050650Y005850
X050650Y006250
X050750Y007950
X050797Y002250
X050800Y001200
X050950Y012850
X050950Y014250
X051000Y003850
X051100Y007700
X051000Y008650
X051250Y008350
X051300Y008900
X051450Y004600
X051550Y006156
X051600Y007200
X051700Y012850
X051700Y013550
X051800Y004950
X051800Y005750
X051950Y006250
X052100Y004950
X052650Y002850
X052650Y003246
X052650Y003640
X052650Y004250
X052694Y010994
X052700Y008200
X052750Y014100
X052950Y007650
X052950Y008750
X053000Y006106
X053000Y006500
X053200Y012850
X053272Y008182
X053500Y003256
X053600Y007650
X053600Y008750
X053700Y013550
X053850Y008200
X053950Y003050
X053950Y003900
X053950Y006650
X054050Y006150
X054250Y009950
X054250Y010350
X054350Y005750
X054600Y003700
X054650Y002450
X054700Y006900
X054650Y014100
X054703Y005247
X054956Y006500
X055100Y005250
X055150Y012850
X055165Y002715
X055350Y006500
X055700Y012850
X055700Y014150
X055750Y008250
X055850Y004050
X055850Y004950
X055950Y007900
X056100Y005700
X056200Y003850
X056250Y004250
X056250Y006800
X056300Y009050
X056400Y005700
X056700Y001600
X056700Y010700
X056750Y014050
X057059Y004640
X057138Y007012
X057150Y002250
X057347Y001397
X057350Y004400
X057350Y005100
X057850Y006300
X058599Y001350
X058700Y007750
X060900Y005350
X058700Y012850
X058700Y014300
X061100Y013650
T3C0.1260F200S100
X001350Y001400
X001350Y013600
X014250Y007500
X034000Y001400
X034000Y013600
X053150Y001400
T2C0.0512F200S100
X059800Y007750
X059800Y009718
X059800Y011687
X059800Y013655
M30
